<svg width="284" height="329" viewBox="0 0 284 329" fill="none" xmlns="http://www.w3.org/2000/svg">
<path d="M197.776 284.223H110.112C95.0767 284.223 82.7759 271.956 82.7759 256.963V179.725C82.7759 164.731 95.0767 152.465 110.112 152.465H197.777C212.812 152.465 225.113 164.731 225.113 179.725V256.963C225.113 271.955 212.811 284.223 197.776 284.223Z" fill="white"/>
<path d="M197.796 152.457C212.832 152.457 225.133 164.724 225.133 179.717V256.955C225.133 271.948 212.832 284.215 197.796 284.215H110.133C95.0973 284.215 82.7964 271.948 82.7964 256.955V179.717C82.7964 164.724 95.0973 152.457 110.133 152.457H197.796ZM197.796 148.148H110.133C105.875 148.148 101.735 148.988 97.8293 150.643C94.064 152.238 90.6801 154.517 87.7716 157.418C84.863 160.319 82.5767 163.695 80.9767 167.448C79.3175 171.343 78.4756 175.471 78.4756 179.717V256.955C78.4756 261.201 79.3175 265.329 80.9767 269.224C82.5767 272.979 84.8618 276.353 87.7716 279.254C90.6801 282.154 94.0652 284.434 97.8293 286.029C101.735 287.684 105.875 288.524 110.133 288.524H197.798C202.056 288.524 206.195 287.684 210.101 286.029C213.866 284.434 217.25 282.155 220.159 279.254C223.067 276.353 225.354 272.978 226.953 269.224C228.613 265.329 229.455 261.201 229.455 256.955V179.717C229.455 175.471 228.613 171.343 226.953 167.448C225.354 163.693 223.068 160.319 220.159 157.418C217.25 154.518 213.865 152.238 210.101 150.643C206.195 148.988 202.054 148.148 197.796 148.148Z" fill="#00227B"/>
<path d="M223.143 236.474C209.494 238.069 195.89 238.462 195.89 238.462C195.89 238.462 188.962 204.011 187.041 176.996C185.626 156.98 186.957 141.051 195.89 146.246C200 148.637 204.733 153.139 209.668 158.85C228.18 180.277 249.449 218.753 250.615 226.737C251.368 231.872 237.237 234.817 223.143 236.474Z" fill="white"/>
<path d="M194.067 240.743L193.695 238.89C193.653 238.679 189.416 217.51 186.674 195.592C185.056 182.669 184.266 172 184.323 163.881C184.401 152.791 186.016 146.501 189.405 144.087C190.892 143.027 193.423 142.205 197.028 144.301C208.911 151.215 223.994 173.239 231.927 185.752C237.218 194.099 242.283 202.873 246.19 210.456C248.943 215.799 252.332 222.902 252.845 226.4C252.994 227.415 252.894 228.955 251.573 230.524C249.663 232.792 245.697 234.567 239.088 236.108C234.243 237.238 228.017 238.211 220.583 238.999C207.997 240.332 196.08 240.685 195.961 240.689L194.067 240.743ZM192.801 147.481C192.367 147.481 192.14 147.644 192.016 147.731C190.55 148.775 186.158 155.268 191.128 195.015C193.38 213.015 196.647 230.515 197.734 236.141C201.566 235.987 210.659 235.545 220.133 234.541C242.128 232.208 247.041 228.939 248.134 227.643C248.436 227.285 248.411 227.119 248.4 227.047C247.762 222.695 239.465 206.024 228.131 188.145C215.004 167.44 202.844 152.869 194.765 148.17C193.849 147.636 193.225 147.481 192.801 147.481Z" fill="#00227B"/>
<path d="M126.451 144.955L123.688 165.794L122.116 177.642L118.765 202.939C118.765 202.939 112.639 207.093 102.449 210.385C98.6417 211.618 94.2567 212.72 89.4174 213.442C81.5065 214.629 72.3599 214.78 62.4503 212.759C36.9548 207.551 21.6541 188.667 15.0296 179.171C2.22632 160.844 0.256008 155.889 3.81515 148.174C6.53235 142.261 11.1878 141.182 11.1878 141.182C11.1878 141.182 10.9581 136.457 14.7086 134.776C25.949 129.742 40.4288 143.186 40.4288 143.186C40.4288 143.186 40.9683 128.729 48.7273 132.067C54.0728 134.367 55.2851 150.107 55.2851 150.107C55.2851 150.107 62.4602 159.301 73.8586 160.521C79.8152 161.158 88.0581 159.435 96.2443 156.932C96.3394 156.904 96.4356 156.877 96.5307 156.842C100.894 155.499 105.228 153.942 109.197 152.402C110.977 151.713 112.683 151.024 114.283 150.364C121.436 147.407 126.451 144.955 126.451 144.955Z" fill="white"/>
<path opacity="0.35" d="M15.0253 179.166C21.6559 188.659 36.9542 207.547 62.4472 212.754C78.4158 216.011 92.4091 213.618 102.45 210.376C112.639 207.088 118.764 202.931 118.764 202.931L119.213 182.969C119.213 182.969 112.27 176.296 105.804 179.017C98.0337 182.286 100.524 193.396 89.4265 196.486C58.5769 205.077 33.516 189.381 25.4521 182.491C14.2648 172.933 11.3464 166.913 9.77236 164.429C6.51444 159.289 3.99847 155.25 2.58 151.633C1.13437 157.751 4.22069 163.694 15.0253 179.166Z" fill="#00227B"/>
<path d="M77.8268 216.564C72.5035 216.564 67.2024 216.031 61.9927 214.966C50.5326 212.626 39.8404 207.357 30.2147 199.303C24.0199 194.12 18.288 187.782 13.1795 180.466C6.94512 171.537 2.98229 165.404 1.17494 160.477C-0.557105 155.756 -0.385506 151.925 1.76504 147.252C3.88226 142.65 7.08339 140.534 9.01789 139.627C9.33393 137.26 10.5648 134.191 13.7819 132.751C22.9224 128.656 33.4702 134.993 38.691 138.893C38.7416 138.628 38.7984 138.357 38.8589 138.083C39.7243 134.212 41.2181 131.585 43.2983 130.277C44.576 129.473 46.708 128.777 49.6153 130.029C52.5646 131.3 54.7164 135.041 56.1954 141.466C56.9521 144.758 57.3163 147.848 57.4534 149.217C59.041 151.009 65.2457 157.362 74.0948 158.308C90.2486 160.034 125.104 143.129 125.455 142.958C126.198 142.595 127.082 142.669 127.754 143.151C128.425 143.633 128.777 144.445 128.67 145.263L120.988 203.244C120.904 203.877 120.555 204.443 120.025 204.801C119.769 204.976 113.608 209.116 103.365 212.454C97.3657 214.409 91.193 215.681 85.0204 216.239C82.6217 216.456 80.2218 216.564 77.8268 216.564ZM11.7018 143.372C11.4116 143.45 7.98336 144.475 5.84639 149.118C2.96871 155.372 3.67609 159.017 16.8646 177.906C29.2642 195.663 45.1797 206.961 62.8927 210.577C79.0317 213.873 93.0497 211.101 101.968 208.195C109.528 205.732 114.742 202.793 116.67 201.62L123.677 148.733C120.017 150.4 114.029 153.018 107.31 155.53C92.3522 161.119 81.0143 163.551 73.6158 162.761C61.41 161.457 53.8251 151.904 53.5078 151.498C53.2375 151.151 53.0745 150.732 53.0412 150.294C53.0387 150.257 52.7338 146.434 51.8054 142.419C50.2413 135.649 48.3697 134.37 47.8339 134.14C46.4932 133.562 45.9142 133.925 45.6957 134.062C43.8081 135.246 42.7859 140.168 42.6625 143.284C42.6279 144.158 42.0847 144.934 41.2736 145.267C40.4613 145.601 39.5305 145.434 38.8873 144.837C38.754 144.713 25.363 132.472 15.6214 136.836C13.377 137.842 13.4178 140.875 13.4239 141.093C13.4906 142.198 12.7869 143.143 11.7018 143.372Z" fill="#00227B"/>
<path d="M42.2642 143.179C42.3161 143.808 42.2222 144.38 42.0963 144.876C42.0333 145.132 41.9556 145.354 41.8766 145.582C41.7963 145.795 41.7087 146.011 41.6222 146.205C41.2679 147 40.8852 147.659 40.5211 148.298C40.1556 148.933 39.8038 149.537 39.4766 150.143L39.2371 150.598C39.1618 150.751 39.0816 150.902 39.0088 151.056L38.7964 151.519L38.594 151.987L38.41 152.462L38.2396 152.945C38.1816 153.106 38.1384 153.271 38.0866 153.435C38.0322 153.599 37.9915 153.766 37.9471 153.932C37.7767 154.602 37.6298 155.291 37.5446 156.002C37.452 156.711 37.3928 157.438 37.3755 158.178C37.357 158.55 37.3644 158.922 37.3607 159.301C37.3545 159.49 37.3705 159.678 37.3718 159.868C37.3755 160.059 37.3817 160.25 37.3804 160.443V160.457C37.3804 160.606 37.2594 160.726 37.1088 160.726C37.0039 160.726 36.9138 160.667 36.8693 160.58C36.5088 159.883 36.1829 159.159 35.9311 158.403C35.6657 157.65 35.4755 156.865 35.336 156.061C35.062 154.453 35.0681 152.752 35.3694 151.09L35.4941 150.469C35.5422 150.265 35.5953 150.062 35.6459 149.856C35.7002 149.653 35.7607 149.453 35.8175 149.25C35.8768 149.05 35.9471 148.854 36.0126 148.656C36.2829 147.868 36.6175 147.119 36.9619 146.418C37.3051 145.717 37.6705 145.056 37.9668 144.482C38.2792 143.901 38.4557 143.43 38.5594 143.175L38.7767 142.642C39.1544 141.717 40.2124 141.273 41.1395 141.65C41.7951 141.918 42.2086 142.523 42.2642 143.179Z" fill="#00227B"/>
<path d="M59.9721 214.298C59.4055 214.298 58.8586 213.985 58.5895 213.445C58.2092 212.684 58.5203 211.76 59.2833 211.381C65.509 208.293 69.7632 198.653 71.5829 183.505C72.994 171.765 72.4076 160.847 72.4014 160.738C72.3545 159.89 73.0051 159.164 73.8557 159.116C74.7025 159.068 75.4346 159.718 75.4828 160.566C75.4889 160.677 76.0902 171.828 74.6519 183.83C73.8013 190.932 72.4125 196.958 70.5237 201.741C68.0793 207.931 64.7596 212.101 60.6585 214.136C60.4376 214.246 60.203 214.298 59.9721 214.298Z" fill="#00227B"/>
<g opacity="0.35">
<g opacity="0.35">
<g opacity="0.35">
<g opacity="0.35">
<path opacity="0.35" d="M259.142 313.349V313.035C256.675 313.141 259.142 313.349 259.142 313.349Z" fill="#00227B"/>
</g>
</g>
</g>
</g>
<path d="M228.013 275.561H79.7588C79.7588 275.561 80.6625 250.046 89.4326 213.457C92.9473 198.783 97.7311 182.327 104.227 165.021C105.788 160.866 107.45 156.662 109.213 152.417C114.143 140.575 119.892 128.448 126.597 116.32H181.177C186.718 126.347 191.608 136.37 195.921 146.24C198.711 152.624 201.26 158.939 203.584 165.142C213.73 192.186 219.688 217.146 223.174 236.468C227.474 260.304 228.013 275.561 228.013 275.561Z" fill="white"/>
<path d="M207.647 184.149C210.513 187.339 211.822 191.052 213.032 194.781C213.64 196.646 214.238 198.515 214.81 200.392C215.096 201.33 215.39 202.267 215.646 203.214C215.909 204.158 216.164 205.106 216.421 206.053L217.172 208.898C217.419 209.847 217.668 210.795 217.9 211.749L219.264 217.473C219.486 218.429 219.73 219.378 219.947 220.334L220.597 223.203L221.265 226.068C221.49 227.022 221.722 227.975 221.932 228.932L223.218 234.673C223.439 235.628 223.629 236.591 223.833 237.55L224.436 240.429L224.737 241.868L224.887 242.589L225.028 243.31L225.592 246.197C225.78 247.16 225.974 248.121 226.178 249.08C226.373 250.042 226.569 251.003 226.774 251.963C227.633 255.796 228.26 259.677 228.521 263.609C228.554 264.101 228.592 264.591 228.616 265.084L228.679 266.563C228.711 267.55 228.738 268.536 228.723 269.53C228.717 270.521 228.695 271.513 228.631 272.509C228.573 273.505 228.49 274.501 228.339 275.504C228.311 275.697 228.129 275.83 227.935 275.802C227.803 275.782 227.7 275.692 227.655 275.577L227.654 275.572C226.945 273.694 226.366 271.808 225.82 269.922C225.55 268.979 225.291 268.034 225.041 267.09L224.68 265.67C224.566 265.196 224.449 264.723 224.331 264.25C223.871 262.355 223.467 260.455 223.102 258.547C222.927 257.592 222.768 256.634 222.622 255.674C222.465 254.715 222.321 253.755 222.171 252.794C222.026 251.833 221.873 250.874 221.717 249.915C221.552 248.957 221.368 248.003 221.181 247.049L220.622 244.187L220.483 243.471L220.333 242.757L220.035 241.331L219.437 238.476C219.235 237.525 219.046 236.571 218.827 235.623L217.551 229.931C217.346 228.98 217.106 228.037 216.88 227.092L216.183 224.259L215.468 221.431C215.352 220.96 215.22 220.491 215.094 220.022L214.71 218.615L213.168 212.989C212.635 211.119 212.089 209.252 211.569 207.379C211.31 206.442 211.051 205.505 210.799 204.566L210.611 203.861L210.413 203.16L210.021 201.755C209.499 199.883 209.004 198.001 208.516 196.118L208.158 194.702C208.039 194.231 207.907 193.763 207.781 193.293C207.53 192.352 207.32 191.399 207.162 190.43C207.005 189.46 206.895 188.475 206.853 187.468C206.831 186.965 206.829 186.455 206.847 185.938C206.867 185.421 206.9 184.898 206.992 184.357L206.995 184.336C207.03 184.132 207.224 183.994 207.429 184.029C207.516 184.045 207.593 184.089 207.647 184.149Z" fill="#00227B"/>
<path d="M79.4008 275.532C79.1724 275.025 79.0156 274.521 78.8687 274.015C78.7218 273.508 78.6119 273.007 78.5144 272.502C78.3169 271.493 78.2107 270.489 78.1514 269.488C78.1243 268.987 78.1058 268.488 78.107 267.989C78.1082 267.49 78.128 266.994 78.1514 266.498L78.2354 265.01C78.2613 264.514 78.2922 264.018 78.3329 263.523C78.4872 261.543 78.6378 259.561 78.8699 257.591C78.9749 256.604 79.0921 255.619 79.2082 254.633C79.265 254.141 79.3415 253.651 79.4082 253.158L79.6168 251.685L80.0526 248.741C80.2057 247.761 80.3835 246.786 80.5501 245.809C80.8909 243.855 81.2118 241.899 81.6007 239.955C81.9785 238.009 82.3241 236.057 82.7105 234.115C83.1031 232.173 83.4858 230.229 83.8636 228.284C83.9599 227.798 84.0463 227.31 84.1512 226.827L84.4623 225.374L85.0833 222.469L85.7043 219.563C85.7574 219.321 85.8055 219.078 85.8611 218.837L86.0314 218.114L86.3722 216.668L87.7338 210.883C87.8437 210.4 87.9672 209.92 88.0894 209.44C88.2079 208.959 88.3289 208.479 88.4425 207.997C88.6721 207.033 88.8992 206.069 89.1177 205.103C89.3412 204.138 89.5597 203.17 89.7906 202.206C90.0128 201.24 90.2918 200.289 90.5708 199.338C90.856 198.389 91.1584 197.444 91.4757 196.504C91.7942 195.565 92.1325 194.63 92.4744 193.698L93.0028 192.305C93.0917 192.073 93.1904 191.844 93.2867 191.614C93.3843 191.385 93.4781 191.155 93.5793 190.926C93.9781 190.011 94.3818 189.1 94.8114 188.198C95.2361 187.293 95.6793 186.396 96.1447 185.507C96.6101 184.618 97.0928 183.735 97.6286 182.871C97.731 182.705 97.9495 182.653 98.1162 182.756C98.2298 182.827 98.2903 182.951 98.2841 183.077V183.081C98.0619 187.144 97.299 191.01 96.5459 194.874C96.3521 195.838 96.1545 196.801 95.9373 197.758C95.7188 198.715 95.4842 199.667 95.2348 200.613C94.7139 202.502 94.1904 204.389 93.6448 206.273C93.3719 207.214 93.1065 208.157 92.8435 209.102C92.7102 209.573 92.5855 210.047 92.4584 210.52C92.3337 210.994 92.2053 211.466 92.0991 211.945L90.7523 217.669L90.4152 219.099L90.2473 219.814C90.1918 220.053 90.1436 220.293 90.0918 220.532L89.477 223.407L88.8622 226.281L88.5548 227.719C88.4523 228.198 88.3659 228.681 88.2709 229.161C86.6931 236.841 85.6327 244.614 84.6018 252.372L84.2019 255.279C84.0772 256.249 83.9525 257.22 83.8167 258.188L83.0216 264.003C82.8772 264.972 82.7612 265.94 82.6303 266.909C82.5624 267.393 82.4908 267.878 82.4007 268.361C82.3118 268.843 82.2241 269.326 82.1155 269.807C81.8995 270.77 81.6316 271.73 81.3143 272.688C81.1563 273.167 80.9674 273.647 80.7736 274.125C80.5748 274.602 80.3588 275.082 80.0921 275.559L80.0896 275.564C79.9859 275.748 79.7526 275.815 79.5674 275.712C79.4897 275.667 79.4341 275.603 79.4008 275.532Z" fill="#00227B"/>
<path d="M122.44 243.369C113.985 246.783 100.899 246.069 91.9781 244.991C86.6277 244.346 82.871 239.422 83.6599 234.105C84.3796 229.253 88.6622 225.725 93.5744 225.954C101.919 226.344 114.435 226.526 122.362 224.773" fill="white"/>
<g opacity="0.35">
<g opacity="0.35">
<g opacity="0.35">
<g opacity="0.35">
<path opacity="0.35" d="M122.441 243.354C113.984 246.772 100.898 246.051 91.9769 244.981C86.6265 244.335 82.871 239.408 83.6599 234.095C83.8167 233.01 84.1586 231.992 84.6438 231.062C86.0524 233.745 88.7202 235.722 91.9769 236.116C100.882 237.193 113.945 237.907 122.404 234.511L122.441 243.354Z" fill="#00227B"/>
</g>
</g>
</g>
</g>
<path d="M105.651 248.097C100.759 248.097 95.8949 247.695 91.7296 247.192C88.5396 246.807 85.7088 245.192 83.7583 242.644C81.804 240.09 80.988 236.934 81.4596 233.755C81.8892 230.859 83.3731 228.238 85.6372 226.375C87.9038 224.51 90.7679 223.558 93.7011 223.696C105.993 224.27 116.007 223.868 121.897 222.566C123.079 222.305 126.017 222.295 127.752 227.856C129.514 233.505 129.319 242.996 123.305 245.423C118.346 247.424 111.976 248.097 105.651 248.097ZM93.1407 228.16C89.5186 228.16 86.4397 230.791 85.9039 234.409C85.6113 236.381 86.1174 238.341 87.3298 239.925C88.5384 241.505 90.2926 242.506 92.2703 242.745C105.027 244.283 115.451 243.76 121.62 241.27C123.452 240.53 123.978 237.569 124.12 236.331C124.614 231.997 123.292 227.994 122.463 227.025C114.424 228.71 102.31 228.581 93.4925 228.169C93.374 228.162 93.2567 228.16 93.1407 228.16Z" fill="#00227B"/>
<path d="M187.126 243.369C195.581 246.783 208.667 246.069 217.588 244.991C222.938 244.346 226.695 239.422 225.906 234.105C225.186 229.253 220.904 225.725 215.992 225.954C207.647 226.344 195.131 226.526 187.204 224.773" fill="white"/>
<g opacity="0.35">
<g opacity="0.35">
<g opacity="0.35">
<g opacity="0.35">
<path opacity="0.35" d="M217.59 244.984C208.67 246.054 195.585 246.775 187.126 243.356L187.163 234.431C195.621 237.827 208.684 237.113 217.59 236.036C220.832 235.65 223.485 233.687 224.901 231.02C225.4 231.956 225.751 232.989 225.915 234.096C226.697 239.411 222.942 244.337 217.59 244.984Z" fill="#00227B"/>
</g>
</g>
</g>
</g>
<path d="M203.96 248.098C197.635 248.098 191.266 247.425 186.306 245.423C180.293 242.996 180.097 233.505 181.859 227.856C183.592 222.296 186.532 222.305 187.715 222.566C193.606 223.87 203.619 224.271 215.91 223.696C218.846 223.559 221.707 224.511 223.974 226.375C226.238 228.237 227.722 230.858 228.152 233.755C228.623 236.934 227.806 240.09 225.853 242.644C223.902 245.192 221.072 246.807 217.881 247.192C213.716 247.695 208.851 248.098 203.96 248.098ZM187.149 227.026C186.321 227.995 184.999 231.998 185.492 236.332C185.633 237.57 186.159 240.531 187.992 241.271C194.161 243.761 204.586 244.286 217.342 242.746C219.318 242.507 221.074 241.506 222.283 239.927C223.495 238.342 224.001 236.384 223.708 234.41C223.155 230.676 219.894 227.995 216.121 228.17C207.302 228.582 195.188 228.71 187.149 227.026Z" fill="#00227B"/>
<path d="M190.411 218.613V248.413C190.411 253.942 185.873 258.467 180.329 258.467H125.295C119.758 258.467 115.22 253.942 115.22 248.413V218.613C115.22 213.084 119.758 208.566 125.295 208.566H180.329C183.593 208.566 186.506 210.135 188.354 212.549C189.643 214.236 190.411 216.339 190.411 218.613Z" fill="white"/>
<g opacity="0.35">
<g opacity="0.35">
<g opacity="0.35">
<g opacity="0.35">
<path opacity="0.35" d="M190.412 218.607V248.407C190.412 253.936 185.877 258.459 180.332 258.459H125.3C119.755 258.459 115.22 253.936 115.22 248.407V237.261C123.485 245.664 139.74 250.939 154.648 251.018C159.438 251.044 163.302 247.266 163.644 242.5C163.648 242.452 163.652 242.404 163.655 242.357C164.022 238.177 167.475 234.791 171.672 234.489C176.452 234.146 180.488 237.667 180.961 242.243C188.177 233.359 186.063 217.919 188.358 212.543C189.648 214.232 190.412 216.332 190.412 218.607Z" fill="#00227B"/>
</g>
</g>
</g>
</g>
<path d="M180.321 260.709H125.285C118.491 260.709 112.962 255.196 112.962 248.42V218.617C112.962 211.841 118.491 206.328 125.285 206.328H180.321C187.116 206.328 192.644 211.841 192.644 218.617V248.42C192.644 255.196 187.116 260.709 180.321 260.709ZM125.285 210.807C120.967 210.807 117.454 214.31 117.454 218.617V248.42C117.454 252.726 120.967 256.23 125.285 256.23H180.321C184.639 256.23 188.153 252.726 188.153 248.42V218.617C188.153 214.31 184.639 210.807 180.321 210.807H125.285Z" fill="#00227B"/>
<path d="M172.304 242.189C177.104 242.189 180.995 238.309 180.995 233.522C180.995 228.736 177.104 224.855 172.304 224.855C167.504 224.855 163.613 228.736 163.613 233.522C163.613 238.309 167.504 242.189 172.304 242.189Z" fill="#22A7F0"/>
<g opacity="0.7">
<g opacity="0.7">
<g opacity="0.7">
<g opacity="0.7">
<path opacity="0.7" d="M180.996 233.535C180.996 234.129 180.939 234.705 180.827 235.268C180.025 231.305 176.514 228.323 172.308 228.323C168.095 228.323 164.584 231.305 163.782 235.268C163.67 234.705 163.613 234.13 163.613 233.535C163.613 228.747 167.505 224.871 172.308 224.871C177.103 224.871 180.996 228.747 180.996 233.535Z" fill="white"/>
</g>
</g>
</g>
</g>
<g opacity="0.35">
<g opacity="0.35">
<g opacity="0.35">
<g opacity="0.35">
<path opacity="0.35" d="M180.974 233.522C180.974 238.308 177.084 242.187 172.286 242.187C167.487 242.187 163.597 238.308 163.597 233.522C163.597 232.416 163.806 231.359 164.193 230.387C165.445 233.62 168.598 235.908 172.287 235.908C175.976 235.908 179.128 233.62 180.381 230.387C180.766 231.359 180.974 232.414 180.974 233.522Z" fill="#00227B"/>
</g>
</g>
</g>
</g>
<path d="M172.297 243.852C166.576 243.852 161.922 239.211 161.922 233.506C161.922 227.801 166.576 223.16 172.297 223.16C178.018 223.16 182.672 227.801 182.672 233.506C182.672 239.211 178.018 243.852 172.297 243.852ZM172.297 226.52C168.434 226.52 165.291 229.654 165.291 233.506C165.291 237.358 168.434 240.493 172.297 240.493C176.16 240.493 179.303 237.358 179.303 233.506C179.303 229.654 176.16 226.52 172.297 226.52Z" fill="#00227B"/>
<path d="M147.657 260.163C146.727 260.163 145.974 259.41 145.974 258.483V238.072L134.968 229.809V208.582C134.968 207.653 135.722 206.902 136.652 206.902C137.581 206.902 138.336 207.655 138.336 208.582V228.132L149.341 236.395V258.483C149.341 259.41 148.587 260.163 147.657 260.163Z" fill="#00227B"/>
<path d="M153.853 274.514C163.588 274.514 172.95 270.912 180.262 264.502C190.39 255.623 207.44 245.034 226.259 251.826C233.811 254.55 238.956 259.546 242.467 265.075C251.509 244.184 270.476 242.932 278.686 254.772C278.686 254.772 264.886 320.423 260.389 321.885C253.946 323.978 238.465 321.776 238.465 321.776C238.465 321.776 184.607 314.506 153.853 314.506C123.098 314.506 69.2405 321.776 69.2405 321.776C69.2405 321.776 53.7595 323.976 47.3165 321.885C42.8191 320.423 29.0195 254.772 29.0195 254.772C37.2279 242.931 56.1964 244.184 65.2381 265.075C68.7479 259.545 73.8946 254.55 81.4463 251.826C100.265 245.034 117.315 255.623 127.444 264.502C134.756 270.911 144.117 274.514 153.853 274.514Z" fill="white"/>
<g opacity="0.35">
<path d="M278.694 254.769C278.694 254.769 264.893 320.422 260.396 321.884C253.955 323.978 238.471 321.778 238.471 321.778C238.471 321.778 184.616 314.505 153.859 314.505C123.108 314.505 69.2465 321.778 69.2465 321.778C69.2465 321.778 53.7668 323.978 47.3275 321.884C42.8301 320.422 29.0293 254.769 29.0293 254.769C30.3823 252.82 32.0218 251.225 33.8637 250.016C38.2883 269.265 44.5646 294.399 47.3275 295.295C53.768 297.383 69.2465 295.183 69.2465 295.183C69.2465 295.183 123.108 280.636 153.859 280.636C184.616 280.636 238.471 295.183 238.471 295.183C238.471 295.183 253.955 297.383 260.396 295.295C263.159 294.399 269.435 269.265 273.86 250.016C275.701 251.226 277.341 252.821 278.694 254.769Z" fill="#00227B"/>
</g>
<path d="M55.6344 325.021C52.2567 325.021 48.9568 324.769 46.6359 324.015C45.0532 323.501 43.7224 321.751 41.225 313.993C39.7633 309.452 38.009 303.128 36.0128 295.197C32.4178 280.919 28.9143 264.905 27.5748 258.683C26.8736 255.426 27.9439 252.056 30.3698 249.892C35.0264 245.735 41.2682 244.134 47.4927 245.501C51.416 246.362 55.2332 248.405 58.5318 251.407C61.2638 253.895 63.639 257.003 65.6192 260.677C69.6376 255.563 74.6967 251.886 80.699 249.721C87.5 247.266 94.6158 246.778 101.85 248.272C107.691 249.478 113.63 251.979 119.501 255.706C120.548 256.371 120.856 257.755 120.19 258.799C119.525 259.843 118.136 260.149 117.089 259.486C105.004 251.814 93.2751 249.946 82.2273 253.933C75.9967 256.181 70.924 260.333 67.1525 266.275C66.7069 266.977 65.9069 267.374 65.0785 267.31C64.2489 267.245 63.523 266.728 63.1922 265.965C59.4145 257.235 53.3406 251.372 46.5273 249.877C41.7299 248.825 36.9325 250.047 33.366 253.232C32.1388 254.326 31.6031 256.056 31.9672 257.746C33.2314 263.618 36.5449 278.771 39.9966 292.614C41.8941 300.223 43.5755 306.414 44.9952 311.013C46.9828 317.452 48.021 319.341 48.3902 319.868C53.4641 321.286 64.8761 320.141 68.9401 319.564C68.9451 319.562 68.95 319.562 68.9549 319.561C69.4944 319.489 123.316 312.27 153.868 312.27C184.422 312.27 238.242 319.489 238.782 319.561C238.786 319.562 238.793 319.562 238.798 319.564C242.863 320.141 254.274 321.286 259.348 319.868C259.71 319.351 260.72 317.516 262.641 311.34C264.028 306.886 265.668 300.883 267.52 293.499C270.821 280.333 273.985 266.007 275.578 258.64C276.1 256.226 275.193 253.751 273.267 252.336C269.592 249.633 265.036 248.827 260.443 250.065C253.86 251.839 248.215 257.486 244.546 265.966C244.216 266.728 243.49 267.246 242.659 267.312C241.828 267.377 241.031 266.978 240.585 266.276C236.814 260.335 231.742 256.183 225.512 253.935C214.366 249.913 202.537 251.846 190.349 259.679C189.305 260.349 187.917 260.05 187.244 259.009C186.572 257.97 186.872 256.584 187.915 255.913C193.823 252.116 199.8 249.561 205.681 248.316C212.987 246.77 220.174 247.244 227.04 249.722C233.042 251.887 238.101 255.566 242.121 260.68C246.339 252.86 252.332 247.611 259.271 245.741C265.129 244.161 271.201 245.251 275.933 248.73C279.279 251.189 280.863 255.449 279.97 259.583C278.284 267.388 274.941 282.509 271.501 296.084C269.552 303.782 267.839 309.916 266.41 314.312C263.973 321.813 262.665 323.511 261.101 324.018C254.271 326.236 238.954 324.11 238.174 323.999C237.33 323.886 184.03 316.749 153.869 316.749C123.704 316.749 70.4092 323.886 69.5648 323.999C69.0463 324.069 62.1959 325.021 55.6344 325.021Z" fill="#00227B"/>
<path d="M256.394 321.875H260.394C265.09 321.875 269.348 319.129 271.261 314.852C277.248 301.481 288.165 272.102 277.939 254.173C277.642 253.65 277.323 253.147 276.986 252.664C276.986 252.664 267.169 243.76 260.116 256.356C253.529 268.124 239.701 318.44 256.394 321.875Z" fill="#AFAFB2"/>
<g opacity="0.7">
<g opacity="0.7">
<g opacity="0.7">
<g opacity="0.7">
<path opacity="0.7" d="M256.51 264.742C256.686 264.46 256.863 264.194 257.034 263.947C265.706 251.351 277.778 260.255 277.778 260.255C278.192 260.738 278.586 261.241 278.949 261.764C280.16 263.49 281.127 265.321 281.884 267.238C281.395 262.529 280.174 258.077 277.945 254.173C277.647 253.65 277.329 253.147 276.992 252.664C276.992 252.664 267.175 243.76 260.122 256.356C259.052 258.263 257.796 261.176 256.51 264.742Z" fill="white"/>
</g>
</g>
</g>
</g>
<path d="M281.848 268.592C281.746 268.592 281.644 268.584 281.54 268.567L257.003 264.482C255.994 264.314 255.313 263.363 255.48 262.356C255.648 261.35 256.604 260.67 257.611 260.838L282.149 264.923C283.157 265.09 283.839 266.042 283.671 267.049C283.52 267.954 282.736 268.592 281.848 268.592Z" fill="#00227B"/>
<path d="M281.682 281.812C281.6 281.812 281.517 281.807 281.433 281.794L252.729 277.946C251.715 277.811 251.004 276.881 251.14 275.871C251.276 274.86 252.208 274.151 253.223 274.286L281.927 278.134C282.94 278.27 283.651 279.199 283.516 280.21C283.391 281.138 282.596 281.812 281.682 281.812Z" fill="#00227B"/>
<path d="M279.133 294.762C279.057 294.762 278.982 294.757 278.906 294.748L249.767 291.192C248.752 291.067 248.03 290.147 248.153 289.135C248.278 288.123 249.2 287.401 250.216 287.526L279.355 291.082C280.37 291.207 281.092 292.127 280.968 293.139C280.854 294.076 280.055 294.762 279.133 294.762Z" fill="#00227B"/>
<path d="M274.506 308.866C274.45 308.866 274.394 308.863 274.337 308.858L248.286 306.514C247.267 306.423 246.517 305.524 246.608 304.509C246.699 303.493 247.601 302.743 248.619 302.836L274.67 305.18C275.689 305.271 276.44 306.17 276.348 307.185C276.261 308.144 275.453 308.866 274.506 308.866Z" fill="#00227B"/>
<g opacity="0.35">
<g opacity="0.35">
<g opacity="0.35">
<g opacity="0.35">
<path opacity="0.35" d="M256.395 321.88H260.394C265.091 321.88 269.348 319.133 271.261 314.856C272.809 311.391 274.691 306.858 276.452 301.722C274.051 305.696 269.172 308.216 263.815 308.216H259.048C252.263 307.044 249.71 300.409 249.608 291.711C247.315 306.392 247.944 320.14 256.395 321.88Z" fill="#00227B"/>
</g>
</g>
</g>
</g>
<path d="M260.393 323.729H256.393C256.267 323.729 256.142 323.716 256.019 323.691C252.786 323.025 250.343 320.934 248.756 317.476C245.017 309.324 246.834 295.121 249.018 284.642C251.687 271.836 255.808 260.269 258.499 255.463C260.973 251.043 264.09 248.499 267.762 247.902C273.394 246.986 278.037 251.128 278.232 251.304C278.334 251.397 278.426 251.501 278.505 251.613C278.874 252.14 279.225 252.698 279.55 253.268C284.224 261.462 285.215 272.671 282.498 286.581C280.288 297.89 276.087 308.61 272.952 315.611C270.746 320.543 265.817 323.729 260.393 323.729ZM256.594 320.036H260.393C264.356 320.036 267.958 317.709 269.568 314.108C272.624 307.282 276.718 296.842 278.861 285.877C281.406 272.858 280.553 262.501 276.329 255.094C276.1 254.69 275.854 254.296 275.598 253.919C274.905 253.354 271.753 250.983 268.337 251.551C265.846 251.965 263.624 253.887 261.733 257.264C259.242 261.713 255.21 273.085 252.645 285.394C249.718 299.442 249.533 310.29 252.125 315.941C253.177 318.234 254.64 319.576 256.594 320.036Z" fill="#00227B"/>
<path d="M51.3424 321.875H47.3425C42.6463 321.875 38.3884 319.129 36.4762 314.852C30.4887 301.481 19.5718 272.102 29.7974 254.173C30.0949 253.65 30.4134 253.147 30.7504 252.664C30.7504 252.664 40.5674 243.76 47.6202 256.356C54.2077 268.124 68.0344 318.44 51.3424 321.875Z" fill="#AFAFB2"/>
<g opacity="0.7">
<g opacity="0.7">
<g opacity="0.7">
<g opacity="0.7">
<path opacity="0.7" d="M51.207 264.742C51.0305 264.46 50.8539 264.194 50.6823 263.947C42.011 251.351 29.9386 260.255 29.9386 260.255C29.525 260.738 29.1312 261.241 28.7682 261.764C27.5572 263.49 26.5893 265.321 25.8325 267.238C26.3214 262.529 27.5423 258.077 29.7719 254.173C30.0694 253.65 30.3879 253.147 30.725 252.664C30.725 252.664 40.5419 243.76 47.5948 256.356C48.6639 258.263 49.9206 261.176 51.207 264.742Z" fill="white"/>
</g>
</g>
</g>
</g>
<path d="M25.8818 268.591C24.993 268.591 24.209 267.951 24.0572 267.049C23.8893 266.043 24.5695 265.091 25.5794 264.923L50.1168 260.838C51.1254 260.67 52.0797 261.349 52.2476 262.356C52.4155 263.362 51.7353 264.313 50.7255 264.482L26.188 268.567C26.0855 268.584 25.9831 268.591 25.8818 268.591Z" fill="#00227B"/>
<path d="M26.0379 281.812C25.1243 281.812 24.3293 281.139 24.2046 280.212C24.0688 279.201 24.7799 278.271 25.7934 278.136L54.4987 274.286C55.5135 274.15 56.4443 274.86 56.5814 275.871C56.7172 276.882 56.0061 277.811 54.9925 277.946L26.2873 281.796C26.2033 281.807 26.1206 281.812 26.0379 281.812Z" fill="#00227B"/>
<path d="M28.5919 294.762C27.6697 294.762 26.871 294.076 26.7562 293.139C26.6315 292.127 27.3537 291.206 28.3697 291.082L57.5083 287.525C58.5231 287.402 59.4465 288.121 59.5712 289.134C59.6959 290.146 58.9737 291.067 57.9577 291.192L28.8191 294.748C28.7425 294.758 28.666 294.762 28.5919 294.762Z" fill="#00227B"/>
<path d="M33.1849 308.865C32.2368 308.865 31.4294 308.144 31.343 307.185C31.2516 306.169 32.0022 305.272 33.0207 305.18L59.0717 302.836C60.0914 302.745 60.9902 303.493 61.0828 304.509C61.1741 305.524 60.4235 306.422 59.405 306.514L33.354 308.858C33.2972 308.863 33.2404 308.865 33.1849 308.865Z" fill="#00227B"/>
<g opacity="0.35">
<g opacity="0.35">
<g opacity="0.35">
<g opacity="0.35">
<path opacity="0.35" d="M51.3342 321.88H47.3344C42.6382 321.88 38.3803 319.133 36.468 314.856C34.9199 311.391 33.0373 306.858 31.2769 301.722C33.678 305.696 38.5569 308.216 43.9135 308.216H48.6812C55.4662 307.044 58.0192 300.409 58.1204 291.711C60.4142 306.392 59.7834 320.14 51.3342 321.88Z" fill="#00227B"/>
</g>
</g>
</g>
</g>
<path d="M51.3138 323.728H47.314C41.8907 323.728 36.9612 320.541 34.7564 315.61C31.6219 308.61 27.4196 297.89 25.2098 286.581C22.4926 272.671 23.4839 261.462 28.1578 253.267C28.4825 252.697 28.8343 252.14 29.2022 251.613C29.2812 251.5 29.3726 251.397 29.475 251.304C29.6701 251.127 34.3132 246.986 39.9451 247.902C43.6166 248.499 46.7337 251.043 49.2077 255.463C51.899 260.269 56.0198 271.836 58.6889 284.642C60.8728 295.121 62.69 309.324 58.9506 317.476C57.3643 320.934 54.9211 323.025 51.6879 323.691C51.5644 323.715 51.4385 323.728 51.3138 323.728ZM32.1071 253.919C31.8515 254.295 31.6071 254.689 31.3775 255.091C27.1529 262.5 26.2998 272.856 28.8442 285.875C30.9873 296.842 35.0798 307.28 38.1377 314.107C39.7488 317.709 43.3499 320.036 47.3127 320.036H51.1114C53.0656 319.576 54.5298 318.234 55.5816 315.94C58.1729 310.289 57.9889 299.441 55.0619 285.393C52.4965 273.083 48.4645 261.712 45.9733 257.263C44.0832 253.886 41.8611 251.964 39.3698 251.549C35.96 250.983 32.8095 253.347 32.1071 253.919Z" fill="#00227B"/>
<path d="M96.4694 320.21C96.2064 320.21 95.9398 320.149 95.6904 320.018C94.8657 319.589 94.5472 318.573 94.9793 317.751C102.012 304.35 102.116 289.279 95.2879 272.959C90.1375 260.649 82.7624 252.226 82.6883 252.143C82.0735 251.447 82.1402 250.386 82.8377 249.772C83.5352 249.159 84.5994 249.224 85.2142 249.919C85.529 250.275 92.9843 258.775 98.357 271.57C101.527 279.121 103.295 286.592 103.614 293.778C104.014 302.813 102.112 311.402 97.9632 319.308C97.6619 319.883 97.0755 320.21 96.4694 320.21Z" fill="#00227B"/>
<path d="M211.931 320.21C211.323 320.21 210.738 319.882 210.437 319.308C206.288 311.402 204.387 302.813 204.787 293.778C205.105 286.593 206.873 279.121 210.043 271.571C215.416 258.775 222.871 250.274 223.186 249.92C223.802 249.224 224.866 249.158 225.564 249.772C226.261 250.385 226.328 251.446 225.712 252.142C225.638 252.226 218.263 260.649 213.112 272.958C206.284 289.28 206.388 304.35 213.421 317.75C213.852 318.572 213.533 319.587 212.71 320.018C212.46 320.148 212.194 320.21 211.931 320.21Z" fill="#00227B"/>
<g opacity="0.35">
<path d="M209.68 158.825C207.737 161.042 205.694 163.147 203.565 165.124C198.512 169.816 192.976 173.808 187.052 176.972C177.046 182.325 165.947 185.326 154.257 185.382C142.836 185.432 131.966 182.666 122.114 177.638C115.662 174.34 109.649 170.079 104.208 165.001C101.502 162.47 98.9354 159.743 96.5269 156.838C100.89 155.495 105.224 153.937 109.193 152.397C114.123 140.556 119.872 128.428 126.577 116.301H181.156C186.698 126.328 191.588 136.35 195.9 146.221C200.011 148.612 204.744 153.114 209.68 158.825Z" fill="#00227B"/>
</g>
<path d="M237.216 104.759C236.266 104.861 235.413 104.176 235.31 103.228L229.983 53.795C229.881 52.8471 230.568 51.9964 231.519 51.8942C241.49 50.8257 250.442 58.0201 251.513 67.9635L253.332 84.8207C254.404 94.7641 247.188 103.691 237.216 104.759Z" fill="white"/>
<path d="M237.02 105.194C236.53 105.194 236.057 105.029 235.671 104.717C235.221 104.356 234.941 103.843 234.879 103.272L229.552 53.839C229.49 53.2678 229.656 52.7064 230.018 52.2596C230.379 51.8127 230.894 51.532 231.467 51.4704C241.658 50.3785 250.837 57.7563 251.932 67.9177L253.748 84.7749C254.279 89.6967 252.855 94.53 249.739 98.3845C246.625 102.239 242.19 104.653 237.254 105.182L237.209 104.759L237.254 105.182C237.177 105.19 237.098 105.194 237.02 105.194ZM233.466 52.2128C232.835 52.2128 232.199 52.246 231.558 52.315C231.211 52.3519 230.9 52.5218 230.682 52.7914C230.463 53.0622 230.363 53.4008 230.4 53.7467L235.727 103.18C235.764 103.525 235.935 103.836 236.206 104.054C236.478 104.271 236.817 104.371 237.164 104.334C241.874 103.83 246.104 101.526 249.076 97.849C252.049 94.1717 253.407 89.5601 252.901 84.8635L251.085 68.0063C250.107 58.9517 242.401 52.2128 233.466 52.2128Z" fill="#00227B"/>
<g opacity="0.35">
<g opacity="0.35">
<g opacity="0.35">
<g opacity="0.35">
<path opacity="0.35" d="M252.48 76.9219L253.334 84.8279C254.405 94.7676 247.19 103.697 237.218 104.769C236.267 104.872 235.414 104.18 235.312 103.234L233.891 90.0932C234.221 90.6632 234.868 91.0128 235.566 90.9439L236.741 90.8146C244.62 89.9713 250.783 84.216 252.48 76.9219Z" fill="#00227B"/>
</g>
</g>
</g>
</g>
<path d="M237.02 107.144C236.087 107.144 235.188 106.829 234.451 106.237C233.597 105.551 233.063 104.573 232.945 103.486L227.618 54.0536C227.501 52.9666 227.816 51.898 228.503 51.0461C229.191 50.1942 230.171 49.6611 231.261 49.5442C242.518 48.3377 252.662 56.4899 253.872 67.7161L255.688 84.5733C256.274 90.011 254.701 95.3514 251.26 99.611C247.818 103.869 242.919 106.537 237.465 107.121C237.318 107.135 237.169 107.144 237.02 107.144ZM236.961 102.409H236.96C236.96 102.409 236.96 102.409 236.961 102.409ZM232.413 54.1989L237.599 102.329C241.534 101.748 245.052 99.7439 247.563 96.6379C250.209 93.3645 251.418 89.26 250.967 85.0793L249.151 68.2221C248.244 59.8065 240.807 53.6375 232.413 54.1989Z" fill="#00227B"/>
<path d="M67.8801 69.4281C68.8307 69.3259 69.6838 70.0116 69.7862 70.9595L75.1132 120.392C75.2157 121.34 74.5281 122.191 73.5775 122.293C63.6062 123.362 54.6546 116.167 53.583 106.224L51.7671 89.3667C50.693 79.4232 57.9088 70.4966 67.8801 69.4281Z" fill="white"/>
<path d="M71.6354 122.832C62.2702 122.833 54.1927 115.769 53.1705 106.277L51.3545 89.4201C50.2595 79.2587 57.658 70.1044 67.8478 69.0124L67.8935 69.4359L67.8478 69.0124C69.0293 68.8856 70.0959 69.7425 70.2231 70.9218L75.5501 120.355C75.6772 121.534 74.818 122.596 73.6353 122.723C72.965 122.796 72.2959 122.832 71.6354 122.832ZM68.0787 69.8508C68.0318 69.8508 67.9861 69.8533 67.938 69.8582C58.2161 70.8997 51.157 79.6342 52.2027 89.329L54.0186 106.186C55.0631 115.881 63.8208 122.92 73.544 121.879C74.2588 121.802 74.7785 121.16 74.702 120.447L69.375 71.0142C69.3034 70.3469 68.7355 69.8508 68.0787 69.8508Z" fill="#00227B"/>
<g opacity="0.35">
<g opacity="0.35">
<g opacity="0.35">
<g opacity="0.35">
<path opacity="0.35" d="M73.6606 106.684L75.1371 120.398C75.2408 121.346 74.547 122.197 73.5977 122.299C68.3633 122.858 63.4054 121.143 59.7241 117.945C56.3995 115.057 54.1156 110.952 53.6057 106.232L52.8403 99.1289C56.3427 105.058 63.1165 108.723 70.4274 107.941L72.236 107.746C72.8952 107.675 73.4174 107.25 73.6606 106.684Z" fill="#00227B"/>
</g>
</g>
</g>
</g>
<path d="M71.6253 124.769C61.2775 124.77 52.3543 116.966 51.2247 106.479L49.4088 89.6217C48.1989 78.3955 56.374 68.2809 67.6316 67.0745C69.881 66.8332 71.9105 68.4631 72.1525 70.7074L77.4795 120.141C77.7215 122.387 76.0869 124.408 73.8352 124.65C73.0932 124.731 72.3549 124.769 71.6253 124.769ZM67.4983 71.8671C59.1776 73.0981 53.2247 80.7013 54.1308 89.117L55.9468 105.974C56.8542 114.39 64.291 120.558 72.6846 119.997L67.4983 71.8671Z" fill="#00227B"/>
<path d="M152.572 171.809C199.495 171.809 237.533 133.877 237.533 87.0862C237.533 40.295 199.495 2.36328 152.572 2.36328C105.65 2.36328 67.6123 40.295 67.6123 87.0862C67.6123 133.877 105.65 171.809 152.572 171.809Z" fill="white"/>
<path d="M152.485 172.239C142.068 172.239 131.892 170.377 122.19 166.69C111.873 162.77 102.526 156.962 94.4067 149.43C86.2872 141.897 79.8059 133.018 75.1406 123.041C70.3112 112.709 67.652 101.647 67.236 90.1596C66.8199 78.6724 68.673 67.4474 72.7432 56.7961C76.6739 46.508 82.4984 37.1875 90.0513 29.0907C97.6041 20.9939 106.51 14.5294 116.517 9.8772C126.877 5.06121 137.971 2.40946 149.49 1.99459C161.009 1.57972 172.266 3.42757 182.947 7.48644C193.264 11.4062 202.611 17.2144 210.73 24.7462C218.85 32.2792 225.331 41.1577 229.996 51.1356C234.826 61.4668 237.485 72.5293 237.901 84.0165C238.317 95.5038 236.464 106.729 232.394 117.38C228.463 127.668 222.638 136.989 215.084 145.086C207.53 153.182 198.627 159.645 188.621 164.298C178.261 169.114 167.167 171.765 155.648 172.18C154.59 172.22 153.536 172.239 152.485 172.239ZM152.607 2.78987C151.58 2.78987 150.555 2.80833 149.52 2.84527C102.939 4.522 66.4088 43.6765 68.089 90.1276C68.9026 112.629 78.4554 133.469 94.9869 148.806C110.753 163.434 131.07 171.386 152.491 171.388C153.531 171.388 154.57 171.369 155.615 171.331C178.179 170.52 199.077 160.994 214.457 144.508C229.837 128.023 237.859 106.551 237.045 84.0498C235.403 38.6303 197.822 2.78987 152.607 2.78987Z" fill="#00227B"/>
<g opacity="0.35">
<g opacity="0.35">
<g opacity="0.35">
<g opacity="0.35">
<path opacity="0.35" d="M236.233 72.3516C236.912 76.1605 237.328 80.0631 237.472 84.0431C239.158 130.803 202.518 170.077 155.627 171.767C108.736 173.448 69.352 136.911 67.657 90.1518C67.6076 88.8074 67.5904 87.4606 67.6064 86.1323C74.821 127.142 111.433 157.599 154.337 156.056C199.88 154.415 235.747 117.324 236.233 72.3516Z" fill="#00227B"/>
</g>
</g>
</g>
</g>
<path d="M152.481 174.186C141.826 174.186 131.418 172.28 121.493 168.509C110.942 164.5 101.381 158.56 93.0771 150.856C84.7736 143.152 78.1442 134.07 73.3728 123.864C68.4322 113.297 65.7125 101.981 65.2878 90.2323C64.8632 78.4841 66.7582 67.0018 70.9222 56.1068C74.9431 45.5847 80.8997 36.05 88.6254 27.7698C96.351 19.4895 105.456 12.8774 115.691 8.12053C126.288 3.19375 137.636 0.481679 149.417 0.0581871C161.2 -0.365304 172.713 1.5244 183.638 5.67683C194.19 9.68646 203.751 15.6264 212.055 23.3305C220.358 31.0346 226.988 40.1163 231.759 50.3219C236.7 60.8895 239.419 72.2056 239.844 83.9538C240.269 95.702 238.374 107.184 234.21 118.079C230.189 128.601 224.232 138.136 216.506 146.416C208.781 154.697 199.674 161.307 189.439 166.066C178.842 170.992 167.494 173.704 155.713 174.128C154.634 174.166 153.555 174.186 152.481 174.186ZM152.605 4.73752C151.601 4.73752 150.6 4.75599 149.589 4.79169C104.08 6.42902 68.3927 44.6811 70.0346 90.0624C70.8296 112.046 80.1627 132.404 96.3128 147.389C111.716 161.679 131.563 169.45 152.492 169.45C153.507 169.45 154.524 169.431 155.544 169.394C177.589 168.602 198.005 159.295 213.031 143.19C228.058 127.085 235.895 106.108 235.098 84.1249C233.492 39.7507 196.776 4.73752 152.605 4.73752Z" fill="#00227B"/>
<path d="M237.278 86.2313C238.129 102.788 233.528 118.436 224.964 131.625C218.543 141.513 190.992 159.652 155.929 161.757C123.418 163.709 92.936 147.927 85.5362 138.745C75.6649 126.497 69.4861 111.401 68.6355 94.8439C66.385 51.0286 103.202 30.9361 149.775 28.5577C196.345 26.1792 235.028 42.4159 237.278 86.2313Z" fill="#F47B2B"/>
<path d="M150.303 163.562C134.137 163.562 120.077 159.544 110.743 155.954C98.9253 151.409 88.5368 145.058 84.2789 139.774C73.8286 126.808 67.8609 111.303 67.0202 94.9354C66.4622 84.0748 68.2584 74.22 72.3558 65.6443C76.2137 57.5734 82.1308 50.5808 89.9454 44.8588C104.221 34.4044 124.886 28.2084 149.705 26.9416C174.525 25.6748 195.716 29.7325 210.988 38.6775C219.347 43.5735 225.951 49.9271 230.615 57.5635C235.57 65.6763 238.367 75.2972 238.923 86.1578C239.764 102.525 235.415 118.556 226.348 132.519C222.582 138.32 213.225 145.431 201.933 151.074C192.014 156.031 175.999 162.193 156.042 163.391C154.104 163.507 152.188 163.562 150.303 163.562ZM158.469 29.9689C155.658 29.9689 152.794 30.0427 149.873 30.1917C125.692 31.4265 105.639 37.4058 91.8774 47.4822C76.5137 58.733 69.2473 74.6435 70.2806 94.7692C71.0855 110.448 76.8063 125.306 86.8232 137.735C89.8034 141.433 98.1636 147.628 111.919 152.918C122.038 156.809 137.872 161.222 155.847 160.142C175.253 158.976 190.826 152.985 200.473 148.164C213.399 141.703 221.017 134.745 223.611 130.75C232.303 117.366 236.472 102.003 235.667 86.324C234.633 66.1983 225.774 51.1114 209.338 41.4844C196.394 33.9034 178.931 29.9689 158.469 29.9689Z" fill="#00227B"/>
<g opacity="0.5">
<g opacity="0.5">
<g opacity="0.5">
<g opacity="0.5">
<path d="M220.367 83.0684C221.427 74.8557 217.449 67.5769 211.481 66.8106C205.514 66.0444 199.816 72.081 198.756 80.2937C197.696 88.5064 201.674 95.7852 207.641 96.5514C213.609 97.3177 219.306 91.2811 220.367 83.0684Z" fill="white"/>
</g>
</g>
</g>
</g>
<g opacity="0.5">
<g opacity="0.5">
<g opacity="0.5">
<g opacity="0.5">
<path d="M203.479 113.592C204.484 109.926 202.741 106.257 199.586 105.398C196.431 104.538 193.059 106.813 192.054 110.479C191.05 114.145 192.793 117.814 195.948 118.674C199.103 119.534 202.475 117.259 203.479 113.592Z" fill="white"/>
</g>
</g>
</g>
</g>
<g opacity="0.35">
<path d="M218.775 46.1836C229.587 55.4659 236.367 68.6225 237.274 86.2196C238.124 102.78 233.521 118.427 224.963 131.616C218.54 141.504 190.986 159.641 155.923 161.751C143.543 162.499 131.461 160.669 120.829 157.607C163.873 154.099 197.427 131.85 205.389 119.586C216.261 102.847 222.099 82.9843 221.016 61.9747C220.732 56.3585 219.963 51.1005 218.775 46.1836Z" fill="#00227B"/>
</g>
<path d="M73.0635 59.4271C72.5845 59.4271 72.103 59.2781 71.6907 58.9691C70.7204 58.2403 70.4969 56.8898 71.1574 55.8939C74.6832 50.1177 79.1855 44.8388 84.5384 40.205C89.7506 35.6943 95.8121 31.7561 102.554 28.4999C109.155 25.3127 116.451 22.7594 124.238 20.9103C131.955 19.0785 140.193 17.9286 148.726 17.4928C157.119 17.0644 165.342 17.3537 173.168 18.3509C181.065 19.3579 188.573 21.0901 195.483 23.4968C202.553 25.9602 209.022 29.1413 214.711 32.9515C220.559 36.8688 225.617 41.4755 229.747 46.6448C230.468 47.4413 230.542 48.6613 229.867 49.5477C229.104 50.5498 227.671 50.7443 226.666 49.9835L226.426 49.8062L226.246 49.5772C210.952 30.3527 182.781 20.3169 148.96 22.0441C114.951 23.7812 88.0038 37.003 75.0264 58.3191L74.9671 58.4164L74.8894 58.5186C74.4425 59.1132 73.7573 59.4271 73.0635 59.4271Z" fill="#00227B"/>
<g opacity="0.5">
<g opacity="0.5">
<g opacity="0.5">
<g opacity="0.5">
<path d="M88.906 119.93C88.906 119.93 73.0781 77.4008 95.554 58.9826C118.03 40.5644 151.642 38.9184 150.967 41.1073C150.967 41.1073 114.221 51.99 101.169 82.0653C91.1035 105.258 88.906 119.93 88.906 119.93Z" fill="white"/>
</g>
</g>
</g>
</g>
<path d="M229.546 326.733H78.8641C73.9852 326.733 70.0298 322.789 70.0298 317.923C70.0298 315.12 72.3087 312.848 75.1197 312.848H233.29C236.101 312.848 238.38 315.12 238.38 317.923C238.38 322.79 234.424 326.733 229.546 326.733Z" fill="#E6E9FA"/>
<g opacity="0.3">
<g opacity="0.3">
<g opacity="0.3">
<g opacity="0.3">
<path opacity="0.3" d="M238.378 317.925C238.378 318.887 238.221 319.812 237.934 320.68C237.143 318.905 235.363 317.673 233.291 317.673H75.121C73.7173 317.673 72.4433 318.239 71.5223 319.163C71.0841 319.6 70.7248 320.11 70.473 320.681C70.1866 319.813 70.0298 318.89 70.0298 317.926C70.0298 316.526 70.5964 315.256 71.5236 314.337C72.4445 313.414 73.7186 312.848 75.1222 312.848H233.291C236.104 312.846 238.378 315.119 238.378 317.925Z" fill="white"/>
</g>
</g>
</g>
</g>
<g opacity="0.35">
<g opacity="0.35">
<g opacity="0.35">
<g opacity="0.35">
<path opacity="0.35" d="M238.383 317.938C238.383 320.368 237.395 322.574 235.794 324.163C234.199 325.759 231.986 326.745 229.551 326.745H78.8717C73.9928 326.745 70.0337 322.803 70.0337 317.938C70.0337 317.002 70.2868 316.123 70.7349 315.367C72.0707 318.52 75.215 320.737 78.8704 320.737H229.549C231.986 320.737 234.199 319.752 235.792 318.156C236.59 317.36 237.236 316.415 237.679 315.367C238.131 316.123 238.383 317.002 238.383 317.938Z" fill="#00227B"/>
</g>
</g>
</g>
</g>
<path d="M229.569 328.993H78.8875C72.7778 328.993 67.8076 324.037 67.8076 317.944C67.8076 313.911 71.0989 310.629 75.1432 310.629H233.313C237.358 310.629 240.649 313.911 240.649 317.944C240.649 324.035 235.679 328.993 229.569 328.993ZM75.142 315.108C73.5741 315.108 72.2976 316.379 72.2976 317.944C72.2976 321.567 75.2531 324.514 78.8863 324.514H229.569C233.202 324.514 236.158 321.567 236.158 317.944C236.158 316.381 234.882 315.108 233.313 315.108H75.142Z" fill="#00227B"/>
<path d="M247.17 213.672L232.432 312.851H75.9697L75.4364 309.263L61.2245 213.672C60.7591 210.532 63.201 207.715 66.3787 207.715H242.015C245.2 207.715 247.636 210.532 247.17 213.672Z" fill="#FF66AC"/>
<path d="M247.17 213.672L232.432 312.851H75.9697L75.4364 309.263L61.2245 213.672C60.7591 210.532 63.201 207.715 66.3787 207.715H242.015C245.2 207.715 247.636 210.532 247.17 213.672Z" fill="#E6E9FA"/>
<g opacity="0.5">
<g opacity="0.5">
<g opacity="0.5">
<g opacity="0.5">
<path opacity="0.5" d="M66.7943 219.827C66.3289 216.687 68.7708 213.87 71.9484 213.87H247.155L247.185 213.672C247.65 210.532 245.214 207.715 242.031 207.715H66.3943C63.2166 207.715 60.7747 210.532 61.2402 213.672L75.4508 309.263L75.9841 312.851H80.6247L66.7943 219.827Z" fill="white"/>
</g>
</g>
</g>
</g>
<g opacity="0.35">
<g opacity="0.35">
<g opacity="0.35">
<g opacity="0.35">
<path opacity="0.35" d="M237.083 207.707H224.751C229.427 224.792 226.847 263.371 196.677 283.534C158.805 308.845 90.55 308.684 76.0591 309.255L76.5924 312.843H227.5L242.238 213.664C242.703 210.524 240.267 207.707 237.083 207.707Z" fill="#00227B"/>
</g>
</g>
</g>
</g>
<path d="M234.368 315.096H74.0322L59.0067 214.001C58.6882 211.86 59.319 209.693 60.7363 208.054C62.1535 206.416 64.2115 205.477 66.3805 205.477H242.019C244.19 205.477 246.246 206.416 247.664 208.054C249.081 209.693 249.712 211.86 249.393 214.001L234.368 315.096ZM77.9073 310.616H230.493L244.95 213.343C245.078 212.48 244.834 211.641 244.262 210.98C243.691 210.318 242.895 209.955 242.019 209.955H66.3805C65.5053 209.955 64.709 210.32 64.1374 210.98C63.5658 211.641 63.3214 212.48 63.4498 213.343L77.9073 310.616Z" fill="#00227B"/>
<g opacity="0.3">
<g opacity="0.3">
<g opacity="0.3">
<g opacity="0.3">
<path opacity="0.3" d="M88.4425 289.693C82.5069 276.646 78.1848 254.374 79.1589 241.267C80.1329 228.16 87.7561 232.17 90.119 248.96C96.4065 293.643 91.0918 295.518 88.4425 289.693Z" fill="white"/>
</g>
</g>
</g>
</g>
<path d="M174.662 249.047C174.853 247.373 175.076 245.68 174.746 243.977C174.599 243.793 174.465 243.603 174.318 243.418C173.831 243.244 173.358 243.016 172.852 242.889C169.292 241.972 165.682 241.609 162.016 241.924C157.234 242.335 152.845 243.806 149.072 246.837C147.705 247.93 146.459 249.165 145.184 250.363C144.842 250.688 144.579 250.823 144.099 250.604C142.969 250.092 141.752 249.863 140.516 249.802C137.202 249.651 134.244 250.72 131.484 252.447C128.494 254.326 126.085 256.836 123.84 259.524C122.885 260.662 123.256 261.931 124.678 262.41C125.576 262.702 126.473 262.989 127.371 263.282C129.522 263.976 131.667 264.664 133.812 265.358C133.807 265.424 133.813 265.459 133.803 265.492C133.786 265.534 133.767 265.582 133.737 265.622C132.842 266.77 133.06 267.831 134.003 268.828C134.104 268.939 134.192 269.071 134.281 269.19C134.774 269.837 135.279 270.492 135.803 271.167C135.088 271.717 134.386 272.185 133.765 272.75C133.451 273.035 133.174 273.448 133.056 273.858C132.855 274.519 133.198 275.195 133.788 275.542C134.414 275.918 135.058 275.902 135.641 275.483C136.381 274.959 137.087 274.39 137.839 273.818C138.548 274.751 139.221 275.633 139.897 276.505C140.671 277.499 141.204 277.668 142.404 277.337C142.622 277.27 142.838 277.223 143.096 277.16C143.114 277.416 143.133 277.622 143.145 277.814C143.298 280.906 143.438 284.004 143.609 287.087C143.687 288.55 144.845 289.241 146.169 288.614C147.365 288.051 148.56 287.456 149.733 286.822C152.436 285.355 154.895 283.56 156.856 281.173C159.312 278.169 160.671 274.815 160.035 270.851C160.008 270.694 160.139 270.427 160.275 270.347C161.48 269.573 162.717 268.848 163.923 268.067C166.649 266.296 168.84 263.994 170.554 261.243C172.882 257.505 174.167 253.403 174.662 249.047ZM135.586 262.429C133.103 261.622 130.529 260.785 127.885 259.927C130.617 257.032 133.508 254.503 137.402 253.436C139.084 252.974 141.029 253.014 142.177 253.479C139.997 256.446 137.811 259.413 135.586 262.429ZM156.468 275.155C155.837 277.162 154.632 278.797 153.148 280.255C151.304 282.046 149.157 283.383 146.836 284.602C146.696 281.758 146.553 278.976 146.412 276.251C149.922 274.89 153.354 273.562 156.803 272.225C156.937 273.173 156.774 274.177 156.468 275.155ZM169.428 256.115C168.298 258.773 166.817 261.193 164.703 263.197C163.072 264.735 161.223 265.968 159.275 267.065C153.994 270.038 148.333 272.088 142.546 273.821C142.263 273.903 142.09 273.888 141.904 273.629C141.5 273.057 141.047 272.505 140.62 271.94C140.592 271.908 140.582 271.855 140.541 271.754C140.689 271.636 140.847 271.519 141.006 271.397C144.309 268.869 147.627 266.349 150.931 263.815C151.885 263.092 151.927 261.85 151.043 261.134C150.426 260.63 149.612 260.638 148.9 261.172C146.912 262.684 144.93 264.195 142.947 265.713C141.468 266.841 140.001 267.964 138.466 269.138C137.939 268.451 137.43 267.825 136.971 267.165C136.893 267.047 136.972 266.749 137.078 266.602C138.839 263.982 140.584 261.349 142.416 258.775C144.228 256.219 146.289 253.858 148.556 251.691C150.68 249.644 152.984 247.837 155.768 246.76C157.553 246.067 159.395 245.595 161.297 245.392C161.47 245.367 161.721 245.54 161.843 245.698C163.777 248.193 165.688 250.69 167.606 253.193C168.181 253.938 168.749 254.698 169.341 255.434C169.519 255.655 169.541 255.845 169.428 256.115ZM170.575 252.626C168.664 250.129 166.797 247.7 164.928 245.26C164.93 245.205 164.946 245.14 164.955 245.079C167.131 245.339 169.313 245.605 171.517 245.868C171.476 248.236 171.125 250.404 170.575 252.626Z" fill="#00227B"/>
<path d="M169.344 255.431C168.75 254.695 168.183 253.935 167.608 253.19C165.692 250.688 163.78 248.19 161.845 245.696C161.723 245.537 161.472 245.364 161.3 245.389C159.397 245.592 157.555 246.064 155.77 246.757C152.985 247.834 150.683 249.641 148.558 251.689C146.291 253.855 144.231 256.216 142.419 258.772C140.587 261.348 138.841 263.981 137.081 266.599C136.974 266.746 136.895 267.044 136.973 267.162C137.431 267.822 137.94 268.448 138.468 269.135C140.004 267.961 141.471 266.837 142.95 265.71C144.932 264.193 146.915 262.68 148.902 261.169C149.615 260.635 150.427 260.629 151.046 261.131C151.93 261.849 151.889 263.091 150.933 263.812C147.63 266.346 144.311 268.866 141.009 271.394C140.85 271.516 140.69 271.633 140.543 271.751C140.584 271.854 140.594 271.905 140.622 271.937C141.05 272.502 141.503 273.054 141.906 273.626C142.093 273.885 142.266 273.9 142.548 273.818C148.336 272.085 153.996 270.035 159.277 267.062C161.224 265.967 163.075 264.732 164.706 263.194C166.818 261.19 168.301 258.77 169.43 256.112C169.541 255.843 169.519 255.654 169.344 255.431ZM163.548 259.242C161.023 261.14 157.45 260.675 155.554 258.192C153.646 255.713 154.127 252.153 156.628 250.23C159.084 248.344 162.658 248.831 164.572 251.312C166.465 253.778 166.003 257.391 163.548 259.242Z" fill="white"/>
<path d="M170.573 252.612C168.661 250.119 166.794 247.687 164.926 245.247C164.932 245.19 164.945 245.129 164.953 245.066C167.13 245.329 169.313 245.593 171.519 245.857C171.477 248.22 171.122 250.391 170.573 252.612Z" fill="#DB2C2C"/>
<path d="M142.187 253.477C140.004 256.44 137.819 259.409 135.596 262.428C133.109 261.617 130.535 260.782 127.892 259.925C130.627 257.026 133.517 254.497 137.41 253.433C139.093 252.97 141.035 253.01 142.187 253.477Z" fill="#DB2C2C"/>
<path d="M153.127 280.243C151.284 282.035 149.14 283.373 146.816 284.589C146.676 281.748 146.534 278.966 146.394 276.239C149.904 274.879 153.335 273.552 156.789 272.211C156.921 273.161 156.754 274.163 156.452 275.145C155.821 277.153 154.616 278.786 153.127 280.243Z" fill="#DB2C2C"/>
<path d="M164.587 251.293C162.673 248.813 159.098 248.326 156.643 250.211C154.142 252.135 153.66 255.694 155.569 258.174C157.465 260.657 161.038 261.121 163.562 259.224C166.019 257.372 166.481 253.759 164.587 251.293ZM161.861 257.13C160.582 258.096 158.703 257.841 157.707 256.567C156.676 255.254 156.958 253.323 158.322 252.314C159.599 251.358 161.514 251.635 162.476 252.916C163.481 254.248 163.204 256.118 161.861 257.13Z" fill="#00227B"/>
<path d="M161.833 257.139C160.554 258.105 158.675 257.85 157.676 256.574C156.65 255.263 156.928 253.332 158.292 252.323C159.572 251.37 161.485 251.643 162.446 252.922C163.451 254.256 163.178 256.128 161.833 257.139Z" fill="#22A7F0"/>
<path d="M246.408 218.918C246.408 218.918 234.283 213.18 222.895 218.327C211.991 223.257 204.276 258.35 218.404 267.239C227.124 272.726 233.059 267.88 237.992 269.303C245.309 271.413 260.321 235.279 246.408 218.918Z" fill="white"/>
<g opacity="0.35">
<path d="M251.885 241.762C250.448 256.471 242.661 270.653 238.001 269.308C233.065 267.887 227.131 272.735 218.411 267.248C211.662 262.998 209.899 252.775 211.089 242.707C211.892 248.581 214.166 253.613 218.411 256.285C227.131 261.766 232.937 259.218 238.001 258.346C244.261 257.265 249.365 250.446 251.885 241.762Z" fill="#00227B"/>
</g>
<path d="M227.352 272.174C224.41 272.174 221.005 271.532 217.211 269.145C213.815 267.008 211.362 263.55 209.921 258.867C208.712 254.937 208.26 250.148 208.613 245.018C209.031 238.943 210.53 232.71 212.83 227.468C214.588 223.463 217.601 218.274 221.973 216.299C234.169 210.786 246.842 216.653 247.376 216.906L247.813 217.112L248.125 217.48C254.493 224.968 254.861 235.313 254.047 242.671C253.131 250.962 250.197 259.757 246.388 265.624C242.573 271.5 239.38 272.044 237.372 271.466C236.07 271.09 234.424 271.352 232.518 271.657C231.012 271.898 229.281 272.174 227.352 272.174ZM233.281 218.428C229.868 218.428 226.704 219.08 223.83 220.38C221.465 221.448 218.956 224.687 216.947 229.266C214.878 233.978 213.474 239.832 213.095 245.327C212.426 255.031 214.8 262.332 219.609 265.358C224.457 268.409 228.196 267.812 231.811 267.234C234.148 266.861 236.355 266.509 238.623 267.163C238.883 267.209 240.752 266.49 243.388 261.936C249.535 251.318 253.434 231.265 245.024 220.767C244.071 220.372 241.618 219.443 238.408 218.886C236.644 218.581 234.933 218.428 233.281 218.428Z" fill="#00227B"/>
</svg>
