<svg width="20" height="21" viewBox="0 0 20 21" fill="none" xmlns="http://www.w3.org/2000/svg">
<path d="M8.07007 9.4214C8.07007 9.4214 9.96239 9.28274 9.96239 7.09244C9.96239 4.90199 8.41423 3.83301 6.45315 3.83301H0V16.0736H6.45315C6.45315 16.0736 10.3926 16.1964 10.3926 12.4607C10.3926 12.4608 10.5643 9.4214 8.07007 9.4214ZM5.98866 6.00863H6.45315C6.45315 6.00863 7.33033 6.00863 7.33033 7.28221C7.33033 8.55563 6.81445 8.74025 6.22932 8.74025H2.84334V6.00863H5.98866ZM6.2708 13.898H2.84334V10.6269H6.45315C6.45315 10.6269 7.76054 10.61 7.76054 12.3079C7.76054 13.7397 6.78405 13.8872 6.2708 13.898ZM15.6465 6.94737C10.8774 6.94737 10.8816 11.6506 10.8816 11.6506C10.8816 11.6506 10.5544 16.3296 15.6465 16.3296C15.6465 16.3296 19.8898 16.5689 19.8898 13.0747H17.7075C17.7075 13.0747 17.7803 14.3905 15.7192 14.3905C15.7192 14.3905 13.5366 14.5349 13.5366 12.2609H19.9626C19.9626 12.2609 20.6657 6.94737 15.6465 6.94737ZM13.5126 10.6269C13.5126 10.6269 13.7791 8.74022 15.6949 8.74022C17.6104 8.74022 17.5864 10.6269 17.5864 10.6269H13.5126ZM18.0948 6.06147H12.9783V4.55413H18.0948V6.06147Z" fill="#00A7A0"/>
</svg>
