<svg width="25" height="25" viewBox="0 0 25 25" fill="none" xmlns="http://www.w3.org/2000/svg">
<g clip-path="url(#clip0_1_5750)">
<path d="M19.5 20.5002H5.5C4.17441 20.4987 2.90356 19.9714 1.96622 19.034C1.02888 18.0967 0.501588 16.8258 0.5 15.5002L0.5 9.50024C0.501588 8.17465 1.02888 6.9038 1.96622 5.96646C2.90356 5.02913 4.17441 4.50183 5.5 4.50024H19.5C20.8256 4.50183 22.0964 5.02913 23.0338 5.96646C23.9711 6.9038 24.4984 8.17465 24.5 9.50024V15.5002C24.4984 16.8258 23.9711 18.0967 23.0338 19.034C22.0964 19.9714 20.8256 20.4987 19.5 20.5002ZM5.5 6.50024C4.70435 6.50024 3.94129 6.81631 3.37868 7.37892C2.81607 7.94153 2.5 8.70459 2.5 9.50024V15.5002C2.5 16.2959 2.81607 17.059 3.37868 17.6216C3.94129 18.1842 4.70435 18.5002 5.5 18.5002H19.5C20.2956 18.5002 21.0587 18.1842 21.6213 17.6216C22.1839 17.059 22.5 16.2959 22.5 15.5002V9.50024C22.5 8.70459 22.1839 7.94153 21.6213 7.37892C21.0587 6.81631 20.2956 6.50024 19.5 6.50024H5.5ZM12.5 16.5002C11.7089 16.5002 10.9355 16.2656 10.2777 15.8261C9.61992 15.3866 9.10723 14.7619 8.80448 14.031C8.50173 13.3001 8.42252 12.4958 8.57686 11.7199C8.7312 10.944 9.11216 10.2312 9.67157 9.67182C10.231 9.11241 10.9437 8.73144 11.7196 8.5771C12.4956 8.42276 13.2998 8.50198 14.0307 8.80473C14.7616 9.10748 15.3864 9.62017 15.8259 10.278C16.2654 10.9358 16.5 11.7091 16.5 12.5002C16.5 13.5611 16.0786 14.5785 15.3284 15.3287C14.5783 16.0788 13.5609 16.5002 12.5 16.5002ZM12.5 10.5002C12.1044 10.5002 11.7178 10.6175 11.3889 10.8373C11.06 11.0571 10.8036 11.3694 10.6522 11.7349C10.5009 12.1003 10.4613 12.5025 10.5384 12.8904C10.6156 13.2784 10.8061 13.6348 11.0858 13.9145C11.3655 14.1942 11.7219 14.3846 12.1098 14.4618C12.4978 14.539 12.8999 14.4994 13.2654 14.348C13.6308 14.1966 13.9432 13.9403 14.1629 13.6114C14.3827 13.2825 14.5 12.8958 14.5 12.5002C14.5 11.9698 14.2893 11.4611 13.9142 11.086C13.5391 10.711 13.0304 10.5002 12.5 10.5002ZM5.5 8.50024C5.30222 8.50024 5.10888 8.55889 4.94443 8.66877C4.77998 8.77866 4.65181 8.93483 4.57612 9.11756C4.50043 9.30029 4.48063 9.50135 4.51921 9.69533C4.5578 9.88932 4.65304 10.0675 4.79289 10.2074C4.93275 10.3472 5.11093 10.4424 5.30491 10.481C5.49889 10.5196 5.69996 10.4998 5.88268 10.4241C6.06541 10.3484 6.22159 10.2203 6.33147 10.0558C6.44135 9.89137 6.5 9.69803 6.5 9.50024C6.5 9.23503 6.39464 8.98067 6.20711 8.79314C6.01957 8.6056 5.76522 8.50024 5.5 8.50024ZM18.5 9.50024C18.5 9.69803 18.5586 9.89137 18.6685 10.0558C18.7784 10.2203 18.9346 10.3484 19.1173 10.4241C19.3 10.4998 19.5011 10.5196 19.6951 10.481C19.8891 10.4424 20.0673 10.3472 20.2071 10.2074C20.347 10.0675 20.4422 9.88932 20.4808 9.69533C20.5194 9.50135 20.4996 9.30029 20.4239 9.11756C20.3482 8.93483 20.22 8.77866 20.0556 8.66877C19.8911 8.55889 19.6978 8.50024 19.5 8.50024C19.2348 8.50024 18.9804 8.6056 18.7929 8.79314C18.6054 8.98067 18.5 9.23503 18.5 9.50024ZM5.5 14.5002C5.30222 14.5002 5.10888 14.5589 4.94443 14.6688C4.77998 14.7787 4.65181 14.9348 4.57612 15.1176C4.50043 15.3003 4.48063 15.5014 4.51921 15.6953C4.5578 15.8893 4.65304 16.0675 4.79289 16.2074C4.93275 16.3472 5.11093 16.4424 5.30491 16.481C5.49889 16.5196 5.69996 16.4998 5.88268 16.4241C6.06541 16.3484 6.22159 16.2203 6.33147 16.0558C6.44135 15.8914 6.5 15.698 6.5 15.5002C6.5 15.235 6.39464 14.9807 6.20711 14.7931C6.01957 14.6056 5.76522 14.5002 5.5 14.5002ZM18.5 15.5002C18.5 15.698 18.5586 15.8914 18.6685 16.0558C18.7784 16.2203 18.9346 16.3484 19.1173 16.4241C19.3 16.4998 19.5011 16.5196 19.6951 16.481C19.8891 16.4424 20.0673 16.3472 20.2071 16.2074C20.347 16.0675 20.4422 15.8893 20.4808 15.6953C20.5194 15.5014 20.4996 15.3003 20.4239 15.1176C20.3482 14.9348 20.22 14.7787 20.0556 14.6688C19.8911 14.5589 19.6978 14.5002 19.5 14.5002C19.2348 14.5002 18.9804 14.6056 18.7929 14.7931C18.6054 14.9807 18.5 15.235 18.5 15.5002Z" fill="#374957"/>
</g>
<defs>
<clipPath id="clip0_1_5750">
<rect width="24" height="24" fill="white" transform="translate(0.5 0.5)"/>
</clipPath>
</defs>
</svg>
