<svg width="25" height="25" viewBox="0 0 25 25" fill="none" xmlns="http://www.w3.org/2000/svg">
<g clip-path="url(#clip0_1_5759)">
<path d="M22.557 5.72973L15.183 2.21673C13.5598 1.24717 11.5395 1.22997 9.90003 2.17173L2.44306 5.72973C2.41508 5.74375 2.38606 5.75875 2.35906 5.77473C0.589437 6.78658 -0.0249066 9.0414 0.986937 10.811C1.32992 11.4109 1.83444 11.9025 2.44306 12.2297L4.50008 13.2098V18.1097C4.5013 20.3008 5.927 22.2366 8.01908 22.8878C9.47497 23.3089 10.9846 23.5151 12.5001 23.4998C14.0154 23.5167 15.525 23.3123 16.9811 22.8928C19.0732 22.2416 20.4989 20.3058 20.5001 18.1148V13.2077L22.5001 12.2517V20.4997C22.5001 21.052 22.9478 21.4997 23.5001 21.4997C24.0524 21.4997 24.5001 21.052 24.5001 20.4997V8.49972C24.5067 7.32545 23.5796 6.24067 22.557 5.72973ZM18.5 18.1148C18.5006 19.4253 17.6502 20.5846 16.4 20.9777C15.1323 21.34 13.8185 21.5158 12.5 21.4997C11.1816 21.5158 9.86783 21.34 8.60005 20.9777C7.34984 20.5846 6.49953 19.4253 6.50005 18.1148V14.1628L9.81706 15.7428C10.6355 16.2288 11.5702 16.4842 12.5221 16.4818C13.4281 16.4882 14.3188 16.2483 15.0991 15.7878L18.5 14.1627V18.1148ZM21.7001 10.4247L14.1581 14.0247C13.1065 14.6371 11.803 14.6197 10.7681 13.9797L3.38905 10.4697C2.56653 10.0262 2.25931 8.99987 2.70284 8.1774C2.85284 7.89925 3.07775 7.66867 3.35206 7.51173L10.847 3.93175C11.899 3.32078 13.2017 3.33808 14.237 3.97675L21.611 7.48975C22.1533 7.79087 22.4926 8.35951 22.5 8.97976C22.501 9.5673 22.1985 10.1137 21.7001 10.4247Z" fill="#374957"/>
</g>
<defs>
<clipPath id="clip0_1_5759">
<rect width="24" height="24" fill="white" transform="translate(0.5 0.5)"/>
</clipPath>
</defs>
</svg>
