<svg width="40" height="44" viewBox="0 0 40 44" fill="none" xmlns="http://www.w3.org/2000/svg">
<path d="M39 30.7784V13.8803C38.9993 13.3272 38.8538 12.7839 38.5779 12.3046C38.302 11.8252 37.9054 11.4265 37.4276 11.148L22.3859 2.39419C21.6612 1.97228 20.8376 1.75 19.999 1.75C19.1604 1.75 18.3368 1.97228 17.6121 2.39419L2.57245 11.148C2.09457 11.4265 1.69795 11.8252 1.42207 12.3046C1.14619 12.7839 1.00067 13.3272 1 13.8803V30.7784C1.00033 31.3318 1.14568 31.8755 1.42158 32.3552C1.69748 32.835 2.09428 33.234 2.57245 33.5126L17.6141 42.2665C18.339 42.6878 19.1625 42.9097 20.001 42.9097C20.8394 42.9097 21.663 42.6878 22.3879 42.2665L37.4295 33.5126C37.9073 33.2338 38.3037 32.8346 38.5793 32.3549C38.8548 31.8752 38.9999 31.3316 39 30.7784Z" stroke="white" stroke-width="2" stroke-linecap="round" stroke-linejoin="round"/>
<path d="M19.9997 23.1208V42.9124M19.9997 23.1208L1.98926 12.6816M19.9997 23.1208L38.7028 12.6816" stroke="white" stroke-width="2" stroke-linecap="round" stroke-linejoin="round"/>
</svg>
