<svg width="32" height="32" viewBox="0 0 32 32" fill="none" xmlns="http://www.w3.org/2000/svg">
<path d="M11.6667 17.3333C13.3235 17.3333 14.6667 18.6765 14.6667 20.3333V25C14.6667 26.6568 13.3235 28 11.6667 28H7C5.34315 28 4 26.6568 4 25V20.3333C4 18.6765 5.34315 17.3333 7 17.3333H11.6667ZM25 17.3333C26.6568 17.3333 28 18.6765 28 20.3333V25C28 26.6568 26.6568 28 25 28H20.3333C18.6765 28 17.3333 26.6568 17.3333 25V20.3333C17.3333 18.6765 18.6765 17.3333 20.3333 17.3333H25ZM11.6667 19.3333H7C6.44772 19.3333 6 19.7811 6 20.3333V25C6 25.5523 6.44772 26 7 26H11.6667C12.2189 26 12.6667 25.5523 12.6667 25V20.3333C12.6667 19.7811 12.2189 19.3333 11.6667 19.3333ZM25 19.3333H20.3333C19.7811 19.3333 19.3333 19.7811 19.3333 20.3333V25C19.3333 25.5523 19.7811 26 20.3333 26H25C25.5523 26 26 25.5523 26 25V20.3333C26 19.7811 25.5523 19.3333 25 19.3333ZM11.6667 4C13.3235 4 14.6667 5.34315 14.6667 7V11.6667C14.6667 13.3235 13.3235 14.6667 11.6667 14.6667H7C5.34315 14.6667 4 13.3235 4 11.6667V7C4 5.34315 5.34315 4 7 4H11.6667ZM25 4C26.6568 4 28 5.34315 28 7V11.6667C28 13.3235 26.6568 14.6667 25 14.6667H20.3333C18.6765 14.6667 17.3333 13.3235 17.3333 11.6667V7C17.3333 5.34315 18.6765 4 20.3333 4H25ZM11.6667 6H7C6.44772 6 6 6.44772 6 7V11.6667C6 12.2189 6.44772 12.6667 7 12.6667H11.6667C12.2189 12.6667 12.6667 12.2189 12.6667 11.6667V7C12.6667 6.44772 12.2189 6 11.6667 6ZM25 6H20.3333C19.7811 6 19.3333 6.44772 19.3333 7V11.6667C19.3333 12.2189 19.7811 12.6667 20.3333 12.6667H25C25.5523 12.6667 26 12.2189 26 11.6667V7C26 6.44772 25.5523 6 25 6Z" fill="white"/>
</svg>
