<svg width="84" height="84" viewBox="0 0 84 84" fill="none" xmlns="http://www.w3.org/2000/svg">
<rect width="84" height="84" rx="42" fill="#A988F9"/>
<path d="M35.125 47.5C40.061 47.5 44.0625 43.4985 44.0625 38.5625C44.0625 33.6265 40.061 29.625 35.125 29.625C30.189 29.625 26.1875 33.6265 26.1875 38.5625C26.1875 43.4985 30.189 47.5 35.125 47.5Z" stroke="white" stroke-width="3" stroke-miterlimit="10"/>
<path d="M46.709 29.9516C47.4991 29.7373 48.3138 29.6275 49.1324 29.625C51.5028 29.625 53.7761 30.5666 55.4522 32.2427C57.1283 33.9188 58.0699 36.1921 58.0699 38.5625C58.0699 40.9329 57.1283 43.2062 55.4522 44.8823C53.7761 46.5584 51.5028 47.5 49.1324 47.5" stroke="white" stroke-width="3" stroke-linecap="round" stroke-linejoin="round"/>
<path d="M22.75 53.9287C24.1455 51.9429 25.9985 50.322 28.1524 49.2031C30.3063 48.0841 32.6978 47.5 35.125 47.5C37.5522 47.5 39.9437 48.0841 42.0976 49.2031C44.2515 50.322 46.1045 51.9429 47.5 53.9287" stroke="white" stroke-width="3" stroke-linecap="round" stroke-linejoin="round"/>
<path d="M49.1328 47.5C51.5602 47.4985 53.9522 48.0819 56.1063 49.2009C58.2605 50.3198 60.1132 51.9413 61.5078 53.9281" stroke="white" stroke-width="3" stroke-linecap="round" stroke-linejoin="round"/>
</svg>
