<svg width="666" height="875" viewBox="0 0 666 875" fill="none" xmlns="http://www.w3.org/2000/svg">
<path d="M22.6796 473.697C25.3546 473.697 27.5232 471.528 27.5232 468.853C27.5232 466.178 25.3546 464.01 22.6796 464.01C20.0045 464.01 17.8359 466.178 17.8359 468.853C17.8359 471.528 20.0045 473.697 22.6796 473.697Z" stroke="#4D2C5E" stroke-opacity="0.3" stroke-width="2" stroke-miterlimit="10" stroke-linecap="round" stroke-linejoin="round"/>
<path d="M4.44426 458.894C10.1494 458.894 14.7743 454.27 14.7743 448.564C14.7743 442.859 10.1494 438.234 4.44426 438.234C-1.26086 438.234 -5.88574 442.859 -5.88574 448.564C-5.88574 454.27 -1.26086 458.894 4.44426 458.894Z" stroke="#4D2C5E" stroke-opacity="0.3" stroke-width="2" stroke-miterlimit="10" stroke-linecap="round" stroke-linejoin="round"/>
<path d="M22.4433 448.565L18.9981 454.587L17.1712 461.291L10.4724 463.113L4.44468 466.563L-1.58305 463.113L-8.2874 461.291L-10.1087 454.587L-13.5596 448.565L-10.1087 442.537L-8.2874 435.833L-1.58305 434.011L4.44468 430.561L10.4724 434.011L17.1712 435.833L18.9981 442.537L22.4433 448.565Z" stroke="#4D2C5E" stroke-opacity="0.3" stroke-width="2" stroke-miterlimit="10" stroke-linecap="round" stroke-linejoin="round"/>
<path d="M17.8363 468.853C17.8363 466.181 20.0072 464.01 22.6799 464.01C24.1234 464.01 25.4203 464.647 26.3056 465.651C29.9933 460.937 32.198 455.011 32.198 448.56C32.198 433.228 19.7704 420.801 4.43886 420.801C-10.8927 420.801 -23.3203 433.228 -23.3203 448.56C-23.3203 463.891 -10.8927 476.319 4.43886 476.319C9.82942 476.319 14.8534 474.78 19.1106 472.124C18.3269 471.261 17.8363 470.117 17.8363 468.853Z" stroke="#4D2C5E" stroke-opacity="0.3" stroke-width="2" stroke-miterlimit="10" stroke-linecap="round" stroke-linejoin="round"/>
<path d="M4.44488 411C-8.50713 411 -19.931 417.558 -26.6805 427.533C-25.2652 428.378 -24.3123 429.923 -24.3123 431.694C-24.3123 434.367 -26.4832 436.538 -29.1559 436.538C-29.8156 436.538 -30.4415 436.402 -31.011 436.165C-32.3699 440.05 -33.1143 444.217 -33.1143 448.565C-33.1143 469.309 -16.2941 486.13 4.45052 486.13C25.1952 486.13 42.0153 469.309 42.0153 448.565C42.0153 427.82 25.1895 411 4.44488 411Z" stroke="#4D2C5E" stroke-opacity="0.3" stroke-width="2" stroke-miterlimit="10" stroke-linecap="round" stroke-linejoin="round"/>
<path d="M389.841 186.225L366.535 178.31C364.072 177.476 362.757 174.799 363.592 172.337C364.426 169.874 367.102 168.559 369.558 169.393L392.864 177.309C395.327 178.143 396.642 180.819 395.808 183.275C394.973 185.745 392.304 187.066 389.841 186.225Z" stroke="#4D2C5E" stroke-opacity="0.3" stroke-width="3" stroke-miterlimit="10"/>
<path d="M386.777 195.248L363.471 187.333C361.009 186.498 359.694 183.822 360.528 181.366C361.362 178.903 364.039 177.588 366.501 178.423L389.807 186.331C392.27 187.166 393.585 189.842 392.751 192.305C391.91 194.768 389.24 196.082 386.777 195.248Z" stroke="#4D2C5E" stroke-opacity="0.3" stroke-width="3" stroke-miterlimit="10"/>
<path d="M366.061 145.053C366.088 145.133 366.108 145.207 366.134 145.287C366.655 146.949 369.725 157.48 368.444 169.167L393.445 177.416C399.371 167.265 408.108 160.637 409.516 159.609C409.583 159.563 409.65 159.516 409.71 159.469C410.39 158.982 411.051 158.461 411.692 157.907C415.456 154.657 418.419 150.379 420.088 145.32C425.007 130.423 416.918 114.359 402.021 109.44C387.124 104.521 371.06 112.61 366.141 127.507C364.466 132.572 364.299 137.772 365.394 142.624C365.58 143.438 365.801 144.252 366.061 145.053Z" stroke="#4D2C5E" stroke-opacity="0.3" stroke-width="3" stroke-miterlimit="10"/>
<path d="M364.746 187.881C364.466 192.82 367.509 197.525 372.435 199.153C377.294 200.755 382.466 198.853 385.216 194.829L364.746 187.881Z" stroke="#4D2C5E" stroke-opacity="0.3" stroke-width="3" stroke-miterlimit="10"/>
<path d="M376.273 171.617L383.701 149.105C384.435 146.889 383.227 144.5 381.011 143.766C378.795 143.032 376.406 144.24 375.672 146.455C374.938 148.671 376.146 151.061 378.362 151.795L387.278 154.738" stroke="#4D2C5E" stroke-opacity="0.3" stroke-width="3" stroke-miterlimit="10"/>
<path d="M386.07 174.853L393.499 152.342C394.233 150.126 396.622 148.924 398.838 149.652C401.054 150.386 402.255 152.775 401.528 154.991C400.793 157.207 398.404 158.408 396.188 157.681L387.272 154.737" stroke="#4D2C5E" stroke-opacity="0.3" stroke-width="3" stroke-miterlimit="10"/>
<path d="M425.367 153.076L432.896 155.566" stroke="#4D2C5E" stroke-opacity="0.3" stroke-width="3" stroke-miterlimit="10" stroke-linecap="round"/>
<path d="M428.818 143.591L436.66 142.41" stroke="#4D2C5E" stroke-opacity="0.3" stroke-width="3" stroke-miterlimit="10" stroke-linecap="round"/>
<path d="M420.102 161.211L425.694 166.831" stroke="#4D2C5E" stroke-opacity="0.3" stroke-width="3" stroke-miterlimit="10" stroke-linecap="round"/>
<path d="M355.442 129.996L347.914 127.514" stroke="#4D2C5E" stroke-opacity="0.3" stroke-width="3" stroke-miterlimit="10" stroke-linecap="round"/>
<path d="M358.319 120.319L352.727 114.699" stroke="#4D2C5E" stroke-opacity="0.3" stroke-width="3" stroke-miterlimit="10" stroke-linecap="round"/>
<path d="M354.835 139.668L347 140.849" stroke="#4D2C5E" stroke-opacity="0.3" stroke-width="3" stroke-miterlimit="10" stroke-linecap="round"/>
<path d="M225.28 61.836C246.974 61.836 264.56 53.4999 264.56 43.2168C264.56 32.9337 246.974 24.5977 225.28 24.5977C203.586 24.5977 186 32.9337 186 43.2168C186 53.4999 203.586 61.836 225.28 61.836Z" stroke="#4D2C5E" stroke-opacity="0.3" stroke-width="3" stroke-miterlimit="10" stroke-linecap="round" stroke-linejoin="round"/>
<path d="M241.165 52.9223C252.446 34.3937 254.471 15.0385 245.688 9.6913C236.906 4.34409 220.641 15.0298 209.36 33.5584C198.079 52.087 196.054 71.4422 204.837 76.7894C213.62 82.1366 229.885 71.451 241.165 52.9223Z" stroke="#4D2C5E" stroke-opacity="0.3" stroke-width="3" stroke-miterlimit="10" stroke-linecap="round" stroke-linejoin="round"/>
<path d="M245.681 76.7794C254.463 71.4322 252.438 52.077 241.158 33.5484C229.877 15.0198 213.612 4.33412 204.829 9.68132C196.047 15.0285 198.072 34.3837 209.352 52.9123C220.633 71.441 236.898 82.1266 245.681 76.7794Z" stroke="#4D2C5E" stroke-opacity="0.3" stroke-width="3" stroke-miterlimit="10" stroke-linecap="round" stroke-linejoin="round"/>
<path d="M225.28 48.1447C228.002 48.1447 230.209 45.938 230.209 43.2159C230.209 40.4938 228.002 38.2871 225.28 38.2871C222.558 38.2871 220.352 40.4938 220.352 43.2159C220.352 45.938 222.558 48.1447 225.28 48.1447Z" stroke="#4D2C5E" stroke-opacity="0.3" stroke-width="3" stroke-miterlimit="10" stroke-linecap="round" stroke-linejoin="round"/>
<path d="M476.027 753.206L472.842 760.466" stroke="#4D2C5E" stroke-opacity="0.3" stroke-width="4" stroke-miterlimit="10" stroke-linecap="round" stroke-linejoin="round"/>
<path d="M499.145 763.347L495.96 770.606" stroke="#4D2C5E" stroke-opacity="0.3" stroke-width="4" stroke-miterlimit="10" stroke-linecap="round" stroke-linejoin="round"/>
<path d="M522.269 773.483L519.084 780.743" stroke="#4D2C5E" stroke-opacity="0.3" stroke-width="4" stroke-miterlimit="10" stroke-linecap="round" stroke-linejoin="round"/>
<path d="M460.554 746.421L458.961 750.056" stroke="#4D2C5E" stroke-opacity="0.3" stroke-width="4" stroke-miterlimit="10" stroke-linecap="round" stroke-linejoin="round"/>
<path d="M468.29 749.819L466.698 753.443" stroke="#4D2C5E" stroke-opacity="0.3" stroke-width="4" stroke-miterlimit="10" stroke-linecap="round" stroke-linejoin="round"/>
<path d="M483.718 756.577L482.125 760.213" stroke="#4D2C5E" stroke-opacity="0.3" stroke-width="4" stroke-miterlimit="10" stroke-linecap="round" stroke-linejoin="round"/>
<path d="M491.448 759.969L489.861 763.599" stroke="#4D2C5E" stroke-opacity="0.3" stroke-width="4" stroke-miterlimit="10" stroke-linecap="round" stroke-linejoin="round"/>
<path d="M506.881 766.733L505.288 770.369" stroke="#4D2C5E" stroke-opacity="0.3" stroke-width="4" stroke-miterlimit="10" stroke-linecap="round" stroke-linejoin="round"/>
<path d="M530.38 777.039L528.793 780.67" stroke="#4D2C5E" stroke-opacity="0.3" stroke-width="4" stroke-miterlimit="10" stroke-linecap="round" stroke-linejoin="round"/>
<path d="M514.612 770.125L513.026 773.756" stroke="#4D2C5E" stroke-opacity="0.3" stroke-width="4" stroke-miterlimit="10" stroke-linecap="round" stroke-linejoin="round"/>
<path d="M517.268 835.091L440.93 737.821L540.731 781.577L517.268 835.091Z" stroke="#4D2C5E" stroke-opacity="0.3" stroke-width="4" stroke-miterlimit="10" stroke-linecap="round" stroke-linejoin="round"/>
<path d="M513.378 804.39L492.494 777.78L519.793 789.745L513.378 804.39Z" stroke="#4D2C5E" stroke-opacity="0.3" stroke-width="4" stroke-miterlimit="10" stroke-linecap="round" stroke-linejoin="round"/>
<path d="M104.001 721.631L72.7708 736.301C71.1008 737.091 69.1108 736.371 68.3208 734.701L66.3208 730.441C65.5308 728.771 66.2508 726.781 67.9208 725.991L99.1508 711.321C100.821 710.531 102.811 711.251 103.601 712.921L105.601 717.181C106.391 718.861 105.671 720.851 104.001 721.631Z" stroke="#4D2C5E" stroke-opacity="0.3" stroke-width="4" stroke-miterlimit="10" stroke-linecap="round"/>
<path d="M116.131 754.951L100.851 723.131L76.1309 735.001L91.4109 766.821L101.051 820.061C104.221 826.671 112.151 829.451 118.751 826.281L145.441 813.461C152.051 810.291 154.831 802.361 151.661 795.761L116.131 754.951Z" stroke="#4D2C5E" stroke-opacity="0.3" stroke-width="4" stroke-miterlimit="10" stroke-linecap="round"/>
<path d="M95.751 790.83C95.751 790.83 100.851 782.57 114.411 783.04C127.971 783.51 130.251 771.16 130.251 771.16" stroke="#4D2C5E" stroke-opacity="0.3" stroke-width="4" stroke-miterlimit="10" stroke-linecap="round"/>
<path d="M147.48 206.96C159.343 206.96 168.96 197.343 168.96 185.48C168.96 173.617 159.343 164 147.48 164C135.617 164 126 173.617 126 185.48C126 197.343 135.617 206.96 147.48 206.96Z" stroke="#4D2C5E" stroke-opacity="0.3" stroke-width="4" stroke-miterlimit="10" stroke-linecap="round" stroke-linejoin="round"/>
<path d="M177.59 228.18C182.334 228.18 186.18 224.334 186.18 219.59C186.18 214.846 182.334 211 177.59 211C172.846 211 169 214.846 169 219.59C169 224.334 172.846 228.18 177.59 228.18Z" stroke="#4D2C5E" stroke-opacity="0.3" stroke-width="4" stroke-miterlimit="10" stroke-linecap="round" stroke-linejoin="round"/>
</svg>
