<svg width="83" height="87" viewBox="0 0 83 87" fill="none" xmlns="http://www.w3.org/2000/svg">
<path d="M41.28 61.836C62.9737 61.836 80.56 53.4999 80.56 43.2168C80.56 32.9337 62.9737 24.5977 41.28 24.5977C19.5862 24.5977 2 32.9337 2 43.2168C2 53.4999 19.5862 61.836 41.28 61.836Z" stroke="#4D2C5E" stroke-opacity="0.1" stroke-width="3" stroke-miterlimit="10" stroke-linecap="round" stroke-linejoin="round"/>
<path d="M57.1654 52.9223C68.4462 34.3937 70.4712 15.0385 61.6884 9.6913C52.9056 4.34409 36.6409 15.0298 25.3602 33.5584C14.0794 52.087 12.0544 71.4422 20.8372 76.7894C29.62 82.1366 45.8847 71.451 57.1654 52.9223Z" stroke="#4D2C5E" stroke-opacity="0.1" stroke-width="3" stroke-miterlimit="10" stroke-linecap="round" stroke-linejoin="round"/>
<path d="M61.6806 76.7794C70.4634 71.4322 68.4384 52.077 57.1576 33.5484C45.8769 15.0198 29.6122 4.33412 20.8294 9.68132C12.0466 15.0285 14.0716 34.3837 25.3524 52.9123C36.6331 71.441 52.8978 82.1266 61.6806 76.7794Z" stroke="#4D2C5E" stroke-opacity="0.1" stroke-width="3" stroke-miterlimit="10" stroke-linecap="round" stroke-linejoin="round"/>
<path d="M41.2803 48.1447C44.0024 48.1447 46.2091 45.938 46.2091 43.2159C46.2091 40.4938 44.0024 38.2871 41.2803 38.2871C38.5583 38.2871 36.3516 40.4938 36.3516 43.2159C36.3516 45.938 38.5583 48.1447 41.2803 48.1447Z" stroke="#4D2C5E" stroke-opacity="0.1" stroke-width="3" stroke-miterlimit="10" stroke-linecap="round" stroke-linejoin="round"/>
</svg>
