<svg width="34" height="36" viewBox="0 0 34 36" fill="none" xmlns="http://www.w3.org/2000/svg">
<path opacity="0.8" d="M28.9693 21H27.6177V6H28.9693C29.3277 6 29.6715 5.84196 29.925 5.56066C30.1785 5.27936 30.3209 4.89782 30.3209 4.5C30.3209 4.10218 30.1785 3.72064 29.925 3.43934C29.6715 3.15804 29.3277 3 28.9693 3H4.64065C4.28219 3 3.93841 3.15804 3.68493 3.43934C3.43146 3.72064 3.28906 4.10218 3.28906 4.5C3.28906 4.89782 3.43146 5.27936 3.68493 5.56066C3.93841 5.84196 4.28219 6 4.64065 6H5.99224V21H4.64065C4.28219 21 3.93841 21.158 3.68493 21.4393C3.43146 21.7206 3.28906 22.1022 3.28906 22.5C3.28906 22.8978 3.43146 23.2794 3.68493 23.5607C3.93841 23.842 4.28219 24 4.64065 24H15.4534V25.725L9.30364 30.225C9.05134 30.3983 8.85745 30.659 8.75188 30.9667C8.6463 31.2745 8.63492 31.6122 8.71947 31.9279C8.80403 32.2435 8.97983 32.5195 9.21975 32.7133C9.45967 32.907 9.75038 33.0078 10.047 33C10.3127 33.0034 10.5727 32.9142 10.7904 32.745L15.4534 29.325V31.5C15.4534 31.8978 15.5958 32.2794 15.8492 32.5607C16.1027 32.842 16.4465 33 16.805 33C17.1634 33 17.5072 32.842 17.7607 32.5607C18.0142 32.2794 18.1566 31.8978 18.1566 31.5V29.325L22.8195 32.745C23.0372 32.9142 23.2972 33.0034 23.5629 33C23.8517 32.9975 24.1321 32.8925 24.3632 32.7002C24.5943 32.508 24.7638 32.2387 24.8469 31.9318C24.93 31.6249 24.9224 31.2965 24.8251 30.9947C24.7278 30.693 24.546 30.4337 24.3063 30.255L18.1566 25.755V24H28.9693C29.3277 24 29.6715 23.842 29.925 23.5607C30.1785 23.2794 30.3209 22.8978 30.3209 22.5C30.3209 22.1022 30.1785 21.7206 29.925 21.4393C29.6715 21.158 29.3277 21 28.9693 21ZM24.9145 21H8.69542V6H24.9145V21ZM13.5747 18.39C13.9349 18.6262 14.3457 18.7508 14.7641 18.7508C15.1825 18.7508 15.5932 18.6262 15.9535 18.39L20.0082 15.78C20.3549 15.5439 20.6412 15.2131 20.8398 14.8192C21.0384 14.4252 21.1427 13.9814 21.1427 13.53C21.1427 13.0786 21.0384 12.6348 20.8398 12.2408C20.6412 11.8469 20.3549 11.5161 20.0082 11.28L15.9535 8.67C15.5932 8.4338 15.1825 8.30919 14.7641 8.30919C14.3457 8.30919 13.9349 8.4338 13.5747 8.67C13.2117 8.8971 12.9107 9.22889 12.7037 9.63025C12.4967 10.0316 12.3914 10.4876 12.3988 10.95V16.17C12.401 16.6222 12.511 17.0658 12.7175 17.4556C12.924 17.8455 13.2197 18.1679 13.5747 18.39ZM15.102 11.52L18.1566 13.5L15.0749 15.48L15.102 11.52Z" fill="#0CDDD5"/>
</svg>
