<svg width="1258" height="942" viewBox="0 0 1258 942" fill="none" xmlns="http://www.w3.org/2000/svg">
<path d="M240.687 383.687C240.687 386.36 238.516 388.531 235.844 388.531C233.171 388.531 231 386.36 231 383.687C231 381.015 233.171 378.844 235.844 378.844C238.516 378.844 240.687 381.009 240.687 383.687Z" stroke="#4D2C5E" stroke-opacity="0.3" stroke-width="2" stroke-miterlimit="10" stroke-linecap="round" stroke-linejoin="round"/>
<path d="M287.68 425.697C290.355 425.697 292.523 423.528 292.523 420.853C292.523 418.178 290.355 416.01 287.68 416.01C285.005 416.01 282.836 418.178 282.836 420.853C282.836 423.528 285.005 425.697 287.68 425.697Z" stroke="#4D2C5E" stroke-opacity="0.3" stroke-width="2" stroke-miterlimit="10" stroke-linecap="round" stroke-linejoin="round"/>
<path d="M269.444 410.894C275.15 410.894 279.774 406.27 279.774 400.564C279.774 394.859 275.15 390.234 269.444 390.234C263.739 390.234 259.114 394.859 259.114 400.564C259.114 406.27 263.739 410.894 269.444 410.894Z" stroke="#4D2C5E" stroke-opacity="0.3" stroke-width="2" stroke-miterlimit="10" stroke-linecap="round" stroke-linejoin="round"/>
<path d="M287.443 400.565L283.998 406.587L282.171 413.291L275.472 415.113L269.444 418.563L263.417 415.113L256.712 413.291L254.891 406.587L251.44 400.565L254.891 394.537L256.712 387.833L263.417 386.011L269.444 382.561L275.472 386.011L282.171 387.833L283.998 394.537L287.443 400.565Z" stroke="#4D2C5E" stroke-opacity="0.3" stroke-width="2" stroke-miterlimit="10" stroke-linecap="round" stroke-linejoin="round"/>
<path d="M282.836 420.853C282.836 418.181 285.007 416.01 287.68 416.01C289.123 416.01 290.42 416.647 291.306 417.651C294.993 412.937 297.198 407.011 297.198 400.56C297.198 385.228 284.77 372.801 269.439 372.801C254.107 372.801 241.68 385.228 241.68 400.56C241.68 415.891 254.107 428.319 269.439 428.319C274.829 428.319 279.853 426.78 284.111 424.124C283.327 423.261 282.836 422.117 282.836 420.853Z" stroke="#4D2C5E" stroke-opacity="0.3" stroke-width="2" stroke-miterlimit="10" stroke-linecap="round" stroke-linejoin="round"/>
<path d="M269.444 363C256.492 363 245.068 369.558 238.319 379.533C239.734 380.378 240.687 381.923 240.687 383.694C240.687 386.367 238.516 388.538 235.844 388.538C235.184 388.538 234.558 388.402 233.988 388.165C232.63 392.05 231.885 396.217 231.885 400.565C231.885 421.309 248.705 438.13 269.45 438.13C290.195 438.13 307.015 421.309 307.015 400.565C307.015 379.82 290.189 363 269.444 363Z" stroke="#4D2C5E" stroke-opacity="0.3" stroke-width="2" stroke-miterlimit="10" stroke-linecap="round" stroke-linejoin="round"/>
<path d="M527.841 80.2254L504.535 72.3099C502.072 71.4757 500.758 68.7994 501.592 66.3366C502.426 63.8739 505.103 62.5591 507.559 63.3933L530.865 71.3088C533.327 72.1431 534.642 74.8194 533.808 77.2755C532.974 79.7449 530.304 81.0664 527.841 80.2254Z" stroke="#4D2C5E" stroke-opacity="0.3" stroke-width="3" stroke-miterlimit="10"/>
<path d="M524.778 89.2481L501.472 81.3326C499.009 80.4983 497.694 77.822 498.528 75.3659C499.363 72.9032 502.039 71.5884 504.502 72.4226L527.808 80.3315C530.271 81.1657 531.585 83.8421 530.751 86.3048C529.91 88.7676 527.24 90.0823 524.778 89.2481Z" stroke="#4D2C5E" stroke-opacity="0.3" stroke-width="3" stroke-miterlimit="10"/>
<path d="M504.061 39.0531C504.088 39.1331 504.108 39.2066 504.135 39.2867C504.655 40.9485 507.725 51.4802 506.444 63.1666L531.445 71.4158C537.372 61.2645 546.108 54.6371 547.516 53.6093C547.583 53.5626 547.65 53.5159 547.71 53.4692C548.391 52.9819 549.051 52.4613 549.692 51.9074C553.456 48.6571 556.42 44.379 558.088 39.32C563.007 24.4234 554.918 8.35885 540.021 3.44004C525.125 -1.47878 509.06 6.61024 504.141 21.5068C502.466 26.5725 502.299 31.7716 503.394 36.6237C503.581 37.438 503.801 38.2522 504.061 39.0531Z" stroke="#4D2C5E" stroke-opacity="0.3" stroke-width="3" stroke-miterlimit="10"/>
<path d="M502.746 81.8809C502.466 86.8197 505.51 91.5249 510.435 93.1534C515.294 94.7552 520.466 92.8531 523.216 88.8286L502.746 81.8809Z" stroke="#4D2C5E" stroke-opacity="0.3" stroke-width="3" stroke-miterlimit="10"/>
<path d="M514.273 65.6168L521.701 43.105C522.435 40.8892 521.227 38.4998 519.011 37.7657C516.795 37.0315 514.406 38.2396 513.672 40.4554C512.938 42.6712 514.146 45.0605 516.362 45.7947L525.278 48.7379" stroke="#4D2C5E" stroke-opacity="0.3" stroke-width="3" stroke-miterlimit="10"/>
<path d="M524.07 68.8533L531.499 46.3415C532.233 44.1257 534.622 42.9243 536.838 43.6518C539.054 44.386 540.255 46.7753 539.528 48.9911C538.793 51.2069 536.404 52.4083 534.188 51.6808L525.272 48.7375" stroke="#4D2C5E" stroke-opacity="0.3" stroke-width="3" stroke-miterlimit="10"/>
<path d="M563.367 47.0762L570.896 49.5656" stroke="#4D2C5E" stroke-opacity="0.3" stroke-width="3" stroke-miterlimit="10" stroke-linecap="round"/>
<path d="M566.818 37.5914L574.66 36.4102" stroke="#4D2C5E" stroke-opacity="0.3" stroke-width="3" stroke-miterlimit="10" stroke-linecap="round"/>
<path d="M558.102 55.2109L563.694 60.8305" stroke="#4D2C5E" stroke-opacity="0.3" stroke-width="3" stroke-miterlimit="10" stroke-linecap="round"/>
<path d="M493.443 23.9964L485.914 21.5137" stroke="#4D2C5E" stroke-opacity="0.3" stroke-width="3" stroke-miterlimit="10" stroke-linecap="round"/>
<path d="M496.319 14.3188L490.726 8.69922" stroke="#4D2C5E" stroke-opacity="0.3" stroke-width="3" stroke-miterlimit="10" stroke-linecap="round"/>
<path d="M492.835 33.668L485 34.8493" stroke="#4D2C5E" stroke-opacity="0.3" stroke-width="3" stroke-miterlimit="10" stroke-linecap="round"/>
<path d="M1136.99 214.578L1067.79 193.906C1062.76 192.404 1059.9 187.107 1061.4 182.073L1075.22 135.788C1076.72 130.755 1082.02 127.898 1087.05 129.4L1156.26 150.073C1161.29 151.575 1164.15 156.872 1162.65 161.905L1148.83 208.19C1147.32 213.217 1142.02 216.08 1136.99 214.578Z" stroke="#4D2C5E" stroke-opacity="0.3" stroke-width="4" stroke-miterlimit="10" stroke-linecap="round"/>
<path d="M1063.03 176.6L1150.46 202.716" stroke="#4D2C5E" stroke-opacity="0.3" stroke-width="4" stroke-miterlimit="10" stroke-linecap="round"/>
<path d="M1106.96 197.244C1106.58 198.499 1105.26 199.215 1104 198.84C1102.75 198.464 1102.03 197.138 1102.41 195.883C1102.78 194.628 1104.11 193.912 1105.36 194.287C1106.62 194.663 1107.33 195.989 1106.96 197.244Z" fill="#4D2C5E" fill-opacity="0.5"/>
<path d="M1112.2 207.179L1092.6 201.324L1089.96 210.166L1109.56 216.021L1112.2 207.179Z" stroke="#4D2C5E" stroke-opacity="0.3" stroke-width="4" stroke-miterlimit="10" stroke-linecap="round"/>
<path d="M1082.69 208.5L1116.53 218.608" stroke="#4D2C5E" stroke-opacity="0.3" stroke-width="4" stroke-miterlimit="10" stroke-linecap="round"/>
<path d="M54.28 365.836C75.9737 365.836 93.56 357.5 93.56 347.217C93.56 336.934 75.9737 328.598 54.28 328.598C32.5862 328.598 15 336.934 15 347.217C15 357.5 32.5862 365.836 54.28 365.836Z" stroke="#4D2C5E" stroke-opacity="0.3" stroke-width="3" stroke-miterlimit="10" stroke-linecap="round" stroke-linejoin="round"/>
<path d="M70.1649 356.922C81.4457 338.394 83.4707 319.039 74.6879 313.691C65.9051 308.344 49.6404 319.03 38.3597 337.558C27.0789 356.087 25.0539 375.442 33.8367 380.789C42.6195 386.137 58.8842 375.451 70.1649 356.922Z" stroke="#4D2C5E" stroke-opacity="0.3" stroke-width="3" stroke-miterlimit="10" stroke-linecap="round" stroke-linejoin="round"/>
<path d="M74.6803 380.779C83.4631 375.432 81.4381 356.077 70.1574 337.548C58.8766 319.02 42.6119 308.334 33.8291 313.681C25.0464 319.029 27.0714 338.384 38.3521 356.912C49.6329 375.441 65.8976 386.127 74.6803 380.779Z" stroke="#4D2C5E" stroke-opacity="0.3" stroke-width="3" stroke-miterlimit="10" stroke-linecap="round" stroke-linejoin="round"/>
<path d="M54.28 352.145C57.0021 352.145 59.2088 349.938 59.2088 347.216C59.2088 344.494 57.0021 342.287 54.28 342.287C51.5579 342.287 49.3512 344.494 49.3512 347.216C49.3512 349.938 51.5579 352.145 54.28 352.145Z" stroke="#4D2C5E" stroke-opacity="0.3" stroke-width="3" stroke-miterlimit="10" stroke-linecap="round" stroke-linejoin="round"/>
<path d="M1084.29 905.641L1051.86 913.129L1050.4 906.807C1050.06 905.341 1050.97 903.883 1052.43 903.541L1079.57 897.275C1081.03 896.94 1082.49 897.847 1082.83 899.312L1084.29 905.641Z" stroke="#4D2C5E" stroke-opacity="0.3" stroke-width="3" stroke-miterlimit="10" stroke-linecap="round"/>
<path d="M1073.63 871.644C1087.93 860.117 1090.17 839.183 1078.64 824.887C1067.12 810.59 1046.18 808.345 1031.89 819.873C1017.59 831.4 1015.34 852.334 1026.87 866.63C1038.4 880.926 1059.33 883.171 1073.63 871.644Z" stroke="#4D2C5E" stroke-opacity="0.3" stroke-width="3" stroke-miterlimit="10"/>
<path d="M1068.23 875.176L1037.22 816.35L1033.35 809.211C1013.13 819.867 1005.39 844.89 1016.04 865.106C1026.7 885.322 1051.72 893.068 1071.94 882.412L1068.15 875.224" stroke="#4D2C5E" stroke-opacity="0.3" stroke-width="3" stroke-miterlimit="10" stroke-linecap="round" stroke-linejoin="round"/>
<path d="M1044.06 829.24C1054.21 823.887 1060.91 816.654 1059.03 813.084C1057.15 809.515 1047.39 810.961 1037.24 816.314C1027.09 821.666 1020.38 828.899 1022.27 832.469C1024.15 836.038 1033.9 834.593 1044.06 829.24Z" stroke="#4D2C5E" stroke-opacity="0.3" stroke-width="3" stroke-miterlimit="10"/>
<path d="M1046.44 878.407C1053.61 879.789 1061.28 878.847 1068.23 875.176C1075.19 871.506 1080.31 865.714 1083.22 859.022C1076.05 857.64 1068.38 858.582 1061.42 862.253C1054.46 865.923 1049.35 871.715 1046.44 878.407Z" stroke="#4D2C5E" stroke-opacity="0.3" stroke-width="3" stroke-miterlimit="10"/>
<path d="M1068.26 875.14C1076.38 870.858 1076.02 854.218 1067.45 837.973C1058.89 821.728 1045.36 812.03 1037.24 816.312C1029.12 820.594 1029.48 837.233 1038.05 853.478C1046.61 869.723 1060.14 879.421 1068.26 875.14Z" stroke="#4D2C5E" stroke-opacity="0.3" stroke-width="3" stroke-miterlimit="10"/>
<path d="M1023.31 861.269L1082.14 830.258" stroke="#4D2C5E" stroke-opacity="0.3" stroke-width="3" stroke-miterlimit="10"/>
<path d="M1062.39 886.033L1065.82 900.352" stroke="#4D2C5E" stroke-opacity="0.3" stroke-width="3" stroke-miterlimit="10"/>
<path d="M1047.96 914.463L1089.31 904.547" stroke="#4D2C5E" stroke-opacity="0.3" stroke-width="3" stroke-miterlimit="10" stroke-linecap="round"/>
<path d="M1233.73 552.023L1251.03 534.719L1203.08 486.769L1185.78 504.073L1233.73 552.023Z" stroke="#4D2C5E" stroke-opacity="0.3" stroke-width="3" stroke-miterlimit="10" stroke-linecap="round" stroke-linejoin="round"/>
<path d="M1255.71 556.705L1251.03 534.715L1233.72 552.02L1255.71 556.705Z" stroke="#4D2C5E" stroke-opacity="0.3" stroke-width="3" stroke-miterlimit="10" stroke-linecap="round" stroke-linejoin="round"/>
<path d="M1253.53 546.445L1245.45 554.519" stroke="#4D2C5E" stroke-opacity="0.3" stroke-width="3" stroke-miterlimit="10" stroke-linecap="round" stroke-linejoin="round"/>
<path d="M1180.68 490.881L1189.88 481.68C1192.12 479.44 1195.75 479.44 1197.98 481.68L1203.07 486.768L1185.77 504.073L1180.68 498.985C1178.44 496.746 1178.44 493.112 1180.68 490.881Z" stroke="#4D2C5E" stroke-opacity="0.3" stroke-width="3" stroke-miterlimit="10" stroke-linecap="round" stroke-linejoin="round"/>
<path d="M1207.75 491.438L1190.44 508.75" stroke="#4D2C5E" stroke-opacity="0.3" stroke-width="3" stroke-miterlimit="10" stroke-linecap="round" stroke-linejoin="round"/>
<path d="M1242.38 543.369L1199.1 500.098" stroke="#4D2C5E" stroke-opacity="0.3" stroke-width="3" stroke-miterlimit="10" stroke-linecap="round" stroke-linejoin="round"/>
<path d="M500.027 857.206L496.842 864.466" stroke="#4D2C5E" stroke-opacity="0.3" stroke-width="4" stroke-miterlimit="10" stroke-linecap="round" stroke-linejoin="round"/>
<path d="M523.145 867.347L519.96 874.606" stroke="#4D2C5E" stroke-opacity="0.3" stroke-width="4" stroke-miterlimit="10" stroke-linecap="round" stroke-linejoin="round"/>
<path d="M546.269 877.483L543.084 884.743" stroke="#4D2C5E" stroke-opacity="0.3" stroke-width="4" stroke-miterlimit="10" stroke-linecap="round" stroke-linejoin="round"/>
<path d="M484.554 850.421L482.961 854.056" stroke="#4D2C5E" stroke-opacity="0.3" stroke-width="4" stroke-miterlimit="10" stroke-linecap="round" stroke-linejoin="round"/>
<path d="M492.29 853.819L490.698 857.443" stroke="#4D2C5E" stroke-opacity="0.3" stroke-width="4" stroke-miterlimit="10" stroke-linecap="round" stroke-linejoin="round"/>
<path d="M507.718 860.577L506.125 864.213" stroke="#4D2C5E" stroke-opacity="0.3" stroke-width="4" stroke-miterlimit="10" stroke-linecap="round" stroke-linejoin="round"/>
<path d="M515.449 863.969L513.862 867.599" stroke="#4D2C5E" stroke-opacity="0.3" stroke-width="4" stroke-miterlimit="10" stroke-linecap="round" stroke-linejoin="round"/>
<path d="M530.882 870.733L529.289 874.369" stroke="#4D2C5E" stroke-opacity="0.3" stroke-width="4" stroke-miterlimit="10" stroke-linecap="round" stroke-linejoin="round"/>
<path d="M554.38 881.039L552.793 884.67" stroke="#4D2C5E" stroke-opacity="0.3" stroke-width="4" stroke-miterlimit="10" stroke-linecap="round" stroke-linejoin="round"/>
<path d="M538.612 874.125L537.025 877.756" stroke="#4D2C5E" stroke-opacity="0.3" stroke-width="4" stroke-miterlimit="10" stroke-linecap="round" stroke-linejoin="round"/>
<path d="M541.268 939.091L464.93 841.821L564.731 885.577L541.268 939.091Z" stroke="#4D2C5E" stroke-opacity="0.3" stroke-width="4" stroke-miterlimit="10" stroke-linecap="round" stroke-linejoin="round"/>
<path d="M537.377 908.39L516.494 881.78L543.793 893.745L537.377 908.39Z" stroke="#4D2C5E" stroke-opacity="0.3" stroke-width="4" stroke-miterlimit="10" stroke-linecap="round" stroke-linejoin="round"/>
<path d="M873.774 14.9999L845 28.9121L902.351 147.527L931.124 133.614L873.774 14.9999Z" stroke="#4D2C5E" stroke-opacity="0.3" stroke-width="4" stroke-miterlimit="10" stroke-linecap="round" stroke-linejoin="round"/>
<path d="M880.64 29.2344L866.26 36.1844" stroke="#4D2C5E" stroke-opacity="0.3" stroke-width="4" stroke-miterlimit="10" stroke-linecap="round" stroke-linejoin="round"/>
<path d="M893.93 56.7129L879.54 63.6729" stroke="#4D2C5E" stroke-opacity="0.3" stroke-width="4" stroke-miterlimit="10" stroke-linecap="round" stroke-linejoin="round"/>
<path d="M907.22 84.1934L892.83 91.1534" stroke="#4D2C5E" stroke-opacity="0.3" stroke-width="4" stroke-miterlimit="10" stroke-linecap="round" stroke-linejoin="round"/>
<path d="M920.5 111.684L906.12 118.634" stroke="#4D2C5E" stroke-opacity="0.3" stroke-width="4" stroke-miterlimit="10" stroke-linecap="round" stroke-linejoin="round"/>
<path d="M885.04 38.334L877.85 41.804" stroke="#4D2C5E" stroke-opacity="0.3" stroke-width="4" stroke-miterlimit="10" stroke-linecap="round" stroke-linejoin="round"/>
<path d="M889.48 47.5234L882.29 51.0034" stroke="#4D2C5E" stroke-opacity="0.3" stroke-width="4" stroke-miterlimit="10" stroke-linecap="round" stroke-linejoin="round"/>
<path d="M898.35 65.8633L891.16 69.3333" stroke="#4D2C5E" stroke-opacity="0.3" stroke-width="4" stroke-miterlimit="10" stroke-linecap="round" stroke-linejoin="round"/>
<path d="M902.79 75.0527L895.6 78.5327" stroke="#4D2C5E" stroke-opacity="0.3" stroke-width="4" stroke-miterlimit="10" stroke-linecap="round" stroke-linejoin="round"/>
<path d="M911.66 93.3945L904.47 96.8645" stroke="#4D2C5E" stroke-opacity="0.3" stroke-width="4" stroke-miterlimit="10" stroke-linecap="round" stroke-linejoin="round"/>
<path d="M916.11 102.584L908.91 106.064" stroke="#4D2C5E" stroke-opacity="0.3" stroke-width="4" stroke-miterlimit="10" stroke-linecap="round" stroke-linejoin="round"/>
<path d="M205.001 692.631L173.771 707.301C172.101 708.091 170.111 707.371 169.321 705.701L167.321 701.441C166.531 699.771 167.251 697.781 168.921 696.991L200.151 682.321C201.821 681.531 203.811 682.251 204.601 683.921L206.601 688.181C207.391 689.861 206.671 691.851 205.001 692.631Z" stroke="#4D2C5E" stroke-opacity="0.3" stroke-width="4" stroke-miterlimit="10" stroke-linecap="round"/>
<path d="M217.131 725.951L201.851 694.131L177.131 706.001L192.411 737.821L202.051 791.061C205.221 797.671 213.151 800.451 219.751 797.281L246.441 784.461C253.051 781.291 255.831 773.361 252.661 766.761L217.131 725.951Z" stroke="#4D2C5E" stroke-opacity="0.3" stroke-width="4" stroke-miterlimit="10" stroke-linecap="round"/>
<path d="M196.751 761.83C196.751 761.83 201.851 753.57 215.411 754.04C228.971 754.51 231.251 742.16 231.251 742.16" stroke="#4D2C5E" stroke-opacity="0.3" stroke-width="4" stroke-miterlimit="10" stroke-linecap="round"/>
<path d="M23.48 111.96C35.3431 111.96 44.96 102.343 44.96 90.48C44.96 78.6169 35.3431 69 23.48 69C11.617 69 2 78.6169 2 90.48C2 102.343 11.617 111.96 23.48 111.96Z" stroke="#4D2C5E" stroke-opacity="0.3" stroke-width="4" stroke-miterlimit="10" stroke-linecap="round" stroke-linejoin="round"/>
<path d="M53.59 133.18C58.3342 133.18 62.18 129.334 62.18 124.59C62.18 119.846 58.3342 116 53.59 116C48.8459 116 45 119.846 45 124.59C45 129.334 48.8459 133.18 53.59 133.18Z" stroke="#4D2C5E" stroke-opacity="0.3" stroke-width="4" stroke-miterlimit="10" stroke-linecap="round" stroke-linejoin="round"/>
</svg>
