<svg width="64" height="64" viewBox="0 0 64 64" fill="none" xmlns="http://www.w3.org/2000/svg">
<g clip-path="url(#clip0_1_8079)">
<path d="M50.6667 10.6667H49.312L43.488 3.11467C42.7374 2.14882 41.7769 1.36644 40.6791 0.826811C39.5814 0.287177 38.3752 0.00443478 37.152 0L26.848 0C25.6248 0.00443478 24.4186 0.287177 23.3209 0.826811C22.2231 1.36644 21.2626 2.14882 20.512 3.11467L14.688 10.6667H13.3333C9.79841 10.6709 6.40949 12.077 3.90992 14.5766C1.41035 17.0762 0.00423429 20.4651 0 24L0 50.6667C0.00423429 54.2016 1.41035 57.5905 3.90992 60.0901C6.40949 62.5897 9.79841 63.9958 13.3333 64H50.6667C54.2016 63.9958 57.5905 62.5897 60.0901 60.0901C62.5897 57.5905 63.9958 54.2016 64 50.6667V24C63.9958 20.4651 62.5897 17.0762 60.0901 14.5766C57.5905 12.077 54.2016 10.6709 50.6667 10.6667ZM24.736 6.37333C24.9858 6.05081 25.3058 5.7895 25.6718 5.60929C26.0378 5.42907 26.4401 5.33469 26.848 5.33333H37.152C37.5599 5.33509 37.962 5.42964 38.3279 5.60983C38.6938 5.79001 39.0139 6.05111 39.264 6.37333L42.576 10.6667H21.424L24.736 6.37333ZM58.6667 50.6667C58.6667 52.7884 57.8238 54.8232 56.3235 56.3235C54.8232 57.8238 52.7884 58.6667 50.6667 58.6667H13.3333C11.2116 58.6667 9.17677 57.8238 7.67648 56.3235C6.17619 54.8232 5.33333 52.7884 5.33333 50.6667V24C5.33333 21.8783 6.17619 19.8434 7.67648 18.3431C9.17677 16.8429 11.2116 16 13.3333 16H50.6667C52.7884 16 54.8232 16.8429 56.3235 18.3431C57.8238 19.8434 58.6667 21.8783 58.6667 24V50.6667Z" fill="#9E9E9E"/>
<path d="M31.9998 21.334C28.8353 21.334 25.7418 22.2724 23.1106 24.0305C20.4795 25.7886 18.4287 28.2874 17.2177 31.2111C16.0067 34.1347 15.6898 37.3517 16.3072 40.4554C16.9246 43.5591 18.4484 46.4101 20.6861 48.6477C22.9237 50.8853 25.7746 52.4092 28.8783 53.0266C31.982 53.6439 35.1991 53.3271 38.1227 52.1161C41.0463 50.9051 43.5452 48.8543 45.3033 46.2231C47.0614 43.5919 47.9998 40.4985 47.9998 37.334C47.9955 33.0918 46.3085 29.0246 43.3088 26.025C40.3091 23.0253 36.2419 21.3382 31.9998 21.334ZM31.9998 48.0007C29.8901 48.0007 27.8278 47.3751 26.0737 46.203C24.3196 45.0309 22.9524 43.365 22.145 41.4159C21.3377 39.4669 21.1265 37.3222 21.5381 35.253C21.9496 33.1839 22.9655 31.2833 24.4573 29.7915C25.9491 28.2998 27.8497 27.2839 29.9188 26.8723C31.9879 26.4607 34.1326 26.6719 36.0817 27.4793C38.0308 28.2866 39.6967 29.6538 40.8688 31.4079C42.0408 33.162 42.6664 35.2243 42.6664 37.334C42.6664 40.163 41.5426 42.8761 39.5422 44.8765C37.5419 46.8768 34.8287 48.0007 31.9998 48.0007Z" fill="#9E9E9E"/>
</g>
<defs>
<clipPath id="clip0_1_8079">
<rect width="64" height="64" fill="white"/>
</clipPath>
</defs>
</svg>
