<svg width="102" height="102" viewBox="0 0 102 102" fill="none" xmlns="http://www.w3.org/2000/svg">
<g clip-path="url(#clip0_1_5161)">
<path d="M41.8241 75.0382L8.86328 95.7906L1.69141 100.307V42.9319L8.86328 48.6694L13.5471 52.4169L17.6052 55.662L41.8241 75.0382Z" fill="#F69220"/>
<path d="M8.86328 42.9317V48.6692L1.69141 42.9317H8.86328ZM100.305 42.9317L93.1329 48.6455V42.9317H100.305ZM8.86328 36.9336V42.9317H1.69141L8.86328 36.9336ZM100.305 42.9317H93.1329V36.9336L100.305 42.9317Z" fill="#F69220"/>
<path d="M8.86328 42.9319V48.6694L1.69141 42.9319H8.86328ZM100.305 42.9319L93.1329 48.6457V42.9319H100.305Z" fill="#F69220"/>
<path d="M100.305 100.307H1.69141L8.86328 95.7905L41.8246 75.0378L48.462 70.8581C49.1917 70.3984 50.0364 70.1541 50.8989 70.1533C51.7613 70.1525 52.6065 70.3952 53.3371 70.8535L60.0089 75.0365L93.1324 95.8096L100.305 100.307Z" fill="#FFD15F"/>
<path d="M100.304 42.9319V100.307L93.1321 95.8107L60.0078 75.0382L93.1321 48.6457L100.304 42.9319Z" fill="#F69220"/>
<path d="M93.1329 1.6936V48.6455L60.0089 75.038L53.3371 70.8545C52.6065 70.3962 51.7614 70.1535 50.8991 70.1542C50.0367 70.155 49.192 70.3991 48.4622 70.8585L41.8248 75.0382L17.6052 55.6628L13.5471 52.4169L8.86328 48.6692V1.6936H93.1329Z" fill="#FFE1D3"/>
<path d="M15.1387 14.2442C16.6241 14.2442 17.8282 13.0401 17.8282 11.5547C17.8282 10.0694 16.6241 8.86523 15.1387 8.86523C13.6533 8.86523 12.4492 10.0694 12.4492 11.5547C12.4492 13.0401 13.6533 14.2442 15.1387 14.2442Z" fill="#00A99D"/>
<path d="M15.1387 25.0025C16.6241 25.0025 17.8282 23.7984 17.8282 22.313C17.8282 20.8277 16.6241 19.6235 15.1387 19.6235C13.6533 19.6235 12.4492 20.8277 12.4492 22.313C12.4492 23.7984 13.6533 25.0025 15.1387 25.0025Z" fill="#00A99D"/>
<path d="M15.1387 35.7598C16.6241 35.7598 17.8282 34.5557 17.8282 33.0703C17.8282 31.585 16.6241 30.3809 15.1387 30.3809C13.6533 30.3809 12.4492 31.585 12.4492 33.0703C12.4492 34.5557 13.6533 35.7598 15.1387 35.7598Z" fill="#00A99D"/>
<path d="M15.1387 46.5181C16.6241 46.5181 17.8282 45.314 17.8282 43.8286C17.8282 42.3433 16.6241 41.1392 15.1387 41.1392C13.6533 41.1392 12.4492 42.3433 12.4492 43.8286C12.4492 45.314 13.6533 46.5181 15.1387 46.5181Z" fill="#00A99D"/>
<path d="M17.8281 54.586C17.8281 54.9685 17.7483 55.3331 17.6049 55.6618L13.5469 52.4164C14.0085 52.0779 14.5662 51.8957 15.1386 51.8965C16.6247 51.8967 17.8281 53.0998 17.8281 54.586Z" fill="#F69220"/>
<path d="M77.8926 26.7955C83.3389 26.7955 87.754 22.3804 87.754 16.9341C87.754 11.4878 83.3389 7.07275 77.8926 7.07275C72.4463 7.07275 68.0312 11.4878 68.0312 16.9341C68.0312 22.3804 72.4463 26.7955 77.8926 26.7955Z" fill="#00A99D"/>
<path d="M101.398 100.959C101.403 100.952 101.406 100.944 101.41 100.937C101.459 100.85 101.499 100.758 101.528 100.659C101.529 100.653 101.532 100.647 101.533 100.641C101.547 100.59 101.558 100.539 101.564 100.487C101.566 100.477 101.566 100.467 101.568 100.457C101.573 100.408 101.583 100.359 101.583 100.308C101.583 100.283 101.579 100.26 101.578 100.236V42.9815C101.579 42.9647 101.583 42.9491 101.583 42.932C101.583 42.7298 101.535 42.5305 101.443 42.3505C101.351 42.1705 101.217 42.0151 101.053 41.897L94.406 36.3375V1.6937C94.406 0.989646 93.8359 0.418701 93.131 0.418701H8.86145C8.5233 0.418701 8.199 0.553031 7.95989 0.79214C7.72078 1.03125 7.58645 1.35555 7.58645 1.6937V36.3377L0.871533 41.9539C0.866178 41.9587 0.862353 41.9641 0.856488 41.9689C0.844326 41.9795 0.832339 41.9903 0.820533 42.0013C0.801918 42.0184 0.784323 42.0378 0.767237 42.0561C0.751937 42.0717 0.736382 42.0862 0.722102 42.1023C0.712667 42.1138 0.703742 42.1262 0.694307 42.1385C0.677477 42.1594 0.662432 42.1813 0.646368 42.2035L0.634638 42.2196C0.627752 42.2305 0.618573 42.2407 0.610923 42.252C0.602508 42.2657 0.596133 42.28 0.588228 42.2938C0.574753 42.3168 0.562163 42.3404 0.550488 42.3644C0.542583 42.381 0.532638 42.3973 0.524223 42.4146C0.516828 42.4312 0.511983 42.4493 0.505353 42.4662L0.505097 42.4667C0.499743 42.4817 0.491328 42.4947 0.485973 42.51C0.482403 42.5197 0.481128 42.5302 0.477812 42.5401C0.472457 42.5564 0.466593 42.5722 0.461748 42.5888C0.455883 42.61 0.452568 42.6319 0.447723 42.6533C0.442368 42.6776 0.436248 42.7015 0.431658 42.726C0.429363 42.7411 0.426813 42.7556 0.425538 42.7706C0.421968 42.7951 0.421203 42.8196 0.420183 42.8441C0.418653 42.8678 0.415592 42.8915 0.415337 42.9152C0.415337 42.9206 0.414062 42.9259 0.414062 42.9313V100.306C0.414062 100.341 0.418653 100.375 0.420693 100.409C0.422223 100.428 0.421968 100.446 0.424773 100.465C0.432678 100.529 0.445173 100.592 0.462513 100.653C0.463023 100.656 0.463023 100.658 0.463788 100.659C0.467103 100.67 0.471948 100.679 0.475008 100.689C0.491073 100.738 0.508413 100.786 0.529323 100.833C0.538758 100.853 0.549468 100.873 0.559923 100.893C0.60889 100.987 0.669915 101.076 0.741483 101.155C0.756273 101.171 0.769022 101.187 0.784067 101.203C0.821552 101.24 0.862098 101.275 0.904428 101.309C0.911313 101.314 0.918198 101.321 0.925592 101.326C0.972257 101.362 1.02122 101.394 1.07324 101.422C1.07681 101.424 1.08038 101.425 1.08446 101.427C1.0995 101.435 1.11531 101.442 1.13087 101.449C1.19031 101.479 1.25246 101.504 1.31651 101.523C1.35807 101.536 1.39989 101.546 1.44197 101.554C1.4616 101.559 1.48098 101.562 1.50087 101.566C1.56335 101.575 1.62582 101.581 1.68855 101.581H100.307C100.31 101.581 100.313 101.581 100.316 101.581C100.385 101.58 100.455 101.572 100.523 101.559C100.547 101.555 100.571 101.551 100.594 101.546C100.655 101.531 100.716 101.513 100.776 101.489C100.807 101.476 100.836 101.462 100.866 101.447C100.884 101.438 100.902 101.431 100.92 101.421C100.933 101.414 100.944 101.405 100.957 101.397C100.991 101.376 101.025 101.356 101.057 101.332C101.076 101.318 101.095 101.301 101.114 101.285C101.175 101.235 101.23 101.18 101.281 101.12C101.293 101.105 101.305 101.092 101.317 101.076C101.346 101.04 101.373 101.001 101.398 100.959ZM94.406 45.9997V44.207H96.6556L94.406 45.9997ZM76.5066 83.8797L62.2087 74.9136L70.2308 68.5226L99.0284 45.5779V98.0026L76.5066 83.8797ZM96.7911 41.6568H94.4058V39.6622L96.7911 41.6568ZM10.1364 2.9687H91.8566V48.0308L61.9688 71.845L59.9193 73.4775L54.013 69.7741C53.0805 69.1888 52.0017 68.8785 50.9007 68.8788C49.797 68.8785 48.7157 69.1906 47.7818 69.779L41.9115 73.4749L20.8289 56.609C21.0089 56.7046 21.2094 56.7552 21.4133 56.7566H62.6517C63.356 56.7566 63.9267 56.1862 63.9267 55.4816C63.9267 55.1435 63.7923 54.8192 63.5532 54.5801C63.3141 54.3409 62.9898 54.2066 62.6517 54.2066H21.4123C20.7077 54.2066 20.1373 54.7773 20.1373 55.4816C20.1373 55.795 20.2546 56.0786 20.4415 56.2999L19.0502 55.1876C19.0803 54.9897 19.1007 54.789 19.1007 54.5858C19.1007 52.3999 17.3223 50.6213 15.1362 50.6213C14.6331 50.6213 14.1443 50.7167 13.6863 50.8965L10.1354 48.056V2.9687H10.1364ZM7.58645 46.0168L5.32485 44.2068H7.58645V46.0168ZM2.96457 97.997V45.5848L12.7448 53.409L12.7489 53.4131L14.1537 54.5358L39.6267 74.9141L14.8751 90.4985L2.96457 97.997ZM7.58645 39.6622V41.6568H5.20118L7.58645 39.6622ZM6.10796 99.0318L42.5023 76.1172L49.1397 71.9373C50.1947 71.2733 51.6015 71.2728 52.6582 71.9345L95.8687 99.0318H6.10796Z" fill="#474668"/>
<path d="M15.1403 15.5193C17.3264 15.5193 19.1048 13.7409 19.1048 11.5548C19.1048 9.3687 17.3264 7.59033 15.1403 7.59033C12.9542 7.59033 11.1758 9.3687 11.1758 11.5548C11.1758 13.7409 12.9542 15.5193 15.1403 15.5193ZM15.1403 10.1406C15.5153 10.1409 15.8749 10.2901 16.1401 10.5553C16.4053 10.8204 16.5544 11.18 16.5548 11.5551C16.5545 11.9302 16.4055 12.2898 16.1402 12.555C15.875 12.8203 15.5153 12.9694 15.1403 12.9696C14.7652 12.9692 14.4056 12.8201 14.1404 12.5549C13.8753 12.2897 13.7261 11.9301 13.7258 11.5551C13.7262 11.1801 13.8753 10.8205 14.1405 10.5553C14.4057 10.2901 14.7652 10.141 15.1403 10.1406ZM15.1403 26.2775C17.3264 26.2775 19.1048 24.4989 19.1048 22.313C19.1048 20.1269 17.3264 18.3485 15.1403 18.3485C12.9542 18.3485 11.1758 20.1269 11.1758 22.313C11.1758 24.4989 12.9542 26.2775 15.1403 26.2775ZM15.1403 20.8985C15.5153 20.8987 15.875 21.0478 16.1402 21.313C16.4055 21.5783 16.5545 21.9379 16.5548 22.313C16.5544 22.6881 16.4053 23.0476 16.1401 23.3128C15.8749 23.578 15.5153 23.7272 15.1403 23.7275C14.7652 23.7271 14.4057 23.5779 14.1405 23.3128C13.8753 23.0476 13.7262 22.688 13.7258 22.313C13.7261 21.938 13.8753 21.5784 14.1404 21.3132C14.4056 21.048 14.7652 20.8989 15.1403 20.8985ZM15.1403 37.0349C17.3264 37.0349 19.1048 35.2566 19.1048 33.0704C19.1048 30.8843 17.3264 29.106 15.1403 29.106C12.9542 29.106 11.1758 30.8843 11.1758 33.0704C11.1758 35.2566 12.9542 37.0349 15.1403 37.0349ZM15.1403 31.6562C15.5153 31.6565 15.8749 31.8057 16.1401 32.0709C16.4053 32.3361 16.5544 32.6957 16.5548 33.0707C16.5545 33.4458 16.4055 33.8054 16.1402 34.0707C15.875 34.3359 15.5153 34.485 15.1403 34.4852C14.7652 34.4848 14.4056 34.3357 14.1404 34.0705C13.8753 33.8053 13.7261 33.4457 13.7258 33.0707C13.7262 32.6957 13.8753 32.3361 14.1405 32.071C14.4057 31.8058 14.7652 31.6566 15.1403 31.6562ZM15.1403 47.7931C17.3264 47.7931 19.1048 46.0145 19.1048 43.8286C19.1048 41.6425 17.3264 39.8642 15.1403 39.8642C12.9542 39.8642 11.1758 41.6425 11.1758 43.8286C11.1758 46.0145 12.9542 47.7931 15.1403 47.7931ZM15.1403 42.4142C15.5153 42.4144 15.875 42.5634 16.1402 42.8287C16.4055 43.0939 16.5545 43.4536 16.5548 43.8286C16.5544 44.2037 16.4053 44.5633 16.1401 44.8285C15.8749 45.0936 15.5153 45.2428 15.1403 45.2431C14.7652 45.2427 14.4057 45.0936 14.1405 44.8284C13.8753 44.5632 13.7262 44.2037 13.7258 43.8286C13.7261 43.4536 13.8753 43.094 14.1404 42.8288C14.4056 42.5636 14.7652 42.4145 15.1403 42.4142ZM21.4156 13.7267H62.6536C62.9918 13.7267 63.3161 13.5923 63.5552 13.3532C63.7943 13.1141 63.9286 12.7898 63.9286 12.4517C63.9286 12.1135 63.7943 11.7892 63.5552 11.5501C63.3161 11.311 62.9918 11.1767 62.6536 11.1767H21.4156C21.0774 11.1767 20.7531 11.311 20.514 11.5501C20.2749 11.7892 20.1406 12.1135 20.1406 12.4517C20.1406 12.7898 20.2749 13.1141 20.514 13.3532C20.7531 13.5923 21.0774 13.7267 21.4156 13.7267ZM21.4156 24.4843H62.6536C62.9918 24.4843 63.3161 24.35 63.5552 24.1109C63.7943 23.8718 63.9286 23.5475 63.9286 23.2093C63.9286 22.8712 63.7943 22.5469 63.5552 22.3078C63.3161 22.0687 62.9918 21.9343 62.6536 21.9343H21.4156C21.0774 21.9343 20.7531 22.0687 20.514 22.3078C20.2749 22.5469 20.1406 22.8712 20.1406 23.2093C20.1406 23.5475 20.2749 23.8718 20.514 24.1109C20.7531 24.35 21.0774 24.4843 21.4156 24.4843ZM21.4156 35.2423H62.6536C62.9918 35.2423 63.3161 35.1079 63.5552 34.8688C63.7943 34.6297 63.9286 34.3054 63.9286 33.9673C63.9286 33.6291 63.7943 33.3048 63.5552 33.0657C63.3161 32.8266 62.9918 32.6923 62.6536 32.6923H21.4156C21.0774 32.6923 20.7531 32.8266 20.514 33.0657C20.2749 33.3048 20.1406 33.6291 20.1406 33.9673C20.1406 34.3054 20.2749 34.6297 20.514 34.8688C20.7531 35.1079 21.0774 35.2423 21.4156 35.2423ZM21.4156 46H62.6536C62.9918 46 63.3161 45.8656 63.5552 45.6265C63.7943 45.3874 63.9286 45.0631 63.9286 44.725C63.9286 44.3868 63.7943 44.0625 63.5552 43.8234C63.3161 43.5843 62.9918 43.45 62.6536 43.45H21.4156C21.0774 43.45 20.7531 43.5843 20.514 43.8234C20.2749 44.0625 20.1406 44.3868 20.1406 44.725C20.1406 45.0631 20.2749 45.3874 20.514 45.6265C20.7531 45.8656 21.0774 46 21.4156 46ZM99.0312 45.5777C99.0312 45.5777 97.8607 76.3947 69.5996 81.0512L100.306 100.307V42.9318L99.0312 45.5777Z" fill="#D67304"/>
<path opacity="0.6" d="M91.8565 2.96875C91.8565 2.96875 92.5218 64.2455 33.9062 67.0719L41.0797 74.7431L50.9986 70.1541L60.0068 75.0379L93.1303 48.6454L91.8565 2.96875Z" fill="#474668"/>
<path d="M77.9957 28.1697C71.8551 28.1697 66.8594 23.174 66.8594 17.0333C66.8594 10.8927 71.8551 5.89697 77.9957 5.89697C84.1364 5.89697 89.1321 10.8927 89.1321 17.0333C89.1321 23.174 84.1364 28.1697 77.9957 28.1697ZM77.9957 8.44697C73.2614 8.44697 69.4094 12.2987 69.4094 17.0333C69.4094 21.7679 73.2611 25.6197 77.9957 25.6197C82.7303 25.6197 86.5821 21.7679 86.5821 17.0333C86.5821 12.2987 82.7301 8.44697 77.9957 8.44697Z" fill="#464668"/>
<path d="M76.1446 22.006C75.9772 22.0062 75.8113 21.9734 75.6566 21.9093C75.5019 21.8452 75.3614 21.7512 75.2432 21.6327L71.5452 17.9349C71.4243 17.8171 71.328 17.6764 71.2619 17.5211C71.1959 17.3658 71.1613 17.1989 71.1602 17.0301C71.1591 16.8613 71.1915 16.694 71.2556 16.5378C71.3197 16.3817 71.4142 16.2398 71.5335 16.1204C71.6529 16.0011 71.7947 15.9066 71.9509 15.8425C72.107 15.7784 72.2744 15.7459 72.4432 15.747C72.6119 15.748 72.7788 15.7826 72.9342 15.8486C73.0895 15.9147 73.2302 16.011 73.348 16.1318L76.1446 18.9281L82.6392 12.4338C82.8793 12.1997 83.202 12.0697 83.5374 12.0718C83.8727 12.074 84.1937 12.2081 84.4308 12.4453C84.6679 12.6824 84.8021 13.0034 84.8042 13.3388C84.8063 13.6741 84.6762 13.9968 84.442 14.2369L77.046 21.6327C76.9278 21.7512 76.7873 21.8452 76.6326 21.9093C76.4779 21.9733 76.312 22.0062 76.1446 22.006Z" fill="#464668"/>
</g>
<defs>
<clipPath id="clip0_1_5161">
<rect width="102" height="102" fill="white"/>
</clipPath>
</defs>
</svg>
