<svg width="25" height="25" viewBox="0 0 25 25" fill="none" xmlns="http://www.w3.org/2000/svg">
<g clip-path="url(#clip0_1_5756)">
<path d="M13.5001 2.551V1.5C13.5001 1.23478 13.3947 0.98043 13.2072 0.792893C13.0196 0.605357 12.7653 0.5 12.5001 0.5C12.2348 0.5 11.9805 0.605357 11.7929 0.792893C11.6054 0.98043 11.5001 1.23478 11.5001 1.5V2.551C9.48682 2.73149 7.56248 3.4642 5.93904 4.66842C4.3156 5.87264 3.05608 7.50161 2.29924 9.37588C1.5424 11.2501 1.31761 13.297 1.64965 15.2908C1.98169 17.2847 2.85766 19.1482 4.18105 20.676C3.65842 20.9345 3.22168 21.3387 2.92344 21.8397C2.62519 22.3407 2.47816 22.9173 2.50005 23.5C2.50005 23.7652 2.60541 24.0196 2.79295 24.2071C2.98048 24.3946 3.23484 24.5 3.50005 24.5C3.76527 24.5 4.01962 24.3946 4.20716 24.2071C4.3947 24.0196 4.50005 23.7652 4.50005 23.5C4.49174 23.1918 4.6024 22.8922 4.80907 22.6633C5.01574 22.4345 5.30257 22.294 5.61005 22.271C5.67884 22.2579 5.74593 22.2371 5.81005 22.209C7.72559 23.6947 10.0809 24.501 12.5051 24.501C14.9292 24.501 17.2845 23.6947 19.2001 22.209C19.2586 22.236 19.3195 22.2574 19.3821 22.273C19.6906 22.294 19.9791 22.4334 20.1874 22.662C20.3957 22.8906 20.5077 23.1908 20.5001 23.5C20.5001 23.7652 20.6054 24.0196 20.7929 24.2071C20.9805 24.3946 21.2348 24.5 21.5001 24.5C21.7653 24.5 22.0196 24.3946 22.2072 24.2071C22.3947 24.0196 22.5001 23.7652 22.5001 23.5C22.5219 22.9173 22.3749 22.3407 22.0767 21.8397C21.7784 21.3387 21.3417 20.9345 20.8191 20.676C22.1425 19.1482 23.0184 17.2847 23.3505 15.2908C23.6825 13.297 23.4577 11.2501 22.7009 9.37588C21.944 7.50161 20.6845 5.87264 19.0611 4.66842C17.4376 3.4642 15.5133 2.73149 13.5001 2.551ZM3.50005 13.5C3.50005 11.72 4.02789 9.97991 5.01683 8.49987C6.00576 7.01983 7.41137 5.86627 9.0559 5.18508C10.7004 4.5039 12.51 4.32567 14.2559 4.67293C16.0017 5.0202 17.6053 5.87737 18.864 7.13604C20.1227 8.39471 20.9799 9.99836 21.3271 11.7442C21.6744 13.49 21.4962 15.2996 20.815 16.9442C20.1338 18.5887 18.9802 19.9943 17.5002 20.9832C16.0201 21.9722 14.2801 22.5 12.5001 22.5C10.114 22.4971 7.8265 21.5479 6.13931 19.8607C4.45211 18.1736 3.50296 15.8861 3.50005 13.5Z" fill="#374957"/>
<path d="M19.7148 0.5001C19.4496 0.5001 19.1953 0.605457 19.0077 0.792994C18.8202 0.98053 18.7148 1.23488 18.7148 1.5001C18.7148 1.76532 18.8202 2.01967 19.0077 2.20721C19.1953 2.39474 19.4496 2.5001 19.7148 2.5001C20.0636 2.47359 20.414 2.51798 20.7451 2.63058C21.0762 2.74318 21.381 2.92167 21.6413 3.15528C21.9015 3.38889 22.1118 3.67279 22.2593 3.98985C22.4069 4.30691 22.4887 4.65056 22.4998 5.0001C22.4998 5.26532 22.6052 5.51967 22.7927 5.70721C22.9803 5.89474 23.2346 6.0001 23.4998 6.0001C23.7651 6.0001 24.0194 5.89474 24.207 5.70721C24.3945 5.51967 24.4998 5.26532 24.4998 5.0001C24.487 4.3886 24.3524 3.78578 24.1039 3.22693C23.8553 2.66808 23.4978 2.16441 23.0522 1.74538C22.6067 1.32636 22.082 1.00041 21.509 0.786584C20.9359 0.572762 20.326 0.475368 19.7148 0.5001Z" fill="#374957"/>
<path d="M2.5 5.0001C2.51115 4.65056 2.59296 4.30691 2.74052 3.98985C2.88807 3.67279 3.09831 3.38889 3.35855 3.15528C3.61879 2.92167 3.92365 2.74318 4.25474 2.63058C4.58583 2.51798 4.93629 2.47359 5.285 2.5001C5.55022 2.5001 5.80457 2.39474 5.99211 2.20721C6.17964 2.01967 6.285 1.76532 6.285 1.5001C6.285 1.23488 6.17964 0.98053 5.99211 0.792994C5.80457 0.605457 5.55022 0.5001 5.285 0.5001C4.67386 0.475368 4.06393 0.572762 3.49088 0.786584C2.91784 1.00041 2.39319 1.32636 1.94763 1.74538C1.50207 2.16441 1.14455 2.66808 0.895981 3.22693C0.647415 3.78578 0.512796 4.3886 0.5 5.0001C0.5 5.26532 0.605357 5.51967 0.792893 5.70721C0.98043 5.89474 1.23478 6.0001 1.5 6.0001C1.76522 6.0001 2.01957 5.89474 2.20711 5.70721C2.39464 5.51967 2.5 5.26532 2.5 5.0001Z" fill="#374957"/>
<path d="M13.5 12.086V7.5C13.5 7.23478 13.3946 6.98043 13.2071 6.79289C13.0196 6.60536 12.7652 6.5 12.5 6.5C12.2348 6.5 11.9804 6.60536 11.7929 6.79289C11.6054 6.98043 11.5 7.23478 11.5 7.5V12.5C11.5001 12.7652 11.6055 13.0195 11.793 13.207L14.793 16.207C14.9816 16.3892 15.2342 16.49 15.4964 16.4877C15.7586 16.4854 16.0094 16.3802 16.1948 16.1948C16.3802 16.0094 16.4854 15.7586 16.4877 15.4964C16.49 15.2342 16.3892 14.9816 16.207 14.793L13.5 12.086Z" fill="#374957"/>
</g>
<defs>
<clipPath id="clip0_1_5756">
<rect width="24" height="24" fill="white" transform="translate(0.5 0.5)"/>
</clipPath>
</defs>
</svg>
