<svg width="25" height="25" viewBox="0 0 25 25" fill="none" xmlns="http://www.w3.org/2000/svg">
<g clip-path="url(#clip0_1_5753)">
<path d="M24.5 12.5C24.5 15.6826 23.2357 18.7348 20.9853 20.9853C18.7348 23.2357 15.6826 24.5 12.5 24.5C9.3174 24.5 6.26515 23.2357 4.01472 20.9853C1.76428 18.7348 0.5 15.6826 0.5 12.5C0.5 12.2348 0.605357 11.9804 0.792893 11.7929C0.98043 11.6054 1.23478 11.5 1.5 11.5C1.76522 11.5 2.01957 11.6054 2.20711 11.7929C2.39464 11.9804 2.5 12.2348 2.5 12.5C2.5 14.4778 3.08649 16.4112 4.1853 18.0557C5.28412 19.7002 6.8459 20.9819 8.67317 21.7388C10.5004 22.4957 12.5111 22.6937 14.4509 22.3079C16.3907 21.922 18.1725 20.9696 19.5711 19.5711C20.9696 18.1725 21.922 16.3907 22.3079 14.4509C22.6937 12.5111 22.4957 10.5004 21.7388 8.67317C20.9819 6.8459 19.7002 5.28412 18.0557 4.1853C16.4112 3.08649 14.4778 2.5 12.5 2.5C12.2348 2.5 11.9804 2.39464 11.7929 2.20711C11.6054 2.01957 11.5 1.76522 11.5 1.5C11.5 1.23478 11.6054 0.98043 11.7929 0.792893C11.9804 0.605357 12.2348 0.5 12.5 0.5C15.6815 0.503441 18.7318 1.76883 20.9815 4.01852C23.2312 6.26821 24.4966 9.31846 24.5 12.5ZM10.777 11.5H8.5C8.23478 11.5 7.98043 11.6054 7.79289 11.7929C7.60536 11.9804 7.5 12.2348 7.5 12.5C7.5 12.7652 7.60536 13.0196 7.79289 13.2071C7.98043 13.3946 8.23478 13.5 8.5 13.5H10.777C10.9297 13.7652 11.1414 13.9917 11.3958 14.162C11.6501 14.3323 11.9402 14.4417 12.2436 14.4818C12.547 14.5219 12.8556 14.4917 13.1454 14.3934C13.4353 14.2951 13.6986 14.1314 13.915 13.915C14.1314 13.6986 14.2951 13.4353 14.3934 13.1454C14.4917 12.8556 14.5219 12.547 14.4818 12.2436C14.4417 11.9402 14.3323 11.6501 14.162 11.3958C13.9917 11.1414 13.7652 10.9297 13.5 10.777V7.5C13.5 7.23478 13.3946 6.98043 13.2071 6.79289C13.0196 6.60536 12.7652 6.5 12.5 6.5C12.2348 6.5 11.9804 6.60536 11.7929 6.79289C11.6054 6.98043 11.5 7.23478 11.5 7.5V10.777C11.2004 10.9513 10.9513 11.2004 10.777 11.5ZM2.327 9.284C2.52478 9.284 2.71812 9.22535 2.88257 9.11547C3.04702 9.00559 3.17519 8.84941 3.25088 8.66668C3.32657 8.48396 3.34637 8.28289 3.30779 8.08891C3.2692 7.89493 3.17396 7.71675 3.03411 7.57689C2.89425 7.43704 2.71607 7.3418 2.52209 7.30321C2.32811 7.26463 2.12704 7.28443 1.94432 7.36012C1.76159 7.43581 1.60541 7.56398 1.49553 7.72843C1.38565 7.89288 1.327 8.08622 1.327 8.284C1.327 8.54922 1.43236 8.80357 1.61989 8.99111C1.80743 9.17864 2.06178 9.284 2.327 9.284ZM4.721 5.707C4.91878 5.707 5.11212 5.64835 5.27657 5.53847C5.44102 5.42859 5.56919 5.27241 5.64488 5.08968C5.72057 4.90696 5.74037 4.70589 5.70179 4.51191C5.6632 4.31793 5.56796 4.13975 5.42811 3.99989C5.28825 3.86004 5.11007 3.7648 4.91609 3.72621C4.72211 3.68763 4.52104 3.70743 4.33832 3.78312C4.15559 3.85881 3.99941 3.98698 3.88953 4.15143C3.77965 4.31588 3.721 4.50922 3.721 4.707C3.721 4.97222 3.82636 5.22657 4.01389 5.41411C4.20143 5.60164 4.45578 5.707 4.721 5.707ZM8.279 3.341C8.47678 3.341 8.67012 3.28235 8.83457 3.17247C8.99902 3.06259 9.12719 2.90641 9.20288 2.72368C9.27857 2.54096 9.29837 2.33989 9.25979 2.14591C9.2212 1.95193 9.12596 1.77375 8.98611 1.63389C8.84625 1.49404 8.66807 1.3988 8.47409 1.36021C8.28011 1.32163 8.07904 1.34143 7.89632 1.41712C7.71359 1.49281 7.55741 1.62098 7.44753 1.78543C7.33765 1.94988 7.279 2.14322 7.279 2.341C7.279 2.60622 7.38436 2.86057 7.57189 3.04811C7.75943 3.23564 8.01378 3.341 8.279 3.341Z" fill="#374957"/>
</g>
<defs>
<clipPath id="clip0_1_5753">
<rect width="24" height="24" fill="white" transform="translate(0.5 0.5)"/>
</clipPath>
</defs>
</svg>
