<svg width="32" height="45" viewBox="0 0 32 45" fill="none" xmlns="http://www.w3.org/2000/svg">
<path d="M21.5569 1.49219L1 26.8989H13.0002L10.0461 43.1394C10.0405 43.1713 10.0419 43.204 10.0503 43.2353C10.0587 43.2665 10.0738 43.2955 10.0947 43.3203C10.1155 43.3451 10.1415 43.365 10.1708 43.3786C10.2002 43.3922 10.2322 43.3992 10.2645 43.3991V43.3991C10.299 43.3991 10.3329 43.391 10.3637 43.3756C10.3944 43.3601 10.4212 43.3377 10.4417 43.3101L31.0005 17.8987H19.0003L21.9685 1.65626C21.9725 1.6239 21.9695 1.59106 21.9598 1.55992C21.9502 1.52879 21.934 1.50007 21.9123 1.47569C21.8907 1.4513 21.8641 1.43179 21.8343 1.41848C21.8046 1.40516 21.7723 1.39833 21.7397 1.39844V1.39844C21.704 1.39858 21.6689 1.40714 21.6371 1.42344C21.6053 1.43973 21.5778 1.46328 21.5569 1.49219V1.49219Z" stroke="white" stroke-width="2" stroke-linecap="round" stroke-linejoin="round"/>
</svg>
