<svg width="84" height="84" viewBox="0 0 84 84" fill="none" xmlns="http://www.w3.org/2000/svg">
<rect width="84" height="84" rx="42" fill="#92DAF0"/>
<path d="M42 50.9375C45.797 50.9375 48.875 47.8595 48.875 44.0625C48.875 40.2655 45.797 37.1875 42 37.1875C38.203 37.1875 35.125 40.2655 35.125 44.0625C35.125 47.8595 38.203 50.9375 42 50.9375Z" stroke="white" stroke-width="3" stroke-linecap="round" stroke-linejoin="round"/>
<path d="M53.6875 39.9375C55.2889 39.9348 56.8688 40.3064 58.3012 41.0226C59.7336 41.7388 60.9788 42.7798 61.9375 44.0625" stroke="white" stroke-width="3" stroke-linecap="round" stroke-linejoin="round"/>
<path d="M22.0625 44.0625C23.0212 42.7798 24.2664 41.7388 25.6988 41.0226C27.1312 40.3064 28.7111 39.9348 30.3125 39.9375" stroke="white" stroke-width="3" stroke-linecap="round" stroke-linejoin="round"/>
<path d="M32.0996 57.1245C33.0051 55.2701 34.4132 53.7073 36.1635 52.6142C37.9138 51.521 39.936 50.9414 41.9996 50.9414C44.0633 50.9414 46.0854 51.521 47.8357 52.6142C49.586 53.7073 50.9941 55.2701 51.8996 57.1245" stroke="white" stroke-width="3" stroke-linecap="round" stroke-linejoin="round"/>
<path d="M30.3122 39.9375C29.2683 39.9386 28.2457 39.6425 27.3638 39.084C26.4819 38.5254 25.7772 37.7274 25.3319 36.7832C24.8867 35.839 24.7194 34.7876 24.8495 33.7519C24.9797 32.7161 25.4019 31.7388 26.0668 30.9341C26.7318 30.1294 27.612 29.5305 28.6047 29.2075C29.5973 28.8844 30.6614 28.8506 31.6726 29.1098C32.6838 29.3691 33.6003 29.9108 34.3151 30.6716C35.0299 31.4324 35.5134 32.3809 35.7091 33.4062" stroke="white" stroke-width="3" stroke-linecap="round" stroke-linejoin="round"/>
<path d="M48.291 33.4062C48.4867 32.3809 48.9702 31.4324 49.685 30.6716C50.3998 29.9108 51.3163 29.3691 52.3275 29.1098C53.3387 28.8506 54.4028 28.8844 55.3954 29.2075C56.3881 29.5305 57.2683 30.1294 57.9333 30.9341C58.5982 31.7388 59.0204 32.7161 59.1506 33.7519C59.2807 34.7876 59.1134 35.839 58.6682 36.7832C58.2229 37.7274 57.5182 38.5254 56.6363 39.084C55.7544 39.6425 54.7318 39.9386 53.6879 39.9375" stroke="white" stroke-width="3" stroke-linecap="round" stroke-linejoin="round"/>
</svg>
