<svg width="284" height="329" viewBox="0 0 284 329" fill="none" xmlns="http://www.w3.org/2000/svg">
<mask id="mask0_404_3122" style="mask-type:luminance" maskUnits="userSpaceOnUse" x="2" y="262" width="83" height="49">
<path d="M2.82031 308.979C36.3514 294.909 47.0993 317.354 68.3638 308.429C89.6282 299.504 84.1627 275.668 84.1627 275.668C84.1627 275.668 69.8935 255.523 48.6302 264.453C27.3669 273.383 36.3514 294.909 2.82031 308.979Z" fill="white"/>
</mask>
<g mask="url(#mask0_404_3122)">
<path d="M2.82031 308.983L7.42389 317.358H2.82031V308.983Z" fill="#EC1C24"/>
<path d="M2.82031 307.942L7.997 317.359H7.42389L2.82031 308.984V307.942Z" fill="#EC1C24"/>
<path d="M2.82031 306.898L8.57011 317.356H7.997L2.82031 307.94V306.898Z" fill="#EC1C24"/>
<path d="M2.82031 305.858L9.14211 317.357H8.57011L2.82031 306.899V305.858Z" fill="#EC1C24"/>
<path d="M2.82031 304.817L9.71521 317.358H9.14211L2.82031 305.859V304.817Z" fill="#EC1C24"/>
<path d="M2.82031 303.776L10.2883 317.359H9.71521L2.82031 304.818V303.776Z" fill="#EC1C24"/>
<path d="M2.82031 302.732L10.8603 317.357H10.2883L2.82031 303.774V302.732Z" fill="#EC1C24"/>
<path d="M2.82031 301.692L11.4334 317.358H10.8603L2.82031 302.733V301.692Z" fill="#EC1D24"/>
<path d="M2.82031 300.651L12.0065 317.359H11.4334L2.82031 301.693V300.651Z" fill="#EC1D24"/>
<path d="M2.82031 299.607L12.5785 317.356H12.0065L2.82031 300.648V299.607Z" fill="#EC1D24"/>
<path d="M2.82031 298.566L13.1516 317.357H12.5785L2.82031 299.608V298.566Z" fill="#EC1D24"/>
<path d="M2.82031 297.526L13.7247 317.359H13.1516L2.82031 298.568V297.526Z" fill="#EC1D24"/>
<path d="M2.82031 296.482L14.2968 317.357H13.7247L2.82031 297.523V296.482Z" fill="#EC1E24"/>
<path d="M2.82031 295.441L14.8699 317.357H14.2968L2.82031 296.482V295.441Z" fill="#EC1E24"/>
<path d="M2.82031 294.4L15.443 317.358H14.8699L2.82031 295.442V294.4Z" fill="#EC1E24"/>
<path d="M2.82031 293.356L16.015 317.356H15.443L2.82031 294.399V293.356Z" fill="#EC1F24"/>
<path d="M2.82031 292.316L16.5881 317.357H16.015L2.82031 293.357V292.316Z" fill="#EC1F24"/>
<path d="M2.82031 291.275L17.1612 317.358H16.5881L2.82031 292.316V291.275Z" fill="#EC1F24"/>
<path d="M2.82031 290.234L17.7332 317.359H17.1612L2.82031 291.276V290.234Z" fill="#EC2024"/>
<path d="M2.82031 289.19L18.3063 317.357H17.7332L2.82031 290.233V289.19Z" fill="#EC2024"/>
<path d="M2.82031 288.15L18.8794 317.358H18.3063L2.82031 289.191V288.15Z" fill="#EC2024"/>
<path d="M2.82031 287.109L19.4514 317.358H18.8794L2.82031 288.15V287.109Z" fill="#ED2124"/>
<path d="M2.82031 286.065L20.0245 317.357H19.4514L2.82031 287.107V286.065Z" fill="#ED2124"/>
<path d="M2.82031 285.024L20.5976 317.358H20.0245L2.82031 286.066V285.024Z" fill="#ED2124"/>
<path d="M2.82031 284.797L3.16858 284.618L21.1696 317.358H20.5976L2.82031 285.024V284.797Z" fill="#ED2224"/>
<path d="M3.16797 284.617L3.61543 284.387L21.7421 317.356H21.169L3.16797 284.617Z" fill="#ED2224"/>
<path d="M3.61719 284.388L4.06355 284.159L22.317 317.358H21.7439L3.61719 284.388Z" fill="#ED2324"/>
<path d="M4.0625 284.16L4.50886 283.931L22.8879 317.359H22.3159L4.0625 284.16Z" fill="#ED2324"/>
<path d="M4.50781 283.93L4.95417 283.7L23.46 317.358H22.8869L4.50781 283.93Z" fill="#ED2424"/>
<path d="M4.95703 283.701L5.40339 283.472L24.0359 317.359H23.4628L4.95703 283.701Z" fill="#ED2424"/>
<path d="M5.40234 283.47L5.84871 283.24L24.6069 317.358H24.0349L5.40234 283.47Z" fill="#ED2524"/>
<path d="M5.84766 283.241L6.29402 283.012L25.1789 317.359H24.6058L5.84766 283.241Z" fill="#ED2524"/>
<path d="M6.29297 283.011L6.73933 282.781L25.751 317.358H25.1779L6.29297 283.011Z" fill="#ED2624"/>
<path d="M6.74219 282.782L7.18965 282.553L26.3259 317.359H25.7539L6.74219 282.782Z" fill="#ED2624"/>
<path d="M7.1875 282.551L7.63386 282.322L26.8968 317.357H26.3237L7.1875 282.551Z" fill="#ED2724"/>
<path d="M7.63281 282.321L8.07917 282.091L27.4689 317.356H26.8958L7.63281 282.321Z" fill="#ED2724"/>
<path d="M8.08203 282.092L8.52839 281.863L28.0448 317.358H27.4717L8.08203 282.092Z" fill="#ED2824"/>
<path d="M8.52734 281.862L8.9737 281.631L28.6158 317.356H28.0438L8.52734 281.862Z" fill="#ED2824"/>
<path d="M8.97266 281.632L9.41902 281.403L29.1879 317.358H28.6147L8.97266 281.632Z" fill="#ED2924"/>
<path d="M9.42188 281.403L9.86824 281.172L29.7627 317.357H29.1907L9.42188 281.403Z" fill="#ED2A24"/>
<path d="M9.86719 281.173L10.3135 280.944L30.3348 317.358H29.7617L9.86719 281.173Z" fill="#EE2A24"/>
<path d="M10.3125 280.945L10.76 280.716L30.9068 317.359H30.3337L10.3125 280.945Z" fill="#EE2B24"/>
<path d="M10.7617 280.715L11.2081 280.485L31.4817 317.358H30.9086L10.7617 280.715Z" fill="#EE2B24"/>
<path d="M11.207 280.486L11.6534 280.257L32.0526 317.359H31.4806L11.207 280.486Z" fill="#EE2C24"/>
<path d="M11.6523 280.256L12.0987 280.026L32.6247 317.358H32.0516L11.6523 280.256Z" fill="#EE2D24"/>
<path d="M12.0977 280.027L12.544 279.798L33.1957 317.359H32.6237L12.0977 280.027Z" fill="#EE2D24"/>
<path d="M12.5469 279.796L12.9932 279.566L33.7716 317.357H33.1985L12.5469 279.796Z" fill="#EE2E24"/>
<path d="M12.9922 279.566L13.4385 279.335L34.3437 317.356H33.7706L12.9922 279.566Z" fill="#EE2F24"/>
<path d="M13.4375 279.337L13.8839 279.107L34.9157 317.358H34.3426L13.4375 279.337Z" fill="#EE2F24"/>
<path d="M13.8828 279.106L14.3303 278.876L35.4867 317.356H34.9147L13.8828 279.106Z" fill="#EE3024"/>
<path d="M14.332 278.877L14.7784 278.648L36.0616 317.358H35.4884L14.332 278.877Z" fill="#EE3124"/>
<path d="M14.7773 278.647L15.2237 278.417L36.6336 317.357H36.0605L14.7773 278.647Z" fill="#EE3224"/>
<path d="M15.2266 278.418L15.6729 278.189L37.2085 317.358H36.6365L15.2266 278.418Z" fill="#EE3225"/>
<path d="M15.6719 278.19L16.1182 277.961L37.7805 317.359H37.2074L15.6719 278.19Z" fill="#EF3325"/>
<path d="M16.1172 277.96L16.5635 277.729L38.3526 317.358H37.7795L16.1172 277.96Z" fill="#EF3425"/>
<path d="M16.5625 277.731L17.0089 277.502L38.9235 317.36H38.3515L16.5625 277.731Z" fill="#EF3525"/>
<path d="M17.0117 277.501L17.4581 277.271L39.4995 317.358H38.9264L17.0117 277.501Z" fill="#EF3525"/>
<path d="M17.457 277.272L17.9045 277.042L40.0716 317.359H39.4985L17.457 277.272Z" fill="#EF3625"/>
<path d="M17.9023 277.041L18.3487 276.811L40.6414 317.358H40.0694L17.9023 277.041Z" fill="#EF3725"/>
<path d="M18.3516 276.809L18.7979 276.58L41.2174 317.356H40.6443L18.3516 276.809Z" fill="#EF3825"/>
<path d="M18.7969 276.581L19.2432 276.352L41.7894 317.358H41.2163L18.7969 276.581Z" fill="#EF3925"/>
<path d="M19.2422 276.351L19.6885 276.121L42.3604 317.356H41.7884L19.2422 276.351Z" fill="#EF3925"/>
<path d="M19.6875 276.122L20.1339 275.893L42.9324 317.358H42.3593L19.6875 276.122Z" fill="#EF3A25"/>
<path d="M20.1367 275.892L20.5831 275.662L43.5084 317.357H42.9353L20.1367 275.892Z" fill="#EF3B25"/>
<path d="M20.582 275.663L21.0284 275.434L44.0794 317.358H43.5074L20.582 275.663Z" fill="#EF3C25"/>
<path d="M21.0273 275.432L21.4737 275.202L44.6514 317.357H44.0783L21.0273 275.432Z" fill="#F03D25"/>
<path d="M21.4766 275.204L21.924 274.975L45.2274 317.358H44.6543L21.4766 275.204Z" fill="#F03E25"/>
<path d="M21.9219 274.972L22.3682 274.743L45.7972 317.356H45.2252L21.9219 274.972Z" fill="#F03E25"/>
<path d="M22.3672 274.745L22.8135 274.515L46.3693 317.358H45.7962L22.3672 274.745Z" fill="#F03F25"/>
<path d="M22.8164 274.513L23.2628 274.284L46.9453 317.356H46.3722L22.8164 274.513Z" fill="#F04025"/>
<path d="M23.2617 274.286L23.7081 274.056L47.5162 317.359H46.9442L23.2617 274.286Z" fill="#F04125"/>
<path d="M23.707 274.054L24.1534 273.825L48.0883 317.356H47.5152L23.707 274.054Z" fill="#F04225"/>
<path d="M24.1523 273.827L24.5987 273.597L48.6603 317.359H48.0872L24.1523 273.827Z" fill="#F04325"/>
<path d="M24.6016 273.594L25.0479 273.365L49.2352 317.356H48.6632L24.6016 273.594Z" fill="#F04425"/>
<path d="M25.0469 273.367L25.4943 273.138L49.8072 317.358H49.2341L25.0469 273.367Z" fill="#F04525"/>
<path d="M25.4961 273.136L25.9425 272.906L50.3821 317.357H49.809L25.4961 273.136Z" fill="#F14625"/>
<path d="M25.9414 272.907L26.3878 272.678L50.9542 317.358H50.3811L25.9414 272.907Z" fill="#F14725"/>
<path d="M26.3867 272.677L26.8331 272.447L51.5251 317.357H50.9531L26.3867 272.677Z" fill="#F14825"/>
<path d="M26.832 272.448L27.2784 272.219L52.0972 317.358H51.5241L26.832 272.448Z" fill="#F14925"/>
<path d="M27.2812 272.218L27.7276 271.988L52.672 317.357H52.1L27.2812 272.218Z" fill="#F14A25"/>
<path d="M27.7266 271.989L28.1729 271.76L53.2441 317.358H52.671L27.7266 271.989Z" fill="#F14B25"/>
<path d="M28.1719 271.758L28.6182 271.529L53.8161 317.357H53.243L28.1719 271.758Z" fill="#F14C25"/>
<path d="M28.6172 271.531L29.0635 271.301L54.3882 317.359H53.8151L28.6172 271.531Z" fill="#F14D25"/>
<path d="M29.0664 271.298L29.5139 271.069L54.9631 317.356H54.3911L29.0664 271.298Z" fill="#F14E25"/>
<path d="M29.5117 271.072L29.9581 270.841L55.534 317.359H54.9609L29.5117 271.072Z" fill="#F24F25"/>
<path d="M29.9609 270.84L30.4073 270.61L56.1089 317.357H55.5369L29.9609 270.84Z" fill="#F25025"/>
<path d="M30.4062 270.613L30.8526 270.382L56.6809 317.359H56.1078L30.4062 270.613Z" fill="#F25125"/>
<path d="M30.8516 270.38L31.2979 270.151L57.253 317.357H56.6799L30.8516 270.38Z" fill="#F25225"/>
<path d="M31.2969 270.152L31.7432 269.923L57.7016 317.133L57.2652 317.358H57.2519L31.2969 270.152Z" fill="#F25325"/>
<path d="M32.1849 269.697L31.7383 269.926L57.694 317.138L58.1407 316.908L32.1849 269.697Z" fill="#F25425"/>
<path d="M32.6303 269.469L32.1836 269.698L58.1393 316.91L58.586 316.68L32.6303 269.469Z" fill="#F25525"/>
<path d="M33.0795 269.237L32.6328 269.467L58.5885 316.678L59.0352 316.449L33.0795 269.237Z" fill="#F25625"/>
<path d="M33.5209 269.01L33.0742 269.239L59.0299 316.451L59.4766 316.221L33.5209 269.01Z" fill="#F25725"/>
<path d="M33.9662 268.782L33.5195 269.011L59.4752 316.223L59.9219 315.993L33.9662 268.782Z" fill="#F35825"/>
<path d="M34.4154 268.55L33.9688 268.78L59.9244 315.991L60.3711 315.762L34.4154 268.55Z" fill="#F35925"/>
<path d="M34.8607 268.322L34.4141 268.552L60.3698 315.763L60.8164 315.534L34.8607 268.322Z" fill="#F35A25"/>
<path d="M35.3099 268.091L34.8633 268.321L60.819 315.532L61.2656 315.303L35.3099 268.091Z" fill="#F35C25"/>
<path d="M35.7553 267.863L35.3086 268.093L61.2643 315.304L61.711 315.075L35.7553 267.863Z" fill="#F35D25"/>
<path d="M36.2006 267.635L35.7539 267.865L61.7096 315.076L62.1563 314.847L36.2006 267.635Z" fill="#F35E26"/>
<path d="M36.6498 267.401L36.2031 267.63L62.1588 314.842L62.6055 314.612L36.6498 267.401Z" fill="#F35F26"/>
<path d="M37.0951 267.176L36.6484 267.405L62.6041 314.617L63.0508 314.387L37.0951 267.176Z" fill="#F36026"/>
<path d="M37.5443 266.941L37.0977 267.171L63.0534 314.382L63.5 314.153L37.5443 266.941Z" fill="#F46126"/>
<path d="M37.9857 266.717L37.5391 266.946L63.4948 314.158L63.9414 313.928L37.9857 266.717Z" fill="#F46226"/>
<path d="M38.431 266.485L37.9844 266.715L63.9401 313.926L64.3867 313.697L38.431 266.485Z" fill="#F46426"/>
<path d="M38.8842 266.254L38.4375 266.484L64.3932 313.695L64.8399 313.466L38.8842 266.254Z" fill="#F46526"/>
<path d="M39.3256 266.026L38.8789 266.256L64.8346 313.467L65.2813 313.238L39.3256 266.026Z" fill="#F46626"/>
<path d="M39.7787 265.791L39.332 266.021L65.2877 313.232L65.7344 313.003L39.7787 265.791Z" fill="#F46726"/>
<path d="M40.2201 265.567L39.7734 265.796L65.7291 313.008L66.1758 312.778L40.2201 265.567Z" fill="#F46826"/>
<path d="M40.6654 265.336L40.2188 265.565L66.1745 312.777L66.6211 312.547L40.6654 265.336Z" fill="#F46A26"/>
<path d="M41.1185 265.104L40.6719 265.334L66.6276 312.545L67.0742 312.316L41.1185 265.104Z" fill="#F56B26"/>
<path d="M41.5599 264.88L41.1133 265.109L67.069 312.321L67.5157 312.091L41.5599 264.88Z" fill="#F56C26"/>
<path d="M42.0092 264.645L41.5625 264.875L67.5182 312.086L67.9649 311.857L42.0092 264.645Z" fill="#F56D26"/>
<path d="M42.4506 264.421L42.0039 264.65L67.9596 311.862L68.4063 311.632L42.4506 264.421Z" fill="#F56F26"/>
<path d="M42.8959 264.189L42.4492 264.419L68.4049 311.63L68.8516 311.401L42.8959 264.189Z" fill="#F57026"/>
<path d="M43.349 263.958L42.9023 264.188L68.858 311.399L69.3047 311.169L43.349 263.958Z" fill="#F57126"/>
<path d="M43.7904 263.73L43.3438 263.959L69.2995 311.171L69.7461 310.941L43.7904 263.73Z" fill="#F57226"/>
<path d="M44.2435 263.499L43.7969 263.729L69.7526 310.94L70.1992 310.71L44.2435 263.499Z" fill="#F67426"/>
<path d="M44.6849 263.271L44.2383 263.5L70.194 310.712L70.6406 310.482L44.6849 263.271Z" fill="#F67526"/>
<path d="M45.1303 263.043L44.6836 263.272L70.6393 310.484L71.086 310.254L45.1303 263.043Z" fill="#F67626"/>
<path d="M45.5795 262.808L45.1328 263.038L71.0885 310.25L71.5352 310.02L45.5795 262.808Z" fill="#F67726"/>
<path d="M46.0248 262.58L45.5781 262.81L71.5338 310.022L71.9805 309.792L46.0248 262.58Z" fill="#F67926"/>
<path d="M46.474 262.349L46.0273 262.579L71.9831 309.79L72.4297 309.56L46.474 262.349Z" fill="#F67A26"/>
<path d="M46.9154 262.121L46.4688 262.351L72.4244 309.562L72.8711 309.332L46.9154 262.121Z" fill="#F67B26"/>
<path d="M47.3646 261.893L46.918 262.123L72.8737 309.335L73.3203 309.105L47.3646 261.893Z" fill="#F77D26"/>
<path d="M47.8139 261.658L47.3672 261.888L73.3229 309.1L73.7695 308.87L47.8139 261.658Z" fill="#F77E26"/>
<path d="M48.2553 261.434L47.8086 261.664L73.7643 308.875L74.211 308.645L48.2553 261.434Z" fill="#F77F26"/>
<path d="M48.7084 261.2L48.2617 261.429L74.2174 308.641L74.6641 308.411L48.7084 261.2Z" fill="#F78126"/>
<path d="M49.1498 260.975L48.7031 261.205L74.6588 308.416L75.1055 308.186L49.1498 260.975Z" fill="#F78226"/>
<path d="M49.5951 260.747L49.1484 260.977L75.1041 308.188L75.5508 307.958L49.5951 260.747Z" fill="#F78426"/>
<path d="M50.0482 260.512L49.6016 260.742L75.5573 307.953L76.0039 307.724L50.0482 260.512Z" fill="#F78526"/>
<path d="M50.4896 260.287L50.043 260.517L75.9987 307.729L76.4453 307.499L50.4896 260.287Z" fill="#F88626"/>
<path d="M50.9389 260.053L50.4922 260.283L76.4479 307.494L76.8946 307.265L50.9389 260.053Z" fill="#F88826"/>
<path d="M51.3803 259.825L50.9336 260.055L76.8893 307.266L77.336 307.036L51.3803 259.825Z" fill="#F88927"/>
<path d="M51.8295 259.597L51.3828 259.827L77.3385 307.038L77.7852 306.808L51.8295 259.597Z" fill="#F88A27"/>
<path d="M52.2787 259.363L51.832 259.592L77.7877 306.804L78.2344 306.574L52.2787 259.363Z" fill="#F88C27"/>
<path d="M52.7201 259.138L52.2734 259.368L78.2291 306.579L78.6758 306.349L52.7201 259.138Z" fill="#F88D27"/>
<path d="M53.1732 258.907L52.7266 259.136L78.6823 306.348L79.1289 306.118L53.1732 258.907Z" fill="#F98F27"/>
<path d="M53.6146 258.679L53.168 258.908L79.1237 306.12L79.5703 305.89L53.6146 258.679Z" fill="#F99027"/>
<path d="M54.0599 258.448L53.6133 258.677L79.569 305.889L80.0156 305.659L54.0599 258.448Z" fill="#F99227"/>
<path d="M54.5131 258.216L54.0664 258.446L80.0221 305.657L80.4688 305.428L54.5131 258.216Z" fill="#F99327"/>
<path d="M54.9545 257.988L54.5078 258.218L80.4635 305.429L80.9102 305.2L54.9545 257.988Z" fill="#F99427"/>
<path d="M55.4037 257.757L54.957 257.986L80.9127 305.198L81.3594 304.968L55.4037 257.757Z" fill="#F99627"/>
<path d="M55.849 257.529L55.4023 257.759L81.3581 304.97L81.8047 304.741L55.849 257.529Z" fill="#F99727"/>
<path d="M56.2982 257.298L55.8516 257.527L81.8073 304.739L82.2539 304.509L56.2982 257.298Z" fill="#FA9927"/>
<path d="M56.7396 257.07L56.293 257.299L82.2487 304.511L82.6953 304.281L56.7396 257.07Z" fill="#FA9A27"/>
<path d="M57.1888 256.842L56.7422 257.071L82.6979 304.283L83.1445 304.053L57.1888 256.842Z" fill="#FA9C27"/>
<path d="M57.6381 256.607L57.1914 256.837L83.1471 304.048L83.5938 303.819L57.6381 256.607Z" fill="#FA9D27"/>
<path d="M58.0795 256.383L57.6328 256.612L83.5885 303.824L84.0352 303.594L58.0795 256.383Z" fill="#FA9F27"/>
<path d="M58.5287 256.148L58.082 256.377L84.0377 303.589L84.4844 303.359L58.5287 256.148Z" fill="#FAA027"/>
<path d="M58.974 255.923L58.5273 256.153L84.4831 303.364L84.9297 303.135L58.974 255.923Z" fill="#FBA227"/>
<path d="M59.4193 255.692L58.9727 255.922L84.9284 303.133L85.375 302.904L59.4193 255.692Z" fill="#FBA327"/>
<path d="M59.4297 255.685L59.7295 255.532H59.9168L85.8333 302.666L85.387 302.897L59.4297 255.685Z" fill="#FBA527"/>
<path d="M60.4872 255.532L86.2769 302.437L85.8306 302.666L59.9141 255.532H60.4872Z" fill="#FBA627"/>
<path d="M61.0614 255.532L86.7244 302.207L86.278 302.437L60.4883 255.532H61.0614Z" fill="#FBA827"/>
<path d="M61.6345 255.532L87.173 301.978L86.7255 302.207L61.0625 255.532H61.6345Z" fill="#FBAA27"/>
<path d="M62.2059 255.532L87.6176 301.749L87.1713 301.978L61.6328 255.532H62.2059Z" fill="#FCAB27"/>
<path d="M62.7801 255.532L88.0651 301.518L87.6188 301.749L62.207 255.532H62.7801Z" fill="#FCAD27"/>
<path d="M63.3505 255.532L88.5087 301.289L88.0623 301.518L62.7773 255.532H63.3505Z" fill="#FCAE27"/>
<path d="M63.9236 255.532L88.9562 301.059L88.5098 301.289L63.3516 255.532H63.9236Z" fill="#FCB027"/>
<path d="M64.4989 255.532L89.4047 300.83L88.9584 301.059L63.9258 255.532H64.4989Z" fill="#FCB127"/>
<path d="M65.0692 255.532L89.6257 300.196V300.715L89.4019 300.83L64.4961 255.532H65.0692Z" fill="#FCB327"/>
<path d="M65.6423 255.532L89.6268 299.153V300.196L65.0703 255.532H65.6423Z" fill="#FDB528"/>
<path d="M66.2176 255.532L89.629 298.112V299.153L65.6445 255.532H66.2176Z" fill="#FDB628"/>
<path d="M66.7868 255.532L89.6262 297.07V298.112L66.2148 255.532H66.7868Z" fill="#FDB828"/>
<path d="M67.3622 255.532L89.6284 296.029V297.07L66.7891 255.532H67.3622Z" fill="#FDB928"/>
<path d="M67.9325 255.532L89.6256 294.986V296.029L67.3594 255.532H67.9325Z" fill="#FDBB28"/>
<path d="M68.5056 255.532L89.6267 293.945V294.986L67.9336 255.532H68.5056Z" fill="#FEBD28"/>
<path d="M69.077 255.532L89.6251 292.904V293.945L68.5039 255.532H69.077Z" fill="#FEBE28"/>
<path d="M69.6512 255.532L89.6262 291.861V292.904L69.0781 255.532H69.6512Z" fill="#FEC028"/>
<path d="M70.2255 255.532L89.6273 290.82V291.861L69.6523 255.532H70.2255Z" fill="#FEC228"/>
<path d="M70.7986 255.532L89.6284 289.778V290.82L70.2266 255.532H70.7986Z" fill="#FEC328"/>
<path d="M71.37 255.532L89.6267 288.737V289.778L70.7969 255.532H71.37Z" fill="#FEC528"/>
<path d="M71.9442 255.532L89.6278 287.695V288.737L71.3711 255.532H71.9442Z" fill="#FFC728"/>
<path d="M72.5173 255.532L89.6289 286.653V287.695L71.9453 255.532H72.5173Z" fill="#FFC828"/>
<path d="M73.0887 255.532L89.6272 285.612V286.653L72.5156 255.532H73.0887Z" fill="#FFCA28"/>
<path d="M89.6284 285.612L73.0898 255.532H89.6284V285.612Z" fill="#FFCA28"/>
</g>
<g opacity="0.5">
<path d="M18.3184 304.604C33.8066 291.612 31.4866 276.433 48.477 269.301C69.7414 260.376 84.0095 280.517 84.0095 280.517C84.0095 280.517 84.5066 282.691 84.6179 285.969C85.191 280.157 84.1627 275.665 84.1627 275.665C84.1627 275.665 69.8935 255.519 48.6302 264.449C27.3669 273.38 36.3514 294.905 2.82031 308.975C8.60758 306.55 13.717 305.21 18.3184 304.604Z" fill="white"/>
</g>
<g opacity="0.3">
<path d="M83.7682 290.843C81.2895 294.652 77.5048 298.136 71.7793 300.543C54.1926 307.924 43.7985 293.846 21.7582 296.72C17.4984 301.081 11.6274 305.292 2.82031 308.988C36.3514 294.918 47.0993 317.363 68.3638 308.437C77.939 304.414 82.0929 297.371 83.7682 290.843Z" fill="#371A45"/>
</g>
<path d="M29.3672 298.329C48.888 290.135 62.1003 303.198 74.4772 298.002C86.8541 292.805 82.3828 276.05 82.3828 276.05C82.3828 276.05 72.7844 261.447 60.4042 266.642C48.024 271.836 48.888 290.135 29.3672 298.329Z" fill="#FFD553"/>
<path d="M57.6626 312.385C52.4253 312.385 47.533 311.017 42.4731 309.603C32.2355 306.741 20.6323 303.5 2.56294 311.084C2.3441 311.18 2.10747 311.234 1.86691 311.242C1.62635 311.249 1.38669 311.21 1.16196 311.126C0.937221 311.043 0.731927 310.917 0.558091 310.756C0.384255 310.595 0.245368 310.402 0.149561 310.189C0.0537538 309.975 0.0029505 309.745 0.000124743 309.513C-0.00270102 309.28 0.0425075 309.049 0.133104 308.833C0.223701 308.618 0.357866 308.422 0.527746 308.257C0.697626 308.092 0.899808 307.961 1.12246 307.873C19.2172 300.277 24.8645 290.235 29.8483 281.375C33.9934 274.004 37.9092 267.041 47.9066 262.845C57.1843 258.95 66.6769 259.779 75.3496 265.244C81.8025 269.307 85.4891 274.459 85.6478 274.676C85.7784 274.861 85.8712 275.068 85.9212 275.286C85.9807 275.544 87.3539 281.67 86.0115 289.003C84.2107 298.865 78.3551 306.137 69.0763 310.03C65.005 311.746 61.2523 312.385 57.6626 312.385ZM23.8549 302.866C31.3946 302.866 37.6447 304.614 43.4728 306.243C51.7001 308.542 58.8067 310.528 67.6358 306.823C85.9939 299.118 82.9796 279.178 82.4539 276.374C80.6265 273.954 67.865 258.282 49.3427 266.057C40.4882 269.773 37.0286 275.926 33.0224 283.049C29.3005 289.666 25.2282 296.906 16.356 303.439C18.8364 303.059 21.3437 302.868 23.8549 302.866Z" fill="#371A45"/>
<path d="M193.703 170.638C193.703 170.638 217.208 180.19 221.192 186.093C225.177 191.996 210.569 192.143 210.569 192.143" fill="white"/>
<path d="M210.57 194.167C210.248 194.167 209.93 194.095 209.641 193.956C209.353 193.818 209.101 193.616 208.907 193.368L192.044 171.86C191.767 171.506 191.618 171.073 191.621 170.629C191.624 170.185 191.778 169.755 192.059 169.404C192.341 169.053 192.734 168.802 193.178 168.689C193.622 168.576 194.092 168.608 194.515 168.779C196.982 169.782 218.731 178.752 222.943 184.996C224.422 187.188 224.045 188.897 223.464 189.944C221.35 193.765 213.078 194.143 210.594 194.167H210.57ZM200.303 175.717L211.583 190.101C215.489 189.923 219.248 189.003 219.78 188.04C219.831 187.949 219.731 187.624 219.45 187.201C217.451 184.247 208.424 179.446 200.303 175.717Z" fill="#371A45"/>
<path d="M95.0374 120.552C85.9074 127.17 77.54 158.683 79.655 177.472C81.77 196.261 116.103 197.663 135.739 197.055C155.374 196.446 155.306 153.508 155.049 142.006C154.645 124.039 108.565 110.745 95.0374 120.552Z" fill="white"/>
<g opacity="0.25">
<path d="M135.736 197.056C116.1 197.665 81.7681 196.256 79.6487 177.472C79.3696 174.831 79.2661 172.176 79.339 169.523C84.7614 173.646 92.3165 169.976 93.2258 164.94C98.8466 133.815 110.834 121.877 116.631 117.787C134.295 120.182 154.777 130.062 155.041 142.012C155.303 153.507 155.37 196.444 135.736 197.056Z" fill="#371A45"/>
</g>
<path d="M128.892 199.18C105.165 199.18 79.5355 195.08 77.5781 177.689C75.5314 159.516 83.3169 126.526 93.7793 118.938C103.059 112.213 124.467 115.421 138.98 122.255C150.52 127.691 156.965 134.686 157.128 141.961C157.599 163.028 155.454 198.461 135.799 199.07C133.534 199.141 131.222 199.18 128.892 199.18ZM108.967 119.222C103.566 119.222 99.0354 120.181 96.2922 122.169C87.8609 128.28 79.6964 159.168 81.732 177.252C83.631 194.124 116.339 195.636 135.674 195.037C152.806 194.504 153.24 154.345 152.966 142.048C152.84 136.444 147.08 130.553 137.163 125.884C127.946 121.547 117.395 119.222 108.967 119.222Z" fill="#371A45"/>
<path d="M96.9632 152.072L88.2487 148.712C87.7844 148.533 87.2861 148.452 86.7868 148.473C86.2875 148.494 85.7986 148.618 85.3524 148.836C84.9063 149.054 84.5131 149.361 84.199 149.737C83.8849 150.113 83.657 150.549 83.5305 151.017C81.7009 157.844 78.8806 172.005 85.986 174.899C94.598 178.41 97.6509 168.803 99.1641 155.606C99.2465 154.865 99.076 154.119 98.6786 153.481C98.2811 152.843 97.6787 152.348 96.9632 152.072Z" fill="white"/>
<g opacity="0.25">
<path d="M99.1457 155.583C97.6644 168.787 94.6336 178.403 86.0138 174.908C82.4738 173.478 81.3849 169.245 81.4147 164.517C82.1321 165.869 83.1626 166.918 84.6031 167.501C92.318 170.627 95.5615 163.246 97.2114 152.183C97.8565 152.488 98.3885 152.979 98.7347 153.587C99.0809 154.196 99.2244 154.893 99.1457 155.583Z" fill="#371A45"/>
</g>
<path d="M89.3345 177.498C88.0583 177.498 86.703 177.208 85.2688 176.629C77.3919 173.436 78.9448 160.694 81.6318 150.566C81.8251 149.842 82.1755 149.165 82.6598 148.582C83.1441 147.999 83.7512 147.522 84.4407 147.183C85.1302 146.844 85.8864 146.65 86.6591 146.616C87.4318 146.581 88.2033 146.706 88.9223 146.981L97.6446 150.322C98.7524 150.747 99.686 151.511 100.303 152.497C100.92 153.484 101.186 154.638 101.061 155.785C99.6989 167.915 97.3316 174.109 93.1468 176.496C91.9937 177.159 90.6758 177.505 89.3345 177.498ZM86.9099 150.339C86.6576 150.34 86.4091 150.398 86.1847 150.509C85.9836 150.608 85.8066 150.746 85.6657 150.916C85.5248 151.086 85.4233 151.283 85.368 151.494C82.9191 160.717 81.9977 171.258 86.7567 173.188C88.5663 173.92 90.0156 173.952 91.1883 173.284C95.4866 170.832 96.7981 159.202 97.2269 155.376C97.2623 155.042 97.1836 154.705 97.0027 154.418C96.8218 154.13 96.5487 153.908 96.225 153.785L87.5028 150.444C87.3144 150.374 87.114 150.338 86.9121 150.339H86.9099Z" fill="#371A45"/>
<path d="M93.7558 120.596L104.023 125.179C107.44 126.732 110.846 128.271 114.24 129.935C114.477 130.054 114.657 130.256 114.745 130.5C114.833 130.744 114.821 131.011 114.712 131.246C114.603 131.481 114.404 131.668 114.158 131.766C113.911 131.865 113.635 131.868 113.386 131.776L113.368 131.769C109.91 130.441 106.36 129.211 102.83 127.977L92.2007 124.338L92.1819 124.332C91.6967 124.127 91.3097 123.752 91.0989 123.282C90.8881 122.812 90.8691 122.283 91.0458 121.8C91.2226 121.317 91.5818 120.917 92.0513 120.68C92.5208 120.443 93.0656 120.387 93.5761 120.523C93.6368 120.546 93.6985 120.57 93.7558 120.596Z" fill="#371A45"/>
<path d="M251.499 114.521C248.113 125.691 222.403 146.377 185.511 147.411C181.84 147.518 178.165 147.427 174.504 147.14L171.212 133.542L168.578 122.656C168.578 122.656 174.309 121.646 182.134 119.634C188.322 118.05 195.818 115.839 202.845 113.014C209.47 110.35 215.683 107.136 219.971 103.378C219.971 103.378 220.206 92.1855 223.488 91.046C227.494 89.6539 230.463 97.5246 230.463 97.5246C230.463 97.5246 239.572 88.458 244.887 89.3363C252.793 90.641 255.218 102.27 251.499 114.521Z" fill="white"/>
<g opacity="0.35">
<path d="M253.163 105.388C252.975 108.483 252.418 111.547 251.503 114.519C247.789 126.77 217.227 150.468 174.508 147.136L168.582 122.655C168.582 122.655 170.361 122.343 173.287 121.717L180.213 134.7C215.501 144.977 247.366 117.992 253.163 105.388Z" fill="#371A45"/>
</g>
<path d="M182.608 149.473C179.903 149.473 177.148 149.367 174.342 149.154C174.068 149.134 173.8 149.063 173.554 148.943C173.308 148.823 173.09 148.658 172.91 148.456C172.731 148.254 172.595 148.02 172.509 147.767C172.424 147.513 172.391 147.247 172.413 146.981C172.435 146.716 172.511 146.457 172.637 146.22C172.762 145.984 172.935 145.773 173.145 145.601C173.355 145.429 173.598 145.299 173.86 145.218C174.123 145.138 174.399 145.108 174.673 145.131C216.802 148.413 246.215 124.765 249.496 113.952C251.838 106.235 251.609 98.5495 248.913 94.3744C247.798 92.6487 246.327 91.6243 244.54 91.3301C241.626 90.8494 235.43 95.4872 231.962 98.9386L229.647 101.242L228.503 98.2202C227.585 95.8038 225.477 92.5708 224.227 92.9365C223.192 93.6506 222.16 98.622 222.057 103.419L222.038 104.288L221.377 104.873C206.514 117.892 170.484 124.379 168.957 124.643C168.688 124.691 168.411 124.686 168.143 124.631C167.876 124.575 167.622 124.469 167.396 124.318C166.941 124.013 166.629 123.547 166.53 123.02C166.431 122.494 166.552 121.951 166.866 121.51C167.181 121.07 167.664 120.769 168.208 120.673C168.565 120.61 203.497 114.325 217.914 102.445C218.078 98.3065 218.906 90.5072 222.785 89.1546C226.721 87.7828 229.585 91.3621 231.136 94.1111C234.476 91.1809 240.576 86.5858 245.243 87.3532C248.212 87.8425 250.707 89.5319 252.455 92.2383C255.805 97.425 256.202 106.183 253.504 115.09C249.717 127.565 221.806 149.471 182.608 149.473Z" fill="#371A45"/>
<path d="M213.203 195.501C213.203 195.501 161.552 214.82 143.428 213.437C125.305 212.055 105.794 209.28 104.725 176.037C104.064 155.371 114.632 135.037 122.728 122.615C127.658 115.047 131.67 110.411 131.67 110.411L181.542 112.873C181.542 112.873 181.735 115.416 182.137 119.634C182.387 122.268 182.721 125.552 183.143 129.275C183.75 134.624 184.532 140.875 185.512 147.408C187.015 157.418 188.981 168.087 191.463 177.156C192.529 181.082 209.557 182.156 213.203 195.501Z" fill="white"/>
<path d="M184.392 133.952C186.258 139.836 187.327 145.784 188.407 151.726C189.509 157.665 190.483 163.615 191.752 169.495C192.074 170.965 192.414 172.426 192.774 173.886L193.325 176.066L193.466 176.61L193.475 176.643V176.637V176.623C193.475 176.614 193.472 176.606 193.467 176.598C193.462 176.591 193.456 176.586 193.448 176.581C193.454 176.583 193.459 176.586 193.464 176.59C193.475 176.597 193.464 176.604 193.479 176.621C193.507 176.644 193.533 176.67 193.558 176.696C193.583 176.747 193.714 176.828 193.786 176.898C194.177 177.204 194.795 177.537 195.431 177.857C196.067 178.177 196.766 178.482 197.472 178.792C198.884 179.412 200.352 180.046 201.805 180.758C204.707 182.173 207.614 183.903 210.048 186.3C211.278 187.5 212.345 188.847 213.222 190.309C214.095 191.78 214.766 193.355 215.218 194.994L215.704 196.748L213.952 197.388C205.739 200.413 197.497 203.216 189.155 205.851C180.813 208.486 172.412 210.913 163.824 212.876C159.526 213.835 155.189 214.712 150.709 215.199C148.472 215.445 146.204 215.61 143.826 215.479C143.216 215.463 142.694 215.407 142.141 215.372L140.495 215.233C139.392 215.136 138.29 215.033 137.188 214.905C132.78 214.404 128.287 213.647 123.947 212.102C121.755 211.331 119.654 210.334 117.683 209.128C115.689 207.9 113.866 206.431 112.256 204.758C110.665 203.084 109.29 201.23 108.159 199.236C107.034 197.28 106.112 195.221 105.404 193.089L105.128 192.3L104.897 191.503L104.442 189.904L104.068 188.296L103.884 187.492L103.738 186.684L103.446 185.068C103.36 184.529 103.297 183.988 103.225 183.449C103.063 182.369 102.969 181.289 102.876 180.209C102.49 175.877 102.529 171.52 102.993 167.195C103.477 162.889 104.318 158.628 105.508 154.452C107.839 146.114 111.362 138.178 115.507 130.617C117.581 126.837 119.653 123.04 122.17 119.512C124.686 115.985 127.472 112.628 131.139 109.982C131.266 109.891 131.421 109.843 131.579 109.846C131.737 109.849 131.89 109.902 132.013 109.998C132.137 110.094 132.224 110.227 132.261 110.376C132.298 110.525 132.283 110.681 132.218 110.821L132.206 110.846C130.373 114.755 128.135 118.307 125.864 121.841C123.63 125.394 121.218 128.848 119.198 132.522C115.155 139.854 111.767 147.54 109.535 155.508C108.41 159.476 107.616 163.524 107.161 167.614C106.723 171.69 106.686 175.797 107.051 179.88C107.14 180.903 107.227 181.925 107.381 182.934C107.452 183.44 107.509 183.949 107.591 184.452L107.862 185.955L107.997 186.701L108.168 187.442L108.512 188.922L108.924 190.382L109.134 191.108L109.383 191.818C110.007 193.708 110.824 195.534 111.821 197.269C112.789 198.98 113.968 200.573 115.332 202.011C118.055 204.86 121.551 206.944 125.41 208.308C129.268 209.672 133.444 210.409 137.685 210.888C138.747 211.01 139.816 211.11 140.889 211.207L142.503 211.343C143.037 211.382 143.605 211.44 144.082 211.449C144.586 211.458 145.074 211.511 145.59 211.488L147.133 211.453C148.174 211.376 149.212 211.321 150.265 211.189C154.463 210.734 158.692 209.89 162.889 208.951C171.29 207.032 179.617 204.616 187.878 202.022C196.14 199.429 204.36 196.614 212.456 193.633L211.192 196.031C210.474 193.424 209.058 191.047 207.086 189.14C205.112 187.194 202.617 185.676 199.933 184.369C198.59 183.711 197.193 183.107 195.745 182.475C195.026 182.155 194.292 181.835 193.541 181.46C192.79 181.085 192.016 180.694 191.179 180.055C190.952 179.881 190.739 179.692 190.54 179.489L190.221 179.146C190.111 179.012 190.009 178.855 189.91 178.706C189.711 178.453 189.533 177.949 189.435 177.651L189.285 177.094L188.685 174.866C188.3 173.378 187.933 171.888 187.583 170.396C186.879 167.411 186.203 164.427 185.611 161.425C185.019 158.424 184.518 155.413 184.077 152.395C183.215 146.355 182.622 140.28 183.011 134.121C183.022 133.961 183.09 133.81 183.204 133.694C183.318 133.578 183.47 133.504 183.634 133.486C183.799 133.467 183.965 133.504 184.103 133.592C184.242 133.679 184.345 133.81 184.393 133.963L184.392 133.952Z" fill="#371A45"/>
<path d="M109.731 297.071L100.792 298.416C98.8064 298.715 96.7743 298.489 94.9114 297.761C93.0485 297.033 91.4242 295.83 90.2112 294.281C82.8536 284.886 78.2948 273.722 77.0287 262C76.8205 260.068 77.1568 258.117 78.0018 256.355C78.8468 254.593 80.1691 253.085 81.8285 251.99L89.3031 247.063" fill="#00AAFF"/>
<g opacity="0.6">
<path d="M90.8945 252.019L83.4916 256.899C81.656 258.108 80.1935 259.775 79.2595 261.724C78.3255 263.673 77.9548 265.83 78.187 267.966C78.3678 269.646 78.6102 271.316 78.9144 272.976C78.0187 269.724 77.3882 266.41 77.0287 263.063C76.8205 261.131 77.1568 259.18 78.0018 257.418C78.8468 255.656 80.1691 254.147 81.8285 253.053L89.3042 248.128L90.8945 252.019Z" fill="white"/>
</g>
<g opacity="0.35">
<path d="M82.6641 279.988C84.4932 283.515 86.6525 286.873 89.1148 290.02C90.3277 291.569 91.952 292.771 93.8151 293.499C95.6781 294.226 97.7101 294.452 99.6952 294.152L108.031 292.898L89.3077 247.064L87.7129 248.112L101.593 282.093L92.6515 283.44C90.8213 283.715 88.949 283.543 87.2048 282.94C85.4605 282.338 83.8997 281.323 82.6641 279.988ZM99.8881 277.92L87.7129 248.112L88.2166 247.78L100.491 277.83L99.8881 277.92Z" fill="#371A45"/>
</g>
<path d="M111.312 233.781C106.666 224.98 90.7433 213.326 59.4231 232.548C59.3324 232.604 59.2613 232.686 59.219 232.781C59.1767 232.877 59.1651 232.983 59.1858 233.085C59.2065 233.187 59.2584 233.281 59.335 233.354C59.4115 233.428 59.509 233.477 59.6149 233.496C64.8268 234.394 89.3447 238.434 93.8337 250.764" fill="#EC1C24"/>
<g opacity="0.6">
<path d="M64.6984 233.909C62.4511 233.443 60.6514 233.14 59.6176 232.962C59.5113 232.944 59.4132 232.895 59.3361 232.822C59.2591 232.749 59.2067 232.655 59.1859 232.552C59.165 232.45 59.1767 232.343 59.2193 232.248C59.2619 232.152 59.3335 232.07 59.4247 232.014C90.746 212.793 106.667 224.446 111.315 233.249L109.422 235.087C103.414 227.587 89.2934 220.744 64.6984 233.909Z" fill="white"/>
</g>
<path d="M93.8352 252.785C93.4031 252.785 92.9817 252.655 92.6291 252.414C92.2765 252.172 92.0101 251.831 91.8668 251.437C90.3668 247.315 84.1662 239.766 59.4973 235.526L59.2504 235.483C58.7304 235.393 58.2506 235.153 57.8739 234.795C57.4972 234.437 57.2411 233.977 57.1392 233.476C57.0372 232.974 57.0941 232.455 57.3025 231.985C57.5109 231.516 57.861 231.118 58.307 230.844C73.5329 221.5 86.808 218.23 97.7631 221.126C107.429 223.685 111.76 230.187 113.174 232.865C113.412 233.34 113.448 233.887 113.274 234.387C113.1 234.888 112.731 235.303 112.244 235.543C111.758 235.783 111.194 235.829 110.673 235.672C110.152 235.514 109.715 235.166 109.457 234.701C108.295 232.5 104.718 227.149 96.6632 225.019C87.8176 222.681 76.5693 225.18 63.9631 232.245C86.441 236.74 93.715 244.355 95.8091 250.097C95.9197 250.401 95.9532 250.727 95.907 251.046C95.8607 251.365 95.736 251.67 95.5433 251.933C95.3505 252.196 95.0953 252.411 94.7991 252.559C94.5029 252.707 94.1742 252.785 93.8407 252.785H93.8352Z" fill="#371A45"/>
<path d="M134.789 291.259C137.618 300.759 134.437 320.3 97.9902 326.967C97.8842 326.986 97.7747 326.974 97.676 326.932C97.5773 326.89 97.494 326.82 97.4369 326.732C97.3798 326.643 97.3516 326.54 97.3559 326.436C97.3602 326.332 97.3969 326.231 97.4612 326.148C100.631 322.047 115.451 302.348 110.014 290.379" fill="#D25658"/>
<path d="M97.9936 326.975C97.8875 326.993 97.7781 326.981 97.6796 326.939C97.581 326.896 97.4978 326.827 97.4408 326.738C97.3838 326.65 97.3556 326.547 97.3598 326.443C97.364 326.338 97.4005 326.238 97.4646 326.154C99.0869 324.053 103.768 317.86 107.215 310.708C110.476 303.951 112.633 296.335 110.071 290.514C110.054 290.472 110.032 290.428 110.014 290.385H110.164L134.789 291.256C135.583 293.921 135.905 297.381 135.145 301.123C133.215 310.717 124.212 322.173 97.9936 326.975Z" fill="#EC1C24"/>
<g opacity="0.35">
<path d="M107.215 310.706C110.476 303.949 112.633 296.333 110.07 290.512C110.102 290.471 110.132 290.428 110.164 290.387L134.789 291.258C135.582 293.923 135.904 297.383 135.145 301.125C129.271 305.947 120.363 309.735 107.215 310.706Z" fill="#371A45"/>
</g>
<path d="M97.8816 329C97.3964 328.998 96.9212 328.866 96.5089 328.619C96.0966 328.371 95.7635 328.018 95.5465 327.598C95.3294 327.178 95.2371 326.708 95.2796 326.241C95.3222 325.773 95.498 325.327 95.7876 324.95C99.8721 319.665 112.831 301.606 108.101 291.2C107.878 290.71 107.866 290.154 108.067 289.656C108.268 289.157 108.665 288.756 109.172 288.541C109.679 288.325 110.253 288.313 110.769 288.508C111.284 288.702 111.699 289.087 111.922 289.577C116.735 300.171 107.623 315.62 101.48 324.205C115.485 321.059 125.37 315.447 130.194 307.864C134.849 300.548 133.35 293.737 132.78 291.824C132.705 291.569 132.681 291.302 132.712 291.039C132.743 290.775 132.827 290.521 132.959 290.289C133.092 290.057 133.271 289.852 133.485 289.687C133.699 289.522 133.945 289.399 134.208 289.326C134.472 289.252 134.747 289.23 135.02 289.259C135.292 289.289 135.556 289.37 135.795 289.499C136.28 289.758 136.638 290.192 136.791 290.706C137.673 293.674 139.149 301.492 133.748 309.98C127.773 319.372 115.872 325.756 98.3754 328.96C98.2125 328.988 98.0472 329.002 97.8816 329Z" fill="#371A45"/>
<path d="M282.029 202.106C282.029 202.106 273.839 252.495 206.359 283.62C148.87 310.133 109.123 297.071 109.123 297.071C96.3557 283.296 89.1106 265.556 88.6992 247.061C88.6992 247.061 97.5262 231.073 121.492 214.912C122.316 214.357 123.162 213.797 124.027 213.242C133.385 207.197 144.889 201.197 158.869 196.081C162.167 194.873 165.605 193.718 169.183 192.616C169.324 192.57 169.465 192.529 169.605 192.489C184.043 188.084 197.26 185.88 209.149 185.134C209.53 185.108 209.906 185.088 210.281 185.068C256.166 182.591 282.029 202.106 282.029 202.106Z" fill="white"/>
<path d="M247.621 257.419C243.135 231.485 233.036 206.76 217.984 184.863C259.424 184.596 282.632 202.106 282.632 202.106C282.632 202.106 278.062 230.222 247.621 257.419Z" fill="#EC1C24"/>
<g opacity="0.6">
<path d="M281.776 205.234C282.421 202.889 282.636 201.575 282.636 201.575C282.636 201.575 259.429 184.065 217.988 184.333C218.96 185.747 219.911 187.172 220.841 188.609C255.969 189.075 277.355 202.238 281.776 205.234Z" fill="white"/>
</g>
<path d="M246.201 261.435L245.564 257.751C241.099 231.932 231.236 207.785 216.248 185.981L214.109 182.877L217.967 182.852C250.81 182.632 272.51 193.496 280.316 198.173C281.743 199.019 282.846 200.29 283.461 201.794C284.075 203.299 284.167 204.956 283.723 206.516C281.329 215.089 273.157 237.355 249.034 258.908L246.201 261.435ZM221.852 186.909C235.229 207.172 244.447 229.736 249.003 253.37C270.172 233.364 277.498 213.356 279.704 205.459C279.909 204.737 279.866 203.971 279.581 203.275C279.297 202.579 278.787 201.991 278.127 201.599C270.935 197.291 251.442 187.524 221.852 186.91V186.909Z" fill="#371A45"/>
<path d="M136.416 302.307C119.376 302.307 109.475 299.117 109.06 298.98L108.542 298.81L108.177 298.416C95.0746 284.286 87.6395 266.083 87.2192 247.107L87.207 246.574L87.4649 246.108C87.6743 245.731 92.721 236.728 105.363 225.349C116.956 214.915 137.435 200.433 169.156 190.69C185.789 185.582 202.213 182.941 217.973 182.842L219.101 182.835L219.724 183.743C235.004 205.97 245.073 230.582 249.649 256.895L250.064 257.982L249.042 258.902C237.47 269.241 223.609 278.176 207.859 285.443C177.816 299.3 152.633 302.261 136.796 302.305L136.416 302.307ZM110.908 295.307C113.113 295.938 122.481 298.349 137.012 298.269C152.376 298.2 176.828 295.285 206.067 281.801C221.061 274.885 234.281 266.436 245.382 256.68C240.895 231.622 231.31 208.156 216.878 186.894C201.88 187.108 186.258 189.678 170.423 194.541C114.83 211.613 93.9124 243.46 91.4061 247.578C91.9327 265.204 98.8338 282.094 110.908 295.307Z" fill="#371A45"/>
<path d="M99.0754 300.564C97.0362 300.565 95.0248 300.107 93.1991 299.229C91.3734 298.35 89.7832 297.074 88.5534 295.501C80.9647 285.813 76.2622 274.301 74.9554 262.212C74.7055 259.917 75.1036 257.6 76.1074 255.506C77.1111 253.413 78.683 251.622 80.6556 250.324L88.1313 245.398C88.5886 245.097 89.151 244.983 89.6947 245.083C90.2384 245.183 90.7189 245.487 91.0305 245.93C91.3421 246.372 91.4592 246.916 91.3562 247.442C91.2532 247.967 90.9384 248.432 90.481 248.733L83.0053 253.656C81.656 254.544 80.5807 255.769 79.8941 257.201C79.2075 258.633 78.9351 260.218 79.106 261.788C80.3337 273.144 84.7511 283.959 91.8796 293.06C92.8646 294.32 94.1842 295.297 95.698 295.889C97.2119 296.48 98.8632 296.663 100.476 296.419L109.416 295.074C109.686 295.033 109.963 295.044 110.229 295.107C110.495 295.17 110.746 295.282 110.968 295.439C111.189 295.595 111.376 295.792 111.519 296.018C111.661 296.245 111.756 296.496 111.798 296.758C111.84 297.02 111.829 297.287 111.764 297.545C111.699 297.802 111.583 298.045 111.421 298.259C111.259 298.473 111.056 298.654 110.822 298.792C110.588 298.93 110.328 299.022 110.057 299.062L101.118 300.408C100.442 300.511 99.7593 300.563 99.0754 300.564Z" fill="#371A45"/>
<g opacity="0.35">
<path d="M218.312 257.254C229.521 246.413 229.521 228.835 218.312 217.994C207.102 207.153 188.928 207.153 177.719 217.994C166.509 228.836 166.509 246.413 177.719 257.254C188.928 268.095 207.102 268.095 218.312 257.254Z" fill="#371A45"/>
</g>
<path d="M198.652 259.156C212.907 259.156 224.463 247.98 224.463 234.193C224.463 220.406 212.907 209.229 198.652 209.229C184.396 209.229 172.84 220.406 172.84 234.193C172.84 247.98 184.396 259.156 198.652 259.156Z" fill="#EC1C24"/>
<g opacity="0.6">
<path d="M224.038 230.192C223.863 229.651 223.666 229.116 223.448 228.582C218.213 215.76 203.216 209.473 189.959 214.536C178.276 219 171.835 230.798 174.061 242.315C169.949 229.901 176.452 216.364 189.16 211.51C202.422 206.445 217.414 212.732 222.655 225.558C223.268 227.056 223.731 228.608 224.038 230.192Z" fill="white"/>
</g>
<g opacity="0.35">
<path d="M208.13 257.412C194.875 262.475 179.879 256.194 174.641 243.369C173.046 239.479 172.493 235.262 173.033 231.111C173.327 232.972 173.837 234.795 174.551 236.547C179.789 249.371 194.782 255.66 208.043 250.594C212.355 248.948 216.128 246.208 218.966 242.663C221.805 239.118 223.603 234.898 224.171 230.449C225.95 241.7 219.542 253.05 208.13 257.412Z" fill="#371A45"/>
</g>
<path d="M198.644 261.189C191.682 261.199 184.965 258.697 179.809 254.172C174.653 249.647 171.428 243.425 170.764 236.721C170.1 230.018 172.046 223.317 176.221 217.928C180.395 212.539 186.499 208.849 193.337 207.582C200.175 206.314 207.256 207.559 213.195 211.073C219.134 214.588 223.504 220.118 225.451 226.583C227.397 233.049 226.779 239.984 223.719 246.032C220.658 252.08 215.375 256.807 208.902 259.287C205.637 260.54 202.157 261.185 198.644 261.189ZM198.656 211.234C195.163 211.232 191.713 211.976 188.551 213.413C185.39 214.85 182.595 216.944 180.367 219.545C178.139 222.147 176.532 225.193 175.661 228.464C174.79 231.736 174.677 235.153 175.329 238.472C175.981 241.791 177.383 244.93 179.435 247.665C181.486 250.399 184.136 252.662 187.196 254.291C190.256 255.921 193.65 256.877 197.136 257.092C200.622 257.307 204.114 256.774 207.363 255.533C212.494 253.566 216.756 249.931 219.415 245.253C222.075 240.576 222.966 235.148 221.935 229.904C220.904 224.66 218.016 219.927 213.768 216.52C209.519 213.112 204.176 211.243 198.656 211.234Z" fill="#371A45"/>
<path d="M210.437 245.039C216.85 238.837 216.85 228.781 210.437 222.578C204.024 216.376 193.627 216.376 187.213 222.578C180.8 228.781 180.8 238.837 187.213 245.039C193.627 251.241 204.024 251.241 210.437 245.039Z" fill="#6BD6F0"/>
<g opacity="0.3">
<path d="M204.859 248.583C200.808 250.13 196.288 250.057 192.293 248.381C188.297 246.704 185.154 243.562 183.554 239.644C182.849 237.929 182.462 236.108 182.41 234.263C182.47 234.429 182.535 234.595 182.602 234.763C184.02 238.24 186.66 241.122 190.058 242.902C193.456 244.682 197.394 245.246 201.18 244.495C204.965 243.744 208.356 241.725 210.754 238.795C213.153 235.865 214.406 232.21 214.294 228.474C215.725 232.355 215.541 236.621 213.781 240.373C212.021 244.125 208.822 247.069 204.859 248.583Z" fill="white"/>
</g>
<g opacity="0.35">
<path d="M215.422 234.626C215.329 234.369 215.236 234.112 215.13 233.855C213.736 230.441 211.163 227.599 207.847 225.813C204.531 224.027 200.678 223.407 196.943 224.058C193.208 224.709 189.821 226.591 187.359 229.385C184.897 232.178 183.511 235.71 183.438 239.38C182.675 237.185 182.418 234.856 182.684 232.555C182.95 230.254 183.733 228.037 184.979 226.059C186.224 224.082 187.901 222.391 189.893 221.107C191.885 219.822 194.143 218.974 196.509 218.623C198.876 218.271 201.293 218.424 203.591 219.071C205.89 219.718 208.015 220.843 209.817 222.367C211.619 223.892 213.054 225.779 214.022 227.897C214.991 230.014 215.468 232.311 215.422 234.626Z" fill="#371A45"/>
</g>
<path d="M198.82 251.718C195.108 251.712 191.484 250.628 188.416 248.608C185.348 246.587 182.977 243.723 181.61 240.386C177.863 231.206 182.533 220.788 192.024 217.162C201.516 213.535 212.288 218.053 216.039 227.232C219.789 236.412 215.116 246.834 205.625 250.459C203.459 251.289 201.15 251.717 198.82 251.718ZM198.807 219.945C197.009 219.945 195.228 220.275 193.557 220.916C186.206 223.724 182.588 231.793 185.492 238.903C186.184 240.596 187.214 242.141 188.523 243.45C189.832 244.758 191.394 245.804 193.122 246.528C194.849 247.253 196.706 247.641 198.589 247.671C200.471 247.7 202.341 247.371 204.092 246.702C211.443 243.894 215.06 235.825 212.157 228.715C211.096 226.128 209.257 223.908 206.876 222.345C204.496 220.781 201.685 219.945 198.807 219.945Z" fill="#371A45"/>
<g opacity="0.2">
<path d="M252.422 199.759C252.297 195.968 244.156 192.996 239.544 193.031C234.771 193.067 231.9 193.862 231.879 196.097C231.85 199.217 235.568 200.317 239.986 200.479C243.108 200.594 252.57 204.438 252.422 199.759Z" fill="white"/>
</g>
<g opacity="0.2">
<path d="M264.376 204.545C264.121 201.259 260.013 198.198 257.777 197.95C255.463 197.693 254.108 198.208 254.213 200.138C254.36 202.835 256.222 204.01 258.375 204.418C259.899 204.705 264.693 208.601 264.376 204.545Z" fill="white"/>
</g>
<g opacity="0.35">
<path d="M108.625 293.34C108.625 293.34 148.371 306.402 205.857 279.892C264.238 252.966 278.238 211.628 280.953 200.964C281.229 201.142 281.472 201.303 281.68 201.443C280.834 200.873 279.429 199.972 277.476 198.875C269.549 216.297 250.682 244.327 207.223 264.371C180.077 276.891 156.89 280.585 139.974 281C118.373 281.527 98.9444 268.118 92.8243 248.072C92.7912 247.965 92.757 247.851 92.724 247.74C92.4859 246.945 92.2633 246.141 92.0506 245.339C91.9404 245.006 91.8302 244.678 91.7199 244.341C91.6869 244.234 91.6527 244.12 91.6197 244.009C91.5866 243.898 91.5535 243.771 91.5183 243.652L91.5954 243.546C90.0183 245.77 89.3008 247.063 89.3008 247.063C89.433 253.022 90.2777 258.945 91.818 264.716C95.2318 275.313 100.964 285.075 108.625 293.34Z" fill="#371A45"/>
</g>
<path d="M105.808 279.637C93.9737 284.155 78.6211 279.547 78.6211 279.547C78.6211 279.547 78.6508 279.495 78.7093 279.404C79.6009 277.94 87.2904 265.761 98.4009 261.51C109.064 257.434 120.678 261.616 122.747 262.433C122.959 262.517 123.07 262.565 123.07 262.565C123.07 262.565 117.565 275.151 105.808 279.637Z" fill="#EC1C24"/>
<g opacity="0.6">
<path d="M123.621 263.096C123.621 263.096 123.285 263.862 122.605 265.08C118.648 263.755 108.854 261.214 99.748 264.697C90.813 268.108 84.0912 276.659 81.3348 280.632C79.9659 280.312 79.168 280.08 79.168 280.08C79.168 280.08 79.201 280.028 79.2572 279.935C80.1511 278.473 87.8406 266.291 98.9511 262.043C109.614 257.965 121.225 262.149 123.294 262.965C123.51 263.05 123.621 263.096 123.621 263.096Z" fill="white"/>
</g>
<g opacity="0.35">
<path d="M105.808 279.638C93.9737 284.157 78.6211 279.549 78.6211 279.549C78.6211 279.549 78.6508 279.497 78.7093 279.406L122.747 262.435C122.959 262.519 123.07 262.567 123.07 262.567C123.07 262.567 117.565 275.153 105.808 279.638Z" fill="#371A45"/>
</g>
<path d="M93.6232 283.648C85.3848 283.648 78.4348 281.605 78.0016 281.475L75.5273 280.728L76.8113 278.546C77.1508 277.969 85.2679 264.362 97.6415 259.631C110.067 254.88 123.362 260.477 123.922 260.717L125.795 261.522L124.991 263.353C124.752 263.899 119.003 276.772 106.573 281.518C102.386 283.113 97.8355 283.648 93.6232 283.648ZM81.9285 278.282C86.6941 279.312 96.8799 280.877 105.041 277.76C113.202 274.644 118.193 267.191 120.169 263.673C116.235 262.417 107.307 260.273 99.1702 263.384C90.9913 266.515 84.675 274.38 81.9285 278.282Z" fill="#371A45"/>
<g opacity="0.25">
<path d="M164.612 238.461C166.255 240.742 177.607 259.264 168.469 266.625C160.472 273.073 145.714 272.013 137.94 261.877C132.802 255.172 131.758 247.443 132.051 241.529C132.396 234.622 133.674 228.032 130.111 222.861C128.212 220.097 125.082 217.638 121.492 214.91C122.317 214.355 123.162 213.795 124.027 213.24C133.385 207.195 144.889 201.195 158.87 196.079C161.599 197.35 164.212 198.985 166.408 201.088C175.068 209.402 175.308 226.079 169.429 232.839C167.106 235.5 164.612 238.461 164.612 238.461Z" fill="#371A45"/>
</g>
<path d="M169.832 233.421C171.475 235.701 182.827 254.223 173.69 261.585C165.693 268.032 150.934 266.973 143.161 256.837C138.021 250.131 136.979 242.401 137.271 236.489C137.615 229.582 138.893 222.992 135.33 217.82C131.276 211.927 115.459 209.728 107.592 201.005C102.954 195.868 100.471 186.539 100.894 175.112C101.04 171.441 101.445 167.785 102.107 164.168C105.027 148.013 113.197 129.43 128.242 112.978C128.242 112.978 134.221 136.108 140.486 156.655C144.852 170.979 149.36 184.049 152.068 187.14C152.427 187.554 152.756 187.786 153.048 187.827C156.632 188.303 160.126 189.282 163.419 190.732C166.383 192.045 169.247 193.77 171.62 196.041C180.28 204.355 180.521 221.03 174.641 227.791C172.325 230.459 169.832 233.421 169.832 233.421Z" fill="white"/>
<g opacity="0.25">
<path d="M176.61 257.358C176.082 259.009 175.069 260.477 173.693 261.581C165.696 268.028 150.938 266.969 143.165 256.833C138.025 250.133 136.983 242.398 137.275 236.485C137.619 229.578 138.892 222.988 135.334 217.822C131.28 211.929 115.463 209.721 107.591 201.005C102.962 195.87 100.475 186.53 100.898 175.103C100.898 175.052 100.898 174.997 100.898 174.947C100.915 174.563 100.935 174.179 100.956 173.791C100.976 173.439 100.997 173.08 101.024 172.717C101.035 172.555 101.045 172.389 101.06 172.222C101.128 171.37 101.207 170.507 101.306 169.634C101.352 169.221 101.405 168.802 101.457 168.378C101.493 168.084 101.535 167.787 101.577 167.49C101.608 167.242 101.644 166.995 101.681 166.744C101.739 166.356 101.801 165.967 101.863 165.571C101.936 165.127 102.014 164.678 102.093 164.229L102.109 164.153C102.359 163.878 102.623 163.615 102.902 163.367C102.902 163.367 104.478 164.057 107.843 164.9C113.189 166.243 123.052 167.978 138.293 167.958L138.053 160.314C138.029 159.536 138.248 158.768 138.683 158.113C139.118 157.457 139.747 156.944 140.489 156.641C140.849 156.492 141.231 156.396 141.62 156.358L151.09 155.38L164.778 187.433L152.071 187.13L142.513 186.903C141.52 186.842 140.587 186.425 139.895 185.733C139.203 185.042 138.803 184.126 138.773 183.164L138.652 179.327C130.291 181.139 116.45 181.613 107.493 178.756C108.154 186.739 110.461 193.187 114.029 197.142C121.896 205.866 133.692 201.183 141.673 210.185C146.661 215.815 144.052 225.719 143.708 232.626C143.416 238.54 141.052 247.212 146.185 253.913C152.978 262.781 167.668 261.994 176.61 257.358Z" fill="#371A45"/>
</g>
<g opacity="0.25">
<path d="M202.851 113.017C197.701 119.864 190.949 125.436 183.147 129.277C175.657 132.942 167.404 134.913 159.012 135.04C150.62 135.167 142.307 133.448 134.703 130.012C127.719 126.841 119.369 129.865 116.187 136.662C111.611 146.443 108.925 156.129 107.843 164.909C104.478 164.067 102.902 163.376 102.902 163.376C102.624 163.624 102.359 163.887 102.109 164.163C105.03 148.008 113.2 129.425 128.245 112.972L128.402 114.521C130.4 111.882 131.673 110.409 131.673 110.409L181.545 112.871C181.545 112.871 181.738 115.414 182.14 119.632C188.328 118.052 195.824 115.842 202.851 113.017Z" fill="#371A45"/>
</g>
<path d="M154.049 187.295C156.758 187.26 159.479 187.685 162.105 188.455C164.732 189.224 167.285 190.315 169.635 191.83C170.821 192.595 171.941 193.45 172.984 194.388C174.036 195.36 174.988 196.429 175.826 197.579C177.49 199.869 178.648 202.421 179.451 205.028C180.223 207.634 180.66 210.321 180.751 213.03C180.878 215.744 180.632 218.463 180.019 221.114C179.38 223.779 178.376 226.462 176.46 228.821L171.447 234.696L171.541 232.266C171.96 232.861 172.284 233.383 172.625 233.935C172.966 234.487 173.276 235.026 173.584 235.578C174.203 236.681 174.786 237.8 175.332 238.936C176.446 241.225 177.376 243.593 178.111 246.021C178.825 248.482 179.348 251.059 179.282 253.788C179.243 255.147 179.072 256.549 178.607 257.928C178.147 259.34 177.403 260.65 176.419 261.783L176.044 262.209C175.914 262.346 175.769 262.467 175.632 262.596C175.353 262.838 175.072 263.129 174.787 263.311C174.217 263.71 173.662 264.142 173.068 264.504C172.458 264.839 171.856 265.187 171.233 265.5L169.311 266.298C166.713 267.202 163.968 267.649 161.207 267.62C158.469 267.599 155.753 267.152 153.161 266.297C150.565 265.463 148.15 264.128 145.998 262.499C145.459 262.089 144.911 261.689 144.438 261.207C143.965 260.725 143.437 260.299 142.989 259.8L141.68 258.271C141.25 257.758 140.896 257.211 140.502 256.682C139.039 254.503 137.861 252.156 136.997 249.695C136.157 247.251 135.603 244.723 135.343 242.159C135.208 240.887 135.142 239.609 135.144 238.331C135.138 237.691 135.164 237.052 135.187 236.412L135.297 234.564C135.459 232.112 135.681 229.731 135.685 227.434C135.689 225.137 135.465 222.932 134.693 221.02C134.608 220.778 134.504 220.542 134.383 220.314C134.262 220.089 134.17 219.847 134.029 219.632L133.625 218.981C133.497 218.796 133.359 218.619 133.211 218.448C132.598 217.759 131.749 217.103 130.8 216.51C128.883 215.322 126.65 214.327 124.394 213.335C119.875 211.35 115.097 209.399 110.747 206.407C108.586 204.897 106.535 203.143 104.882 200.929C103.253 198.747 102.118 196.345 101.26 193.921C100.431 191.505 99.8163 189.025 99.4229 186.508C99.059 184.023 98.8463 181.52 98.7859 179.011C98.69 174.015 99.1529 169.046 99.9982 164.159C101.753 154.389 105.088 144.946 109.625 136.108C111.934 131.712 114.298 127.316 117.216 123.255C120.153 119.223 123.482 115.41 127.729 112.524C127.86 112.436 128.018 112.392 128.178 112.4C128.338 112.409 128.49 112.469 128.61 112.571C128.731 112.673 128.812 112.811 128.842 112.963C128.872 113.115 128.847 113.273 128.774 113.41C126.401 117.801 123.58 121.664 120.91 125.661C118.22 129.629 115.517 133.617 113.366 137.898C108.995 146.41 105.791 155.5 104.116 164.834C103.301 169.51 102.86 174.235 102.952 178.934C103.008 181.27 103.206 183.601 103.544 185.916C103.898 188.191 104.452 190.434 105.197 192.619C105.952 194.769 106.943 196.824 108.254 198.574C109.536 200.301 111.273 201.817 113.168 203.135C117.003 205.782 121.519 207.667 126.105 209.668C128.402 210.685 130.745 211.706 133.055 213.13C134.204 213.854 135.357 214.697 136.382 215.846C136.639 216.139 136.878 216.447 137.099 216.766L137.662 217.671C137.854 217.972 137.993 218.298 138.154 218.612C138.316 218.923 138.457 219.244 138.577 219.572C139.084 220.848 139.429 222.18 139.604 223.537C139.781 224.83 139.864 226.134 139.852 227.438C139.845 229.989 139.611 232.436 139.455 234.823L139.345 236.603C139.325 237.175 139.302 237.749 139.308 238.322C139.305 239.466 139.365 240.61 139.486 241.748C139.715 244.011 140.204 246.242 140.944 248.4C142.462 252.65 144.983 256.661 148.573 259.324C150.357 260.67 152.354 261.788 154.525 262.478C156.683 263.188 158.945 263.56 161.225 263.579C163.486 263.605 165.733 263.242 167.863 262.507L169.394 261.867C169.882 261.618 170.351 261.341 170.834 261.085C171.298 260.802 171.716 260.464 172.165 260.162C172.408 260.01 172.543 259.842 172.733 259.682C172.82 259.6 172.916 259.526 172.998 259.44L173.228 259.17C174.483 257.762 175.074 255.809 175.102 253.681C175.16 251.556 174.731 249.317 174.09 247.122C173.414 244.899 172.562 242.729 171.541 240.632C171.03 239.572 170.486 238.528 169.909 237.499C169.623 236.984 169.324 236.479 169.028 235.978C168.731 235.477 168.402 234.975 168.115 234.569L167.219 233.3L168.211 232.14L173.198 226.298C174.535 224.662 175.427 222.483 175.935 220.222C176.948 215.67 176.614 210.726 175.18 206.258C174.449 204.031 173.459 201.896 172.14 200.018C171.489 199.083 170.751 198.207 169.936 197.401C169.099 196.574 168.194 195.815 167.23 195.129C165.238 193.715 163.118 192.48 160.895 191.437C158.642 190.371 156.282 189.461 153.822 188.61C153.666 188.556 153.535 188.451 153.452 188.313C153.368 188.175 153.337 188.013 153.364 187.855C153.391 187.697 153.475 187.554 153.6 187.45C153.725 187.345 153.884 187.287 154.05 187.284L154.049 187.295Z" fill="#371A45"/>
<path d="M137.457 224.746C137.078 224.746 136.713 224.613 136.428 224.372C136.143 224.13 135.958 223.798 135.907 223.435C133.473 206.018 144.138 197.784 148.836 195.053C156.625 190.524 166.011 190.101 171.661 194.025C171.831 194.139 171.975 194.286 172.086 194.455C172.196 194.624 172.271 194.813 172.306 195.01C172.341 195.208 172.334 195.41 172.288 195.605C172.241 195.8 172.155 195.984 172.034 196.147C171.914 196.309 171.761 196.447 171.585 196.552C171.408 196.657 171.212 196.728 171.008 196.759C170.804 196.79 170.595 196.782 170.394 196.735C170.192 196.688 170.003 196.602 169.836 196.484C165.245 193.295 157.091 193.786 150.449 197.648C146.285 200.07 136.824 207.394 139.011 223.03C139.039 223.227 139.026 223.428 138.974 223.62C138.922 223.813 138.831 223.993 138.706 224.152C138.581 224.31 138.426 224.443 138.248 224.544C138.07 224.644 137.873 224.709 137.67 224.736C137.599 224.744 137.528 224.747 137.457 224.746Z" fill="#371A45"/>
<path d="M172.705 233.166C172.484 233.369 172.335 233.486 172.154 233.639C171.972 233.793 171.8 233.914 171.622 234.047C171.267 234.312 170.897 234.551 170.52 234.784C169.769 235.246 168.986 235.656 168.176 236.013C166.535 236.738 164.788 237.213 162.996 237.419C161.196 237.61 159.322 237.535 157.603 236.961C155.888 236.405 154.356 235.424 153.285 234.113C154.996 234.4 156.524 234.622 158.024 234.552C158.754 234.539 159.481 234.477 160.202 234.367C160.915 234.275 161.619 234.125 162.306 233.92C163.694 233.514 165.035 232.971 166.307 232.297C166.957 231.978 167.583 231.603 168.211 231.238L169.132 230.665L169.977 230.114L170.106 230.03C170.54 229.747 171.068 229.632 171.585 229.708C172.102 229.784 172.571 230.045 172.899 230.44C173.226 230.835 173.389 231.334 173.354 231.839C173.318 232.344 173.088 232.818 172.709 233.166H172.705Z" fill="#371A45"/>
<path d="M212.645 88.9924C212.497 89.0015 212.349 88.9824 212.209 88.9362C212.069 88.89 211.94 88.8177 211.829 88.7232C211.719 88.6288 211.628 88.5142 211.563 88.3859C211.498 88.2576 211.459 88.1181 211.45 87.9755L209.381 56.6846C209.372 56.542 209.392 56.3989 209.439 56.2637C209.487 56.1284 209.562 56.0036 209.659 55.8963C209.757 55.789 209.876 55.7013 210.008 55.6383C210.141 55.5754 210.285 55.5383 210.433 55.5292C213.558 55.3358 216.635 56.3511 218.986 58.3517C221.337 60.3523 222.77 63.1742 222.97 66.1968L223.675 76.8666C223.875 79.8891 222.825 82.8647 220.756 85.1388C218.688 87.4128 215.77 88.799 212.645 88.9924Z" fill="white"/>
<path d="M212.569 89.212C212.227 89.2113 211.897 89.0848 211.647 88.8581C211.397 88.6313 211.245 88.3212 211.223 87.9904L209.155 56.6996C209.133 56.3544 209.253 56.0147 209.489 55.755C209.725 55.4952 210.058 55.3366 210.415 55.3139C213.599 55.1208 216.732 56.157 219.127 58.1953C221.522 60.2335 222.983 63.1073 223.189 66.1862L223.895 76.8559C223.996 78.3811 223.785 79.9106 223.275 81.3571C222.765 82.8035 221.965 84.1386 220.921 85.2859C219.877 86.4333 218.609 87.3704 217.191 88.0439C215.772 88.7174 214.23 89.1139 212.653 89.2109L212.569 89.212ZM211.198 55.7221C210.947 55.7221 210.696 55.7296 210.442 55.7456C210.324 55.7529 210.209 55.7827 210.102 55.8332C209.996 55.8837 209.901 55.954 209.823 56.04C209.745 56.126 209.685 56.2261 209.647 56.3345C209.608 56.4429 209.593 56.5575 209.6 56.6718L211.668 87.9627C211.675 88.077 211.706 88.1889 211.758 88.2917C211.81 88.3946 211.883 88.4865 211.972 88.5621C212.061 88.6378 212.164 88.6957 212.277 88.7326C212.389 88.7695 212.507 88.7846 212.626 88.7771C214.144 88.6833 215.628 88.3013 216.994 87.6527C218.359 87.0042 219.579 86.1018 220.584 84.9972C221.589 83.8925 222.359 82.6073 222.85 81.2148C223.342 79.8223 223.545 78.3498 223.447 76.8815L222.742 66.2117C222.555 63.3726 221.257 60.7088 219.113 58.7607C216.97 56.8127 214.14 55.7263 211.198 55.7221Z" fill="#371A45"/>
<g opacity="0.35">
<path d="M223.342 71.8647L223.673 76.8745C223.872 79.8972 222.821 82.8726 220.753 85.1466C218.684 87.4206 215.767 88.8072 212.641 89.0014C212.343 89.0189 212.05 88.9216 211.826 88.7306C211.602 88.5396 211.465 88.2706 211.446 87.9824L210.895 79.6683C210.995 79.8541 211.149 80.0078 211.338 80.1109C211.527 80.214 211.743 80.262 211.959 80.2492L212.731 80.2002C215.176 80.0489 217.511 79.165 219.413 77.6712C221.314 76.1774 222.688 74.148 223.342 71.8647Z" fill="#371A45"/>
</g>
<path d="M212.567 91.0153C211.751 91.0135 210.967 90.7122 210.372 90.1725C209.777 89.6327 209.417 88.8946 209.363 88.1075L207.295 56.8166C207.242 55.9946 207.528 55.1857 208.09 54.5673C208.653 53.9488 209.446 53.5713 210.295 53.5176C212.116 53.405 213.942 53.6403 215.669 54.2103C217.396 54.7802 218.99 55.6734 220.36 56.8391C221.73 58.0048 222.849 59.42 223.654 61.004C224.458 62.588 224.932 64.3097 225.048 66.0709L225.754 76.7417C225.989 80.2983 224.753 83.7995 222.319 86.4751C219.885 89.1507 216.452 90.7815 212.774 91.0089C212.705 91.0132 212.631 91.0153 212.567 91.0153ZM211.529 57.5287L213.468 86.8732C215.847 86.4921 217.995 85.2708 219.496 83.446C220.997 81.6212 221.744 79.3226 221.593 76.9954L220.888 66.3256C220.734 63.9977 219.691 61.8082 217.961 60.1825C216.232 58.5568 213.939 57.6109 211.529 57.5287Z" fill="#371A45"/>
<path d="M103.637 62.1321C103.935 62.1137 104.228 62.2105 104.453 62.4011C104.677 62.5918 104.814 62.8608 104.833 63.149L106.9 94.4398C106.91 94.5825 106.89 94.7255 106.842 94.8608C106.795 94.996 106.72 95.1209 106.622 95.2282C106.525 95.3355 106.406 95.4231 106.273 95.4861C106.141 95.5491 105.996 95.5862 105.849 95.5953C102.724 95.7883 99.6471 94.7727 97.2961 92.772C94.945 90.7712 93.512 87.9492 93.3123 84.9266L92.6102 74.2611C92.5108 72.7645 92.7171 71.2635 93.2175 69.844C93.7178 68.4245 94.5023 67.1142 95.5263 65.9879C96.5502 64.8616 97.7935 63.9414 99.1851 63.2798C100.577 62.6183 102.09 62.2283 103.637 62.1321Z" fill="white"/>
<path d="M105.08 95.8369C102.025 95.8327 99.0857 94.7045 96.8588 92.6812C94.6319 90.658 93.2843 87.8912 93.0892 84.9423L92.3839 74.2725C92.2831 72.7474 92.494 71.218 93.0044 69.7716C93.5148 68.3253 94.3148 66.9904 95.3587 65.8431C96.4026 64.6958 97.67 63.7586 99.0884 63.0851C100.507 62.4115 102.049 62.0148 103.626 61.9175C103.983 61.8962 104.334 62.0125 104.602 62.2411C104.871 62.4696 105.035 62.7917 105.058 63.1369L107.127 94.4278C107.15 94.7732 107.03 95.1132 106.793 95.373C106.557 95.6329 106.223 95.7913 105.866 95.8135C105.602 95.8295 105.34 95.8369 105.08 95.8369ZM103.648 62.3492C100.583 62.5404 97.7215 63.9009 95.6933 66.1315C93.665 68.3621 92.6356 71.2804 92.8313 74.2448L93.5367 84.9156C93.6337 86.3839 94.0289 87.8192 94.6995 89.1398C95.3702 90.4603 96.3032 91.6402 97.4454 92.612C98.5875 93.5837 99.9164 94.3284 101.356 94.8035C102.796 95.2786 104.318 95.4747 105.836 95.3807C105.955 95.3734 106.07 95.3436 106.176 95.2931C106.283 95.2426 106.378 95.1723 106.456 95.0863C106.534 95.0003 106.594 94.9002 106.632 94.7918C106.67 94.6834 106.686 94.5687 106.678 94.4544L104.61 63.1646C104.602 63.0503 104.572 62.9384 104.519 62.8355C104.467 62.7326 104.395 62.6406 104.306 62.5649C104.217 62.4891 104.113 62.4311 104.001 62.3941C103.889 62.3571 103.77 62.3419 103.652 62.3492H103.648Z" fill="#371A45"/>
<g opacity="0.35">
<path d="M106.333 85.7569L106.906 94.4377C106.924 94.726 106.824 95.0096 106.626 95.2263C106.429 95.443 106.151 95.5753 105.853 95.5942C104.305 95.6905 102.753 95.4909 101.286 95.0069C99.8182 94.5229 98.4636 93.7639 97.2994 92.7733C96.1352 91.7827 95.1843 90.5799 94.501 89.2337C93.8177 87.8875 93.4154 86.4243 93.3171 84.9276L93.0195 80.4316C94.0867 82.3691 95.7085 83.9682 97.6908 85.0376C99.6732 86.1069 101.932 86.6013 104.197 86.4615L105.378 86.389C105.581 86.3758 105.777 86.3102 105.945 86.1991C106.113 86.0879 106.247 85.9352 106.333 85.7569Z" fill="#371A45"/>
</g>
<path d="M105.086 97.6361C101.558 97.6296 98.164 96.3269 95.5916 93.9917C93.0191 91.6565 91.46 88.4633 91.23 85.0583L90.5246 74.3886C90.4077 72.6272 90.6507 70.8608 91.2398 69.1902C91.8288 67.5197 92.7524 65.9777 93.9578 64.6525C95.1631 63.3272 96.6265 62.2445 98.2646 61.4663C99.9026 60.6882 101.683 60.2297 103.504 60.1171C104.354 60.0648 105.191 60.3411 105.83 60.8851C106.47 61.4292 106.86 62.1965 106.914 63.0185L108.983 94.3104C109.036 95.1319 108.75 95.9401 108.187 96.5576C107.624 97.1751 106.831 97.5515 105.982 97.6041C105.682 97.6276 105.384 97.6361 105.086 97.6361ZM102.814 64.2507C100.436 64.6314 98.2877 65.8522 96.7865 67.6769C95.2853 69.5016 94.5377 71.8002 94.6885 74.1274L95.3938 84.7983C95.5481 87.1262 96.5915 89.3155 98.3213 90.9412C100.051 92.5669 102.344 93.5128 104.754 93.5952L102.814 64.2507Z" fill="#371A45"/>
<path d="M197.211 113.344C218.786 92.4778 218.786 58.6472 197.211 37.7812C175.636 16.9151 140.656 16.9151 119.081 37.7812C97.5056 58.6472 97.5056 92.4778 119.081 113.344C140.656 134.21 175.636 134.21 197.211 113.344Z" fill="white"/>
<path d="M158.152 129.21H157.745C127.159 128.997 102.455 104.761 102.673 75.18C102.894 45.7321 127.736 21.9165 158.136 21.9165H158.538C173.354 22.0231 187.243 27.6948 197.644 37.9052C208.044 48.1155 213.716 61.6217 213.61 75.9507C213.396 105.395 188.552 129.21 158.152 129.21ZM158.135 22.3525C143.586 22.3525 129.889 27.7822 119.518 37.6696C109.048 47.6486 103.23 60.9715 103.125 75.1896C103.02 89.4078 108.645 102.806 118.962 112.923C129.279 123.039 143.055 128.676 157.756 128.778C172.458 128.881 186.311 123.44 196.772 113.461C207.232 103.482 213.061 90.1593 213.166 75.9411C213.271 61.7229 207.646 48.3255 197.328 38.2079C187.01 28.0903 173.236 22.4516 158.539 22.3525H158.135Z" fill="#371A45"/>
<g opacity="0.35">
<path d="M212.916 68.5449C213.253 70.9977 213.412 73.4702 213.392 75.9445C213.172 105.452 188.264 129.202 157.75 128.994C127.237 128.786 102.685 104.691 102.9 75.1802C102.9 74.3275 102.932 73.4822 102.98 72.6465C106.507 98.6814 129.439 118.865 157.356 119.059C186.988 119.262 211.333 96.8672 212.916 68.5449Z" fill="#371A45"/>
</g>
<path d="M158.16 131.013H157.739C142.42 130.906 128.07 125.044 117.319 114.491C106.568 103.939 100.708 89.9751 100.818 75.1685C100.928 60.362 106.99 46.4742 117.901 36.0763C128.812 25.6783 143.255 20.0077 158.558 20.1143C173.861 20.2209 188.226 26.0834 198.978 36.6359C209.729 47.1884 215.59 61.1518 215.48 75.9594C215.37 90.7671 209.308 104.653 198.397 115.051C187.593 125.353 173.317 131.013 158.16 131.013ZM158.138 24.1509C144.082 24.1509 130.849 29.3973 120.827 38.95C110.715 48.5911 105.09 61.4631 104.988 75.1909C104.887 88.9188 110.322 101.873 120.289 111.653C130.257 121.432 143.567 126.872 157.761 126.971C171.979 127.051 185.35 121.813 195.462 112.172C205.574 102.53 211.201 89.6638 211.312 75.9307C211.422 62.1975 205.978 49.2499 196.011 39.4701C186.043 29.6904 172.728 24.25 158.529 24.1519L158.138 24.1509Z" fill="#371A45"/>
<path d="M213.204 77.3156C213.29 87.7712 209.861 97.5051 203.925 105.581C199.476 111.638 181.066 122.316 158.228 122.691C137.053 123.039 117.695 112.267 113.151 106.276C107.089 98.2917 103.494 88.6111 103.408 78.1566C103.175 50.492 127.658 38.8341 157.982 38.6007C188.306 38.3673 212.977 49.6478 213.204 77.3156Z" fill="#F47B2B"/>
<path d="M157.204 123.903C135.754 123.903 116.823 113.151 112.142 106.992C105.696 98.5075 102.243 88.5413 102.158 78.1689C102.048 64.6617 107.558 54.2062 118.543 47.0912C128.142 40.8727 141.776 37.5194 157.972 37.3914C174.167 37.2635 187.855 40.4101 197.555 46.4794C208.654 53.4249 214.338 63.7951 214.449 77.3013C214.534 87.6747 211.246 97.6932 204.94 106.275C200.57 112.223 182.387 123.495 158.248 123.891C157.9 123.9 157.551 123.903 157.204 123.903ZM158.807 39.8025H157.992C141.859 39.9272 104.365 43.9127 104.649 78.1497C104.734 88.0105 108.013 97.4971 114.148 105.566C118.438 111.215 136.886 121.493 157.225 121.494C157.555 121.494 157.878 121.494 158.207 121.486C181.172 121.11 198.922 110.309 202.911 104.883C208.911 96.7168 212.041 87.1886 211.959 77.3236C211.683 43.6526 175.354 39.8004 158.807 39.8004V39.8025Z" fill="#371A45"/>
<g opacity="0.7">
<path d="M202.299 74.8577C203.219 69.7118 200.84 65.0176 196.984 64.3729C193.129 63.7281 189.258 67.377 188.338 72.5229C187.418 77.6688 189.797 82.363 193.653 83.0077C197.508 83.6525 201.379 80.0036 202.299 74.8577Z" fill="white"/>
</g>
<g opacity="0.7">
<path d="M190.485 93.6312C191.241 91.3483 190.212 88.989 188.186 88.3616C186.161 87.7342 183.906 89.0762 183.15 91.3591C182.394 93.642 183.423 96.0013 185.449 96.6287C187.474 97.2561 189.729 95.9141 190.485 93.6312Z" fill="white"/>
</g>
<g opacity="0.35">
<path d="M202.312 51.5854C209.075 57.7272 213.113 66.2001 213.202 77.3133C213.288 87.7699 209.856 97.5038 203.925 105.581C199.474 111.637 181.063 122.316 158.225 122.692C150.162 122.827 142.364 121.346 135.543 119.128C163.605 118.087 186.03 104.98 191.549 97.4697C199.083 87.2178 203.435 74.8628 203.324 61.5954C203.309 58.2356 202.97 54.8844 202.312 51.5854Z" fill="#111A28"/>
</g>
<path d="M108.993 55.7768L105.716 53.2762L107.259 54.4679L105.617 53.4083C115.316 39.3639 134.272 31.2054 157.612 31.0242C180.811 30.8558 199.849 38.4483 209.94 51.8628C210.254 52.2587 210.404 52.7528 210.363 53.25C210.323 53.7471 210.093 54.2119 209.718 54.5548C209.344 54.8977 208.851 55.0943 208.336 55.1068C207.821 55.1193 207.319 54.9467 206.927 54.6224C206.8 54.5178 206.687 54.3994 206.588 54.2696C197.309 41.8954 179.465 34.8839 157.646 35.0619C135.705 35.2314 118.007 42.7364 109.088 55.65C109.058 55.6937 109.026 55.7363 108.993 55.7768Z" fill="#371A45"/>
<g opacity="0.7">
<path d="M115.867 94.5222C115.867 94.5222 106.782 67.2967 121.902 56.3029C137.022 45.3091 158.907 45.1844 158.409 46.5456C158.409 46.5456 134.23 52.4081 124.904 70.9986C117.709 85.3383 115.867 94.5222 115.867 94.5222Z" fill="white"/>
</g>
<path d="M193.007 153.869L194.502 165.025L195.667 173.704C195.82 174.841 195.521 175.991 194.832 176.923C194.143 177.855 193.114 178.5 191.953 178.728C190.4 179.035 188.472 179.394 186.254 179.764C178.357 181.082 166.738 182.555 155.063 182.382C153.855 182.361 152.701 181.89 151.843 181.066C150.985 180.243 150.49 179.13 150.46 177.961L149.857 154.925C149.841 154.31 149.954 153.699 150.189 153.128C150.425 152.557 150.778 152.038 151.228 151.604C151.677 151.169 152.213 150.827 152.803 150.599C153.394 150.371 154.026 150.261 154.661 150.276C162.774 150.479 178.94 150.737 187.945 149.935C189.151 149.83 190.353 150.181 191.297 150.914C192.241 151.648 192.854 152.707 193.007 153.869Z" fill="white"/>
<path d="M154.3 150.284L144.83 151.261C143.829 151.364 142.906 151.829 142.245 152.563C141.583 153.297 141.233 154.245 141.264 155.218L141.987 178.072C142.018 179.033 142.419 179.947 143.11 180.637C143.802 181.327 144.735 181.743 145.727 181.803L154.477 182.336" fill="white"/>
<g opacity="0.25">
<path d="M154.3 150.282L144.83 151.26C143.829 151.363 142.906 151.828 142.245 152.562C141.583 153.295 141.233 154.243 141.264 155.216L141.987 178.071C142.018 179.031 142.419 179.946 143.11 180.636C143.802 181.326 144.735 181.741 145.727 181.801L154.477 182.334" fill="#371A45"/>
</g>
<path d="M156.983 184.18C156.333 184.18 155.682 184.175 155.031 184.165C153.345 184.142 151.735 183.487 150.538 182.338C149.341 181.19 148.652 179.637 148.616 178.007L148.014 154.969C147.991 154.113 148.149 153.262 148.477 152.466C148.806 151.671 149.298 150.949 149.924 150.343C150.55 149.738 151.297 149.261 152.119 148.944C152.941 148.626 153.822 148.473 154.707 148.495C163.277 148.708 178.969 148.944 187.771 148.16C189.453 148.008 191.131 148.494 192.448 149.517C193.766 150.539 194.621 152.018 194.831 153.639L197.49 173.473C197.698 175.055 197.28 176.654 196.322 177.952C195.363 179.25 193.934 180.15 192.319 180.473C185.157 181.885 171.304 184.18 156.983 184.18ZM154.538 152.056C154.159 152.057 153.783 152.131 153.434 152.274C153.084 152.416 152.767 152.626 152.503 152.889C152.238 153.152 152.03 153.463 151.891 153.805C151.753 154.147 151.686 154.512 151.696 154.879L152.299 177.916C152.314 178.626 152.613 179.303 153.133 179.804C153.653 180.305 154.354 180.591 155.088 180.602C169.729 180.816 184.243 178.428 191.588 176.978C192.291 176.837 192.914 176.445 193.331 175.879C193.749 175.313 193.931 174.616 193.84 173.927L191.182 154.098C191.092 153.392 190.721 152.747 190.148 152.302C189.575 151.856 188.845 151.643 188.112 151.709C179.119 152.51 163.264 152.272 154.608 152.058H154.533L154.538 152.056Z" fill="#371A45"/>
<path d="M154.474 184.117H154.357L145.608 183.584C144.156 183.502 142.788 182.895 141.775 181.884C140.763 180.873 140.179 179.532 140.141 178.125L139.42 155.271C139.381 153.85 139.896 152.468 140.861 151.397C141.827 150.326 143.173 149.644 144.633 149.488L154.103 148.512C154.344 148.484 154.59 148.503 154.824 148.568C155.058 148.633 155.276 148.742 155.467 148.889C155.657 149.036 155.815 149.218 155.932 149.424C156.049 149.631 156.123 149.858 156.149 150.092C156.175 150.326 156.152 150.563 156.083 150.789C156.013 151.015 155.898 151.225 155.744 151.407C155.59 151.59 155.4 151.741 155.185 151.852C154.971 151.963 154.735 152.031 154.493 152.054L145.023 153.031C144.485 153.089 143.989 153.34 143.633 153.735C143.277 154.13 143.088 154.639 143.102 155.163L143.824 178.017C143.838 178.536 144.053 179.03 144.426 179.403C144.799 179.775 145.303 179.999 145.839 180.029L154.587 180.561C155.065 180.589 155.514 180.796 155.837 181.138C156.16 181.48 156.332 181.93 156.318 182.393C156.304 182.856 156.103 183.295 155.76 183.618C155.416 183.94 154.956 184.121 154.477 184.121L154.474 184.117Z" fill="#371A45"/>
<path d="M174.446 183.334C173.977 183.334 173.525 183.16 173.183 182.848C172.842 182.536 172.636 182.11 172.609 181.657L171.905 169.985L165.792 165.997C165.56 165.846 165.367 165.645 165.227 165.411C165.087 165.176 165.004 164.914 164.984 164.644L163.985 150.585C163.951 150.114 164.113 149.649 164.433 149.293C164.754 148.936 165.208 148.718 165.696 148.685C166.183 148.653 166.664 148.809 167.033 149.119C167.401 149.43 167.627 149.869 167.66 150.34L168.598 163.531L174.72 167.528C174.954 167.681 175.15 167.885 175.29 168.123C175.43 168.361 175.512 168.627 175.529 168.901L176.286 181.453C176.3 181.687 176.266 181.921 176.187 182.142C176.108 182.363 175.984 182.566 175.823 182.741C175.662 182.916 175.468 183.058 175.25 183.16C175.032 183.262 174.796 183.322 174.554 183.335L174.446 183.334Z" fill="#371A45"/>
<path d="M191.63 164.526C191.706 165.233 191.291 171.042 191.291 171.042L187.128 171.461C184.262 171.75 181.627 169.116 181.246 165.571C180.864 162.025 182.88 158.923 185.748 158.635L189.912 158.216C189.912 158.216 191.505 163.373 191.63 164.526Z" fill="#22A7F0"/>
<path d="M191.63 164.525C191.707 165.231 191.299 171.042 191.299 171.042L191.161 171.055C191.272 169.377 191.382 167.387 191.334 166.991C191.213 165.84 189.619 160.682 189.619 160.682L185.456 161.101C183.452 161.301 181.862 162.882 181.214 165.023C181.079 161.712 183.033 158.907 185.754 158.635L189.918 158.216C189.918 158.216 191.507 163.372 191.63 164.525Z" fill="white"/>
<path d="M186.706 172.994C183.219 172.994 180.135 169.861 179.691 165.725C179.22 161.354 181.867 157.502 185.587 157.128L188.495 156.835C189.213 156.761 189.935 156.935 190.535 157.324C191.134 157.714 191.573 158.296 191.774 158.967C193.074 163.308 193.159 164.103 193.188 164.364C193.21 164.578 193.263 165.065 192.94 169.901C192.894 170.604 192.592 171.268 192.088 171.775C191.583 172.283 190.909 172.601 190.184 172.672L187.292 172.963C187.098 172.983 186.902 172.993 186.706 172.994ZM188.779 159.854L185.914 160.141C183.943 160.34 182.52 162.755 182.806 165.415C183.091 168.076 185.001 170.148 186.969 169.957L189.821 169.671C190.041 166.445 190.093 164.967 190.075 164.674C190.027 164.276 189.664 162.807 188.779 159.854Z" fill="#371A45"/>
<path d="M191.298 171.035C194.165 170.746 196.181 167.641 195.8 164.099C195.419 160.557 192.785 157.92 189.918 158.209C187.051 158.497 185.035 161.602 185.416 165.144C185.798 168.686 188.431 171.323 191.298 171.035Z" fill="#22A7F0"/>
<path d="M195.793 164.106C195.838 164.525 195.849 164.946 195.826 165.367C195.034 162.478 192.703 160.479 190.185 160.73C187.667 160.982 185.8 163.414 185.648 166.405C185.534 165.993 185.455 165.573 185.41 165.148C185.028 161.607 187.046 158.501 189.913 158.22C192.779 157.938 195.411 160.565 195.793 164.106Z" fill="white"/>
<path d="M190.854 172.579C189.191 172.579 187.591 171.884 186.295 170.586C184.942 169.231 184.076 167.357 183.856 165.309C183.635 163.26 184.084 161.258 185.12 159.659C186.232 157.946 187.875 156.899 189.749 156.71C191.622 156.521 193.456 157.219 194.909 158.673C196.262 160.029 197.127 161.903 197.348 163.951C197.568 165.998 197.12 168.001 196.084 169.6C194.973 171.312 193.328 172.36 191.455 172.548C191.255 172.569 191.055 172.579 190.854 172.579ZM190.341 159.709C190.252 159.709 190.164 159.714 190.076 159.722C189.179 159.813 188.36 160.362 187.77 161.27C187.109 162.294 186.82 163.615 186.969 165.001C187.118 166.386 187.678 167.617 188.546 168.488C189.318 169.259 190.236 169.636 191.132 169.544C192.028 169.451 192.849 168.904 193.438 167.997C194.099 166.971 194.388 165.652 194.239 164.266C194.091 162.889 193.531 161.65 192.662 160.78C191.967 160.082 191.152 159.709 190.341 159.709Z" fill="#371A45"/>
<path d="M102.901 158.334C102.901 158.334 115.355 163.788 144.985 162.803C144.985 162.803 150.413 167.834 144.985 171.99C139.557 176.146 109.009 178.538 100.847 170.021C95.6805 164.63 102.901 158.334 102.901 158.334Z" fill="white"/>
<g opacity="0.25">
<path d="M144.986 171.99C139.56 176.147 109.01 178.535 100.846 170.018C98.3893 167.46 98.7332 164.689 99.7769 162.49C100.073 162.999 100.432 163.472 100.846 163.898C109.01 172.414 139.56 170.023 144.986 165.871C145.504 165.482 145.966 165.029 146.363 164.524C147.499 166.356 148.434 169.347 144.986 171.99Z" fill="#371A45"/>
</g>
<path d="M123.476 177.541C116.557 177.541 104.719 176.688 99.4946 171.232C97.8414 169.502 97.0479 167.52 97.1492 165.339C97.3598 160.816 101.489 157.164 101.668 157.01L102.563 156.23L103.657 156.71C103.846 156.79 116.291 161.975 144.923 161.022L145.695 160.997L146.257 161.517C146.579 161.815 149.402 164.538 149.232 168.067C149.164 169.462 148.571 171.517 146.129 173.387C142.492 176.174 132.081 177.494 123.952 177.544L123.476 177.541ZM103.372 160.425C102.424 161.469 100.921 163.437 100.829 165.511C100.776 166.715 101.224 167.794 102.197 168.815C109.672 176.617 139.259 174.106 143.841 170.598C144.943 169.753 145.504 168.872 145.551 167.905C145.613 166.65 144.8 165.363 144.188 164.616C119.85 165.329 107.173 161.749 103.372 160.425Z" fill="#371A45"/>
<g opacity="0.25">
<path d="M209.558 200.648C205.098 205.86 190.793 210.89 183.093 206.223C176.661 202.329 176.457 196.748 171.897 193.539C171.632 193.352 170.828 193.015 169.602 192.494C184.039 188.09 197.256 185.886 209.146 185.14C214.269 191.243 213.251 196.33 209.558 200.648Z" fill="#371A45"/>
</g>
<path d="M147.398 134.7C163.532 154.166 190.15 166.102 206.052 179.977C214.768 187.583 213.396 191.243 209.049 196.329C204.592 201.543 194.122 206.573 186.422 201.906C179.99 198.008 179.589 194.305 175.031 191.094C173.233 189.828 144.308 182.403 128.25 158.199" fill="white"/>
<g opacity="0.25">
<path d="M209.044 196.327C204.588 201.539 194.118 206.569 186.419 201.902C179.987 198.007 179.585 194.304 175.025 191.09C173.23 189.823 144.303 182.402 128.246 158.195L128.577 157.791C146.486 175.999 165.154 177.089 177.553 186.319C182.021 189.644 182.409 190.747 188.841 194.642C196.542 199.309 207.012 194.279 211.467 189.066C211.753 188.734 212.025 188.406 212.281 188.083C213.014 191.025 211.506 193.446 209.044 196.327Z" fill="#371A45"/>
</g>
<path d="M147.939 134.272C151.365 136.61 154.191 139.267 157.213 141.815C160.181 144.393 163.23 146.908 166.307 149.408C169.441 151.86 172.684 154.175 176.006 156.417C179.312 158.676 182.683 160.874 186.049 163.091C189.414 165.308 192.807 167.519 196.141 169.85C196.981 170.419 197.812 171.005 198.635 171.61C199.459 172.209 200.288 172.795 201.11 173.406C202.73 174.655 204.373 175.871 205.933 177.215C207.569 178.529 209.112 179.948 210.552 181.462C210.91 181.871 211.273 182.269 211.623 182.688C211.954 183.136 212.303 183.563 212.623 184.032L213.079 184.767L213.305 185.134C213.376 185.263 213.439 185.403 213.504 185.537L213.887 186.353C213.997 186.637 214.089 186.944 214.186 187.24C214.539 188.434 214.677 189.819 214.386 191.091C214.127 192.283 213.66 193.424 213.004 194.465C212.423 195.388 211.776 196.27 211.069 197.107C210.751 197.509 210.368 197.922 209.98 198.334C209.592 198.745 209.186 199.112 208.782 199.494C207.143 200.946 205.315 202.184 203.344 203.177C201.367 204.19 199.252 204.929 197.062 205.372C194.848 205.808 192.494 205.905 190.173 205.455L189.308 205.261C189.016 205.206 188.731 205.125 188.455 205.02C187.903 204.807 187.325 204.646 186.795 204.38C186.265 204.115 185.732 203.841 185.232 203.559C184.776 203.261 184.311 202.984 183.864 202.668C182.958 202.042 182.096 201.357 181.285 200.619C180.485 199.882 179.733 199.099 179.032 198.274C177.658 196.65 176.561 195.095 175.273 193.924C175.119 193.766 174.942 193.634 174.78 193.489C174.618 193.344 174.447 193.206 174.27 193.078L174.007 192.879L173.876 192.78L173.811 192.731C173.821 192.742 173.834 192.75 173.848 192.755L173.738 192.707C173.65 192.669 173.584 192.635 173.466 192.59C172.609 192.25 171.625 191.895 170.676 191.539C168.758 190.822 166.836 190.07 164.938 189.265C157.346 186.049 150.049 182.045 143.472 177.059C141.819 175.825 140.235 174.501 138.678 173.155C137.147 171.776 135.57 170.438 134.12 168.967C133.38 168.244 132.684 167.481 132.036 166.681C131.705 166.288 131.374 165.893 131.08 165.468C130.786 165.044 130.474 164.637 130.186 164.211C129.616 163.349 129.111 162.45 128.674 161.518C128.239 160.563 127.9 159.571 127.66 158.554C127.63 158.414 127.644 158.27 127.699 158.138C127.754 158.006 127.848 157.893 127.97 157.813C128.092 157.733 128.235 157.69 128.382 157.689C128.53 157.688 128.674 157.729 128.796 157.808L128.832 157.83C129.743 158.422 130.485 159.097 131.244 159.759C132.004 160.421 132.685 161.119 133.386 161.804C133.732 162.148 134.065 162.502 134.394 162.858C134.724 163.214 135.071 163.555 135.4 163.91C135.73 164.265 136.062 164.613 136.392 164.976C136.723 165.338 137.06 165.678 137.384 166.042C138.68 167.489 140.053 168.869 141.497 170.179C142.969 171.458 144.473 172.712 146.047 173.887C152.3 178.631 159.29 182.474 166.615 185.576C168.448 186.353 170.302 187.08 172.184 187.783C173.134 188.14 174.057 188.471 175.088 188.879C175.207 188.924 175.37 188.998 175.514 189.061C175.595 189.099 175.647 189.118 175.751 189.168C175.876 189.233 175.999 189.302 176.12 189.375C176.171 189.407 176.259 189.459 176.278 189.476L176.363 189.539L176.534 189.667L176.874 189.922C177.329 190.26 177.756 190.639 178.172 191.017C179.848 192.565 181.048 194.299 182.262 195.707C183.43 197.105 184.788 198.343 186.3 199.389C186.673 199.655 187.079 199.893 187.465 200.149L188.587 200.735C188.96 200.926 189.376 201.027 189.765 201.186C189.961 201.265 190.166 201.322 190.376 201.358L190.999 201.497C192.677 201.817 194.47 201.765 196.24 201.416C199.779 200.708 203.251 198.921 205.954 196.53C206.276 196.221 206.632 195.932 206.914 195.601C207.196 195.269 207.511 194.966 207.814 194.586C208.399 193.898 208.934 193.172 209.415 192.413C209.826 191.772 210.124 191.069 210.296 190.333C210.456 189.672 210.371 189.033 210.186 188.345C209.775 186.969 208.719 185.498 207.455 184.153C206.134 182.768 204.719 181.471 203.219 180.269C201.736 178.989 200.141 177.811 198.576 176.603C197.783 176.01 196.967 175.437 196.164 174.853C195.36 174.268 194.549 173.691 193.72 173.129C190.453 170.844 187.078 168.652 183.72 166.431C180.362 164.209 176.965 162.007 173.617 159.716C170.254 157.453 166.969 155.057 163.654 152.681C160.391 150.238 157.129 147.753 154.24 144.848C151.27 142.049 148.668 138.809 146.866 135.107C146.799 134.969 146.781 134.813 146.815 134.665C146.849 134.516 146.933 134.382 147.053 134.284C147.174 134.186 147.325 134.129 147.482 134.122C147.639 134.116 147.795 134.159 147.924 134.247L147.939 134.272Z" fill="#371A45"/>
<path d="M148.651 180.036C148.503 180.036 148.355 180.019 148.21 179.985C147.736 179.873 147.327 179.583 147.073 179.18C146.819 178.776 146.741 178.291 146.857 177.832C147.108 176.839 153.162 153.61 169.891 153.61H170.164C170.646 153.626 171.103 153.825 171.435 154.163C171.768 154.501 171.95 154.952 171.943 155.419C171.935 155.886 171.739 156.331 171.395 156.659C171.052 156.987 170.589 157.172 170.106 157.174H169.903C156.016 157.174 150.493 178.462 150.438 178.677C150.34 179.064 150.111 179.409 149.787 179.655C149.463 179.901 149.063 180.036 148.651 180.036Z" fill="#371A45"/>
<path d="M216.867 143.217C216.551 143.217 216.241 143.138 215.966 142.988C206.679 137.943 206 113.66 205.953 110.904C205.945 110.432 206.131 109.975 206.471 109.636C206.81 109.296 207.276 109.1 207.764 109.092H207.796C208.279 109.093 208.743 109.276 209.087 109.604C209.432 109.932 209.629 110.377 209.637 110.845C209.757 117.756 211.451 136.445 217.771 139.878C218.127 140.071 218.405 140.373 218.564 140.736C218.723 141.099 218.753 141.502 218.65 141.883C218.547 142.264 218.315 142.602 217.993 142.842C217.67 143.083 217.274 143.213 216.867 143.213V143.217Z" fill="#371A45"/>
<path d="M232.116 97.6442C232.135 97.7508 232.144 97.964 232.156 98.1335L232.19 98.6803C232.223 99.047 232.236 99.419 232.275 99.791C232.326 100.537 232.423 101.283 232.533 102.036C232.643 102.788 232.802 103.539 232.955 104.322C233.075 105.128 233.286 105.913 233.386 106.87C232.521 106.472 231.759 105.892 231.157 105.172C230.856 104.821 230.585 104.447 230.347 104.054C230.118 103.657 229.911 103.249 229.727 102.831C229.354 101.993 229.082 101.116 228.917 100.218C228.837 99.7677 228.785 99.3128 228.76 98.8562C228.751 98.6249 228.743 98.3957 228.76 98.1601C228.766 97.9083 228.788 97.657 228.824 97.4076C228.876 97.0294 229.066 96.6817 229.361 96.4281C229.655 96.1744 230.034 96.0317 230.429 96.0261C230.823 96.0204 231.207 96.1521 231.509 96.3971C231.811 96.6421 232.012 96.9842 232.075 97.3607L232.116 97.6442Z" fill="#371A45"/>
</svg>
