<svg width="284" height="329" viewBox="0 0 284 329" fill="none" xmlns="http://www.w3.org/2000/svg">
<path d="M226.118 212.242C227.475 215.575 228.601 218.981 229.491 222.441C213.253 232.628 181.697 246.305 144.323 258.696C106.95 271.087 73.0857 279.097 53.4063 280.817C51.6044 277.66 50.0218 274.405 48.6677 271.071C48.6026 270.912 48.5397 270.756 48.478 270.595C47.8796 269.105 47.3327 267.61 46.8375 266.11C45.682 262.64 44.7724 259.107 44.1142 255.533C44.0872 255.39 44.0603 255.246 44.0367 255.102C41.3797 240.154 43.1942 224.836 49.2927 210.733C58.7856 188.708 78.3068 170.329 104.813 161.542C131.103 152.829 158.92 155.318 181.833 166.334C191.319 170.888 199.875 176.869 207.134 184.021C211.088 187.916 214.628 192.137 217.707 196.63C217.961 196.995 218.208 197.362 218.454 197.733C220.511 200.842 222.348 204.067 223.952 207.388C224.556 208.634 225.129 209.899 225.671 211.183C225.827 211.535 225.973 211.887 226.118 212.242Z" fill="#FFB200"/>
<path d="M230.658 255.562C229.133 263.827 226.276 271.847 222.176 279.364C211.828 298.342 193.695 313.897 169.966 321.764C146.184 329.648 121.154 328.362 99.629 319.891C91.1684 316.559 83.2902 312.133 76.2422 306.751C99.7883 303.025 127.196 296.316 155.765 286.846C184.335 277.376 210.035 266.477 230.658 255.562Z" fill="#FFB200"/>
<path d="M155.768 286.846C184.334 277.376 210.036 266.477 230.659 255.562C230.028 259.001 229.162 262.402 228.067 265.745C212.154 274.66 187.023 285.307 157.98 294.935C130.162 304.155 104.409 310.57 86.0123 313.29C82.6064 311.302 79.3456 309.117 76.25 306.751C99.7905 303.03 127.198 296.317 155.768 286.846Z" fill="#D66B09"/>
<path d="M225.675 211.186C225.826 211.536 225.971 211.887 226.116 212.242C227.473 215.575 228.6 218.982 229.489 222.441C213.251 232.628 181.696 246.305 144.322 258.696C106.948 271.087 73.0842 279.097 53.4048 280.817C51.6029 277.66 50.0203 274.405 48.6662 271.071C48.6011 270.912 48.5383 270.756 48.4766 270.596C67.0563 269.971 101.487 262.332 139.591 249.702C179.189 236.568 211.909 221.646 225.675 211.186Z" fill="#D66B09"/>
<path d="M42.4844 242.247L43.2698 236.539C56.0674 237.987 90.4519 230.561 126.885 218.484C170.351 204.074 198.858 189.388 204.554 182.33L209.704 185.719C202.167 195.058 169.768 210.396 129.082 223.884C91.2059 236.442 56.404 243.822 42.4844 242.247Z" fill="#D66B09"/>
<path d="M49.5293 213.605L49.0547 207.868C63.6599 206.883 89.3381 200.765 116.08 191.901C144.095 182.613 168.546 171.942 179.889 164.059L183.776 168.618C171.956 176.836 146.859 187.827 118.277 197.302C91.0246 206.335 64.681 212.582 49.5293 213.605Z" fill="#D66B09"/>
<path d="M43.7852 257.971L44.28 252.234C59.0221 253.271 94.5579 245.468 132.718 232.82C172.744 219.547 206.694 203.905 215.277 194.773L220.135 198.495C210.765 208.463 176.517 224.427 134.915 238.22C95.3658 251.329 59.5955 259.082 43.7852 257.971Z" fill="#D66B09"/>
<path d="M99.6295 321.33V319.896L98.9922 318.579L99.2963 318.459H99.6329C112.45 318.47 137.33 312.975 163.02 304.459C188.852 295.895 211.128 285.86 221.155 278.268L223.202 280.472C212.911 288.262 190.273 298.487 164.119 307.159C137.706 315.909 112.997 321.342 99.6295 321.33Z" fill="#D66B09"/>
<path d="M137.47 329C114.87 329 92.5514 321.872 74.7931 308.299L71.1406 305.503L75.8534 304.753C100.112 300.913 127.477 294.062 154.991 284.942C182.505 275.821 208.275 265.056 229.52 253.81L233.653 251.623L232.868 255.89C227.173 286.877 203.365 312.846 170.736 323.663C160.081 327.195 148.82 329.002 137.47 329ZM81.4774 307.948C106.437 325.07 139.602 329.673 169.191 319.863C198.779 310.052 220.769 287.169 227.522 259.532C206.909 270.089 182.482 280.147 156.538 288.748C130.594 297.349 104.762 303.952 81.4785 307.948H81.4774Z" fill="#371A45"/>
<path d="M281.072 206.903C285.846 218.639 265.491 237.125 230.659 255.561C210.035 266.477 184.334 277.376 155.767 286.846C127.201 296.316 99.7903 303.03 76.2441 306.751C36.4758 313.047 7.71188 310.844 2.93959 299.108C-1.39508 288.45 14.9887 272.232 44.1105 255.533C44.7688 259.107 45.6784 262.64 46.8339 266.11C38.7413 271.246 34.6187 275.472 35.715 278.167C36.8304 280.911 43.2174 281.706 53.4027 280.818C73.082 279.096 106.947 271.087 144.32 258.697C181.692 246.307 213.253 232.629 229.487 222.442C237.885 217.174 242.185 212.832 241.068 210.088C239.974 207.397 233.801 206.58 223.954 207.392C222.35 204.071 220.513 200.846 218.456 197.736C252.624 193.452 276.739 196.245 281.072 206.903Z" fill="#FFC536"/>
<path d="M44.2224 260.383L44.9462 261.348C37.694 265.663 32.042 269.58 27.75 273.074C31.049 269.324 36.5282 265.111 44.2224 260.383Z" fill="#FF9100"/>
<path d="M45.6713 262.302L44.9453 261.345C45.0687 261.263 45.209 261.185 45.3493 261.106L45.6713 262.302Z" fill="#FF9100"/>
<path d="M253.391 207.39C252.191 204.451 248.948 202.506 243.563 201.538C238.352 200.607 231.136 200.594 221.841 201.493L221.979 202.648L222.389 206.129C240.125 204.415 247.524 206.485 248.553 208.998C250.259 213.2 237.883 224.464 206.659 239.245C189.206 247.505 168.264 255.759 146.112 263.105C133.079 267.425 120.137 271.264 107.777 274.471C99.1278 276.733 90.7648 278.683 82.8529 280.288C48.4549 287.266 30.9479 285.912 29.2356 281.7C28.2325 279.242 32.235 273.494 46.3712 264.68C46.6158 264.525 46.8683 264.376 47.1219 264.217L45.6688 262.302L44.9428 261.344L44.219 260.381C36.5248 265.108 31.0444 269.321 27.7466 273.07C24.2872 276.969 23.1976 280.36 24.3938 283.31C25.5652 286.18 28.7408 287.965 33.2651 288.939C45.0673 291.481 66.0057 288.481 83.975 284.833C92.1114 283.185 100.712 281.169 109.609 278.843C121.965 275.619 134.879 271.783 147.882 267.473C170.244 260.061 191.394 251.72 209.054 243.372C231.611 232.695 257.617 217.781 253.391 207.39Z" fill="#FFEC90"/>
<path d="M269.114 206.275C264.686 195.393 239.891 195.87 219.878 198.195L220.532 202.812C221.018 202.759 221.503 202.704 221.979 202.648C230.632 201.695 237.77 201.382 243.563 201.534C256.735 201.895 262.969 204.681 264.275 207.879C266.618 213.654 256.005 227.122 218.343 246.067C198.878 255.861 175.396 265.418 150.422 273.692C138.999 277.475 127.622 280.875 116.56 283.823C103.407 287.333 90.6952 290.197 78.8335 292.318C36.5449 299.88 18.8012 295.817 16.4504 290.042C15.1476 286.835 17.9203 281.055 27.7499 273.07C32.0419 269.576 37.6939 265.658 44.9461 261.343C45.0695 261.261 45.2098 261.184 45.35 261.105C45.6137 260.946 45.8864 260.788 46.1613 260.622L44.7643 258.679L43.3527 256.715C26.4292 266.644 7.17845 280.758 11.6152 291.642C13.3276 295.854 18.0213 298.391 24.3971 299.765C39.4074 302.99 63.6795 299.774 79.8288 296.885C94.0054 294.353 109.374 290.77 125.219 286.322C134.103 283.835 143.131 281.078 152.19 278.069C177.416 269.708 201.156 260.051 220.846 250.137C241.349 239.827 274.867 220.423 269.114 206.275Z" fill="#FFEC90"/>
<path d="M38.0147 312.242C17.2334 312.242 4.17104 308.019 0.831668 299.807C-3.81607 288.376 11.1258 272.047 42.9104 253.823L45.7718 252.182L46.3272 255.201C46.9708 258.69 47.859 262.139 48.9866 265.527L49.4522 266.927L48.1282 267.768C36.9319 274.873 37.8138 277.442 37.8239 277.468C37.834 277.493 39.0347 280.032 53.1877 278.8C73.2733 277.043 107.901 268.611 143.547 256.795C179.193 244.978 211.635 231.175 228.211 220.777C239.88 213.45 238.976 210.811 238.966 210.786C238.956 210.761 237.785 208.286 224.161 209.409L222.548 209.542L221.901 208.202C220.332 204.962 218.537 201.815 216.527 198.78L214.787 196.153L218.144 195.733C255.436 191.057 278.531 194.778 283.18 206.209C288.264 218.711 269.534 237.337 231.788 257.313C210.321 268.675 184.299 279.546 156.54 288.745C128.78 297.944 101.148 304.864 76.6317 308.744C61.8436 311.089 48.8744 312.242 38.0147 312.242ZM42.5109 258.872C15.3976 274.845 1.43536 289.532 5.04964 298.41C9.18233 308.583 36.3158 311.015 75.8541 304.752C100.113 300.913 127.477 294.062 154.991 284.942C182.505 275.821 208.275 265.056 229.521 253.81C264.155 235.478 283.1 217.771 278.963 207.599C275.352 198.72 254.18 195.681 222.063 199.343C223.241 201.274 224.342 203.248 225.354 205.25C236.061 204.526 241.736 205.851 243.176 209.386C244.707 213.151 240.764 217.826 230.769 224.102C213.645 234.841 181.621 248.487 145.091 260.595C108.561 272.703 74.3696 281.017 53.6164 282.831C41.4977 283.887 35.1354 282.629 33.6048 278.862C32.1674 275.326 35.5494 270.998 44.2311 265.295C43.5713 263.179 42.9946 261.03 42.5109 258.872Z" fill="#371A45"/>
<g opacity="0.41">
<path d="M229.49 222.732C227.599 223.918 225.507 225.148 223.214 226.422C222.516 224.125 221.703 221.833 220.781 219.56C220.635 219.207 220.487 218.857 220.34 218.508C219.8 217.224 219.227 215.959 218.621 214.71C217.016 211.39 215.18 208.164 213.123 205.053C212.878 204.684 212.627 204.319 212.375 203.954C209.296 199.46 205.756 195.237 201.8 191.342C194.543 184.191 185.987 178.211 176.502 173.659C153.584 162.642 125.767 160.147 99.4788 168.864C81.9247 174.683 67.4384 184.708 56.8906 197.215C67.9905 180.88 84.8793 168.412 104.815 161.835C131.103 153.122 158.921 155.613 181.832 166.629C191.319 171.183 199.877 177.165 207.135 184.318C211.088 188.212 214.627 192.432 217.707 196.924C217.964 197.289 218.208 197.659 218.453 198.028C220.512 201.136 222.348 204.36 223.951 207.68C224.557 208.929 225.13 210.195 225.671 211.477C225.824 211.828 225.972 212.177 226.111 212.535C227.469 215.868 228.598 219.274 229.49 222.732Z" fill="white"/>
</g>
<path d="M52.1022 282.97L51.4053 281.754C49.5621 278.522 47.942 275.19 46.5545 271.777C45.8711 270.097 45.2416 268.389 44.6817 266.699C43.4997 263.147 42.5687 259.532 41.8944 255.873C34.3068 214.571 60.4416 174.104 104.037 159.652C147.633 145.199 196.56 160.781 220.377 196.703C222.484 199.884 224.367 203.183 226.012 206.579C226.797 208.194 227.54 209.865 228.222 211.544C229.611 214.956 230.763 218.443 231.674 221.984L232.017 223.322L230.768 224.105C213.645 234.845 181.621 248.49 145.092 260.598C108.563 272.706 74.3702 281.02 53.617 282.834L52.1022 282.97ZM137.36 158.34C126.519 158.34 115.763 160.069 105.588 163.447C64.0144 177.226 39.0914 215.818 46.3267 255.201C46.9703 258.69 47.8585 262.139 48.9861 265.527C49.5202 267.141 50.1205 268.769 50.7725 270.372C51.9206 273.195 53.2354 275.961 54.711 278.657C74.9986 276.623 108.788 268.323 143.549 256.794C178.309 245.266 210.024 231.859 226.949 221.557C226.141 218.64 225.161 215.763 224.013 212.94C223.363 211.34 222.653 209.747 221.904 208.205C220.335 204.963 218.54 201.813 216.529 198.776C199.508 173.113 169.051 158.336 137.36 158.336V158.34Z" fill="#371A45"/>
<g opacity="0.3">
<path d="M113.221 268.247C88.6546 275.17 67.4244 279.594 53.4016 280.818C43.2163 281.706 36.8293 280.911 35.7139 278.166C34.6176 275.472 38.7436 271.247 46.8339 266.11C46.1606 264.095 45.5884 262.072 45.0902 260.046C18.8151 275.797 4.33551 290.875 8.43903 300.967C9.62733 303.89 12.3058 306.22 16.269 307.976C15.8943 307.875 15.5296 307.773 15.1694 307.672C28.0432 311.358 49.6818 310.95 76.2419 306.745C99.788 303.019 127.195 296.31 155.765 286.84C157.98 286.106 160.175 285.363 162.35 284.611C82.1643 300.18 113.221 268.247 113.221 268.247Z" fill="#371A45"/>
</g>
<g opacity="0.3">
<path d="M115.467 256.483C143.811 256.142 203.005 233.726 227.487 223.664C228.175 223.251 228.848 222.841 229.489 222.439C228.888 220.104 230.847 221.968 230.016 219.651C214.579 226.439 142.253 255.473 109.964 255.861C108.553 255.878 107.142 255.838 105.738 255.75C108.947 256.278 112.205 256.523 115.467 256.483Z" fill="#371A45"/>
</g>
<g opacity="0.3">
<path d="M230.016 219.647C214.578 226.435 142.252 255.47 109.964 255.858C93.0202 256.06 76.1158 248.725 72.5621 233.771C72.497 233.497 72.4499 233.265 72.4117 233.073C72.3848 232.929 72.359 232.787 72.3332 232.639C71.4079 227.448 71.0218 222.191 71.1797 216.935C71.6373 202.067 76.378 187.563 84.9344 174.852C71.5384 184.223 61.1829 196.676 54.9548 210.906C48.7266 225.135 46.8555 240.616 49.5377 255.723C49.5579 255.866 49.5849 256.009 49.6107 256.152C50.271 259.727 51.1817 263.26 52.3374 266.731C52.8296 268.23 53.3749 269.725 53.9734 271.216C54.0385 271.376 54.0979 271.53 54.163 271.69C55.3634 274.622 56.7362 277.495 58.2755 280.295C57.4732 280.396 56.6911 280.484 55.9191 280.567C75.8925 278.419 108.491 270.571 144.318 258.695C181.692 246.305 213.252 232.625 229.485 222.438C228.887 220.103 230.847 221.967 230.016 219.647Z" fill="#371A45"/>
</g>
<g opacity="0.3">
<path d="M85.3243 307.699C89.6578 310.23 94.2125 312.438 98.9432 314.301C120.465 322.77 145.498 324.057 169.28 316.173C193.009 308.306 211.142 292.752 221.491 273.773C223.881 269.393 225.851 264.837 227.379 260.153C227.874 258.647 228.313 257.125 228.714 255.594C208.305 266.29 183.075 276.944 155.08 286.224C128.783 294.937 103.48 301.311 81.2578 305.177C82.5875 306.047 83.943 306.894 85.3243 307.699Z" fill="#371A45"/>
</g>
<path d="M109.339 159.335H164.199C173.838 159.335 181.652 152.28 181.652 143.577V99.155C181.652 90.4519 173.838 83.3966 164.199 83.3966L109.339 83.3966C99.6995 83.3966 91.8855 90.4519 91.8855 99.155L91.8855 143.577C91.8855 152.28 99.6995 159.335 109.339 159.335Z" fill="white"/>
<path d="M181.651 98.8957V143.841C181.651 152.362 173.666 159.342 163.903 159.342H109.63C99.8677 159.342 91.8828 152.366 91.8828 143.841V98.8957C91.8816 96.5109 92.5135 94.1607 93.7253 92.0418C94.6003 90.5088 95.7498 89.1169 97.1275 87.9223C100.266 85.2046 104.388 83.6048 108.732 83.4189C109.031 83.4058 109.33 83.3987 109.63 83.3987H163.909C171.053 83.3987 177.239 87.1351 180.046 92.4774C180.362 93.0783 180.634 93.6973 180.86 94.3305C181.385 95.8058 181.652 97.346 181.651 98.8957Z" fill="white"/>
<path d="M164.198 83.3977C173.798 83.3977 181.651 90.4897 181.651 99.1561V143.578C181.651 152.246 173.796 159.337 164.198 159.337H109.337C99.7378 159.337 91.8843 152.245 91.8843 143.578V99.1561C91.8843 90.4887 99.739 83.3977 109.337 83.3977H164.198ZM164.198 80.1557H109.337C97.7315 80.1557 88.2891 88.6812 88.2891 99.1601V143.582C88.2891 154.061 97.7315 162.586 109.337 162.586H164.198C175.804 162.586 185.246 154.061 185.246 143.582V99.1561C185.246 88.6772 175.804 80.1516 164.198 80.1516V80.1557Z" fill="#371A45"/>
<g opacity="0.3">
<path d="M179.713 101.18L179.48 101.288C179.48 101.187 179.48 101.086 179.48 100.984C179.489 100.848 179.508 100.713 179.537 100.579C179.542 100.545 179.55 100.511 179.56 100.478C179.56 100.464 179.567 100.449 179.569 100.435C179.58 100.394 179.593 100.354 179.605 100.316C179.617 100.277 179.625 100.248 179.638 100.214C179.642 100.197 179.648 100.181 179.654 100.165C179.669 100.127 179.682 100.09 179.697 100.054C179.712 100.019 179.734 99.9671 179.753 99.9246C179.742 99.9712 179.732 100.018 179.723 100.064C179.703 100.166 179.688 100.267 179.678 100.368C179.653 100.639 179.665 100.912 179.713 101.18Z" fill="#6B184E"/>
</g>
<path d="M112.14 86.1958L110.674 89.6759L109.427 92.6282L108.344 95.1975L101.963 110.324C100.929 110.583 99.8733 110.818 98.786 111.014C85.1525 113.547 67.1428 110.871 42.5688 85.9891C38.7245 82.0987 29.4481 79.7401 33.4921 70.8934C37.6282 61.844 43.4485 62.9737 43.4485 62.9737C43.4485 62.9737 41.9236 58.4885 45.2113 56.218C49.8512 53.0104 55.3529 57.7621 60.6963 61.15C61.456 61.6323 61.116 55.133 66.1363 55.3285C73.3188 55.6091 72.9373 70.4131 72.9373 70.4131C72.9373 70.4131 82.6244 80.0167 97.6617 84.2465C101.685 85.3911 105.86 86.042 110.075 86.1816C110.752 86.1958 111.447 86.2039 112.14 86.1958Z" fill="white"/>
<g opacity="0.35">
<path d="M101.964 110.323C87.9829 113.83 69.1058 112.856 42.5715 85.9897C38.7294 82.0993 29.4519 79.7437 33.496 70.8939C35.9781 65.4574 39.0717 63.7007 41.142 63.1536C40.4395 64.116 39.9368 65.3744 39.0952 66.7127C34.3645 74.2383 47.3191 81.541 50.8896 80.2057C53.0811 79.3861 53.8509 78.5928 55.1166 74.8117C56.4631 70.7926 58.5536 68.8808 58.8004 69.1301C59.9225 70.2658 59.9472 84.2694 62.5236 89.1902C69.0923 101.753 86.7822 107.923 99.6179 107.385C100.016 107.368 100.412 107.441 100.771 107.598C101.13 107.754 101.44 107.989 101.673 108.28C101.906 108.572 102.054 108.912 102.105 109.268C102.156 109.625 102.108 109.988 101.964 110.323Z" fill="#371A45"/>
</g>
<path d="M90.7491 113.385C78.5284 113.385 62.158 108.218 41.2511 87.0533C40.4039 86.1962 39.1786 85.3715 37.8848 84.4992C33.8452 81.7799 28.3088 78.0556 31.8602 70.2858C34.8574 63.7288 38.8408 61.9163 41.3711 61.4715C41.1983 59.5911 41.4834 56.7857 44.1394 54.951C49.1608 51.482 54.6063 55.1212 59.4111 58.3328L59.86 58.6368C60.5332 56.6226 62.093 53.5711 66.2144 53.7372C74.1522 54.0412 74.7065 66.4207 74.711 69.7742C77.4826 72.2898 92.2999 84.8416 112.118 84.5974H112.142C112.611 84.5947 113.061 84.7603 113.395 85.0576C113.728 85.355 113.918 85.7598 113.921 86.183C113.923 86.6062 113.74 87.0131 113.411 87.3143C113.081 87.6154 112.633 87.7861 112.164 87.7888C88.6228 88.0563 72.3108 72.1591 71.6286 71.4773C71.3214 71.1734 71.1561 70.7741 71.1674 70.3628C71.2796 66.0438 70.1676 57.0725 66.0607 56.9124C64.3035 56.8465 63.6157 58.113 62.966 60.4776C62.6955 61.4604 62.4621 62.3094 61.4298 62.6579C61.1415 62.7536 60.8317 62.7847 60.5272 62.7483C60.2226 62.712 59.9324 62.6093 59.6816 62.4492C58.8961 61.9487 58.0994 61.4188 57.3061 60.8879C52.2566 57.5152 49.0025 55.6014 46.2848 57.4757C44.0283 59.0349 45.1279 62.4705 45.1392 62.5049C45.2283 62.771 45.239 63.0535 45.1703 63.3245C45.1016 63.5954 44.9558 63.8456 44.7474 64.0502C44.5389 64.2547 44.275 64.4067 43.9816 64.4911C43.6883 64.5754 43.3756 64.5893 43.0745 64.5312C42.9297 64.5119 38.5771 63.9476 35.1255 71.4986C32.6233 76.9695 36.0389 79.2734 39.9943 81.9339C41.3756 82.8639 42.7996 83.8244 43.8891 84.9237C71.072 112.443 89.783 111.718 101.489 108.78C101.941 108.667 102.424 108.72 102.832 108.929C103.24 109.137 103.54 109.483 103.665 109.891C103.791 110.299 103.731 110.735 103.501 111.104C103.27 111.472 102.886 111.743 102.435 111.856C99.0751 112.704 95.1848 113.385 90.7491 113.385Z" fill="#371A45"/>
<path d="M62.8515 60.8029L62.4543 65.8686C62.4317 66.1676 62.3213 66.4558 62.1345 66.7034L62.0851 66.7673C61.9536 66.8998 61.8303 67.0388 61.716 67.1837C61.5858 67.3458 61.459 67.5129 61.3412 67.6902C61.0999 68.0384 60.8836 68.4001 60.6937 68.7733C60.3159 69.5153 60.0665 70.3053 59.9543 71.1157C59.8802 71.5209 59.9049 71.9262 59.8993 72.3314C59.9666 72.7296 59.979 73.147 60.1237 73.5472C60.3133 74.3577 60.7655 75.1196 61.2458 75.8713L61.2929 75.9433C61.4042 76.117 61.4388 76.3223 61.3897 76.518C61.3406 76.7137 61.2114 76.8855 61.0281 76.999C60.8447 77.1124 60.6206 77.1592 60.4007 77.1298C60.1808 77.1005 59.9813 76.9974 59.8421 76.8409C59.1351 76.0446 58.4417 75.1875 58.0254 74.1814C57.7695 73.6951 57.6517 73.1683 57.4901 72.6435C57.4026 72.1106 57.296 71.5706 57.3027 71.0285C57.2807 69.9435 57.4442 68.8619 57.7875 67.8219C57.9568 67.3062 58.1622 66.8006 58.4024 66.3083C58.5213 66.0611 58.6537 65.8169 58.794 65.5748C58.9456 65.3118 59.1131 65.0564 59.2956 64.8099L58.9264 65.7085L59.3349 60.5C59.368 60.078 59.5855 59.6852 59.9395 59.408C60.1147 59.2707 60.3182 59.166 60.5383 59.0997C60.7584 59.0335 60.9908 59.007 61.2222 59.0218C61.4537 59.0367 61.6796 59.0925 61.8871 59.1862C62.0946 59.2798 62.2797 59.4095 62.4317 59.5677C62.5837 59.726 62.6997 59.9097 62.7731 60.1084C62.8465 60.3072 62.8758 60.517 62.8594 60.7259L62.8515 60.8029Z" fill="#371A45"/>
<path d="M74.7041 110.018C74.4242 110.018 74.1506 109.943 73.9186 109.801C73.6865 109.66 73.5067 109.459 73.4022 109.224C73.2977 108.99 73.2733 108.732 73.3321 108.485C73.391 108.238 73.5304 108.013 73.7324 107.838C83.2343 99.6049 84.6874 79.7342 84.7009 79.5316C84.7235 79.1957 84.893 78.8817 85.172 78.6587C85.451 78.4356 85.8168 78.3218 86.1888 78.3422C86.5608 78.3626 86.9086 78.5156 87.1556 78.7676C87.4027 79.0195 87.5288 79.3497 87.5061 79.6856C87.4478 80.5417 85.9745 100.748 75.6792 109.667C75.4171 109.894 75.0673 110.02 74.7041 110.018Z" fill="#371A45"/>
<path d="M197.422 151.629C196.666 166.711 191.558 172.832 185.252 174.763C183.895 175.18 182.469 175.382 181.036 175.357C176.572 175.218 173.333 173.518 173.333 173.518C173.333 173.518 171.689 174.141 170.182 174.009C158.52 172.987 161.18 166.739 163.549 156.728C164.229 153.847 164.888 150.655 165.171 147.188C166.517 130.809 161.445 115.324 161.445 115.324L163.399 100.633L165.574 84.2539C165.574 84.2539 166.714 85.188 168.565 86.9641C170.186 88.5162 172.352 90.7066 174.769 93.4795C184.632 104.766 198.726 125.642 197.422 151.629Z" fill="white"/>
<path d="M181.345 176.958C181.22 176.958 181.096 176.958 180.974 176.952C178.284 176.856 175.641 176.277 173.201 175.249C172.427 175.459 171.217 175.702 170.011 175.596C165.613 175.211 162.818 174.103 161.217 172.11C158.714 168.994 159.818 164.523 161.217 158.863C162.075 155.389 163.047 151.45 163.408 147.068C164.715 131.191 159.802 115.927 159.753 115.775C159.632 115.372 159.691 114.943 159.916 114.579C160.141 114.214 160.516 113.944 160.959 113.826C161.402 113.708 161.879 113.751 162.287 113.946C162.695 114.141 163.003 114.473 163.144 114.87C163.354 115.514 168.29 130.827 166.933 147.305C166.554 151.919 165.552 155.977 164.668 159.558C163.464 164.433 162.512 168.284 164.081 170.236C165.03 171.418 167.082 172.133 170.353 172.419C171.212 172.495 172.309 172.173 172.66 172.044L173.466 171.746L174.224 172.139C174.248 172.151 177.17 173.64 181.096 173.76C182.317 173.781 183.532 173.609 184.687 173.253C191.35 171.212 195.043 163.913 195.662 151.558C196.672 131.531 188.144 114.645 180.808 104.005C172.815 92.4119 164.468 85.4982 164.389 85.4303C164.218 85.2894 164.078 85.1192 163.979 84.9296C163.88 84.74 163.824 84.5347 163.812 84.3253C163.801 84.1159 163.836 83.9066 163.915 83.7094C163.993 83.5121 164.114 83.3307 164.27 83.1756C164.426 83.0204 164.614 82.8946 164.824 82.8052C165.034 82.7158 165.262 82.6647 165.494 82.6547C165.726 82.6446 165.957 82.676 166.176 82.7468C166.394 82.8177 166.595 82.9267 166.767 83.0677C167.121 83.3564 175.504 90.2893 183.75 102.23C191.374 113.273 200.245 130.816 199.195 151.701C198.492 165.695 194.118 173.732 185.823 176.273C184.38 176.714 182.869 176.945 181.345 176.958Z" fill="#371A45"/>
<path d="M164.837 133.201C164.508 133.2 164.189 133.095 163.937 132.903C163.685 132.711 163.516 132.446 163.459 132.153C163.402 131.859 163.461 131.558 163.625 131.3C163.79 131.042 164.05 130.845 164.359 130.743C165.319 130.429 187.95 123.125 196.175 129.803C196.312 129.914 196.424 130.048 196.503 130.199C196.583 130.349 196.628 130.511 196.638 130.677C196.648 130.844 196.621 131.01 196.56 131.167C196.499 131.323 196.404 131.468 196.28 131.591C196.157 131.715 196.008 131.816 195.842 131.887C195.676 131.959 195.496 132 195.312 132.009C195.128 132.018 194.944 131.994 194.77 131.939C194.596 131.883 194.436 131.797 194.299 131.686C188.507 126.983 171.408 131.129 165.315 133.124C165.162 133.174 165.001 133.2 164.837 133.201Z" fill="#371A45"/>
<path d="M177.658 156.733H95.4403C95.2237 150.712 95.2765 144.914 95.5278 139.373C95.7624 134.241 96.173 129.329 96.7128 124.665C97.2031 120.4 97.8034 116.342 98.4756 112.507C98.5642 112.001 98.6697 111.506 98.7853 111.023C100.45 104.221 104.928 99.5086 108.003 94.9515C108.525 94.1775 109.006 93.4116 109.426 92.6375C109.908 91.7666 110.303 90.8587 110.607 89.9243C110.632 89.8443 110.655 89.7643 110.673 89.6852C110.885 88.6913 110.575 87.4665 110.071 86.1858C108.966 83.3724 106.929 80.2803 107.504 78.7524C108.45 76.2348 109.271 74.2551 109.882 72.859C110.575 71.2633 110.99 70.4275 110.99 70.4275H162.106C162.106 70.4275 162.531 71.2502 163.242 72.8337C163.98 74.474 165.023 76.9278 166.217 80.1475C166.954 82.1343 167.75 84.4129 168.563 86.967C169.16 88.8342 169.769 90.8483 170.375 93.0033C170.662 94.0286 170.95 95.0863 171.228 96.1713C172.562 101.254 173.839 107.012 174.909 113.408C175.514 116.991 176.049 120.766 176.486 124.732C177.012 129.416 177.401 134.357 177.617 139.539C177.853 145.001 177.879 150.747 177.658 156.733Z" fill="white"/>
<path d="M102.246 99.629C102.318 100.881 102.239 102.09 102.172 103.297C102.105 104.503 101.974 105.693 101.856 106.883C101.737 108.074 101.539 109.245 101.361 110.422C101.156 111.595 100.888 112.758 100.658 113.929L100.307 115.685C100.202 116.273 100.114 116.863 100.023 117.452C99.8421 118.631 99.6779 119.813 99.5306 120.998C99.3697 122.181 99.2261 123.366 99.0997 124.552C98.9605 125.737 98.8363 126.924 98.7271 128.113C98.2458 132.866 98.1055 137.645 97.9125 142.421C97.7935 144.808 97.6791 147.196 97.4827 149.584C97.3335 151.974 97.1809 154.361 95.7143 156.736C95.687 156.779 95.6471 156.816 95.5988 156.841C95.5505 156.865 95.4956 156.878 95.4399 156.877C95.3843 156.876 95.33 156.861 95.2829 156.835C95.2358 156.808 95.1976 156.77 95.1723 156.725C93.8135 154.302 93.7798 151.891 93.7921 149.484C93.7618 147.074 93.8325 144.667 93.9593 142.26C94.2466 137.446 94.7594 132.643 95.206 127.834C95.3174 126.632 95.4431 125.431 95.583 124.229C95.7229 123.027 95.868 121.827 96.0184 120.626C96.168 119.426 96.3352 118.227 96.52 117.028L97.0227 113.426C97.1708 112.221 97.3593 111.021 97.6129 109.829C97.8665 108.638 98.211 107.462 98.5857 106.293C99.3634 103.963 100.344 101.671 101.721 99.5054C101.739 99.4765 101.764 99.4511 101.793 99.4308C101.822 99.4105 101.856 99.3955 101.891 99.3869C101.927 99.3782 101.964 99.376 102.001 99.3803C102.037 99.3847 102.073 99.3955 102.105 99.4122C102.145 99.4327 102.179 99.462 102.203 99.4974C102.228 99.5328 102.242 99.5732 102.245 99.6148L102.246 99.629Z" fill="#371A45"/>
<path d="M177.387 156.733C175.929 154.59 175.787 152.429 175.664 150.27C175.491 148.113 175.398 145.957 175.307 143.805C175.162 139.5 175.044 135.2 174.539 130.929C174.304 128.792 174.014 126.661 173.687 124.533C173.359 122.406 173.028 120.278 172.52 118.173C172.285 117.118 172.029 116.067 171.83 115.007C171.648 113.943 171.503 112.872 171.381 111.794C171.258 110.716 171.211 109.627 171.173 108.53C171.131 107.414 171.168 106.297 171.285 105.186V105.18C171.289 105.147 171.3 105.114 171.318 105.085C171.336 105.055 171.36 105.029 171.389 105.008C171.418 104.987 171.451 104.971 171.487 104.962C171.523 104.952 171.56 104.95 171.597 104.953C171.642 104.958 171.685 104.972 171.722 104.994C171.76 105.016 171.791 105.046 171.814 105.081C173.048 107.056 173.935 109.112 174.653 111.204C175.371 113.292 175.87 115.435 176.142 117.607C176.452 119.772 176.862 121.925 177.184 124.091C177.506 126.257 177.813 128.426 178.052 130.601C178.525 134.95 179.018 139.303 179.257 143.657C179.356 145.835 179.404 148.014 179.351 150.185C179.338 152.358 179.293 154.529 177.925 156.718C177.884 156.784 177.816 156.832 177.735 156.853C177.655 156.873 177.569 156.864 177.496 156.827C177.452 156.804 177.415 156.771 177.387 156.733Z" fill="#371A45"/>
<g opacity="0.35">
<path d="M177.621 143.028C172.571 143.474 166.281 143.636 161.394 142.478V144.925C161.389 146.559 160.668 148.125 159.388 149.28C158.108 150.435 156.374 151.086 154.564 151.089H117.297C115.488 151.084 113.756 150.433 112.477 149.278C111.199 148.123 110.479 146.558 110.474 144.925V142.968C105.602 143.637 99.9265 143.348 95.5312 142.898C95.7635 138.81 96.1753 134.894 96.7162 131.18C100.756 131.333 105.969 131.399 110.474 131.047V126.656C110.478 125.024 111.198 123.459 112.477 122.304C113.755 121.15 115.488 120.499 117.297 120.496H154.564C155.617 120.497 156.655 120.718 157.598 121.142C158.54 121.565 159.362 122.18 159.998 122.937C160.904 124.004 161.395 125.312 161.394 126.656V130.773C165.931 131.368 171.797 131.368 176.491 131.229C177.016 134.962 177.406 138.903 177.621 143.028Z" fill="#371A45"/>
</g>
<path d="M117.683 136.571C112.559 138.443 104.629 138.051 99.2224 137.461C98.4523 137.376 97.7089 137.153 97.0359 136.805C96.3629 136.457 95.774 135.99 95.304 135.433C94.834 134.876 94.4925 134.239 94.2996 133.561C94.1067 132.882 94.0663 132.176 94.1808 131.483C94.3906 130.198 95.1215 129.029 96.2317 128.203C97.3419 127.376 98.7524 126.952 100.19 127.011C105.247 127.225 112.831 127.325 117.635 126.364" fill="white"/>
<g opacity="0.35">
<path d="M117.685 136.57C112.56 138.446 104.63 138.051 99.2236 137.463C98.2916 137.359 97.4013 137.053 96.6288 136.571C95.8564 136.089 95.2248 135.445 94.7881 134.694C94.3513 133.944 94.1225 133.109 94.1211 132.261C94.1197 131.413 94.3458 130.578 94.7801 129.826C95.2156 130.579 95.8478 131.225 96.622 131.709C97.3962 132.192 98.2892 132.497 99.2236 132.599C104.621 133.19 112.537 133.582 117.663 131.717L117.685 136.57Z" fill="#371A45"/>
</g>
<path d="M107.485 139.549C104.651 139.534 101.82 139.367 99.0075 139.049C97.0661 138.831 95.2934 137.943 94.0606 136.571C92.8278 135.2 92.2305 133.451 92.3936 131.691C92.5567 129.93 93.4677 128.295 94.9358 127.128C96.4039 125.96 98.3153 125.351 100.27 125.427C107.684 125.74 113.714 125.528 117.249 124.819C117.894 124.689 120.092 124.535 121.274 127.971C122.386 131.2 122.225 136.641 118.344 138.059C115.284 139.173 111.366 139.549 107.485 139.549ZM99.9108 128.61C98.8786 128.607 97.8843 128.96 97.1318 129.598C96.3794 130.236 95.926 131.11 95.8647 132.04C95.8034 132.971 96.1388 133.887 96.8021 134.601C97.4655 135.315 98.4064 135.773 99.4317 135.88C107.096 136.718 113.346 136.439 117.017 135.095C117.803 134.81 118.11 133.627 118.209 133.133C118.606 131.125 118.026 128.816 117.502 128.027C112.589 128.909 105.377 128.838 100.104 128.614C100.04 128.611 99.9781 128.61 99.9108 128.61Z" fill="#371A45"/>
<path d="M156.875 136.571C161.999 138.443 169.929 138.051 175.336 137.461C176.106 137.376 176.849 137.153 177.522 136.805C178.195 136.457 178.784 135.99 179.254 135.433C179.724 134.876 180.066 134.239 180.258 133.561C180.451 132.882 180.491 132.176 180.376 131.483C180.167 130.198 179.436 129.029 178.326 128.203C177.216 127.376 175.806 126.952 174.369 127.011C169.311 127.225 161.726 127.325 156.922 126.364" fill="white"/>
<g opacity="0.35">
<path d="M175.337 137.468C169.931 138.056 162.001 138.451 156.875 136.575L156.897 131.678C162.023 133.541 169.94 133.15 175.337 132.558C176.267 132.458 177.156 132.156 177.928 131.676C178.7 131.197 179.331 130.555 179.767 129.807C180.078 130.333 180.285 130.904 180.381 131.495C180.494 132.187 180.453 132.893 180.259 133.571C180.065 134.249 179.723 134.885 179.253 135.441C178.783 135.998 178.195 136.464 177.522 136.812C176.849 137.16 176.106 137.383 175.337 137.468Z" fill="#371A45"/>
</g>
<path d="M167.072 139.549C163.19 139.549 159.273 139.173 156.213 138.055C152.333 136.636 152.174 131.196 153.283 127.966C154.466 124.53 156.663 124.684 157.307 124.814C160.843 125.523 166.873 125.739 174.288 125.422C176.245 125.342 178.16 125.95 179.631 127.118C181.102 128.286 182.015 129.923 182.178 131.685C182.342 133.448 181.743 135.199 180.507 136.571C179.271 137.944 177.495 138.83 175.55 139.046C172.738 139.365 169.907 139.533 167.072 139.549ZM157.541 135.091C161.217 136.436 167.462 136.712 175.126 135.877C176.171 135.77 177.129 135.301 177.796 134.567C178.463 133.834 178.788 132.894 178.7 131.948C178.612 131.002 178.12 130.124 177.327 129.501C176.534 128.878 175.503 128.558 174.453 128.61C169.179 128.833 161.968 128.905 157.06 128.024C156.535 128.812 155.956 131.122 156.354 133.129C156.452 133.623 156.764 134.807 157.545 135.091H157.541Z" fill="#371A45"/>
<path d="M158.857 123V139.351C158.852 140.813 158.206 142.214 157.062 143.247C155.917 144.281 154.365 144.864 152.746 144.868H119.392C117.773 144.863 116.223 144.28 115.079 143.246C113.935 142.213 113.29 140.813 113.285 139.351V123C113.29 121.539 113.935 120.139 115.079 119.106C116.223 118.073 117.774 117.491 119.392 117.487H152.743C154.362 117.49 155.913 118.071 157.059 119.105C158.204 120.138 158.849 121.539 158.854 123H158.857Z" fill="white"/>
<g opacity="0.35">
<path d="M158.858 123.001V139.353C158.853 140.814 158.208 142.214 157.064 143.248C155.919 144.281 154.368 144.864 152.749 144.868H119.394C117.775 144.864 116.224 144.281 115.08 143.248C113.935 142.214 113.29 140.814 113.285 139.353V133.236C118.294 137.848 128.145 140.743 137.179 140.785C140.082 140.799 142.424 138.726 142.631 136.111C142.631 136.085 142.631 136.06 142.638 136.033C142.756 134.856 143.355 133.761 144.318 132.96C145.282 132.16 146.541 131.712 147.85 131.704C149.159 131.696 150.425 132.129 151.4 132.918C152.375 133.707 152.99 134.795 153.125 135.971C157.501 131.096 156.218 122.624 157.608 119.674C158.419 120.629 158.858 121.799 158.858 123.001Z" fill="#371A45"/>
</g>
<path d="M152.747 146.463H119.391C117.303 146.461 115.301 145.711 113.825 144.378C112.348 143.045 111.518 141.238 111.516 139.353V122.995C111.518 121.11 112.348 119.303 113.825 117.97C115.301 116.637 117.303 115.888 119.391 115.886H152.743C154.83 115.888 156.832 116.638 158.308 117.971C159.784 119.303 160.615 121.11 160.618 122.995V139.349C160.616 141.234 159.787 143.042 158.311 144.375C156.836 145.709 154.835 146.459 152.747 146.463ZM119.391 119.081C118.24 119.083 117.137 119.496 116.323 120.23C115.51 120.965 115.052 121.96 115.05 122.999V139.353C115.052 140.392 115.51 141.388 116.323 142.123C117.137 142.857 118.24 143.27 119.391 143.271H152.743C153.893 143.27 154.996 142.857 155.809 142.122C156.623 141.388 157.08 140.392 157.082 139.353V122.995C157.08 121.957 156.623 120.961 155.809 120.226C154.996 119.492 153.893 119.079 152.743 119.077L119.391 119.081Z" fill="#371A45"/>
<path d="M151.611 134.54C153.668 132.683 153.668 129.671 151.611 127.814C149.554 125.957 146.219 125.957 144.162 127.814C142.105 129.671 142.105 132.683 144.162 134.54C146.219 136.397 149.554 136.397 151.611 134.54Z" fill="#22A7F0"/>
<g opacity="0.7">
<path d="M153.155 131.177C153.155 131.497 153.121 131.815 153.052 132.128C152.803 131.058 152.154 130.098 151.215 129.408C150.275 128.719 149.101 128.343 147.89 128.343C146.679 128.343 145.505 128.719 144.565 129.408C143.625 130.098 142.977 131.058 142.728 132.128C142.659 131.815 142.625 131.497 142.625 131.177C142.645 129.928 143.209 128.736 144.195 127.859C145.18 126.982 146.509 126.49 147.893 126.49C149.277 126.49 150.605 126.982 151.591 127.859C152.576 128.736 153.14 129.928 153.16 131.177H153.155Z" fill="white"/>
</g>
<g opacity="0.35">
<path d="M153.153 131.175C153.163 131.806 153.034 132.431 152.774 133.016C152.514 133.601 152.128 134.133 151.638 134.582C151.148 135.031 150.564 135.388 149.92 135.631C149.276 135.874 148.585 136 147.887 136C147.189 136 146.498 135.874 145.854 135.631C145.21 135.388 144.626 135.031 144.136 134.582C143.646 134.133 143.26 133.601 143 133.016C142.74 132.431 142.611 131.806 142.622 131.175C142.619 130.586 142.742 130.001 142.983 129.453C143.367 130.345 144.041 131.112 144.916 131.653C145.791 132.193 146.827 132.483 147.887 132.483C148.947 132.483 149.983 132.193 150.858 131.653C151.733 131.112 152.407 130.345 152.791 129.453C153.032 130.001 153.155 130.586 153.153 131.175Z" fill="#371A45"/>
</g>
<path d="M147.893 137.128C146.589 137.128 145.315 136.779 144.231 136.125C143.147 135.471 142.302 134.541 141.803 133.454C141.304 132.366 141.173 131.169 141.427 130.015C141.682 128.86 142.31 127.8 143.232 126.967C144.154 126.135 145.328 125.568 146.607 125.338C147.886 125.109 149.211 125.226 150.416 125.677C151.62 126.127 152.65 126.89 153.374 127.869C154.099 128.848 154.485 129.999 154.485 131.176C154.483 132.754 153.788 134.267 152.552 135.383C151.316 136.499 149.641 137.126 147.893 137.128ZM147.893 127.618C147.114 127.618 146.352 127.827 145.704 128.218C145.056 128.609 144.551 129.164 144.252 129.814C143.954 130.465 143.876 131.18 144.028 131.87C144.18 132.56 144.555 133.194 145.107 133.692C145.658 134.19 146.36 134.529 147.124 134.666C147.889 134.803 148.681 134.733 149.401 134.463C150.121 134.194 150.737 133.738 151.17 133.153C151.603 132.568 151.834 131.88 151.834 131.176C151.832 130.233 151.417 129.329 150.678 128.662C149.939 127.995 148.938 127.619 147.893 127.618Z" fill="#371A45"/>
<path d="M132.961 146.064C132.787 146.064 132.614 146.033 132.454 145.973C132.293 145.913 132.147 145.825 132.023 145.714C131.9 145.602 131.803 145.47 131.736 145.325C131.67 145.18 131.636 145.024 131.636 144.867V136.18C131.633 135.442 131.442 134.715 131.078 134.055C130.713 133.395 130.184 132.82 129.533 132.375L128.124 131.417C127.145 130.749 126.351 129.885 125.803 128.893C125.255 127.901 124.968 126.808 124.965 125.7V117.486C124.975 117.174 125.119 116.879 125.366 116.662C125.614 116.444 125.946 116.323 126.291 116.323C126.636 116.323 126.967 116.444 127.215 116.662C127.462 116.879 127.606 117.174 127.616 117.486V125.7C127.619 126.438 127.809 127.165 128.174 127.825C128.539 128.485 129.068 129.06 129.719 129.505L131.127 130.463C132.106 131.132 132.9 131.996 133.448 132.988C133.996 133.979 134.283 135.072 134.286 136.18V144.867C134.286 145.024 134.252 145.18 134.186 145.325C134.119 145.47 134.021 145.602 133.898 145.714C133.775 145.825 133.629 145.913 133.468 145.973C133.307 146.033 133.135 146.064 132.961 146.064Z" fill="#371A45"/>
<g opacity="0.35">
<path d="M176.49 95.0473C175.282 96.0604 174.016 97.0198 172.709 97.9195C170.087 99.7351 167.288 101.331 164.345 102.688C154.979 106.986 144.429 108.725 133.985 107.695C123.542 106.665 113.657 102.91 105.539 96.8881C105.417 96.803 105.293 96.7088 105.175 96.6156C100.856 93.3472 97.1277 89.4905 94.125 85.1844C98.4214 86.4076 102.881 87.1031 107.383 87.2522C106.202 84.2472 104.031 80.9444 104.64 79.3122C105.65 76.6223 106.528 74.5089 107.18 73.0166C107.92 71.3125 108.364 70.4209 108.364 70.4209H162.964C162.964 70.4209 163.412 71.2993 164.177 72.9912C164.962 74.7429 166.084 77.3639 167.354 80.8035C168.14 82.9311 168.992 85.3627 169.86 88.087C171.595 89.7455 173.907 92.0848 176.49 95.0473Z" fill="#371A45"/>
</g>
<path d="M191.45 73.3232C191.304 73.3049 191.165 73.2609 191.038 73.1937C190.912 73.1266 190.801 73.0376 190.713 72.9318C190.625 72.826 190.56 72.7055 190.524 72.5773C190.487 72.449 190.479 72.3155 190.499 72.1844L194.988 43.4112C195.03 43.1458 195.187 42.9063 195.425 42.7453C195.662 42.5843 195.96 42.5148 196.255 42.5521C199.333 42.9438 202.112 44.4233 203.982 46.6652C205.852 48.9072 206.66 51.7279 206.227 54.5071L204.696 64.3184C204.482 65.6952 203.969 67.0204 203.187 68.2183C202.406 69.4161 201.37 70.4631 200.14 71.2994C198.91 72.1357 197.509 72.7448 196.018 73.0921C194.527 73.4393 192.974 73.5179 191.45 73.3232Z" fill="white"/>
<path d="M193.092 73.7383C192.527 73.7384 191.962 73.7029 191.403 73.632C191.212 73.6081 191.029 73.5505 190.864 73.4626C190.698 73.3746 190.553 73.258 190.438 73.1195C190.322 72.9809 190.238 72.8231 190.19 72.6551C190.143 72.4871 190.132 72.3123 190.159 72.1406L194.648 43.3675C194.675 43.1962 194.738 43.0313 194.836 42.8823C194.933 42.7333 195.062 42.6031 195.216 42.4991C195.369 42.3952 195.543 42.3195 195.729 42.2764C195.914 42.2333 196.107 42.2236 196.297 42.248C197.866 42.4473 199.376 42.9237 200.741 43.65C202.106 44.3763 203.3 45.3382 204.253 46.4809C205.206 47.6236 205.901 48.9247 206.297 50.3098C206.694 51.6949 206.784 53.1369 206.563 54.5535L205.033 64.3658C204.623 66.9631 203.19 69.3402 200.997 71.0615C198.805 72.7828 195.998 73.7331 193.092 73.7383ZM196.092 42.8558C195.906 42.8557 195.726 42.9164 195.586 43.0267C195.446 43.1369 195.354 43.2893 195.329 43.4556L190.84 72.2288C190.826 72.3195 190.832 72.4119 190.857 72.5007C190.883 72.5894 190.927 72.6728 190.988 72.746C191.049 72.8192 191.126 72.8808 191.213 72.9273C191.301 72.9738 191.397 73.0043 191.498 73.017C194.485 73.3939 197.516 72.6854 199.925 71.047C202.335 69.4085 203.926 66.974 204.349 64.2776L205.88 54.4654C206.299 51.7675 205.515 49.0298 203.7 46.8532C201.886 44.6767 199.189 43.239 196.202 42.8558C196.165 42.8538 196.128 42.8538 196.092 42.8558Z" fill="#371A45"/>
<g opacity="0.35">
<path d="M205.407 59.7185L204.69 64.3202C204.256 67.0991 202.617 69.6087 200.134 71.2972C197.651 72.9857 194.528 73.7151 191.449 73.325C191.156 73.2866 190.891 73.1449 190.713 72.931C190.535 72.7171 190.458 72.4482 190.499 72.1831L191.689 64.534C191.749 64.7206 191.867 64.8878 192.029 65.0157C192.191 65.1436 192.39 65.2268 192.603 65.2553L193.359 65.3495C195.766 65.6554 198.219 65.2777 200.378 64.2687C202.536 63.2598 204.294 61.6696 205.407 59.7185Z" fill="#371A45"/>
</g>
<path d="M193.093 75.1591C192.455 75.159 191.817 75.1183 191.185 75.0375C190.791 74.9878 190.411 74.8682 190.067 74.6856C189.723 74.503 189.423 74.2611 189.183 73.9735C188.944 73.686 188.769 73.3586 188.67 73.01C188.57 72.6615 188.548 72.2987 188.605 71.9423L193.093 43.1692C193.148 42.8128 193.28 42.4698 193.483 42.1597C193.685 41.8496 193.953 41.5786 194.271 41.3621C194.589 41.1457 194.952 40.988 195.338 40.8983C195.724 40.8085 196.125 40.7884 196.52 40.839C198.293 41.0643 200 41.6028 201.543 42.4239C203.086 43.2449 204.435 44.3324 205.512 45.6241C206.59 46.9159 207.375 48.3866 207.823 49.9523C208.271 51.5181 208.372 53.1481 208.122 54.7494L206.593 64.5616C205.631 70.7043 199.777 75.1581 193.093 75.1591ZM192.514 71.682C194.97 71.809 197.39 71.0986 199.294 69.6914C201.197 68.2841 202.446 66.2827 202.793 64.0834L204.323 54.2712C204.663 52.0706 204.075 49.8349 202.676 48.0069C201.277 46.179 199.169 44.8921 196.769 44.4012L192.514 71.682Z" fill="#371A45"/>
<path d="M91.0627 29.1788C91.3556 29.2172 91.6198 29.3585 91.7978 29.572C91.9758 29.7855 92.0532 30.0538 92.0131 30.3185L87.5247 59.0917C87.4824 59.3563 87.326 59.5951 87.0896 59.756C86.8531 59.917 86.5558 59.987 86.2624 59.9508C83.1842 59.5593 80.4043 58.0799 78.5342 55.8379C76.6641 53.596 75.857 50.7751 76.2903 47.9958L77.8197 38.1846C78.0341 36.808 78.5468 35.4831 79.3284 34.2855C80.11 33.0879 81.1452 32.0411 82.375 31.2048C83.6048 30.3685 85.005 29.7591 86.4957 29.4115C87.9863 29.0638 89.5382 28.9848 91.0627 29.1788Z" fill="white"/>
<path d="M86.4203 60.2705C86.3517 60.2705 86.2831 60.2665 86.215 60.2584C84.646 60.0589 83.1358 59.5824 81.7708 58.856C80.4058 58.1296 79.2126 57.1675 78.2594 56.0247C77.3062 54.8819 76.6116 53.5808 76.2154 52.1956C75.8191 50.8105 75.729 49.3684 75.95 47.9518L77.4794 38.1395C77.7007 36.7227 78.2289 35.359 79.034 34.1265C79.8391 32.894 80.9052 31.8168 82.1715 30.9564C83.4377 30.096 84.8793 29.4693 86.4139 29.1121C87.9485 28.7548 89.546 28.674 91.1152 28.8744C91.4969 28.9245 91.8411 29.1092 92.0724 29.3879C92.3038 29.6667 92.4034 30.0168 92.3495 30.3617L87.8611 59.1348C87.8116 59.4486 87.6389 59.7359 87.3744 59.9444C87.11 60.1529 86.7714 60.2686 86.4203 60.2705ZM89.404 29.3809C86.665 29.3871 84.0203 30.2848 81.9552 31.9095C79.8901 33.5341 78.5432 35.7767 78.1617 38.2256L76.6323 48.0379C76.4237 49.3737 76.5087 50.7335 76.8823 52.0397C77.2559 53.3459 77.9108 54.5728 78.8096 55.6504C79.7084 56.728 80.8336 57.6352 82.1208 58.3201C83.4079 59.0051 84.832 59.4544 86.3115 59.6424C86.412 59.6554 86.5144 59.6503 86.6128 59.6275C86.7111 59.6047 86.8035 59.5645 86.8846 59.5094C86.9658 59.4542 87.034 59.3851 87.0855 59.306C87.1369 59.227 87.1706 59.1395 87.1845 59.0487L91.6729 30.2755C91.6876 30.1844 91.6823 30.0915 91.6571 30.0022C91.6319 29.9129 91.5875 29.829 91.5262 29.7552C91.465 29.6815 91.3883 29.6194 91.3004 29.5726C91.2125 29.5257 91.1153 29.495 91.0142 29.4823C90.4807 29.4149 89.9427 29.381 89.404 29.3809Z" fill="#371A45"/>
<g opacity="0.35">
<path d="M88.7739 51.1116L87.5261 59.0941C87.4836 59.3589 87.3267 59.5978 87.0898 59.7586C86.8528 59.9193 86.5551 59.989 86.2615 59.9522C84.7373 59.7585 83.2704 59.2956 81.9443 58.5899C80.6183 57.8843 79.4593 56.9497 78.5334 55.8395C77.6074 54.7293 76.9328 53.4654 76.548 52.1198C76.1631 50.7742 76.0757 49.3733 76.2905 47.9972L76.9357 43.8625C77.5712 45.8139 78.8157 47.5587 80.5205 48.8883C82.2253 50.2178 84.3181 51.0759 86.5488 51.3598L87.7124 51.5067C87.9123 51.5327 88.1163 51.5097 88.303 51.4402C88.4897 51.3707 88.6524 51.2572 88.7739 51.1116Z" fill="#371A45"/>
</g>
<path d="M86.4195 61.6914C86.2776 61.6912 86.1358 61.6821 85.9953 61.664C82.4142 61.208 79.1802 59.4864 77.0048 56.8777C74.8294 54.2691 73.8907 50.9871 74.3951 47.7536L75.9256 37.9424C76.1753 36.3411 76.7718 34.7999 77.6812 33.4067C78.5906 32.0136 79.7949 30.7958 81.2256 29.8229C82.6562 28.8501 84.285 28.1411 86.0191 27.7367C87.7532 27.3322 89.5585 27.24 91.332 27.4655C91.7267 27.5152 92.1067 27.6348 92.4501 27.8173C92.7935 27.9998 93.0937 28.2417 93.3335 28.5291C93.5732 28.8165 93.7478 29.1438 93.8472 29.4922C93.9466 29.8407 93.9689 30.2034 93.9129 30.5596L89.4245 59.3328C89.3216 59.9865 88.9611 60.5849 88.4092 61.0181C87.8573 61.4513 87.1508 61.6904 86.4195 61.6914ZM89.4065 30.8048C87.0465 30.81 84.7677 31.5834 82.9882 32.983C81.2086 34.3826 80.0477 36.3146 79.7183 38.4246L78.1878 48.2359C77.8449 50.4371 78.4314 52.6742 79.8308 54.503C81.2302 56.3319 83.3402 57.6187 85.7417 58.1079L89.9979 30.821C89.8004 30.8099 89.6029 30.8048 89.4065 30.8048Z" fill="#371A45"/>
<path d="M141.263 100.768C171.551 100.768 196.105 78.599 196.105 51.252C196.105 23.905 171.551 1.73584 141.263 1.73584C110.975 1.73584 86.4219 23.905 86.4219 51.252C86.4219 78.599 110.975 100.768 141.263 100.768Z" fill="white"/>
<path d="M141.272 101.084C137.387 101.081 133.513 100.707 129.714 99.9695C99.9551 94.2219 80.9299 67.6878 87.299 40.8224C93.668 13.957 123.056 -3.22277 152.814 2.53287C182.572 8.28851 201.594 34.8196 195.229 61.686C189.685 85.0469 166.734 101.084 141.272 101.084ZM141.248 2.0415C116.103 2.0415 93.4469 17.8779 87.97 40.9521C81.6862 67.4832 100.469 93.687 129.852 99.3667C159.236 105.046 188.259 88.0823 194.549 61.5513C200.84 35.0202 182.054 8.81433 152.669 3.14075C148.916 2.41253 145.089 2.04407 141.251 2.0415H141.248Z" fill="#371A45"/>
<g opacity="0.35">
<path d="M195.964 54.8127C195.781 57.0999 195.423 59.3728 194.89 61.6149C188.545 88.3547 159.399 105.392 129.782 99.6704C100.165 93.9492 81.2973 67.6299 87.6361 40.8891C87.8179 40.1201 88.021 39.3542 88.2409 38.6045C86.266 62.8722 104.362 85.3487 131.461 90.5866C160.226 96.1487 188.543 80.2344 195.964 54.8127Z" fill="#371A45"/>
</g>
<path d="M141.274 102.504C137.276 102.503 133.289 102.12 129.38 101.363C98.7801 95.448 79.213 68.156 85.7638 40.5257C92.3146 12.8954 122.543 -4.77374 153.145 1.14097C183.747 7.05567 203.315 34.3456 196.764 61.9789C191.067 86.0096 167.462 102.504 141.274 102.504ZM141.25 3.46106C116.831 3.46106 94.8225 18.8405 89.5094 41.2511C83.4018 67.0163 101.648 92.4643 130.183 97.9798C158.718 103.495 186.905 87.0207 193.014 61.2556C199.123 35.4904 180.884 10.0414 152.342 4.52587C148.698 3.81954 144.981 3.46263 141.253 3.46106H141.25Z" fill="#371A45"/>
<path d="M194.423 62.827C192.336 72.3312 186.981 80.5438 179.533 86.7979C173.949 91.4867 153.837 97.8411 131.556 94.0398C110.898 90.5141 94.316 77.2278 91.1371 70.9706C86.8967 62.6234 85.4144 53.187 87.506 43.6827C93.0301 18.5316 119.254 12.3899 148.779 17.6775C178.305 22.965 199.948 37.6758 194.423 62.827Z" fill="#371A45"/>
<g opacity="0.5">
<path d="M184.349 58.6299C186.313 54.1269 184.975 49.435 181.361 48.1504C177.747 46.8658 173.226 49.4748 171.262 53.9779C169.299 58.4809 170.637 63.1727 174.25 64.4574C177.864 65.742 182.385 63.1329 184.349 58.6299Z" fill="white"/>
</g>
<g opacity="0.5">
<path d="M168.938 73.5113C170.147 71.5766 169.636 69.2488 167.797 68.3121C165.958 67.3754 163.488 68.1845 162.279 70.1192C161.07 72.0539 161.581 74.3817 163.42 75.3184C165.258 76.2551 167.729 75.446 168.938 73.5113Z" fill="white"/>
</g>
<g opacity="0.35">
<path d="M189.179 37.5032C194.478 44.3044 196.64 52.7256 194.423 62.8316C192.334 72.3339 186.978 80.5464 179.537 86.8005C173.952 91.4883 153.841 97.8437 131.556 94.0424C123.689 92.702 116.417 89.9443 110.246 86.6951C137.738 90.8389 162.266 83.0103 169.19 77.1939C178.643 69.256 185.439 58.8328 188.086 46.7714C188.769 43.7194 189.135 40.6165 189.179 37.5032Z" fill="#111A28"/>
</g>
<path d="M194.669 41.486C194.418 41.4862 194.171 41.4366 193.944 41.3406C193.718 41.2446 193.517 41.1047 193.357 40.9308L193.21 40.7758L193.109 40.5732C186.604 27.5574 170.624 17.9042 149.255 14.0826C127.769 10.2327 108.885 13.8699 97.4456 24.0519L97.3143 24.1532C96.9721 24.4199 96.5265 24.5529 96.0757 24.523C95.6248 24.4931 95.2056 24.3027 94.9102 23.9937C94.6149 23.6846 94.4675 23.2824 94.5007 22.8753C94.5338 22.4682 94.7447 22.0897 95.087 21.823C107.347 10.9419 127.328 7.01395 149.918 11.0594C172.341 15.0755 189.192 25.3447 196.177 39.2328C196.313 39.4672 196.38 39.7294 196.372 39.9941C196.363 40.2587 196.279 40.5169 196.127 40.7435C195.975 40.9701 195.761 41.1575 195.506 41.2876C195.25 41.4177 194.962 41.486 194.669 41.486Z" fill="#371A45"/>
<g opacity="0.5">
<path d="M96.224 60.7954C96.224 60.7954 93.0462 34.4386 110.026 27.2038C127.005 19.969 148.306 23.823 147.538 24.9678C147.538 24.9678 122.816 25.8999 109.888 41.0848C99.9213 52.7947 96.224 60.7954 96.224 60.7954Z" fill="white"/>
</g>
<path d="M181.152 212.989C181.901 212.989 182.508 212.442 182.508 211.766C182.508 211.09 181.901 210.542 181.152 210.542C180.404 210.542 179.797 211.09 179.797 211.766C179.797 212.442 180.404 212.989 181.152 212.989Z" fill="#371A45"/>
<g opacity="0.3">
<path d="M151.262 155.653C151.262 155.653 170.13 149.713 185.741 164.037C200.087 177.201 183.319 190.188 183.319 190.188C183.319 190.188 188.481 208.127 175.07 210.427C163.684 212.38 153.394 202.444 154.709 190.15C155.791 180.041 158.249 180.983 157.344 175.439C156.318 169.157 141.498 167.748 141.498 167.748H135.923C135.923 167.748 121.103 169.166 120.078 175.439C119.172 180.983 121.63 180.041 122.711 190.15C124.026 202.444 113.735 212.38 102.352 210.427C88.935 208.127 94.1023 190.188 94.1023 190.188C94.1023 190.188 77.3314 177.197 91.6786 164.037C107.289 149.713 126.157 155.653 126.157 155.653H151.262Z" fill="#371A45"/>
</g>
<path d="M153.913 150.463C153.913 150.463 176.775 138.43 195.69 155.788C213.074 171.737 192.756 187.475 192.756 187.475C192.756 187.475 199.017 209.211 182.76 212C168.958 214.365 156.496 202.325 158.09 187.429C159.4 175.18 162.378 176.321 161.281 169.598C160.039 161.992 142.081 160.277 142.081 160.277H135.325C135.325 160.277 117.371 161.99 116.124 169.598C115.027 176.316 118.006 175.17 119.317 187.429C120.91 202.322 108.443 214.365 94.6463 212C78.3893 209.211 84.6506 187.475 84.6506 187.475C84.6506 187.475 64.3328 171.737 81.7152 155.788C100.63 138.43 123.493 150.463 123.493 150.463" fill="white"/>
<g opacity="0.35">
<path d="M191.543 207.158C189.867 209.429 187.126 211.255 182.767 212C168.965 214.367 156.502 202.323 158.095 187.429C159.406 175.179 162.383 176.32 161.287 169.604C160.044 161.998 142.084 160.284 142.084 160.284H135.325C135.325 160.284 117.372 161.996 116.126 169.604C115.027 176.32 118.008 175.177 119.319 187.429C120.913 202.322 108.445 214.367 94.647 212C90.2888 211.255 87.5464 209.429 85.8711 207.158C85.9912 207.18 86.1112 207.201 86.2313 207.218C102.664 209.78 117.514 197.074 115.618 180.939C114.053 167.675 110.505 168.911 111.815 161.633C113.294 153.397 134.681 151.542 134.681 151.542H142.731C142.731 151.542 164.12 153.397 165.597 161.633C166.904 168.911 163.353 167.675 161.796 180.939C159.899 197.074 174.748 209.78 191.181 207.218C191.298 207.201 191.418 207.18 191.543 207.158Z" fill="#371A45"/>
</g>
<path d="M153.616 150.003C156.667 148.11 160.062 146.828 163.626 145.951C165.417 145.515 167.242 145.204 169.085 145.02C170.946 144.857 172.818 144.823 174.684 144.919C176.559 145.013 178.421 145.303 180.258 145.682C182.095 146.061 183.873 146.659 185.617 147.303C189.064 148.698 192.221 150.615 195.008 152.852C197.772 155.071 200.27 157.733 202.065 160.81C202.95 162.371 203.617 164.026 204.05 165.736C204.447 167.463 204.574 169.23 204.429 170.989C204.145 174.498 202.811 177.827 200.944 180.767C200.01 182.234 198.951 183.634 197.778 184.954C197.191 185.608 196.589 186.252 195.949 186.867C195.632 187.177 195.307 187.48 194.972 187.778C194.636 188.076 194.314 188.36 193.907 188.683L194.468 187.07C194.792 188.263 195.009 189.363 195.203 190.515C195.397 191.667 195.528 192.806 195.613 193.959C195.805 196.298 195.716 198.648 195.347 200.969C195.142 202.16 194.831 203.333 194.418 204.478C193.975 205.653 193.39 206.78 192.675 207.839C191.91 208.912 190.98 209.882 189.915 210.721C188.822 211.535 187.605 212.203 186.3 212.703C185.021 213.163 183.687 213.487 182.325 213.669C181.662 213.779 180.985 213.807 180.314 213.863C179.641 213.87 178.962 213.905 178.287 213.856C176.937 213.801 175.596 213.618 174.288 213.308C172.981 213.012 171.711 212.596 170.498 212.067C165.63 209.978 161.797 206.319 159.389 202.103C156.976 197.87 155.93 193.06 156.247 188.354C156.32 187.156 156.485 186.059 156.626 184.92L156.896 183.221L157.232 181.522C157.493 180.391 157.771 179.254 158.142 178.138C158.495 177.024 158.936 175.926 159.264 174.946C159.591 174.034 159.754 173.081 159.747 172.122C159.752 171.876 159.742 171.629 159.718 171.384C159.7 171.134 159.687 170.886 159.645 170.627L159.54 169.856C159.487 169.653 159.457 169.463 159.393 169.269C158.891 167.741 157.262 166.391 155.317 165.407C153.366 164.408 151.138 163.685 148.863 163.11C146.58 162.545 144.255 162.128 141.906 161.865L142.091 161.873H135.326L135.512 161.865C133.161 162.128 130.834 162.544 128.549 163.11C126.272 163.682 124.045 164.408 122.094 165.407C120.146 166.391 118.521 167.737 118.018 169.269C117.954 169.463 117.925 169.651 117.87 169.856L117.766 170.627C117.723 170.886 117.711 171.133 117.694 171.384C117.669 171.629 117.659 171.876 117.664 172.122C117.657 173.081 117.821 174.034 118.147 174.946C118.478 175.926 118.919 177.025 119.269 178.138C119.64 179.253 119.919 180.391 120.179 181.522L120.516 183.221L120.784 184.92C120.927 186.059 121.091 187.156 121.165 188.354C121.483 193.06 120.438 197.87 118.023 202.103C115.613 206.319 111.779 209.978 106.914 212.067C105.7 212.598 104.429 213.016 103.121 213.314C101.813 213.624 100.473 213.807 99.1221 213.862C98.4489 213.911 97.7756 213.876 97.0956 213.869C96.4224 213.813 95.7491 213.785 95.0848 213.675C93.7246 213.493 92.3924 213.168 91.1148 212.709C89.811 212.209 88.594 211.541 87.5017 210.727C86.4357 209.889 85.506 208.919 84.7402 207.846C84.0252 206.786 83.4412 205.659 82.9987 204.484C82.5848 203.339 82.2741 202.166 82.0696 200.975C81.6988 198.655 81.6089 196.304 81.8014 193.966C81.8859 192.809 82.0228 191.661 82.2121 190.521C82.4051 189.368 82.6228 188.268 82.946 187.076L83.507 188.689C83.0986 188.366 82.7844 188.09 82.4421 187.784C82.0999 187.478 81.7823 187.177 81.4637 186.873C80.8241 186.258 80.2215 185.614 79.6346 184.959C78.462 183.639 77.4037 182.24 76.4692 180.773C74.6054 177.835 73.2622 174.505 72.9907 170.995C72.8516 169.237 72.9857 167.471 73.389 165.747C73.8275 164.041 74.5 162.391 75.3909 160.835C77.2053 157.775 79.7143 155.138 82.4893 152.944C85.2676 150.715 88.3926 148.775 91.8307 147.379C95.2487 145.961 98.9583 145.049 102.715 144.804C104.589 144.69 106.469 144.711 108.339 144.868C110.192 145.04 112.028 145.341 113.83 145.768C115.613 146.208 117.353 146.778 119.034 147.474C120.708 148.183 122.305 148.974 123.795 150.006C123.908 150.084 123.987 150.195 124.017 150.321C124.047 150.446 124.026 150.577 123.958 150.69C123.89 150.803 123.78 150.89 123.647 150.935C123.514 150.981 123.367 150.981 123.234 150.938L123.198 150.926C119.924 149.899 116.56 149.124 113.141 148.612C111.457 148.359 109.757 148.22 108.069 148.121C107.223 148.112 106.379 148.066 105.537 148.1C105.116 148.111 104.694 148.11 104.275 148.129L103.018 148.211C99.6716 148.457 96.3908 149.187 93.3018 150.375C91.7552 150.977 90.2698 151.699 88.8628 152.534C87.4389 153.365 86.0918 154.298 84.8345 155.324C82.2536 157.361 80.0734 159.699 78.5182 162.315C77.772 163.619 77.2067 165 76.835 166.428C76.5032 167.855 76.3933 169.317 76.5085 170.771C76.7329 173.69 77.8651 176.567 79.5303 179.193C80.3731 180.514 81.3271 181.775 82.3838 182.965C82.9168 183.56 83.4655 184.144 84.0445 184.701C84.3318 184.981 84.6246 185.256 84.922 185.522C85.2193 185.789 85.5391 186.064 85.7995 186.271L86.6208 186.921L86.3594 187.884C86.0968 188.853 85.8746 189.946 85.7007 190.994C85.5268 192.042 85.3989 193.122 85.3214 194.184C85.1461 196.289 85.224 198.405 85.5537 200.494C85.7279 201.504 85.9906 202.5 86.3392 203.473C86.6928 204.406 87.1559 205.303 87.7205 206.148C88.2944 206.946 88.9868 207.67 89.7784 208.299C90.5924 208.9 91.4959 209.395 92.4625 209.769C93.4767 210.128 94.533 210.383 95.6111 210.526C96.1621 210.621 96.7197 210.638 97.2752 210.687C97.8362 210.687 98.3894 210.725 98.9449 210.68C100.06 210.636 101.167 210.484 102.246 210.226C103.332 209.981 104.387 209.635 105.395 209.195C109.462 207.453 112.783 204.325 114.883 200.648C116.985 196.956 117.913 192.725 117.633 188.549C117.574 187.523 117.409 186.413 117.278 185.34L117.023 183.734L116.713 182.145C116.471 181.098 116.217 180.06 115.878 179.042C115.54 178.024 115.151 177.016 114.756 175.872C114.331 174.66 114.118 173.395 114.125 172.123C114.113 171.804 114.138 171.5 114.161 171.194C114.183 170.888 114.201 170.58 114.247 170.29L114.368 169.402C114.443 169.065 114.514 168.701 114.626 168.363C115.087 166.988 115.985 165.812 117.002 164.891C118.018 163.969 119.17 163.247 120.337 162.643C122.682 161.447 125.135 160.665 127.602 160.043C130.073 159.428 132.592 158.979 135.136 158.699L135.216 158.69H142.182L142.262 158.699C144.807 158.98 147.325 159.429 149.796 160.043C152.265 160.665 154.717 161.447 157.062 162.643C158.229 163.251 159.374 163.96 160.397 164.891C161.419 165.821 162.304 166.988 162.771 168.363C162.883 168.701 162.955 169.065 163.03 169.402L163.15 170.29C163.197 170.58 163.215 170.888 163.237 171.194C163.258 171.5 163.284 171.802 163.274 172.123C163.28 173.395 163.067 174.66 162.642 175.872C162.251 177.021 161.849 178.015 161.52 179.042C161.191 180.069 160.927 181.098 160.686 182.145L160.375 183.734L160.122 185.34C159.988 186.413 159.826 187.523 159.765 188.549C159.481 192.725 160.413 196.958 162.516 200.648C164.616 204.325 167.936 207.453 172.005 209.195C173.015 209.636 174.072 209.981 175.16 210.226C176.238 210.483 177.344 210.634 178.458 210.677C179.013 210.722 179.571 210.686 180.128 210.684C180.689 210.635 181.241 210.618 181.792 210.523C182.868 210.379 183.922 210.125 184.934 209.765C185.9 209.392 186.804 208.897 187.619 208.296C188.41 207.667 189.103 206.943 189.677 206.145C190.241 205.3 190.704 204.403 191.057 203.47C191.406 202.497 191.669 201.501 191.842 200.491C192.172 198.402 192.251 196.286 192.076 194.181C191.998 193.117 191.87 192.054 191.697 190.991C191.523 189.928 191.3 188.85 191.037 187.881L190.775 186.918L191.597 186.268C191.858 186.065 192.186 185.779 192.474 185.519C192.763 185.259 193.065 184.978 193.353 184.698C193.932 184.142 194.475 183.557 195.012 182.962C196.069 181.773 197.023 180.512 197.866 179.19C199.529 176.564 200.671 173.687 200.883 170.767C200.992 169.314 200.875 167.854 200.536 166.43C200.16 165.007 199.59 163.63 198.84 162.332C197.269 159.735 195.064 157.43 192.488 155.403C189.969 153.382 187.133 151.707 184.072 150.433C181.005 149.19 177.736 148.403 174.391 148.103C171.038 147.788 167.612 147.935 164.216 148.431C160.789 148.936 157.433 149.772 154.204 150.925L154.163 150.94C154.029 150.988 153.879 150.99 153.742 150.945C153.606 150.9 153.492 150.812 153.424 150.696C153.355 150.58 153.337 150.446 153.371 150.319C153.405 150.191 153.49 150.08 153.61 150.005L153.616 150.003Z" fill="#371A45"/>
<path d="M193.429 188.959L192.212 189.308C191.764 189.423 191.315 189.528 190.857 189.606C189.959 189.768 189.048 189.862 188.134 189.887C186.364 189.925 184.595 189.769 182.868 189.422C181.197 189.067 179.563 188.586 177.982 187.984C177.196 187.704 176.441 187.345 175.677 187.031C174.93 186.679 174.196 186.307 173.461 185.95C174.258 186.187 175.046 186.435 175.841 186.659C176.65 186.845 177.439 187.076 178.251 187.223C179.847 187.55 181.47 187.756 183.104 187.839C184.687 187.902 186.272 187.791 187.825 187.508C188.57 187.368 189.301 187.171 190.01 186.919C190.36 186.799 190.696 186.658 191.031 186.514L192.126 185.993C192.54 185.817 193.013 185.792 193.447 185.924C193.881 186.055 194.242 186.332 194.455 186.697C194.668 187.063 194.717 187.488 194.591 187.886C194.466 188.283 194.176 188.621 193.781 188.83C193.691 188.873 193.598 188.909 193.502 188.937L193.429 188.959Z" fill="#371A45"/>
<path d="M85.4624 185.991L86.5575 186.512C86.8942 186.659 87.2308 186.8 87.5786 186.917C88.2868 187.169 89.0173 187.366 89.7623 187.506C91.3145 187.788 92.8989 187.899 94.4807 187.836C96.1146 187.753 97.7379 187.547 99.3338 187.22C100.145 187.073 100.935 186.842 101.744 186.656C102.537 186.431 103.326 186.183 104.124 185.947C103.389 186.304 102.655 186.676 101.907 187.028C101.143 187.342 100.392 187.701 99.6031 187.981C98.0216 188.583 96.387 189.064 94.7163 189.419C92.9884 189.766 91.22 189.922 89.4503 189.884C88.5358 189.859 87.6252 189.765 86.7281 189.603C86.2725 189.525 85.8203 189.42 85.3715 189.305L84.1574 188.959L84.0934 188.941C83.6464 188.81 83.2749 188.525 83.06 188.148C82.8452 187.77 82.8045 187.332 82.9469 186.927C83.0892 186.523 83.4031 186.186 83.8198 185.99C84.2365 185.794 84.7222 185.755 85.1706 185.882C85.2711 185.911 85.3687 185.948 85.4624 185.991Z" fill="#371A45"/>
<path d="M201.934 175.853C201.736 175.852 201.541 175.812 201.363 175.735C201.185 175.658 201.028 175.546 200.903 175.408C200.779 175.269 200.69 175.107 200.644 174.934C200.598 174.76 200.595 174.58 200.635 174.405C201.246 171.831 200.802 170.005 199.275 168.824C192.949 163.922 170.213 170.183 161.988 173.01C161.66 173.123 161.295 173.113 160.974 172.983C160.653 172.853 160.403 172.614 160.278 172.317C160.153 172.02 160.164 171.691 160.308 171.401C160.452 171.112 160.717 170.886 161.046 170.773C164.223 169.681 192.344 160.299 201.002 167.006C203.3 168.787 204.05 171.445 203.229 174.909C203.164 175.176 203.001 175.415 202.765 175.587C202.53 175.758 202.236 175.852 201.934 175.853Z" fill="#371A45"/>
<path d="M76.008 175.853C75.705 175.852 75.4113 175.758 75.1757 175.586C74.9401 175.414 74.7769 175.174 74.7131 174.907C73.8917 171.445 74.6413 168.787 76.9394 167.004C85.5975 160.297 113.718 169.679 116.896 170.771C117.059 170.827 117.208 170.911 117.334 171.019C117.461 171.127 117.563 171.256 117.634 171.399C117.705 171.543 117.745 171.697 117.75 171.855C117.755 172.012 117.726 172.168 117.664 172.315C117.602 172.462 117.509 172.596 117.389 172.711C117.27 172.825 117.126 172.917 116.968 172.981C116.809 173.046 116.638 173.081 116.464 173.086C116.29 173.09 116.116 173.064 115.954 173.008C107.726 170.182 84.9837 163.922 78.6663 168.822C77.1402 170.005 76.6959 171.829 77.3108 174.405C77.3515 174.58 77.3486 174.76 77.3022 174.934C77.2559 175.107 77.1674 175.269 77.043 175.408C76.9187 175.546 76.7617 175.658 76.5834 175.735C76.4051 175.812 76.2101 175.852 76.0125 175.853H76.008Z" fill="#371A45"/>
</svg>
