<svg width="284" height="329" viewBox="0 0 284 329" fill="none" xmlns="http://www.w3.org/2000/svg">
<path d="M160.609 188.983C160.176 188.983 159.761 188.857 159.455 188.634C159.149 188.41 158.977 188.107 158.977 187.791V99.3165C158.977 99.0005 159.149 98.6974 159.455 98.474C159.761 98.2505 160.176 98.125 160.609 98.125C161.042 98.125 161.457 98.2505 161.763 98.474C162.069 98.6974 162.241 99.0005 162.241 99.3165V187.791C162.241 188.107 162.069 188.41 161.763 188.634C161.457 188.857 161.042 188.983 160.609 188.983Z" fill="#371A45"/>
<path d="M89.4961 225.068C89.4961 225.068 49.3084 232.715 47.8738 244.223C46.6248 254.259 61.6935 288.099 70.5465 291.816C77.0036 294.526 96.4663 289.555 96.4663 289.555L89.4961 225.068Z" fill="white"/>
<g opacity="0.35">
<path d="M47.8086 246.103C48.2727 257.912 62.1879 288.305 70.5449 291.817C77.002 294.527 96.4634 289.555 96.4634 289.555L93.3728 276.392C93.3728 276.392 73.9114 281.365 67.4543 278.653C61.4175 276.119 52.4837 259.556 47.8086 246.103Z" fill="#371A45"/>
</g>
<path d="M78.5709 293.736C74.397 293.736 70.1966 293.079 66.7122 291.199C57.0875 286.01 45.071 254.367 45.8957 244.139C46.678 234.362 71.2388 228.339 72.2809 228.086C72.7818 227.966 73.3279 227.995 73.799 228.168C74.27 228.342 74.6275 228.644 74.7928 229.01C74.9581 229.376 74.9176 229.775 74.6803 230.118C74.4429 230.462 74.0282 230.723 73.5272 230.844C67.1166 232.395 50.3812 237.815 49.8601 244.308C49.0765 254.103 61.3397 284.692 69.0749 288.864C78.4887 293.94 95.8738 287.648 96.0488 287.584C96.5204 287.411 97.0668 287.382 97.568 287.503C98.0692 287.624 98.484 287.885 98.7211 288.229C98.9583 288.574 98.9985 288.972 98.8327 289.338C98.667 289.704 98.309 290.007 97.8374 290.18C97.2819 290.381 87.998 293.736 78.5709 293.736Z" fill="#371A45"/>
<path d="M135.761 228.801C135.761 228.801 134.007 239.183 140.171 232.063C145.797 225.561 152.8 214.72 158.981 197.042C159.033 196.898 159.085 196.751 159.138 196.607C159.138 196.607 161.922 196.429 165.336 195.183C173.386 192.246 171.662 180.801 170.109 176.91C168.281 172.325 163.957 173.563 163.957 173.563C162.442 171.75 159.449 170.787 154.411 170.843C144.948 170.939 143.02 176.529 143.02 176.529C134.337 195.589 123.77 207.335 117.473 213.186C114.145 216.292 112.016 217.735 112.016 217.735L135.761 228.801Z" fill="white"/>
<g opacity="0.35">
<path d="M135.757 228.801C135.757 228.801 134.003 239.182 140.167 232.063C145.793 225.56 152.796 214.719 158.977 197.041C156.905 196.674 153.855 195.976 152.246 194.933C148.218 192.305 147.488 186.25 147.488 186.25C145.822 192.089 147.488 195.508 149.433 197.434C151.528 199.504 152.17 202.177 150.949 204.597C149.172 208.107 146.933 211.927 143.391 214.395C135.242 220.06 123.882 217.521 117.481 213.186C114.153 216.292 112.023 217.735 112.023 217.735L135.757 228.801Z" fill="#371A45"/>
</g>
<g opacity="0.35">
<path d="M161.949 196.166C161.949 196.166 154.601 198.126 149.707 190.016C149.707 190.016 152.533 191.046 159.5 190.785C166.419 190.526 171.112 185.719 171.112 185.719C171.112 185.719 171.592 194.458 161.949 196.166Z" fill="#371A45"/>
</g>
<path d="M113.024 217.893C112.607 217.893 112.2 217.801 111.857 217.628C111.514 217.455 111.251 217.21 111.104 216.925C110.957 216.64 110.933 216.329 111.034 216.034C111.135 215.739 111.358 215.473 111.671 215.273C111.91 215.117 128.169 204.359 141.044 176.106C141.887 173.776 145.715 169.44 154.371 169.345C159.263 169.296 162.681 170.131 164.821 171.909C167.056 173.769 167.738 176.47 166.942 180.414C166.165 184.305 162.555 187.03 158.553 186.758C154.875 186.506 151.096 183.597 151.526 176.185C151.534 175.987 151.596 175.792 151.708 175.612C151.82 175.431 151.98 175.269 152.179 175.134C152.378 174.999 152.611 174.895 152.866 174.826C153.12 174.758 153.391 174.727 153.662 174.735C153.933 174.743 154.199 174.791 154.444 174.875C154.69 174.959 154.91 175.078 155.093 175.224C155.275 175.371 155.416 175.543 155.506 175.729C155.597 175.916 155.636 176.114 155.622 176.312C155.334 181.266 157.139 183.655 158.936 183.778C160.455 183.875 162.384 182.46 162.885 179.982C163.478 177.013 163.102 175.018 161.737 173.884C160.459 172.819 157.996 172.298 154.43 172.335C146.63 172.42 145.016 176.849 144.996 176.893L144.952 177C131.65 206.223 115.071 217.072 114.372 217.519C113.999 217.759 113.52 217.892 113.024 217.893Z" fill="#371A45"/>
<path d="M129.486 242.599C129.035 242.599 128.596 242.491 128.238 242.291C127.88 242.091 127.622 241.81 127.504 241.492C127.387 241.175 127.416 240.837 127.588 240.533C127.76 240.228 128.064 239.974 128.454 239.808C128.6 239.744 144.63 232.321 157.146 196.24L157.504 195.209L158.955 195.112C158.971 195.112 161.436 194.928 164.418 193.84C170.83 191.5 169.693 181.218 168.138 177.325C167.671 176.157 166.994 175.376 166.178 175.065C165.706 174.894 165.162 174.859 164.656 174.969C164.407 175.04 164.14 175.074 163.872 175.07C163.605 175.065 163.341 175.022 163.096 174.943C162.851 174.864 162.629 174.75 162.445 174.608C162.26 174.467 162.116 174.299 162.02 174.117C161.826 173.744 161.84 173.331 162.061 172.966C162.282 172.602 162.692 172.316 163.2 172.171C163.969 171.974 164.784 171.889 165.598 171.922C166.412 171.955 167.209 172.106 167.943 172.365C169.866 173.055 171.258 174.442 172.073 176.489C174.029 181.384 175.277 193.224 166.25 196.519C164.518 197.152 162.683 197.623 160.789 197.919C147.795 234.701 131.221 242.094 130.515 242.393C130.202 242.526 129.848 242.597 129.486 242.599Z" fill="#371A45"/>
<path d="M157.707 198.13C155.138 198.13 152.988 197.526 151.307 196.325C148.063 194.012 146.867 189.652 147.751 183.368C148.617 177.227 152.392 176.259 153.133 176.127L154.061 178.95C154.112 178.945 154.162 178.934 154.209 178.918C154.191 178.924 152.279 179.575 151.704 183.661C150.969 188.869 151.814 192.628 154.081 194.244C155.22 195.057 156.79 195.357 158.878 195.165C159.139 195.138 159.404 195.15 159.658 195.199C159.913 195.248 160.151 195.333 160.36 195.45C160.569 195.567 160.745 195.713 160.876 195.879C161.007 196.046 161.091 196.23 161.125 196.42C161.158 196.611 161.139 196.804 161.068 196.99C160.998 197.175 160.879 197.348 160.716 197.499C160.554 197.65 160.352 197.776 160.122 197.87C159.892 197.964 159.639 198.023 159.378 198.045C158.824 198.099 158.266 198.127 157.707 198.13Z" fill="#371A45"/>
<path d="M73.8477 259.374C74.7921 260.832 75.5661 262.346 76.1613 263.899C78.0892 268.732 78.8516 273.88 81.8799 278.765C82.5755 279.884 83.4505 280.938 84.4866 281.905C84.7809 282.181 85.0753 282.441 85.3696 282.685C87.5985 284.532 89.6894 285.453 89.6894 285.453C89.7013 285.937 89.749 286.549 89.7795 287.281C89.9121 290.289 89.8631 295.329 86.8891 301.612C86.673 302.078 86.4449 302.546 86.1864 303.021C84.1975 306.796 85.4001 319.018 87.5799 321.807C93.846 329.85 109.549 328.626 114.018 323.136C118.063 318.153 116.369 308.489 115.613 305.086C115.438 304.312 115.312 303.863 115.312 303.863C119.457 297.531 123.02 289.027 123.02 282.655C123.891 282.75 124.77 282.799 125.65 282.804V283.015C126.244 286.958 125.242 293.689 123.277 299.842C123.061 300.52 122.833 301.197 122.593 301.859C121.433 305.053 123.583 315.146 129.363 320.163C136.06 325.987 150.736 323.952 153.679 319.606C157.224 314.388 152.592 305.625 150.82 302.639C150.422 301.977 150.171 301.605 150.171 301.605C157.559 288.839 157.994 277.919 156.683 266.886C154.94 252.273 147.6 238.313 135.502 226.601C134.896 226.014 134.259 225.44 133.609 224.874C132.787 224.159 131.934 223.462 131.1 222.796C129.615 221.62 128.168 220.532 126.936 219.576L125.248 220.621L122.503 221.085L76.9569 228.829L76.5591 232.731L76.3854 234.481L76.0062 238.24L75.041 247.682L74.4695 253.33L73.9948 257.97L73.8477 259.374Z" fill="white"/>
<g opacity="0.35">
<path d="M129.355 320.168C136.051 325.991 150.729 323.958 153.675 319.611C157.216 314.393 152.586 305.63 150.809 302.643C150.701 302.684 150.589 302.72 150.474 302.749C150.474 302.749 157.176 311.799 149.877 316.649C144.124 320.475 134.843 319.264 131.034 314.184C126.393 307.981 125.79 296.839 125.79 296.839L123.271 299.848C123.051 300.525 122.825 301.203 122.583 301.867C121.426 305.055 123.58 315.152 129.355 320.168Z" fill="#371A45"/>
</g>
<g opacity="0.3">
<path d="M104.23 307.061L104.578 307.002C104.46 307.016 104.344 307.035 104.23 307.061Z" fill="#293856"/>
</g>
<g opacity="0.35">
<path d="M87.5818 321.809C93.8507 329.854 109.552 328.628 114.02 323.14C118.065 318.154 116.37 308.491 115.611 305.09L104.606 307C106.123 306.789 111.025 306.577 111.326 312.581C111.529 316.523 110.663 320.913 103.443 321.61C85.7097 323.312 87.0409 310.224 87.8391 302.8C87.9955 301.317 87.6137 301.064 86.8964 301.613C86.6816 302.078 86.4509 302.546 86.1963 303.024C84.1969 306.797 85.4061 319.024 87.5818 321.809Z" fill="#371A45"/>
</g>
<g opacity="0.35">
<path d="M118.491 300.278C118.491 300.278 114.436 306.34 103.848 307.575C102.819 307.695 102.351 306.673 103.27 306.317C107.389 304.709 113.399 300.645 115.041 295.098C116.448 290.341 115.858 285.695 115.061 282.515C114.933 282.011 114.954 281.494 115.123 280.997C115.291 280.501 115.604 280.036 116.04 279.635C116.475 279.234 117.023 278.906 117.647 278.673C118.271 278.439 118.956 278.306 119.656 278.283C125.006 278.106 132.767 277.657 137.866 276.527C141.291 275.768 144.827 274.727 147.842 272.825C148.116 272.651 148.451 272.536 148.81 272.494C149.169 272.451 149.537 272.483 149.873 272.586C150.208 272.688 150.497 272.857 150.708 273.074C150.918 273.29 151.042 273.545 151.064 273.81C151.161 274.963 151.033 276.146 150.279 276.743C147.412 279.01 133.97 281.835 122.995 283.505C122.995 283.505 122.777 287.149 121.181 292.001C119.374 297.489 118.491 300.278 118.491 300.278Z" fill="#371A45"/>
</g>
<g opacity="0.35">
<path d="M125.645 283.021C125.645 283.021 141.519 281.194 149.215 275.769C149.215 275.769 148.457 282.713 134.75 288.167C128.623 290.606 125.866 293.677 124.023 297.904C124.023 297.904 126.633 288.377 125.645 283.021Z" fill="#371A45"/>
</g>
<path d="M141.081 325.219C135.693 325.219 130.872 323.745 127.823 321.105C121.548 315.651 119.387 304.977 120.65 301.496C123.008 294.991 124.276 287.29 123.662 283.183C123.634 282.993 123.657 282.801 123.73 282.618C123.803 282.435 123.925 282.264 124.089 282.116C124.419 281.815 124.9 281.623 125.424 281.582C125.949 281.54 126.474 281.652 126.886 281.893C127.297 282.135 127.56 282.485 127.617 282.868C128.28 287.356 127.003 295.322 124.495 302.239C123.552 304.837 125.36 314.45 130.868 319.237C133.531 321.55 138.161 322.665 143.255 322.219C147.279 321.867 150.827 320.53 151.885 318.97C155.067 314.282 150.426 305.311 148.369 302.25L147.971 301.656L148.323 301.045C155.916 287.935 155.866 276.943 154.688 267.018C153.056 253.324 148.09 242.383 139.062 232.587C138.916 232.429 138.815 232.251 138.763 232.064C138.711 231.877 138.71 231.685 138.76 231.498C138.81 231.31 138.91 231.132 139.055 230.973C139.199 230.815 139.385 230.678 139.602 230.572C139.818 230.465 140.062 230.391 140.318 230.353C140.574 230.315 140.837 230.315 141.094 230.351C141.35 230.388 141.594 230.461 141.812 230.566C142.029 230.672 142.216 230.807 142.362 230.966C151.776 241.187 156.958 252.563 158.65 266.766C159.86 276.914 159.918 288.149 152.334 301.576C153.937 304.154 159.609 314.13 155.455 320.257C153.757 322.76 149.266 324.613 143.735 325.102C142.854 325.179 141.968 325.219 141.081 325.219Z" fill="#371A45"/>
<path d="M133.247 224.264C134.225 224.709 135.167 225.193 136.07 225.716C136.962 226.231 137.83 226.765 138.661 227.325C139.506 227.876 140.3 228.468 141.038 229.095C141.762 229.731 142.434 230.405 142.926 231.185C143.124 231.497 143.166 231.85 143.044 232.183C142.923 232.516 142.645 232.807 142.26 233.006C141.875 233.205 141.407 233.299 140.937 233.273C140.467 233.246 140.024 233.1 139.686 232.86L139.657 232.839C138.898 232.278 138.212 231.668 137.608 231.014C136.981 230.367 136.429 229.668 135.869 228.968C135.308 228.268 134.768 227.551 134.246 226.819C133.714 226.077 133.235 225.315 132.808 224.537C132.781 224.494 132.774 224.445 132.788 224.399C132.802 224.352 132.837 224.31 132.887 224.279C132.936 224.248 132.998 224.23 133.063 224.227C133.128 224.225 133.193 224.237 133.247 224.264Z" fill="#371A45"/>
<path d="M78.0156 257.009L79.5497 260.123L79.433 258.694C79.04 258.099 78.5651 257.534 78.0156 257.009Z" fill="white"/>
<path d="M101.544 329H101.357C94.6771 328.955 89.0262 326.597 85.8533 322.527C83.4323 319.421 82.1024 306.727 84.3378 302.501C88.2253 295.145 87.9177 289.487 87.7533 286.446C87.7533 286.376 87.7454 286.307 87.7427 286.241C86.0284 285.324 82.349 283.046 80.0711 279.368C77.9166 275.889 77.0839 271.898 76.2791 268.039C75.4067 263.858 74.5833 259.908 72.194 257.256C71.9043 256.934 71.8015 256.541 71.9085 256.164C72.0154 255.787 72.3232 255.456 72.7642 255.244C73.2051 255.033 73.7431 254.958 74.2598 255.036C74.7765 255.114 75.2296 255.339 75.5194 255.661C78.3846 258.846 79.2716 263.098 80.2117 267.601C80.9767 271.267 81.7669 275.054 83.6961 278.173C86.1503 282.141 90.6862 284.2 90.7313 284.22L91.6594 284.635L91.6873 285.43C91.6939 285.692 91.7111 285.993 91.7297 286.333C91.8928 289.352 92.2335 295.637 88.049 303.548C86.2723 306.91 87.4351 318.686 89.3126 321.093C91.7655 324.239 96.1688 326.063 101.395 326.098C106.122 326.141 110.486 324.646 112.31 322.4C116.827 316.845 113.397 304.29 113.362 304.164L113.229 303.686L113.517 303.247C118.095 296.259 120.722 289.064 120.722 283.508C120.722 283.123 120.931 282.754 121.304 282.481C121.677 282.209 122.183 282.056 122.71 282.056C123.238 282.056 123.744 282.209 124.117 282.481C124.49 282.754 124.699 283.123 124.699 283.508C124.699 289.365 122.038 296.834 117.386 304.066C118.021 306.587 120.529 317.981 115.73 323.882C113.192 326.998 107.638 329 101.544 329Z" fill="#371A45"/>
<path d="M122.061 281.881C123.181 281.629 124.315 281.415 125.444 281.216C126.569 280.99 127.698 280.79 128.832 280.588C131.086 280.151 133.353 279.771 135.586 279.288C137.824 278.821 140.053 278.314 142.238 277.718C144.423 277.122 146.614 276.484 148.633 275.638L148.65 275.631C148.677 275.62 148.707 275.612 148.738 275.609C148.769 275.606 148.801 275.608 148.831 275.614C148.861 275.62 148.889 275.63 148.914 275.644C148.939 275.658 148.959 275.675 148.975 275.695C149 275.728 149.01 275.766 149.004 275.803C148.997 275.84 148.975 275.875 148.939 275.902C148.076 276.548 147.115 277.075 146.134 277.593C145.152 278.111 144.121 278.573 143.084 279.022C140.989 279.898 138.819 280.674 136.587 281.345C134.367 282.03 132.096 282.622 129.784 283.12C128.628 283.361 127.462 283.577 126.293 283.777C125.118 283.957 123.939 284.122 122.75 284.249C122.336 284.294 121.913 284.223 121.567 284.051C121.221 283.878 120.977 283.616 120.885 283.317C120.792 283.019 120.858 282.706 121.069 282.441C121.28 282.176 121.62 281.98 122.021 281.891L122.061 281.881Z" fill="#371A45"/>
<path d="M162.648 234.65C161.836 234.657 161.025 234.605 160.227 234.493C160.015 234.456 159.815 234.39 159.639 234.297C159.462 234.204 159.312 234.087 159.198 233.952C159.083 233.817 159.006 233.666 158.971 233.509C158.936 233.353 158.944 233.192 158.994 233.038C159.044 232.883 159.135 232.737 159.262 232.608C159.389 232.479 159.55 232.369 159.735 232.286C159.92 232.202 160.126 232.146 160.341 232.12C160.556 232.095 160.775 232.1 160.987 232.137C161.394 232.205 171.145 233.686 175.132 224.078C177.505 218.356 172.066 213.101 166.806 208.02C162.766 204.116 158.949 200.429 158.949 196.669C158.949 196.348 159.124 196.04 159.435 195.813C159.745 195.586 160.167 195.459 160.607 195.459C161.046 195.459 161.468 195.586 161.779 195.813C162.089 196.04 162.264 196.348 162.264 196.669C162.264 199.617 165.755 202.99 169.452 206.561C174.942 211.866 181.166 217.879 178.303 224.78C174.693 233.482 166.683 234.65 162.648 234.65Z" fill="#371A45"/>
<path d="M147.59 263.465C145.409 264.303 142.949 265.207 140.273 266.14C141.919 265.671 143.426 265.224 144.766 264.816C145.813 264.496 146.77 264.038 147.59 263.465Z" fill="white"/>
<path d="M103.49 306.904C104.772 306.644 106.018 306.297 107.21 305.866C108.36 305.463 109.45 304.973 110.46 304.405C111.435 303.858 112.34 303.248 113.165 302.582C113.362 302.412 113.598 302.271 113.78 302.091C113.962 301.911 114.169 301.749 114.374 301.583C114.772 301.247 115.118 300.873 115.557 300.542L115.711 300.427C115.986 300.22 116.354 300.091 116.747 300.065C117.141 300.038 117.535 300.115 117.858 300.282C118.18 300.449 118.411 300.695 118.507 300.975C118.602 301.255 118.558 301.551 118.381 301.809C117.716 302.797 116.81 303.687 115.708 304.437C114.634 305.212 113.321 305.804 111.995 306.276C110.669 306.748 109.254 307.074 107.798 307.244C106.36 307.408 104.917 307.445 103.493 307.251C103.439 307.244 103.391 307.224 103.356 307.194C103.32 307.164 103.3 307.126 103.297 307.087C103.295 307.048 103.311 307.009 103.342 306.977C103.374 306.945 103.419 306.921 103.471 306.91L103.49 306.904Z" fill="#371A45"/>
<path d="M139.728 305.254C142.128 304.438 144.277 303.384 146.009 302.128C146.863 301.511 147.643 300.842 148.342 300.129C149.078 299.446 149.644 298.693 150.352 297.968L150.441 297.877C150.672 297.635 151.016 297.463 151.409 297.393C151.802 297.323 152.216 297.36 152.574 297.497C152.932 297.634 153.209 297.862 153.354 298.138C153.498 298.413 153.499 298.718 153.358 298.994C152.864 300.007 152.119 300.945 151.161 301.762C150.233 302.6 149.066 303.279 147.846 303.849C146.639 304.415 145.329 304.856 143.955 305.159C142.597 305.45 141.213 305.631 139.801 305.597C139.746 305.596 139.694 305.581 139.652 305.556C139.611 305.53 139.582 305.495 139.571 305.456C139.56 305.417 139.568 305.377 139.593 305.342C139.618 305.306 139.658 305.278 139.708 305.262L139.728 305.254Z" fill="#371A45"/>
<path d="M56.5809 300.104C60.2815 300.884 76.2903 303.244 75.8514 292.25C75.7612 289.927 74.7284 286.189 74.8 286.185C74.8716 286.182 83.3002 289.355 85.6855 286.01C86.55 284.795 86.2861 283.677 85.3726 282.685C85.1115 282.406 84.816 282.145 84.4896 281.905C81.5885 279.748 75.7917 278.349 73.3282 278.116C73.3282 278.116 73.3468 277.967 73.3826 277.691C73.5987 275.994 74.5003 269.512 76.167 263.899C77.0672 260.869 78.1916 258.091 79.548 256.452L78.3706 250.41L77.8256 247.585L76.0052 238.241L75.0864 233.535C74.8769 233.535 60.7774 233.579 55.3531 245.393C55.3412 245.415 55.3359 245.436 55.324 245.459C52.0795 252.593 51.4365 265.767 52.9864 283.681C53.4213 288.747 48.7595 298.446 56.5809 300.104Z" fill="white"/>
<g opacity="0.35">
<path d="M71.2449 279.483C71.8998 279.821 72.6384 278.999 73.3835 277.69C73.5996 275.993 74.5012 269.511 76.1679 263.897C78.0957 268.73 78.8581 273.879 81.8864 278.764C82.5821 279.882 83.4571 280.936 84.4931 281.904C84.7875 282.179 85.0818 282.44 85.3762 282.684C87.605 284.531 89.6959 285.451 89.6959 285.451C89.7079 285.935 89.7556 286.548 89.7861 287.28L92.0746 287.086C92.1622 284.769 92.0293 282.451 91.6768 280.147C91.5286 279.205 91.879 278.258 92.6564 277.498C93.4338 276.739 94.5793 276.225 95.8587 276.061C100.336 275.481 105.935 274.248 112.586 271.836C112.586 271.836 115.955 265.7 108.988 263.928C108.988 263.928 96.9379 269.59 86.1187 268.424C84.1007 265.069 82.3585 260.525 83.3608 253.711C84.094 248.743 81.8719 248.65 79.4627 249.795C79.0779 249.979 78.7123 250.184 78.3689 250.408C76.0512 251.913 75.2159 254.057 74.4111 256.706C74.2971 257.087 74.1459 257.508 73.9961 257.969C72.7166 261.688 70.2001 267.814 69.1062 274.593C68.1211 280.711 71.2449 279.483 71.2449 279.483Z" fill="#371A45"/>
</g>
<path d="M80.1327 256.714C79.5321 258.456 79.1423 260.215 78.7273 262.002L78.0908 264.677L77.4822 267.371L76.3168 272.791C75.9429 274.601 75.6313 276.438 75.3887 278.243L73.5908 276.629C74.5778 276.743 75.5525 276.908 76.5077 277.123C77.4239 277.323 78.3176 277.552 79.1993 277.813C80.9574 278.338 82.6771 278.965 84.3132 279.836C85.1796 280.289 85.9611 280.822 86.6375 281.423C87.3363 282.066 87.9793 282.88 88.1941 283.86C88.3808 284.816 88.1546 285.79 87.5471 286.647C87.2411 287.095 86.8295 287.499 86.3312 287.843C85.8235 288.184 85.238 288.459 84.601 288.654C83.3665 289.016 82.1759 289.07 81.0993 289.034C80.0716 288.986 79.0533 288.862 78.0603 288.662C77.1209 288.477 76.198 288.249 75.2972 287.98L74.6342 287.776L74.0204 287.567C74.2257 287.633 74.4459 287.671 74.67 287.679C74.7655 288.411 78.2168 285.363 76.8445 286.174L76.8379 286.088L76.8524 286.164L76.9015 286.385L77.0089 286.859C77.3019 288.146 77.5857 289.452 77.77 290.804C77.8751 291.504 77.9194 292.208 77.9026 292.912C77.895 293.642 77.8028 294.37 77.6268 295.089C77.2887 296.548 76.4335 298.067 74.9909 299.291C73.5483 300.516 71.5754 301.347 69.6144 301.78C67.6415 302.236 65.6566 302.361 63.7288 302.361C61.8226 302.34 59.9234 302.188 58.0566 301.906C57.5913 301.833 57.1285 301.759 56.6618 301.669C56.4245 301.626 56.2017 301.582 55.9445 301.524L55.1211 301.313C53.989 300.973 52.9876 300.437 52.2042 299.75C51.4765 299.092 50.9336 298.335 50.6065 297.524C50.3129 296.801 50.1249 296.057 50.0456 295.305C49.8772 293.864 49.9873 292.498 50.1384 291.167C50.2896 289.836 50.5243 288.543 50.7086 287.279C50.8929 286.015 51.0387 284.788 50.9379 283.655L50.6343 279.761C50.454 277.163 50.3055 274.563 50.2246 271.959C50.1437 269.354 50.1066 266.745 50.1756 264.133C50.2445 261.521 50.3665 258.906 50.6661 256.279C50.9658 253.652 51.394 251.028 52.1472 248.399C52.3301 247.743 52.5714 247.086 52.7902 246.43L53.188 245.446L53.3935 244.955L53.6494 244.471C54.0007 243.831 54.3057 243.176 54.7101 242.547C55.1463 241.929 55.5693 241.303 56.0254 240.692C56.5557 240.105 57.0675 239.512 57.6164 238.936L58.526 238.111C58.8349 237.839 59.1054 237.543 59.4608 237.299C60.1476 236.799 60.776 236.247 61.5504 235.809L62.6827 235.132C63.0804 234.929 63.5007 234.739 63.9091 234.544C65.5771 233.801 67.3922 233.222 69.2949 232.94C70.2429 232.792 71.2105 232.721 72.18 232.727C73.1684 232.722 74.1521 232.827 75.097 233.039C75.2345 233.072 75.3553 233.134 75.4435 233.217C75.5316 233.301 75.583 233.402 75.5907 233.508C75.5985 233.613 75.5623 233.718 75.4869 233.808C75.4116 233.898 75.3006 233.969 75.1686 234.012L75.0917 234.037C73.5006 234.552 71.9347 235.056 70.4696 235.566C70.105 235.702 69.7324 235.816 69.3744 235.954C69.0164 236.091 68.6598 236.223 68.3031 236.357C67.9465 236.492 67.619 236.661 67.2689 236.799L66.7505 237.014L66.2573 237.258C65.9245 237.417 65.5943 237.582 65.2575 237.733L64.3122 238.264C63.6492 238.588 63.107 239.025 62.5037 239.41C61.9243 239.814 61.443 240.291 60.9126 240.734C60.4406 241.218 60.0176 241.722 59.5629 242.212C56.2892 246.35 55.3624 251.476 54.7552 256.527C54.4635 259.064 54.3375 261.624 54.2765 264.188C54.2155 266.752 54.246 269.318 54.3256 271.893C54.4051 274.468 54.5523 277.038 54.7313 279.612L55.031 283.472C55.1543 284.924 54.97 286.292 54.7883 287.599C54.6067 288.905 54.376 290.181 54.2248 291.432C54.0737 292.682 53.9954 293.91 54.132 295.049C54.2686 296.188 54.6478 297.231 55.3638 297.845C55.722 298.157 56.1796 298.399 56.6963 298.551L57.1285 298.661C57.2943 298.699 57.4998 298.74 57.692 298.774C58.0818 298.85 58.4876 298.914 58.8853 298.977C62.1059 299.448 65.5333 299.575 68.388 298.931C69.8133 298.615 71.0159 298.075 71.8963 297.338C72.7971 296.539 73.3853 295.577 73.5987 294.554C73.7332 293.998 73.8033 293.435 73.8082 292.871C73.8244 292.28 73.7881 291.688 73.6995 291.101C73.5338 289.876 73.2633 288.623 72.9742 287.357L72.8642 286.873L72.8085 286.613L72.778 286.451C72.7656 286.382 72.7581 286.313 72.7555 286.244C71.3845 287.042 74.8238 283.947 74.9551 284.695C75.2063 284.709 75.4522 284.754 75.6817 284.83L76.2836 285.029L76.8458 285.202C77.5865 285.424 78.3456 285.612 79.1184 285.764C79.8362 285.91 80.5723 286.002 81.3154 286.039C82.0049 286.066 82.6214 286.006 83.0391 285.882C83.415 285.772 83.7197 285.562 83.8916 285.294C84.1132 284.997 84.2026 284.656 84.1475 284.32C84.0401 283.709 83.1252 282.882 81.8869 282.239C80.6564 281.582 79.1847 281.032 77.6639 280.581C76.9015 280.356 76.1206 280.155 75.3383 279.984C74.5979 279.814 73.8396 279.688 73.071 279.608L71.1167 279.434L71.2824 277.987C71.4972 276.099 71.7663 274.252 72.0435 272.385C72.3206 270.518 72.6918 268.663 73.1718 266.813L73.5536 265.427L74.0044 264.046C74.1503 263.586 74.316 263.126 74.5043 262.67C74.6926 262.213 74.861 261.758 75.093 261.305C75.325 260.852 75.5425 260.404 75.7931 259.958C76.0768 259.515 76.346 259.072 76.643 258.638C76.94 258.204 77.3165 257.779 77.6772 257.366C78.0722 256.955 78.5054 256.563 78.9739 256.195C79.0761 256.109 79.2152 256.05 79.3688 256.029C79.5223 256.008 79.6811 256.025 79.8194 256.078C79.9577 256.131 80.0673 256.217 80.1305 256.321C80.1936 256.426 80.2066 256.542 80.1672 256.653L80.1327 256.714Z" fill="#371A45"/>
<g opacity="0.35">
<path d="M56.5901 300.108C60.2827 300.889 76.2968 303.247 75.8566 292.253C75.8168 291.26 75.6829 290.17 75.5158 289.178C72.4941 295.777 59.2962 296.155 56.8499 294.515C53.5989 292.335 53.75 287.374 53.3337 285.312C52.5925 290.052 51.0465 298.933 56.5901 300.108Z" fill="#371A45"/>
</g>
<g opacity="0.35">
<path d="M151.517 253.574C148.395 249.17 145.889 244.548 144.039 239.776C145.373 242.297 146.893 244.763 148.593 247.164C150.731 250.16 152.37 253.331 153.475 256.612C152.875 255.578 152.212 254.559 151.517 253.574Z" fill="#371A45"/>
</g>
<path d="M150.99 255.872C154.579 255.872 157.489 253.748 157.489 251.128C157.489 248.508 154.579 246.384 150.99 246.384C147.402 246.384 144.492 248.508 144.492 251.128C144.492 253.748 147.402 255.872 150.99 255.872Z" fill="white"/>
<g opacity="0.35">
<path d="M157.162 249.642C157.429 250.233 157.534 250.858 157.471 251.479C157.407 252.1 157.177 252.706 156.793 253.262C156.408 253.819 155.878 254.314 155.231 254.721C154.585 255.127 153.835 255.437 153.025 255.632C152.214 255.827 151.359 255.903 150.508 255.857C149.657 255.811 148.827 255.643 148.065 255.362C147.303 255.082 146.624 254.694 146.067 254.223C145.511 253.751 145.086 253.203 144.819 252.611C144.516 251.945 144.422 251.238 144.544 250.542C145.391 251.193 146.475 251.655 147.669 251.874C148.862 252.093 150.116 252.06 151.285 251.779C152.454 251.498 153.489 250.98 154.271 250.286C155.052 249.592 155.548 248.75 155.7 247.859C156.363 248.366 156.863 248.975 157.162 249.642Z" fill="#371A45"/>
</g>
<path d="M150.983 257.367C149.409 257.366 147.865 257.048 146.522 256.447C145.18 255.846 144.091 254.986 143.375 253.962C142.659 252.938 142.345 251.79 142.467 250.643C142.589 249.497 143.142 248.398 144.065 247.467C144.988 246.535 146.246 245.808 147.7 245.366C149.153 244.923 150.745 244.782 152.302 244.959C153.858 245.135 155.317 245.621 156.518 246.365C157.72 247.108 158.616 248.079 159.11 249.171C159.531 250.109 159.642 251.106 159.434 252.082C159.225 253.057 158.703 253.982 157.91 254.782C157.117 255.582 156.076 256.233 154.872 256.682C153.668 257.131 152.336 257.366 150.983 257.366V257.367ZM150.983 247.877C150.34 247.877 149.704 247.98 149.12 248.177C148.536 248.374 148.018 248.662 147.601 249.019C147.184 249.377 146.878 249.797 146.704 250.249C146.531 250.701 146.494 251.176 146.596 251.64C146.698 252.103 146.937 252.546 147.296 252.935C147.655 253.325 148.126 253.654 148.675 253.898C149.225 254.142 149.841 254.297 150.48 254.35C151.119 254.404 151.767 254.356 152.378 254.209C153.378 253.965 154.227 253.47 154.773 252.811C155.319 252.153 155.527 251.375 155.361 250.615C155.194 249.855 154.663 249.163 153.862 248.662C153.061 248.162 152.043 247.885 150.989 247.881L150.983 247.877Z" fill="#371A45"/>
<path d="M149.604 263.852L117.674 273.101C115.85 273.623 113.816 273.598 112.017 273.031C110.219 272.464 108.8 271.4 108.07 270.072L101.331 257.668C100.708 256.511 100.649 255.232 101.164 254.047C101.679 252.862 102.736 251.842 104.159 251.158C104.574 250.958 105.016 250.791 105.478 250.657L137.403 241.411C139.227 240.886 141.261 240.91 143.061 241.477C144.861 242.045 146.28 243.109 147.007 244.439L152.349 254.262L153.751 256.842C154.467 258.173 154.433 259.657 153.656 260.971C152.879 262.284 151.423 263.32 149.604 263.852Z" fill="white"/>
<g opacity="0.35">
<path d="M149.604 263.853L117.674 273.101C115.85 273.624 113.816 273.599 112.017 273.031C110.219 272.464 108.8 271.4 108.07 270.073L101.331 257.669C100.708 256.511 100.649 255.233 101.164 254.047C101.679 252.862 102.736 251.842 104.159 251.158C106.45 251.511 107.907 251.739 107.907 251.739C114.874 261.245 121.457 265.085 138.502 260.382C145.86 258.349 150.038 256.199 152.349 254.26L153.751 256.84C154.468 258.172 154.434 259.656 153.657 260.97C152.88 262.284 151.423 263.32 149.604 263.853Z" fill="#371A45"/>
</g>
<path d="M114.958 274.693C113.143 274.693 111.369 274.296 109.867 273.552C108.364 272.808 107.202 271.752 106.531 270.521L99.7874 258.115C98.9084 256.485 98.949 254.668 99.9003 253.06C100.852 251.451 102.636 250.184 104.864 249.533L136.792 240.285C139.024 239.642 141.514 239.672 143.717 240.366C145.921 241.061 147.657 242.364 148.547 243.991L155.29 256.399C156.169 258.029 156.129 259.846 155.178 261.455C154.226 263.063 152.442 264.33 150.214 264.981L118.286 274.229C117.227 274.536 116.098 274.693 114.958 274.693ZM140.114 242.239C139.395 242.24 138.682 242.34 138.014 242.534L106.087 251.783C104.676 252.196 103.546 253 102.943 254.019C102.34 255.038 102.314 256.189 102.869 257.223L109.612 269.629C110.175 270.661 111.276 271.488 112.673 271.928C114.07 272.368 115.649 272.386 117.064 271.978L148.991 262.729C150.402 262.316 151.532 261.512 152.135 260.493C152.737 259.474 152.764 258.323 152.209 257.289L145.466 244.881C145.188 244.369 144.775 243.903 144.249 243.509C143.723 243.115 143.096 242.801 142.403 242.586C141.68 242.357 140.902 242.239 140.114 242.238V242.239Z" fill="#371A45"/>
<path d="M150.834 263.389C150.447 263.574 150.034 263.73 149.603 263.852L117.672 273.101C116.351 273.481 114.908 273.576 113.514 273.374C112.121 273.172 110.837 272.682 109.814 271.963C109.054 271.431 108.46 270.786 108.074 270.071L105.076 264.562L104.087 262.744L101.33 257.668C100.614 256.337 100.648 254.852 101.425 253.539C102.202 252.226 103.658 251.19 105.477 250.657L112.372 248.661C110.919 249.335 109.833 250.358 109.3 251.553C108.766 252.747 108.817 254.04 109.445 255.211L113.094 261.916L116.197 267.627C116.926 268.955 118.345 270.018 120.144 270.585C121.943 271.152 123.976 271.178 125.8 270.655L150.834 263.389Z" fill="white"/>
<g opacity="0.35">
<path d="M150.837 263.388C150.45 263.573 150.037 263.729 149.605 263.851L117.675 273.1C115.851 273.624 113.818 273.6 112.019 273.032C110.22 272.464 108.803 271.399 108.077 270.07L104.09 262.743C105.597 263.808 107.903 264.977 110.303 264.475C111.62 264.202 112.505 263.175 113.087 261.911L116.19 267.621C116.919 268.949 118.338 270.012 120.137 270.58C121.936 271.147 123.969 271.172 125.793 270.649L150.837 263.388Z" fill="#371A45"/>
</g>
<path d="M114.965 274.693C113.15 274.69 111.378 274.291 109.876 273.547C108.374 272.803 107.21 271.749 106.535 270.519L99.7919 258.114C98.9124 256.484 98.9526 254.666 99.9037 253.058C100.855 251.45 102.639 250.182 104.867 249.532L111.762 247.535L113.259 249.681C112.13 250.204 111.286 250.997 110.872 251.925C110.458 252.854 110.5 253.858 110.992 254.766L117.738 267.172C118.303 268.202 119.404 269.027 120.799 269.467C122.194 269.907 123.771 269.927 125.187 269.522L150.227 262.262L151.74 264.401C151.257 264.63 150.744 264.823 150.207 264.975L118.288 274.222C117.231 274.531 116.104 274.691 114.965 274.693ZM107.661 251.327L106.092 251.781C104.681 252.195 103.551 252.998 102.948 254.017C102.345 255.036 102.319 256.188 102.875 257.221L109.618 269.627C110.183 270.657 111.283 271.483 112.678 271.923C114.074 272.363 115.651 272.383 117.066 271.977L118.841 271.463C116.932 270.734 115.447 269.527 114.658 268.063L107.916 255.658C107.164 254.277 107.074 252.75 107.661 251.327Z" fill="#371A45"/>
<path d="M125.467 257.869C125.714 258.329 126.812 262.292 126.812 262.292L123.224 263.314C120.753 264.018 117.752 262.721 116.522 260.417C115.291 258.114 116.295 255.675 118.765 254.972L122.353 253.95C122.353 253.95 125.067 257.12 125.467 257.869Z" fill="#22A7F0"/>
<g opacity="0.35">
<path d="M125.467 257.867C125.714 258.327 126.812 262.29 126.812 262.29L123.224 263.313C120.753 264.016 117.752 262.719 116.522 260.415C115.291 258.112 116.295 255.673 118.765 254.97L122.353 253.948C122.353 253.948 125.067 257.118 125.467 257.867Z" fill="#371A45"/>
</g>
<path d="M122.499 263.744C119.979 263.744 117.415 262.359 116.259 260.196C115.583 258.932 115.479 257.583 115.967 256.401C116.48 255.154 117.582 254.235 119.069 253.812L121.573 253.097C122.095 252.948 122.672 252.938 123.203 253.068C123.734 253.199 124.186 253.462 124.478 253.811C125.954 255.565 126.824 256.679 127.058 257.12C127.122 257.237 127.286 257.547 128.213 260.818C128.327 261.222 128.242 261.641 127.973 262.003C127.703 262.365 127.267 262.646 126.741 262.795L124.249 263.504C123.691 263.663 123.097 263.745 122.499 263.744ZM122.442 254.43C122.392 254.43 122.342 254.437 122.296 254.45L119.791 255.164C118.887 255.421 118.2 256.01 117.871 256.819C117.511 257.69 117.597 258.705 118.111 259.669C119.142 261.596 121.573 262.709 123.526 262.153L126.019 261.444C126.107 261.419 126.181 261.372 126.227 261.312C126.272 261.251 126.286 261.18 126.267 261.113C125.43 258.164 125.237 257.708 125.206 257.646C125.022 257.303 124.118 256.154 122.785 254.569C122.749 254.526 122.699 254.491 122.639 254.467C122.578 254.442 122.511 254.43 122.442 254.43Z" fill="#371A45"/>
<path d="M127.456 261.82C129.926 261.116 130.932 258.678 129.701 256.374C128.469 254.07 125.468 252.773 122.997 253.477C120.527 254.181 119.521 256.619 120.752 258.922C121.984 261.226 124.985 262.524 127.456 261.82Z" fill="#22A7F0"/>
<g opacity="0.35">
<path d="M120.99 254.776C121.074 255.199 121.224 255.614 121.436 256.012C122.667 258.316 125.669 259.613 128.139 258.909C129 258.655 129.716 258.192 130.166 257.599C130.544 259.483 129.503 261.234 127.476 261.813C125.006 262.517 122.004 261.22 120.773 258.916C119.975 257.419 120.124 255.874 120.99 254.776Z" fill="#371A45"/>
</g>
<g opacity="0.6">
<path d="M129.057 257.813C127.825 255.509 124.824 254.212 122.353 254.916C121.485 255.172 120.765 255.64 120.316 256.24C120.566 254.955 121.519 253.891 123.016 253.464C125.487 252.76 128.488 254.057 129.72 256.361C130.515 257.848 130.372 259.387 129.513 260.482C129.675 259.579 129.518 258.66 129.057 257.813Z" fill="white"/>
</g>
<path d="M126.09 262.723C123.571 262.723 121.007 261.338 119.85 259.175C118.422 256.502 119.682 253.637 122.66 252.787C125.638 251.937 129.222 253.425 130.65 256.097C131.326 257.361 131.429 258.711 130.943 259.893C130.428 261.139 129.327 262.059 127.84 262.482C127.283 262.641 126.689 262.723 126.09 262.723ZM124.439 253.998C124.076 253.997 123.716 254.046 123.379 254.142C121.423 254.7 120.67 256.72 121.699 258.648C122.728 260.576 125.159 261.688 127.114 261.132C128.018 260.874 128.705 260.286 129.033 259.476C129.394 258.605 129.309 257.59 128.794 256.627C127.946 255.036 126.139 253.998 124.435 253.998H124.439Z" fill="#371A45"/>
<path d="M139.631 267.848C139.292 267.848 138.961 267.772 138.684 267.631C138.406 267.489 138.194 267.289 138.077 267.057L134.046 259.087C133.839 258.68 133.774 258.242 133.857 257.813C133.939 257.383 134.166 256.975 134.518 256.625L137.377 253.774C137.404 253.747 137.421 253.714 137.427 253.681C137.433 253.647 137.428 253.612 137.411 253.581L131.748 243.057C131.611 242.763 131.635 242.442 131.814 242.16C131.993 241.878 132.314 241.657 132.71 241.543C133.106 241.429 133.546 241.43 133.941 241.547C134.335 241.664 134.653 241.887 134.828 242.171L140.49 252.694C140.713 253.106 140.789 253.552 140.711 253.991C140.633 254.431 140.404 254.848 140.044 255.205L137.186 258.055C137.158 258.083 137.141 258.115 137.135 258.149C137.128 258.183 137.134 258.217 137.15 258.249L141.186 266.218C141.278 266.401 141.309 266.598 141.275 266.791C141.241 266.985 141.143 267.169 140.991 267.329C140.838 267.489 140.635 267.62 140.398 267.71C140.161 267.801 139.898 267.848 139.631 267.848Z" fill="#371A45"/>
<path d="M77.4072 262.821C77.4072 262.821 75.1837 265.128 76.0734 267.866C77.1023 271.031 80.1372 271.816 80.1372 271.816C80.1372 271.816 92.9825 274.081 109.852 267.738C109.852 267.738 113.22 261.604 106.247 259.832C106.247 259.832 88.0369 265.442 77.4072 262.821Z" fill="white"/>
<g opacity="0.35">
<path d="M76.0774 267.867C77.1049 271.03 80.1372 271.815 80.1372 271.815C80.1372 271.815 92.9811 274.081 109.854 267.737C109.854 267.737 110.96 265.715 110.588 263.663C110.54 263.776 110.504 263.838 110.504 263.838C98.1733 268.476 87.9931 268.513 83.4082 268.193C81.8509 268.09 80.3757 267.637 79.1849 266.897C77.9942 266.157 77.1463 265.166 76.7576 264.06L76.7257 263.964C76.706 263.912 76.6918 263.859 76.6833 263.806C76.1317 264.741 75.543 266.228 76.0774 267.867Z" fill="#371A45"/>
</g>
<path d="M86.2217 273.714C82.2745 273.714 79.8866 273.312 79.6572 273.271L79.4544 273.227C77.9362 272.834 75.0962 271.335 74.0805 268.211C72.9907 264.857 75.6186 262.076 75.7313 261.959L76.6117 261.044L78.0635 261.402C87.826 263.809 105.277 258.507 105.451 258.453L106.178 258.229L106.922 258.423C109.252 259.013 110.976 260.109 111.904 261.595C113.73 264.52 111.965 267.917 111.757 268.294L111.472 268.813L110.793 269.068C100.605 272.899 91.8355 273.714 86.2217 273.714ZM80.7644 270.384C82.1685 270.587 93.5592 271.99 108.178 266.68C108.551 265.732 108.941 264.055 108.167 262.826C107.789 262.225 107.158 261.77 106.245 261.447C102.701 262.468 88.4943 266.264 78.4586 264.588C78.0609 265.31 77.6989 266.381 78.0702 267.521C78.7225 269.53 80.348 270.233 80.7644 270.384Z" fill="#371A45"/>
<path d="M137.864 299.288C133.558 299.288 128.731 298.483 123.79 296.149C123.644 296.08 123.517 295.991 123.418 295.886C123.319 295.781 123.25 295.664 123.213 295.539C123.177 295.415 123.174 295.287 123.205 295.162C123.237 295.037 123.301 294.917 123.396 294.81C123.491 294.704 123.613 294.612 123.756 294.539C123.9 294.467 124.061 294.416 124.231 294.39C124.402 294.363 124.577 294.361 124.749 294.384C124.92 294.407 125.083 294.454 125.23 294.523C139.52 301.271 152.693 293.852 152.824 293.777C152.96 293.696 153.117 293.636 153.286 293.6C153.454 293.564 153.631 293.552 153.805 293.566C153.98 293.581 154.149 293.62 154.302 293.682C154.456 293.744 154.591 293.828 154.7 293.928C154.808 294.029 154.889 294.144 154.936 294.268C154.983 294.391 154.997 294.52 154.975 294.647C154.954 294.774 154.898 294.897 154.811 295.008C154.724 295.12 154.607 295.217 154.468 295.295C154.366 295.354 147.383 299.288 137.864 299.288Z" fill="#371A45"/>
<path d="M103.353 299.041C98.0629 299.06 92.882 297.943 88.4539 295.83C88.3076 295.761 88.1814 295.672 88.0825 295.567C87.9835 295.463 87.9138 295.345 87.8772 295.22C87.8407 295.096 87.838 294.968 87.8694 294.843C87.9007 294.718 87.9655 294.598 88.0601 294.492C88.1546 294.385 88.2771 294.293 88.4204 294.22C88.5637 294.148 88.7251 294.097 88.8954 294.071C89.0657 294.044 89.2415 294.042 89.4128 294.065C89.5841 294.088 89.7475 294.135 89.8938 294.204C104.252 300.985 119.412 293.803 119.562 293.73C119.707 293.659 119.87 293.611 120.041 293.586C120.212 293.562 120.387 293.562 120.558 293.588C120.729 293.613 120.891 293.662 121.036 293.733C121.18 293.804 121.304 293.895 121.4 294.001C121.497 294.107 121.563 294.226 121.597 294.351C121.63 294.476 121.63 294.604 121.595 294.729C121.56 294.853 121.493 294.972 121.395 295.077C121.298 295.183 121.173 295.273 121.028 295.343C120.92 295.398 113.229 299.041 103.353 299.041Z" fill="#371A45"/>
<path d="M74.3786 272.429C74.2277 272.429 74.0779 272.41 73.9357 272.373C73.7912 272.336 59.4172 268.68 53.049 272.231C52.9106 272.308 52.7527 272.364 52.5843 272.397C52.416 272.43 52.2405 272.438 52.0679 272.421C51.8953 272.404 51.7289 272.362 51.5783 272.299C51.4277 272.235 51.2958 272.15 51.1901 272.049C51.0844 271.948 51.007 271.833 50.9623 271.71C50.9177 271.587 50.9066 271.459 50.9297 271.333C50.9529 271.207 51.0098 271.085 51.0972 270.975C51.1847 270.865 51.3009 270.769 51.4394 270.692C58.9492 266.507 74.177 270.382 74.8227 270.55C75.117 270.626 75.3649 270.776 75.5225 270.973C75.6801 271.17 75.7375 271.401 75.6844 271.626C75.6312 271.851 75.4711 272.054 75.2322 272.201C74.9933 272.348 74.691 272.429 74.3786 272.429Z" fill="#371A45"/>
<path d="M153.913 207.616C135.012 207.616 131.771 194.849 131.746 194.716C131.716 194.591 131.721 194.462 131.759 194.338C131.797 194.214 131.869 194.097 131.969 193.993C132.07 193.889 132.197 193.801 132.344 193.733C132.491 193.665 132.656 193.619 132.827 193.598C133.174 193.554 133.53 193.613 133.817 193.761C133.959 193.834 134.08 193.927 134.173 194.034C134.266 194.142 134.33 194.262 134.359 194.387C134.477 194.882 137.431 206.237 155.227 205.659H155.288C155.64 205.653 155.98 205.749 156.234 205.927C156.489 206.104 156.636 206.348 156.643 206.605C156.651 206.862 156.519 207.11 156.276 207.296C156.033 207.481 155.698 207.589 155.347 207.594C154.863 207.607 154.38 207.616 153.913 207.616Z" fill="#371A45"/>
<g opacity="0.35">
<path d="M55.3516 245.393C59.3293 246.544 63.5168 247.264 67.7804 247.529C70.1957 247.679 72.6206 247.73 75.0437 247.682C75.9559 247.665 76.8814 247.634 77.828 247.585C85.9319 247.169 95.0646 245.573 104.583 241.828C118.075 236.504 126.21 229.282 131.101 222.796C129.616 221.62 128.169 220.532 126.938 219.576L125.25 220.621L122.504 221.085L76.9583 228.829L76.5605 232.731L76.3868 234.481L76.0076 238.24L75.0888 233.534C74.8753 233.535 60.7758 233.579 55.3516 245.393Z" fill="#371A45"/>
</g>
<path d="M134.91 189.378C135.855 197.349 133.973 205.362 129.446 212.648C128.495 214.18 127.433 215.673 126.264 217.122C125.693 217.835 125.083 218.541 124.452 219.245C119.083 225.173 111.935 230.131 103.549 233.742C102.489 234.193 101.41 234.626 100.314 235.041C80.3143 242.533 55.5083 242.135 35.4383 232.421C5.86298 218.117 -2.21699 189.022 17.3743 167.439C21.0427 163.39 25.5521 159.781 30.7406 156.744C31.328 156.395 31.9339 156.056 32.5452 155.727C34.1751 154.839 35.8519 154.014 37.5756 153.251C45.5006 149.754 54.3636 147.542 63.563 146.766C65.0136 146.643 66.472 146.557 67.9385 146.506C81.5586 146.043 95.0265 148.76 106.389 154.262C123.4 162.487 133.296 175.608 134.91 189.378Z" fill="white"/>
<path d="M70.9337 240.361C58.2693 240.367 45.8836 237.647 35.3256 232.541C5.71721 218.215 -2.40784 188.977 17.2127 167.361C20.894 163.299 25.4196 159.68 30.6267 156.635C31.1875 156.302 31.7961 155.957 32.4379 155.613C34.0621 154.729 35.7605 153.893 37.4762 153.13C45.4265 149.621 54.3181 147.401 63.5472 146.623C65.015 146.498 66.4907 146.411 67.9332 146.362C81.5943 145.898 95.1028 148.622 106.499 154.141C122.989 162.118 133.415 174.952 135.107 189.367C136.042 197.36 134.154 205.395 129.624 212.704C128.67 214.241 127.603 215.739 126.43 217.192C125.9 217.848 125.31 218.547 124.614 219.322C122.721 221.407 120.604 223.38 118.283 225.22C114.012 228.612 109.079 231.525 103.643 233.865C102.583 234.318 101.493 234.756 100.398 235.168C91.2809 238.583 81.1807 240.363 70.9337 240.361ZM70.9549 146.596C69.9605 146.596 68.9595 146.613 67.9518 146.646C66.5185 146.695 65.0508 146.782 63.5923 146.906C54.4184 147.679 45.58 149.885 37.6778 153.374C35.966 154.131 34.2782 154.962 32.6619 155.842C32.0255 156.183 31.4209 156.524 30.8654 156.855C25.6918 159.883 21.1953 163.48 17.5375 167.518C-1.96367 189.006 6.11232 218.066 35.5404 232.304C54.8255 241.637 79.609 242.637 100.22 234.917C101.307 234.508 102.393 234.072 103.446 233.622C111.803 230.017 118.929 225.073 124.288 219.164C124.981 218.39 125.572 217.699 126.095 217.048C127.263 215.603 128.325 214.114 129.277 212.587C133.779 205.322 135.655 197.336 134.725 189.391C133.045 175.066 122.682 162.307 106.291 154.378C96.8353 149.796 85.8775 147.135 74.5455 146.671C73.3641 146.62 72.1668 146.596 70.9549 146.596Z" fill="#371A45"/>
<g opacity="0.35">
<path d="M35.4345 232.419C55.5032 242.135 80.3119 242.533 100.31 235.038C101.403 234.628 102.481 234.196 103.544 233.741C111.928 230.126 119.077 225.168 124.453 219.242C125.082 218.537 125.692 217.832 126.266 217.119C127.434 215.669 128.496 214.175 129.448 212.643C133.976 205.359 135.858 197.346 134.913 189.376C134.411 185.081 133.104 180.856 131.029 176.819C131.824 186.146 128.776 195.432 122.278 203.483C121.708 204.194 121.096 204.9 120.465 205.606C115.095 211.535 107.944 216.492 99.5546 220.1C98.4868 220.556 97.4075 220.989 96.3167 221.398C76.3184 228.894 51.5123 228.495 31.4396 218.78C20.1693 213.347 11.5465 205.446 6.80859 196.213C8.01515 210.38 17.9805 223.977 35.4345 232.419Z" fill="#371A45"/>
</g>
<path d="M70.9337 241.313C58.0127 241.319 45.376 238.544 34.6043 233.334C4.39658 218.718 -3.89288 188.888 16.1241 166.837C19.8788 162.693 24.4947 159 29.8059 155.893C30.3721 155.555 30.9992 155.202 31.6622 154.848C33.3142 153.949 35.0458 153.096 36.804 152.318C44.9149 148.737 53.9865 146.473 63.4026 145.679C64.8996 145.552 66.4058 145.462 67.8788 145.413C81.8172 144.938 95.6004 147.718 107.227 153.35C124.05 161.487 134.688 174.587 136.413 189.288C137.367 197.444 135.442 205.642 130.819 213.1C129.844 214.667 128.756 216.195 127.56 217.678C127.029 218.344 126.42 219.053 125.711 219.844C123.779 221.973 121.617 223.987 119.248 225.867C114.891 229.328 109.858 232.3 104.312 234.686C103.228 235.149 102.117 235.596 100.997 236.015C91.6945 239.499 81.3889 241.315 70.9337 241.313ZM70.9549 147.548C69.9826 147.548 69.0014 147.565 68.0114 147.598C66.6073 147.645 65.1714 147.731 63.7421 147.852C54.7551 148.61 46.0966 150.77 38.3539 154.185C36.6793 154.929 35.026 155.742 33.4481 156.605C32.8223 156.942 32.235 157.273 31.6953 157.593C26.6236 160.562 22.2161 164.089 18.6313 168.047C-0.473413 189.094 7.43817 217.565 36.2657 231.512C55.1556 240.655 79.4353 241.635 99.6273 234.069C100.688 233.668 101.758 233.24 102.79 232.799C108.081 230.522 112.882 227.687 117.038 224.386C119.298 222.593 121.361 220.672 123.204 218.64C123.88 217.886 124.46 217.207 124.972 216.569C126.113 215.151 127.151 213.691 128.08 212.193C132.49 205.077 134.327 197.254 133.416 189.472C131.771 175.437 121.616 162.938 105.562 155.173C96.2995 150.684 85.5659 148.078 74.4659 147.623C73.3203 147.572 72.1416 147.548 70.9549 147.548Z" fill="#371A45"/>
<path d="M70.9339 241.632C57.9273 241.637 45.2074 238.842 34.3645 233.598C3.95788 218.885 -4.38726 188.857 15.7636 166.657C19.5427 162.484 24.1886 158.767 29.5343 155.638C30.1031 155.299 30.7355 154.943 31.3998 154.586C33.0598 153.683 34.8034 152.824 36.5708 152.04C44.7364 148.438 53.868 146.16 63.3458 145.361C64.852 145.233 66.3675 145.143 67.8538 145.093C81.8839 144.617 95.7571 147.415 107.462 153.082C124.396 161.274 135.106 174.46 136.841 189.259C137.802 197.469 135.863 205.722 131.21 213.23C130.229 214.807 129.134 216.345 127.93 217.838C127.392 218.508 126.783 219.222 126.074 220.017C122.488 223.967 118.131 227.513 113.14 230.542C110.436 232.18 107.557 233.657 104.531 234.959C103.441 235.424 102.322 235.874 101.2 236.297C91.8353 239.805 81.4599 241.634 70.9339 241.632ZM70.9564 147.866C69.9885 147.866 69.014 147.883 68.0328 147.916C66.6393 147.963 65.2127 148.047 63.79 148.168C54.8657 148.921 46.2678 151.067 38.5795 154.46C36.9142 155.197 35.2741 156.008 33.7016 156.861C33.0784 157.195 32.4977 157.523 31.9646 157.841C26.9271 160.788 22.5491 164.29 18.9882 168.221C0.0173397 189.121 7.87323 217.392 36.5018 231.245C55.2619 240.324 79.3718 241.297 99.4246 233.784C100.485 233.386 101.546 232.961 102.567 232.525C107.821 230.263 112.588 227.447 116.714 224.167C118.959 222.385 121.006 220.476 122.837 218.457C123.509 217.708 124.085 217.033 124.593 216.4C131.154 208.285 134.088 198.88 132.986 189.491C131.351 175.553 121.269 163.141 105.323 155.429C96.1253 150.971 85.4664 148.383 74.4435 147.931C73.2992 147.894 72.1272 147.866 70.9551 147.866H70.9564Z" fill="#371A45"/>
<path d="M134.202 201.383C117.215 232.513 64.1516 241.614 36.955 215.018C18.4522 196.923 28.4348 169.727 53.3788 157.864C71.5328 149.231 94.4296 146.602 120.485 163.509C120.485 163.509 130.429 172.293 132.599 180.285C134.77 188.276 135.02 196.313 135.02 196.313L134.202 201.383Z" fill="#F47B2B"/>
<path d="M36.955 215.017C64.1504 241.613 117.215 232.511 134.202 201.384L134.367 200.356C103.838 221.472 55.7482 222.909 27.5664 196.387C28.2466 202.984 31.2458 209.432 36.955 215.017Z" fill="#A5592A"/>
<path d="M78.1278 236.79C75.5589 236.79 72.9927 236.668 70.4456 236.425C54.4023 234.887 40.4805 228.759 30.1956 218.704C20.7327 209.451 17.1687 197.594 20.1613 185.318C23.4176 171.961 34.2289 159.765 49.0829 152.705C57.4214 148.737 65.9044 146.255 74.2947 145.318L74.467 145.299L74.6407 145.306C86.3057 145.785 97.5851 148.525 107.319 153.243C124.187 161.402 134.853 174.537 136.582 189.279C137.54 197.457 135.609 205.677 130.974 213.155C129.997 214.726 128.907 216.258 127.707 217.745C127.17 218.414 126.563 219.125 125.851 219.917C123.912 222.052 121.744 224.072 119.368 225.957L119.175 226.088C107.136 233.024 92.5257 236.79 78.1278 236.79ZM74.6301 147.758C66.7702 148.658 58.791 151.013 50.9139 154.758C36.8224 161.458 26.56 173.043 23.468 185.747C20.6399 197.349 23.9851 208.534 32.8818 217.238C42.6112 226.751 55.7508 232.546 70.8818 233.996C86.7196 235.516 103.523 231.953 116.992 224.22C119.211 222.454 121.236 220.563 123.049 218.565C123.724 217.813 124.302 217.135 124.812 216.5C125.952 215.087 126.989 213.631 127.918 212.138C132.315 205.043 134.147 197.243 133.238 189.483C131.597 175.491 121.474 163.024 105.464 155.279C96.2763 150.828 85.6375 148.233 74.6301 147.758Z" fill="#371A45"/>
<path d="M38.928 233.243C46.6729 229.595 47.3764 220.33 40.4992 212.548C33.622 204.767 21.7684 201.416 14.0235 205.064C6.27852 208.712 5.57507 217.977 12.4523 225.759C19.3295 233.54 31.1831 236.891 38.928 233.243Z" fill="white"/>
<path d="M31.8852 236.108C23.9485 236.108 15.134 232.054 9.92587 225.424C5.97604 220.392 4.78141 214.875 6.64694 210.279C7.92775 207.123 10.5371 204.731 14.1939 203.361C23.3067 199.949 36.2514 204.213 43.0506 212.869C47.0004 217.898 48.195 223.42 46.3308 228.013C45.0487 231.169 42.438 233.562 38.7825 234.932C36.6448 235.72 34.2799 236.123 31.8852 236.108ZM13.283 224.018C19.0679 231.383 29.7161 235.149 37.0164 232.417C39.7093 231.408 41.6464 229.61 42.621 227.21C44.163 223.408 43.0704 218.573 39.6947 214.275C33.9086 206.909 23.2617 203.144 15.9613 205.876C13.2684 206.884 11.3313 208.683 10.3581 211.083C8.81477 214.885 9.90863 219.72 13.283 224.018Z" fill="#371A45"/>
<path d="M33.1913 233.23C39.3583 230.101 39.6999 222.672 33.9544 216.638C28.2089 210.603 18.552 208.247 12.385 211.376C6.21805 214.505 5.8764 221.934 11.6219 227.969C17.3674 234.004 27.0244 236.359 33.1913 233.23Z" fill="white"/>
<path d="M26.8498 234.771C22.8947 234.771 18.6943 233.469 15.0839 231.092C7.70265 226.228 5.12645 218.334 9.34411 213.496C11.089 211.487 13.7368 210.26 16.9958 209.938C21.4216 209.503 26.3314 210.809 30.4655 213.536C37.8468 218.402 40.4216 226.295 36.2053 231.133C34.4591 233.136 31.8126 234.366 28.5536 234.688C27.9888 234.743 27.4196 234.771 26.8498 234.771ZM18.7022 210.149C18.1497 210.149 17.5977 210.176 17.0502 210.231C13.9118 210.54 11.3648 211.724 9.68486 213.651C5.5746 218.373 8.11368 226.097 15.3544 230.87C19.3997 233.536 24.1861 234.821 28.4992 234.394C31.6363 234.084 34.1833 232.901 35.8632 230.973C39.9735 226.252 37.4357 218.528 30.195 213.755C26.6589 211.425 22.5553 210.149 18.7022 210.149Z" fill="#371A45"/>
<g opacity="0.35">
<path d="M37.7609 222.538C36.8248 220.11 34.9765 217.862 32.5899 216.021C34.0855 221.685 29.7035 226.087 22.2944 226.052C17.5053 226.032 12.5544 224.162 8.87109 221.309C8.96258 221.666 9.08456 222.032 9.22511 222.4C11.6117 228.579 19.933 233.619 27.8141 233.656C35.6952 233.693 40.1448 228.716 37.7609 222.538Z" fill="#371A45"/>
</g>
<path d="M27.5215 235.804C21.2474 235.804 14.1765 232.394 9.74004 226.795C6.39615 222.576 5.29434 217.87 6.79392 214.204C7.74856 211.868 9.67242 210.112 12.3627 209.125C19.4827 206.512 29.5236 210.093 35.221 217.279C38.5649 221.499 39.6654 226.206 38.1671 229.871C37.2111 232.208 35.2873 233.964 32.5984 234.95C31.0214 235.521 29.2822 235.814 27.5215 235.804ZM17.4368 210.721C16.1989 210.711 14.9751 210.914 13.8649 211.314C12.0259 211.991 10.6934 213.23 10.0079 214.905C8.76817 217.937 9.75463 221.922 12.6437 225.569C17.3705 231.533 25.6375 234.764 31.0908 232.761C32.9285 232.084 34.2624 230.845 34.9479 229.17C36.1876 226.139 35.2011 222.153 32.312 218.506C28.5332 213.74 22.4898 210.721 17.4368 210.721Z" fill="#371A45"/>
<g opacity="0.5">
<path d="M47.1702 172.491C47.1702 172.491 71.1688 162.607 92.4877 166.264L92.554 166.276C97.0379 167.055 101.157 168.692 104.487 171.019C108.898 174.089 111.321 176.676 113.335 179.015C119.451 186.127 120.495 190.296 120.495 190.296C122.803 183.998 122.257 178.3 117.242 172.338C116.745 171.751 116.205 171.161 115.622 170.566C115.489 170.428 115.357 170.295 115.211 170.161C115.211 170.161 115.211 170.155 115.202 170.153C113.559 168.705 111.799 167.33 109.931 166.035C103.32 161.447 92.9399 156.266 80.7046 157.262C57.8277 159.124 45.7289 172.115 47.1702 172.491Z" fill="white"/>
</g>
<g opacity="0.5">
<path d="M47.2985 204.796C51.8291 203.775 54.1812 199.823 52.552 195.969C50.9228 192.115 45.9293 189.818 41.3987 190.839C36.8681 191.86 34.516 195.811 36.1452 199.665C37.7744 203.519 42.7679 205.816 47.2985 204.796Z" fill="white"/>
</g>
<g opacity="0.5">
<path d="M50.5485 213.456C52.4617 213.152 53.6185 211.585 53.1324 209.958C52.6464 208.33 50.7014 207.258 48.7883 207.562C46.8751 207.867 45.7183 209.433 46.2044 211.061C46.6904 212.688 48.6354 213.761 50.5485 213.456Z" fill="white"/>
</g>
<path d="M238.791 69.8623C238.018 75.9732 236.023 81.9684 232.868 87.6568C224.905 102.018 209.665 114.254 188.794 121.141C167.885 128.045 145.172 128.31 125.113 123.159C117.224 121.132 109.782 118.278 103.02 114.686C124.02 110.831 148.291 104.612 173.41 96.3188C198.529 88.0256 220.952 78.8283 238.791 69.8623Z" fill="#FFB200"/>
<path d="M173.411 96.3188C198.527 88.0265 220.952 78.8283 238.785 69.8623C238.469 72.405 237.937 74.9309 237.194 77.4257C223.463 84.7036 201.533 93.6899 176 102.121C151.547 110.196 128.742 116.12 112.323 118.993C109.099 117.704 105.991 116.266 103.02 114.686C124.022 110.831 148.292 104.612 173.411 96.3188Z" fill="#D66B09"/>
<path d="M235.31 45.7268C221.388 53.9484 193.874 65.4571 161.012 76.3086C128.15 87.1601 98.1439 94.6384 80.4883 96.8424C78.6307 94.6229 76.9639 92.3212 75.4977 89.9507C75.4287 89.8374 75.3585 89.7271 75.2895 89.6109C74.6416 88.552 74.0388 87.4873 73.481 86.4168C72.1829 83.9383 71.1037 81.4016 70.2498 78.8224C70.2127 78.7178 70.1795 78.6172 70.1477 78.5126C66.659 67.7216 67.1808 56.4462 71.6592 45.8517C73.8001 40.7671 76.8163 35.9015 80.6355 31.3714C89.5756 20.7641 102.67 12.3591 118.224 7.24373C119.83 6.71524 121.445 6.2245 123.069 5.7715C144.836 -0.290661 168.143 0.574671 188.159 7.03853C188.284 7.08112 188.41 7.11887 188.538 7.16436C197.293 10.023 205.329 13.9353 212.308 18.7379C215.783 21.1302 218.973 23.7336 221.844 26.5201C222.161 26.8231 222.471 27.1328 222.78 27.4416C223.037 27.6952 223.287 27.9507 223.535 28.2092C225.622 30.3815 227.518 32.6488 229.211 34.9973C229.85 35.8781 230.461 36.7744 231.044 37.6862C231.204 37.9359 231.363 38.1866 231.516 38.4392C232.987 40.8085 234.254 43.2424 235.31 45.7268Z" fill="#FFB200"/>
<path d="M231.045 37.688C231.206 37.9358 231.364 38.1855 231.52 38.4372C232.989 40.807 234.256 43.2412 235.312 45.7257C221.39 53.9473 193.877 65.457 161.014 76.3075C128.152 87.1581 98.1447 94.6373 80.4918 96.8413C78.6335 94.6217 76.9659 92.3201 75.4985 89.9496C75.4282 89.8373 75.3659 89.726 75.293 89.6127C92.0323 88.2576 122.581 81.0252 156.079 69.9637C190.901 58.4676 219.372 45.9899 231.045 37.688Z" fill="#D66B09"/>
<path d="M69.1033 68.7172C68.6645 68.7172 68.2455 68.7104 67.8438 68.695L68.0718 65.4785C79.8311 65.9228 110.488 58.8269 142.611 48.2222C180.947 35.5645 205.75 23.3792 210.437 17.8853L214.181 19.5878C208.214 26.586 179.529 39.567 144.428 51.157C112.273 61.7762 82.402 68.7172 69.1033 68.7172Z" fill="#D66B09"/>
<path d="M71.9857 47.4421L71.332 44.2556C84.514 42.827 107.339 37.1065 130.9 29.3272C155.59 21.1753 176.967 12.1745 186.686 5.8374L189.625 8.23981C179.599 14.7792 157.793 23.9842 132.721 32.262C108.816 40.1555 85.5429 45.9708 71.9857 47.4421Z" fill="#D66B09"/>
<path d="M70.2773 80.119H70.1367L70.1579 76.8987H70.2905C83.8424 76.8987 115.4 69.4824 148.924 58.4112C184.211 46.7602 213.851 33.6321 221.002 26.4878L224.563 28.3878C216.89 36.0558 187.223 49.301 150.743 61.346C116.698 72.5885 84.4059 80.119 70.2773 80.119Z" fill="#D66B09"/>
<path d="M125.187 123.962L125.109 123.163L124.695 122.412L124.854 122.366L125.029 122.356C136.648 121.744 158.771 116.524 181.39 109.056C204.133 101.547 223.562 93.1263 232.094 87.0835L233.63 88.2392C224.929 94.4069 205.256 102.952 182.299 110.529C159.111 118.178 137.228 123.329 125.187 123.962Z" fill="#D66B09"/>
<path d="M153.558 128.371C134.909 128.378 116.736 124.065 101.657 116.055L97.6523 113.925L102.457 113.043C124.069 109.075 148.28 102.757 172.456 94.7755C196.633 86.7939 219.112 77.6963 237.466 68.4661L241.546 66.416L241.092 70.0167C238.201 93.0003 218.524 113.187 189.742 122.685C178.371 126.436 166.036 128.374 153.558 128.371ZM108.541 115.388C132.176 126.422 162.106 128.092 187.829 119.598C213.551 111.105 231.616 93.5927 235.866 73.3503C218.111 81.9649 196.963 90.4024 174.368 97.8622C151.774 105.322 129.132 111.346 108.541 115.388Z" fill="#371A45"/>
<path d="M236.484 30.2827C236.564 30.4124 236.626 30.5476 236.669 30.6863L236.484 30.2827Z" fill="#D66B09"/>
<path d="M280.777 31.8927C285.948 40.2353 268.905 54.7184 238.784 69.8618C220.95 78.8277 198.526 88.026 173.409 96.3183C148.293 104.611 124.02 110.83 103.018 114.686C67.549 121.198 41.4024 120.977 36.2341 112.631C31.5391 105.054 45.1573 92.4185 70.2471 78.819C71.1023 81.3985 72.1825 83.9355 73.481 86.4144C66.5439 90.5552 63.1284 93.8413 64.3151 95.7559C65.523 97.7063 71.3516 97.9821 80.491 96.8409C98.1425 94.637 128.153 87.1558 161.012 76.3072C193.872 65.4586 221.384 53.948 235.31 45.7254C242.512 41.4665 246.08 38.0942 244.871 36.1428C243.685 34.2292 238.05 33.9302 229.212 34.9968C227.521 32.6488 225.627 30.3818 223.541 28.2097C254.092 23.4358 276.082 24.3157 280.777 31.8927Z" fill="#FFCC4D"/>
<path d="M68.3513 103.523C61.7642 103.523 56.7418 102.525 55.0924 99.8547C52.7257 96.0353 58.1234 90.279 71.1356 82.7456L73.1855 84.6379C56.8691 94.0859 57.5174 97.9111 58.1035 98.8587C60.1414 102.15 76.1356 102.39 107.254 95.5194C124.375 91.7367 143.733 86.3337 163.236 79.894C182.738 73.4544 201.078 66.4117 216.271 59.5249C243.895 46.9988 254.205 38.0745 252.169 34.7855C251.581 33.8378 248.076 30.9563 227.58 33.6627L226.989 31.2854C243.33 29.1269 252.814 29.97 255.181 33.7904C259.783 41.2174 233.871 54.3871 218.015 61.5769C202.7 68.5189 184.227 75.6119 164.595 82.097C144.962 88.5822 125.469 94.0181 108.21 97.8318C96.7704 100.357 80.0801 103.523 68.3513 103.523Z" fill="#FFEC90"/>
<path d="M63.5668 111.953C54.2578 111.953 46.6326 110.573 44.1452 106.558C39.5351 99.1177 55.695 88.0707 70.065 80.1182L72.0645 82.0434C53.6585 92.2328 44.3534 101.026 47.159 105.564C48.8256 108.254 55.0851 109.666 64.8317 109.549C74.947 109.424 88.6593 107.68 104.476 104.505C123.974 100.594 145.903 94.6885 167.893 87.429C189.883 80.1695 210.436 72.0466 227.335 63.9411C241.052 57.3592 251.901 50.9989 258.711 45.5349C265.26 40.28 267.95 35.9049 266.283 33.216C263.473 28.6784 248.282 27.9766 225.644 31.3363L224.981 28.9697C242.653 26.3456 264.687 24.7805 269.295 32.22C275.539 42.3001 243.299 59.174 229.148 65.9602C212.108 74.1335 191.396 82.3183 169.254 89.6291C147.111 96.9399 125.011 102.89 105.346 106.834C95.5367 108.803 77.6319 111.953 63.5668 111.953Z" fill="#FFEC90"/>
<path d="M61.1944 120.954C46.672 120.954 37.2595 118.395 34.1211 113.329C27.245 102.232 52.9381 86.0926 68.866 77.4596L71.6796 75.9351L72.5043 78.4207C73.3377 80.9298 74.3882 83.3979 75.6493 85.8099L76.2473 86.9521L74.9505 87.7264C65.8244 93.1749 66.4237 95.045 66.4304 95.0585C66.437 95.0721 68.0214 96.6779 80.099 95.1718C98.0979 92.9242 128.735 85.1053 160.05 74.7639C191.365 64.4225 219.648 52.7918 233.845 44.4086C243.369 38.781 242.763 36.8587 242.752 36.8422C242.742 36.8258 241.212 35.2664 229.586 36.6699L227.94 36.8722L227.159 35.7901C225.512 33.5057 223.667 31.3001 221.636 29.1868L219.622 27.0922L223.05 26.557C242.448 23.5264 276.015 20.0999 282.891 31.203C288.46 40.1913 272.863 54.7935 240.101 71.2648C221.517 80.6073 198.786 89.8065 174.366 97.8704C149.946 105.934 125.467 112.32 103.586 116.337C86.751 119.42 72.4406 120.954 61.1944 120.954ZM68.8846 81.6914C46.2318 94.3529 34.5759 105.842 38.3494 111.933C42.7685 119.067 67.332 119.492 102.455 113.044C124.067 109.075 148.278 102.757 172.454 94.7759C196.63 86.7943 219.109 77.6967 237.464 68.4665C267.296 53.4713 283.074 39.7238 278.658 32.5911C274.884 26.4999 255.368 25.3025 227.383 29.3591C228.47 30.5936 229.5 31.8541 230.472 33.1408C240.113 32.1129 245.374 32.8505 246.981 35.4465C248.704 38.2225 245.455 41.9074 236.771 47.0423C222.067 55.7247 194.104 67.2411 161.97 77.8506C129.836 88.4601 99.5206 96.1842 80.8759 98.5112C69.8512 99.8856 63.9178 99.2323 62.1968 96.4543C60.5912 93.8612 63.3052 90.488 70.7302 85.8806C70.0553 84.5032 69.4375 83.1026 68.8859 81.6875L68.8846 81.6914Z" fill="#371A45"/>
<g opacity="0.41">
<path d="M235.314 45.7246C233.692 46.6822 231.892 47.6824 229.913 48.7252C229.118 47.0797 228.214 45.4458 227.215 43.8303C227.056 43.5787 226.898 43.3299 226.739 43.0821C226.158 42.1684 225.548 41.2714 224.908 40.3913C223.215 38.0427 221.319 35.7751 219.232 33.6022C218.984 33.3437 218.731 33.0892 218.478 32.8346C215.368 29.7002 211.861 26.7864 208.003 24.1319C200.925 19.2577 192.759 15.3011 183.857 12.4325C162.349 5.48856 137.035 5.00362 113.922 12.6367C99.0557 17.5238 86.4219 25.4215 77.5195 35.3928C86.3541 22.9265 100.702 13.0061 118.232 7.24245C141.34 -0.386793 166.664 0.0903983 188.162 7.03725C197.065 9.90741 205.232 13.8653 212.312 18.7405C216.169 21.3944 219.676 24.3068 222.787 27.4393C223.052 27.6949 223.293 27.9523 223.541 28.2137C225.63 30.3849 227.526 32.6512 229.219 34.9989C229.856 35.8823 230.466 36.7793 231.048 37.6898C231.213 37.9385 231.37 38.1863 231.523 38.4418C232.991 40.81 234.257 43.2423 235.314 45.7246Z" fill="white"/>
</g>
<path d="M79.3328 98.7046L78.512 97.725C76.6047 95.4456 74.8923 93.0823 73.3848 90.6485C72.6436 89.4521 71.9462 88.2286 71.3151 87.0168C69.9851 84.4711 68.878 81.8663 68.0004 79.2181C58.092 49.3158 78.8157 18.3971 117.272 5.70462C155.728 -6.98789 201.218 2.06519 225.435 27.2411C227.58 29.4715 229.529 31.7992 231.269 34.2102C232.096 35.3534 232.893 36.542 233.636 37.7403C235.144 40.1739 236.445 42.6734 237.53 45.2243L237.994 46.321L236.772 47.0421C222.069 55.7245 194.106 67.241 161.971 77.8505C129.837 88.46 99.5221 96.1841 80.8774 98.511L79.3328 98.7046ZM153.477 3.38158C141.649 3.3813 129.957 5.22434 119.184 8.78748C82.7562 20.814 63.1264 50.0998 72.5124 78.4215C73.346 80.9303 74.3965 83.398 75.6574 85.8098C76.2567 86.9616 76.917 88.1183 77.6197 89.2517C78.8284 91.2073 80.1769 93.1151 81.6597 94.9674C99.8376 92.4798 129.624 84.8118 160.057 74.7637C190.49 64.7156 218.051 53.4489 232.614 45.1285C231.688 43.0914 230.617 41.0909 229.406 39.1351C228.702 37.9987 227.948 36.873 227.163 35.7889C225.515 33.5036 223.67 31.2971 221.638 29.1828C205.669 12.5837 179.931 3.38158 153.477 3.38158Z" fill="#371A45"/>
<g opacity="0.25">
<path d="M171.866 96.8277C147.294 104.87 123.589 110.908 103.019 114.687C67.5512 121.198 41.4007 120.974 36.2323 112.632C31.5427 105.054 45.1596 92.4207 70.2467 78.8203C71.1036 81.3999 72.1842 83.9371 73.4819 86.4166C66.5435 90.5555 63.1267 93.8407 64.3147 95.7562C65.5252 97.7086 71.3538 97.9825 80.4905 96.8432C92.1995 95.3807 109.35 91.5951 129.168 86.044C128.691 87.9286 128.903 89.6476 129.831 91.1615C133.708 97.4124 149.353 99.1111 171.866 96.8277Z" fill="#371A45"/>
</g>
<g opacity="0.3">
<path d="M84.5898 27.0959C84.912 26.7746 85.2382 26.4532 85.5803 26.1348C85.2422 26.4513 84.912 26.7697 84.5898 27.0959Z" fill="#293856"/>
</g>
<g opacity="0.3">
<path d="M86.7383 25.0478C87.4914 24.358 88.2697 23.6804 89.0732 23.0151C88.2732 23.6811 87.4949 24.3586 86.7383 25.0478Z" fill="#293856"/>
</g>
<g opacity="0.3">
<path d="M94.1131 19.1523C93.2777 19.7421 92.4601 20.3413 91.6602 20.9498C92.4583 20.3374 93.276 19.7383 94.1131 19.1523Z" fill="#293856"/>
</g>
<g opacity="0.3">
<path d="M95.4492 18.2332C96.3495 17.6263 97.271 17.031 98.2124 16.4541C97.271 17.03 96.3495 17.6292 95.4492 18.2332Z" fill="#293856"/>
</g>
<g opacity="0.25">
<path d="M238.791 69.8633C238.018 75.9742 236.023 81.9694 232.868 87.6578C224.905 102.019 209.665 114.255 188.794 121.142C167.885 128.046 145.172 128.311 125.113 123.16C117.224 121.133 109.782 118.279 103.02 114.687C124.02 110.832 148.291 104.613 173.41 96.3198C198.529 88.0265 220.952 78.8292 238.791 69.8633Z" fill="#371A45"/>
</g>
<g opacity="0.25">
<path d="M235.314 45.7282C221.392 53.9469 193.875 65.4566 161.012 76.3071C128.15 87.1577 98.1466 94.6398 80.4898 96.8428C78.6312 94.6234 76.9652 92.321 75.5018 89.9492C75.4315 89.8369 75.3625 89.7275 75.2936 89.6104C74.6413 88.5534 74.0375 87.4887 73.4824 86.4162C72.184 83.9375 71.1047 81.4005 70.2512 78.8209C70.2141 78.7154 70.1823 78.6186 70.1505 78.5131C68.933 74.7642 68.1997 70.9403 67.9601 67.0915C67.3589 57.4646 69.81 47.8664 75.1224 39.0444C80.4348 30.2224 88.4652 22.4147 98.5881 16.2295C96.5269 18.1307 94.6205 20.1187 92.8789 22.1832C83.8476 32.8948 79.4308 45.3394 80.2007 57.9048C80.441 61.7536 81.1743 65.5775 82.3911 69.3264C82.4229 69.4319 82.4547 69.5326 82.4918 69.6342L82.5515 69.8065C86.3263 80.4828 101.673 86.6059 116.097 83.3324C132.312 79.6484 152.198 74.079 173.254 67.1253C197.677 59.0547 219.147 50.6289 234.282 43.4536C234.646 44.2115 234.988 44.9674 235.314 45.7282Z" fill="#371A45"/>
</g>
</svg>
